<svg width="15" height="15" viewBox="0 0 15 15" xmlns="http://www.w3.org/2000/svg"><title>82AC7A01-4ED7-44CB-9CB1-9ACF36CDB18F</title><g fill="#fff"><path d="M1.519 14.977c-.449 0-.748-.15-1.047-.449-.598-.598-.598-1.495 0-2.093L12.435.472c.598-.598 1.495-.598 2.093 0 .598.598.598 1.495 0 2.093L2.565 14.528c-.299.3-.598.449-1.046.449z"/><path d="M13.481 14.977c-.448 0-.747-.15-1.046-.449L.472 2.565c-.598-.598-.598-1.495 0-2.093.598-.598 1.495-.598 2.093 0l11.963 11.963c.598.598.598 1.495 0 2.093-.299.3-.598.449-1.047.449z"/></g></svg>