<svg width="65" height="60" viewBox="0 0 65 60" xmlns="http://www.w3.org/2000/svg"><title>Layer 1</title><g class="style-scope ytd-topbar-logo-renderer"><path fill="#36d6ae" class="style-scope ytd-topbar-logo-renderer" d="M62.644 15.048a7.885 7.885 0 0 0-5.56-5.56c-4.9-1.31-24.56-1.31-24.56-1.31s-19.65 0-24.56 1.31c-2.7.72-4.83 2.85-5.56 5.56-1.31 4.9-1.31 15.13-1.31 15.13s0 10.23 1.31 15.13c.72 2.7 2.85 4.83 5.56 5.56 4.91 1.31 24.56 1.31 24.56 1.31s19.66 0 24.56-1.31c2.7-.72 4.83-2.85 5.56-5.56 1.31-4.9 1.31-15.13 1.31-15.13s0-10.23-1.31-15.13z"/><path class="style-scope ytd-topbar-logo-renderer" fill="#FFF" d="M26.244 39.608l16.33-9.43-16.33-9.43z"/></g></svg>