<svg id="Layer_1" xmlns="http://www.w3.org/2000/svg" width="30.9" height="30.9" viewBox="0 0 30.9 30.9"><style>.st0{opacity:.5;fill:#fff}.st1,.st2{opacity:.7;fill:#fff}.st2{opacity:.6}.st3,.st4{opacity:.65;fill:#fff}.st4{opacity:.3}.st5{fill:#6ccad0}</style><path class="st5" d="M16.2 8.2c0-2.9-1.7-7.4-5.1-7.4-1.1 0-2.2.5-2.8 1.3-.7.9-.9 2-.9 3 0 2.7 1.6 7.2 5.1 7.2 1 0 2.1-.5 2.8-1.1.9-.9.9-2.2.9-3z"/><path class="st5" d="M20.3.4l-.9.5h-2.5c.9.8 2.9 2.4 2.9 5.5 0 3-1.7 4.4-3.4 5.7-.5.5-1.1 1.1-1.1 2 0 .9.6 1.4 1.1 1.7l1.5 1.1c1.8 1.5 3.4 2.9 3.4 5.7 0 3.4-3 6.9-8.7 7.5.9.2 1.9.3 2.9.3 8.5 0 15.4-6.9 15.4-15.4 0-6.8-4.4-12.5-10.6-14.6z"/><path class="st5" d="M14.1 18.9h-.9c-.4 0-2.6.1-4.3.6-.9.3-3.5 1.3-3.5 4.2 0 2.9 2.8 4.9 7.1 4.9 3.9 0 5.9-1.9 5.9-4.4.1-2-1.3-3.1-4.3-5.3z"/><path class="st5" d="M4.9 19.6c2.5-1.5 5.9-1.7 7.7-1.9-.6-.7-1.2-1.5-1.2-2.8 0-.7.2-1.1.4-1.6-.4 0-.9.1-1.3.1-4.3 0-6.7-3.2-6.7-6.4 0-1 .3-2.1.8-3.1C1.8 6.8 0 10.7 0 15c0 2.9.8 5.5 2.1 7.8.4-1.1 1.3-2.3 2.8-3.2z"/></svg>