<svg xmlns="http://www.w3.org/2000/svg" width="300" height="300" viewBox="0 0 100 150"><g fill-rule="evenodd"><path d="M45.847 34.956C15.55 39.084-2.49 69.305 17.304 82.769c14.71 10.004 51.27 10.403 67.187.733 25.23-15.326-4.877-53.146-38.644-48.546M27.892 62.72c6.12 1.817 8.816 9.063 4.386 11.785-6.894 4.236-17.377-5.378-11.69-10.721 1.752-1.646 4.162-1.997 7.304-1.064m51.96-.015c1.647.689 2.991 2.725 2.994 4.537.008 7.479-13.192 11.345-15.252 4.467-1.687-5.63 6.296-11.495 12.257-9.004" fill="#38424a"/><path d="M43.154 16.974C8.467 20.32-14.294 45.587-4.283 69.634c13.451 32.312 73.958 39.963 102.078 12.909 30.702-29.537-3.44-70.507-54.64-65.57m19.777 18.905c25.468 6.819 39.628 31.72 25.483 44.816C72.876 95.08 24.143 93.829 12.318 78.74c-16.074-20.511 20-51.058 50.614-42.862m-82.482 50.75c.011 18.18 7.473 27.084 30.197 36.03 6.594 2.596 6.363 2.798 5.186-4.53C13.29 102.289 7.9 94.102-.753 92.927c-8.49-1.152-12.973-3.497-16.84-8.807-.957-1.314-1.79-2.39-1.85-2.39-.06 0-.109 2.205-.107 4.9m140.797-4.164c0 2.446-9.682 9.316-13.896 9.86-8.272 1.067-9.307 1.46-12.372 4.7-4.336 4.587-7.768 14.044-8.855 24.404-.393 3.749-.685 3.674 5.261 1.35 22.48-8.79 29.885-17.15 30.551-34.493.154-3.985.084-5.726-.236-5.924-.249-.154-.453-.108-.453.103" fill="#fbfbfb"/><path d="M74.332 62.685c-6.947 1.914-9.085 9.85-3.253 12.078 4.801 1.833 11.477-2.526 11.477-7.494 0-3.687-3.797-5.803-8.224-4.584m-52.72.756c-5.686 3.832-.008 12.532 7.695 11.792 2.424-.233 3.95-1.292 4.7-3.26 2.101-5.523-7.279-11.98-12.395-8.532" fill="#a4d9e1"/><path d="M120.905 80.414c-1.807 4.28-9.77 8.824-16.458 9.389-1.207.102-3.997 2.462-3.499 2.96.262.262 6.67-.7 8.5-1.275 5.651-1.778 12.486-8.13 12.125-11.268l-.126-1.091-.542 1.285m-140.058.203c0 1.43 3.12 5.523 5.69 7.464 3.782 2.856 6.093 3.653 13.445 4.636l1.734.232-.853-1.198c-1.13-1.587-1.258-1.65-4.566-2.235-6.073-1.073-11.337-4.001-13.944-7.755-1.318-1.898-1.506-2.041-1.506-1.144" fill="#94949c"/><path d="M-11.235 63.229c-2.97 3.168-6.866 10.296-7.637 13.973-1.027 4.895 6.123 10.717 15.12 12.31 3.492.62 3.414.844.917-2.64-5.017-6.996-8.04-16.238-7.339-22.435.301-2.665.303-2.662-1.06-1.208m35.586-.817c.497.096 1.217.092 1.6-.008.382-.1-.025-.18-.905-.174-.88.004-1.193.086-.695.182m88.175 3.8c-.033 6.874-2.324 13.482-7.055 20.35-1.224 1.777-2.225 3.279-2.225 3.338 0 .245 4.747-.641 6.6-1.231 4.892-1.56 9.34-4.884 11.07-8.276 1.312-2.573-.446-7.6-4.94-14.12-3.366-4.883-3.427-4.884-3.45-.061m-81.68-1.958c0 .069.585.654 1.3 1.3l1.3 1.175-1.175-1.3c-1.095-1.212-1.425-1.484-1.425-1.175" fill="#84a0a8"/><path d="M50.552 90.816c.61.092 1.51.09 2-.005.492-.095-.005-.171-1.105-.168-1.1.003-1.503.08-.895.173" fill="#c4ccce"/><path d="M84.247 48.129c.86.88 1.652 1.6 1.762 1.6.11 0-.503-.72-1.362-1.6-.859-.88-1.652-1.6-1.762-1.6-.11 0 .503.72 1.362 1.6" fill="#d4d4d4"/></g></svg>