<?xml version="1.0" encoding="UTF-8" standalone="no"?>
<svg
   xmlns:dc="http://purl.org/dc/elements/1.1/"
   xmlns:cc="http://creativecommons.org/ns#"
   xmlns:rdf="http://www.w3.org/1999/02/22-rdf-syntax-ns#"
   xmlns:svg="http://www.w3.org/2000/svg"
   xmlns="http://www.w3.org/2000/svg"
   xmlns:sodipodi="http://sodipodi.sourceforge.net/DTD/sodipodi-0.dtd"
   xmlns:inkscape="http://www.inkscape.org/namespaces/inkscape"
   width="110"
   height="104"
   viewBox="0 0 100 104"
   version="1.1"
   id="svg17"
   sodipodi:docname="icon.svg"
   inkscape:version="0.92.3 (2405546, 2018-03-11)">
  <metadata
     id="metadata23">
    <rdf:RDF>
      <cc:Work
         rdf:about="">
        <dc:format>image/svg+xml</dc:format>
        <dc:type
           rdf:resource="http://purl.org/dc/dcmitype/StillImage" />
      </cc:Work>
    </rdf:RDF>
  </metadata>
  <defs
     id="defs21" />
  <sodipodi:namedview
     pagecolor="#ffffff"
     bordercolor="#666666"
     borderopacity="1"
     objecttolerance="10"
     gridtolerance="10"
     guidetolerance="10"
     inkscape:pageopacity="0"
     inkscape:pageshadow="2"
     inkscape:window-width="1366"
     inkscape:window-height="714"
     id="namedview19"
     showgrid="false"
     inkscape:zoom="1.0571429"
     inkscape:cx="269.12162"
     inkscape:cy="52"
     inkscape:window-x="0"
     inkscape:window-y="26"
     inkscape:window-maximized="1"
     inkscape:current-layer="discourse-logo-large" />
  <title
     id="title2">Discourse</title>
  <g
     id="discourse-logo-large"
     style="fill:none;fill-rule:nonzero">
    <path
       d="M 51.87,0 C 23.71,0 0,22.83 0,51 v 52.81 l 51.86,-0.05 c 28.16,0 51,-23.71 51,-51.87 C 102.86,23.73 80,0 51.87,0 Z"
       id="path4"
       inkscape:connector-curvature="0"
       style="fill:#000000"
       sodipodi:nodetypes="sssccs" />
    <path
       d="M 52.37,19.74 C 41.231994,19.746574 30.918903,25.612586 25.220442,35.182474 19.521981,44.752362 19.278701,56.614519 24.58,66.41 l -5.72,18.4 20.54,-4.64 c 11.761999,5.29926 25.564068,2.919176 34.871865,-6.013445 9.307796,-8.93262 12.253401,-22.625148 7.442269,-34.595102 C 76.903002,27.5915 65.300649,19.746291 52.4,19.74 Z"
       id="path6"
       inkscape:connector-curvature="0"
       style="fill:#fff9ae" />
    <path
       d="M 77.087428,70.913862 C 68.108734,82.240467 52.589535,86.031436 39.4,80.12 l -20.54,4.7 20.91,-2.47 C 53.631888,90.470188 71.380186,86.897437 81.020511,74.046229 90.660836,61.195021 89.1246,43.155992 77.45,32.12 c 8.765425,11.492443 8.616122,27.467257 -0.362572,38.793862 z"
       id="path8"
       inkscape:connector-curvature="0"
       style="fill:#00aeef" />
    <path
       d="M 75.319123,64.908843 C 67.572355,77.110651 52.534419,82.501361 38.8,78 L 18.86,84.82 39.4,80.17 C 54.028518,86.777889 71.286932,81.36883 79.527044,67.593552 87.767156,53.818273 84.370682,36.05385 71.63,26.29 c 9.916774,10.514472 11.43589,26.417036 3.689123,38.618843 z"
       id="path10"
       inkscape:connector-curvature="0"
       style="fill:#00a94f" />
    <path
       d="M 26.47,67.11 C 20.745283,53.310799 25.463025,37.387872 37.780888,28.934436 50.098751,20.481001 66.652975,21.80552 77.47,32.11 67.451823,18.962909 48.996327,15.753808 35.128244,24.74748 21.26016,33.741151 16.662498,51.900588 24.58,66.41 l -5.72,18.4 z"
       id="path12"
       inkscape:connector-curvature="0"
       style="fill:#f15d22" />
    <path
       d="M 24.58,66.41 C 17.476718,53.289474 20.514794,36.988722 31.867693,27.307993 43.220591,17.627265 59.796608,17.202886 71.63,26.29 60.27868,14.337517 41.648141,13.114343 28.831535,23.4801 16.014929,33.845857 13.315348,52.32031 22.63,65.92 l -3.76,18.9 z"
       id="path14"
       inkscape:connector-curvature="0"
       style="fill:#d0232b" />
  </g>
</svg>
