<svg id="Layer_1" xmlns="http://www.w3.org/2000/svg" width="30.9" height="30.9" viewBox="-184 185.1 30.9 30.9"><style>.st0{fill:#6ccad0}</style><path class="st0" d="M-168.6 185.1c-8.5 0-15.4 6.9-15.4 15.4s6.9 15.4 15.4 15.4 15.4-6.9 15.4-15.4c.1-8.5-6.9-15.4-15.4-15.4zm9.8 16.1c0 1.6-.2 3.2-.2 3.2s-.2 1.3-.8 1.9c-.7.8-1.6.8-2 .8-2.7.2-6.8.2-6.8.2s-5.1 0-6.6-.2c-.4-.1-1.4-.1-2.2-.8-.6-.6-.8-1.9-.8-1.9s-.2-1.6-.2-3.2v-1.5c0-1.6.2-3.2.2-3.2s.2-1.3.8-1.9c.7-.8 1.6-.8 2-.8 2.7-.2 6.8-.2 6.8-.2s4.1 0 6.8.2c.4 0 1.2 0 2 .8.6.6.8 1.9.8 1.9s.2 1.6.2 3.2v1.5z"/><path class="st0" d="M-170.6 203l5.3-2.7-5.3-2.8z"/></svg>