<svg id="Layer_1" xmlns="http://www.w3.org/2000/svg" width="30.9" height="30.9" viewBox="0 0 30.9 30.9"><style>.st0{opacity:.5;fill:#fff}.st1,.st2{opacity:.7;fill:#fff}.st2{opacity:.6}.st3,.st4{opacity:.65;fill:#fff}.st4{opacity:.3}.st5{fill:#6ccad0}</style><circle class="st5" cx="20.8" cy="12.3" r="1.3"/><path class="st5" d="M15.4 0C6.9 0 0 6.9 0 15.4s6.9 15.4 15.4 15.4 15.4-6.9 15.4-15.4C30.9 6.9 23.9 0 15.4 0zm8.4 15.4c-.3.5-.7 1-1.2 1.4-.7 1.8-2.9 5.3-8.7 5.3-7.8 0-10.3-5.7-10.3-5.7s3.5 1.7 7.3.4c-3.1-1.3-3.8-5.3-2.2-3.8 1.2 1.2 4.1 1.3 6 1.2.2-.2.4-.5.6-.8v-.1c0-2.5 2-4.5 4.5-4.5 2.4 0 4.4 1.9 4.5 4.2l2.9 1.4-3.4 1z"/></svg>