<svg id="Layer_1" xmlns="http://www.w3.org/2000/svg" width="20" height="20" viewBox="0 0 20 20"><style>.st0{fill-rule:evenodd;clip-rule:evenodd;fill:#fff}</style><path class="st0" d="M10 .2C4.5.2 0 4.7 0 10.2c0 4.4 2.9 8.2 6.8 9.5.5.1.7-.2.7-.5v-1.7c-2.8.6-3.4-1.3-3.4-1.3-.4-1.1-1.1-1.5-1.1-1.5-.9-.6.1-.6.1-.6 1 .1 1.5 1 1.5 1 .9 1.6 2.4 1.2 2.9.9.1-.6.3-1.1.6-1.3-2.1-.3-4.5-1.1-4.5-5 0-1.1.4-2 1-2.7-.1-.2-.4-1.2.1-2.6 0 0 .8-.3 2.7 1 .9-.2 1.8-.3 2.6-.3s1.7.1 2.5.3c1.9-1.3 2.7-1 2.7-1 .5 1.4.2 2.4.1 2.6.6.7 1 1.6 1 2.7 0 3.8-2.3 4.7-4.6 4.9.4.3.7.9.7 1.9v2.7c0 .3.2.6.7.5 4-1.3 6.8-5.1 6.8-9.5.1-5.5-4.4-10-9.9-10z"/></svg>