<svg xmlns="http://www.w3.org/2000/svg" width="127.6" height="101.4" viewBox="0 0 127.6 101.4"><style>.st0{fill:#f05135}.st1{fill:#083b54}.st2{fill:#6acad1}.st3{fill:#f59223}.st4{stroke:#f05135;stroke-width:2.5;stroke-miterlimit:10}.st4,.st5,.st6,.st7{fill:none}.st5,.st6,.st7,.st8{stroke-width:2.5;stroke-miterlimit:10}.st5{stroke:#083b54}.st6{stroke:#6acad1}.st7{stroke:#f59223}.st8{fill:#fdd9c8;stroke:#f05135}.st10,.st11,.st12,.st13,.st14,.st15,.st9{stroke-width:2.5;stroke-miterlimit:10}.st9{fill:#d3d5db;stroke:#083b54}.st10{fill:#e0f2f3;stroke:#6acad1}.st11{fill:#fee5cb;stroke:#f59223}.st12{stroke:#f05135}.st12,.st13,.st14,.st15{fill:#fff}.st13{stroke:#083b54}.st14{stroke:#6acad1}.st15{stroke:#f59223}.st16{fill:#e0f2f3}.st17,.st18{stroke-linejoin:round}.st17{stroke:#d3d5db;stroke-miterlimit:10;fill:#d3d5db}.st18{fill:#fff;stroke-width:2.5}.st18,.st19,.st20{stroke:#6acad1;stroke-miterlimit:10}.st19{stroke-linejoin:round;fill:#e0f2f3;stroke-width:2.5}.st20{fill:none;stroke-width:1.5}.st21{fill:#d3d5db}.st22{fill:#fff}.st23,.st24{fill:none;stroke:#f05135;stroke-miterlimit:10}.st24{stroke:#d3d5db;stroke-width:.5}.st25,.st26{stroke:#063b54}.st25,.st26,.st27,.st28{stroke-miterlimit:10}.st25{stroke-linejoin:round;fill:#083b54;stroke-width:.5}.st26{stroke-width:.7}.st26,.st27,.st28{fill:none}.st27{stroke:#d3d5db;stroke-width:.3}.st28{stroke:#6acad1;stroke-width:2.5;stroke-linejoin:round}.st29{fill:#063b54}.st30{fill:none;stroke:#f05135;stroke-width:2.5;stroke-linecap:round}.st30,.st31,.st32{stroke-miterlimit:10}.st31{stroke-linejoin:round;fill:#083b54;stroke:#063b54}.st32,.st33{fill:none;stroke:#e0f2f3}.st33{stroke:#6acad1;stroke-linecap:round}.st33,.st34,.st35{stroke-linejoin:round;stroke-miterlimit:10}.st34{stroke-width:2.5;stroke-linecap:round;fill:none;stroke:#6acad1}.st35{fill:#f05135;stroke:#f05235}.st36{stroke:#f05135;stroke-width:2;stroke-linecap:round}.st36,.st37,.st38,.st39,.st40{fill:none;stroke-miterlimit:10}.st37{stroke-linecap:round;stroke:#e0f2f3;stroke-width:1.5}.st38{stroke:#063b54;stroke-width:2.5}.st39,.st40{stroke:#fcc941;stroke-width:2}.st40{stroke:#f05135}</style><circle class="st16" cx="64" cy="50.7" r="50.7" id="Layer_3"/><g id="stuffs"><path class="st17" d="M126.3 83.1l-22.3-40H24l-22.3 40z"/><path class="st18" d="M126.3 79.1l-23.3-40H25l-23.3 40z"/><circle class="st0" cx="29.1" cy="63.3" r="2.6"/><circle class="st0" cx="40.7" cy="59.9" r="2.6"/><circle class="st0" cx="52.4" cy="54.5" r="2.6"/><circle class="st0" cx="64" cy="60.7" r="2.6"/><circle class="st0" cx="75.6" cy="57.1" r="2.6"/><circle class="st0" cx="87.3" cy="60.7" r="2.6"/><circle class="st0" cx="98.9" cy="58.1" r="2.6"/><path class="st23" d="M29.1 63.3l11.6-3.4 11.7-5.4L64 60.7l11.6-3.6 11.7 3.6 11.6-2.6"/><ellipse class="st21" cx="29.1" cy="71.1" rx="2.6" ry="1.4"/><ellipse class="st21" cx="40.7" cy="69.2" rx="2.6" ry="1.4"/><ellipse class="st21" cx="52.4" cy="66.2" rx="2.6" ry="1.4"/><ellipse class="st21" cx="64" cy="69.7" rx="2.6" ry="1.4"/><ellipse class="st21" cx="75.6" cy="67.7" rx="2.6" ry="1.4"/><ellipse class="st21" cx="87.3" cy="69.7" rx="2.6" ry="1.4"/><ellipse class="st21" cx="98.9" cy="68.2" rx="2.6" ry="1.4"/><path class="st24" d="M29.1 71.1l11.6-1.9 11.7-3L64 69.7l11.6-2 11.7 2 11.6-1.5"/><circle class="st25" cx="36.4" cy="47.5" r="2.1"/><circle class="st25" cx="46.1" cy="42.6" r="2.1"/><circle class="st25" cx="55.8" cy="33.1" r="2.1"/><circle class="st25" cx="65.4" cy="42.6" r="2.1"/><circle class="st25" cx="75.1" cy="44" r="2.1"/><circle class="st25" cx="84.8" cy="37.4" r="2.1"/><circle class="st25" cx="94.4" cy="45.4" r="2.1"/><path class="st26" d="M36.4 47.5l9.7-4.9 9.7-9.5 9.6 9.5 9.7 1.4 9.7-6.6 9.6 8"/><ellipse class="st21" cx="36.4" cy="51.9" rx="2.1" ry="1"/><ellipse class="st21" cx="46.1" cy="49.6" rx="2.1" ry="1"/><ellipse class="st21" cx="55.8" cy="44.8" rx="2.1" ry="1"/><ellipse class="st21" cx="65.4" cy="49.6" rx="2.1" ry="1"/><ellipse class="st21" cx="75.1" cy="50.2" rx="2.1" ry="1"/><ellipse class="st21" cx="84.8" cy="47.2" rx="2.1" ry="1"/><ellipse class="st21" cx="94.4" cy="50.9" rx="2.1" ry="1"/><path class="st27" d="M36.4 51.9l9.7-2.3 9.7-4.8 9.6 4.8 9.7.6 9.7-3 9.6 3.7"/></g></svg>