<svg xmlns="http://www.w3.org/2000/svg" width="101.2" height="101.4" viewBox="0 0 101.2 101.4"><style>.st0{fill:#f05135}.st1{fill:#083b54}.st2{fill:#6acad1}.st3{fill:#f59223}.st4{stroke:#f05135;stroke-width:2.5;stroke-miterlimit:10}.st4,.st5,.st6,.st7{fill:none}.st5,.st6,.st7,.st8{stroke-width:2.5;stroke-miterlimit:10}.st5{stroke:#083b54}.st6{stroke:#6acad1}.st7{stroke:#f59223}.st8{fill:#fdd9c8;stroke:#f05135}.st10,.st11,.st12,.st13,.st14,.st15,.st9{stroke-width:2.5;stroke-miterlimit:10}.st9{fill:#d3d5db;stroke:#083b54}.st10{fill:#e0f2f3;stroke:#6acad1}.st11{fill:#fee5cb;stroke:#f59223}.st12{stroke:#f05135}.st12,.st13,.st14,.st15{fill:#fff}.st13{stroke:#083b54}.st14{stroke:#6acad1}.st15{stroke:#f59223}.st16{fill:#e0f2f3}.st17,.st18{stroke-linejoin:round}.st17{stroke:#d3d5db;stroke-miterlimit:10;fill:#d3d5db}.st18{fill:#fff;stroke-width:2.5}.st18,.st19,.st20{stroke:#6acad1;stroke-miterlimit:10}.st19{stroke-linejoin:round;fill:#e0f2f3;stroke-width:2.5}.st20{fill:none;stroke-width:1.5}.st21{fill:#d3d5db}.st22{fill:#fff}.st23,.st24{fill:none;stroke:#f05135;stroke-miterlimit:10}.st24{stroke:#d3d5db;stroke-width:.5}.st25,.st26{stroke:#063b54}.st25,.st26,.st27,.st28{stroke-miterlimit:10}.st25{stroke-linejoin:round;fill:#083b54;stroke-width:.5}.st26{stroke-width:.7}.st26,.st27,.st28{fill:none}.st27{stroke:#d3d5db;stroke-width:.3}.st28{stroke:#6acad1;stroke-width:2.5;stroke-linejoin:round}.st29{fill:#063b54}.st30{fill:none;stroke:#f05135;stroke-width:2.5;stroke-linecap:round}.st30,.st31,.st32{stroke-miterlimit:10}.st31{stroke-linejoin:round;fill:#083b54;stroke:#063b54}.st32,.st33{fill:none;stroke:#e0f2f3}.st33{stroke:#6acad1;stroke-linecap:round}.st33,.st34,.st35{stroke-linejoin:round;stroke-miterlimit:10}.st34{stroke-width:2.5;stroke-linecap:round;fill:none;stroke:#6acad1}.st35{fill:#f05135;stroke:#f05235}.st36{stroke:#f05135;stroke-width:2;stroke-linecap:round}.st36,.st37,.st38,.st39,.st40{fill:none;stroke-miterlimit:10}.st37{stroke-linecap:round;stroke:#e0f2f3;stroke-width:1.5}.st38{stroke:#063b54;stroke-width:2.5}.st39,.st40{stroke:#fcc941;stroke-width:2}.st40{stroke:#f05135}</style><circle class="st16" cx="50.7" cy="50.7" r="50.7" id="Layer_3"/><g id="stuffs"><path class="st21" d="M84.1 80.6c-4.3 1-8.6 2.5-13 3-4.7.5-9.4.1-14.1.4-10.5.6-20.5 1-30.9-1.1-4.6-.9-9.2-2.1-13.4-4.2-.8-.4-1.7-1-2.6-1.6h-.2c-2.9-.6-6.3-1.4-8.8-3.3 0 .7-.1 1.5-.1 2.2 0 5.4 25.6 13.6 49.9 13.6 24.2 0 49.5-7.8 49.5-14.1 0-1.4-.1-2.8-.2-4.3-4.3 4.6-10 8-16.1 9.4z"/><ellipse class="st14" cx="50.6" cy="68.4" rx="44.2" ry="11.8"/><path class="st6" d="M99.3 71.8c0 6.3-24.1 13.3-48.4 13.3s-49-7.3-49-12.7c0-19.3 13.8-46.9 48.7-46.9s48.7 27 48.7 46.3z"/><circle class="st14" cx="50.6" cy="21.3" r="3.5"/><path class="st31" d="M50.7 37.9l3.7 7.5 8.3 1.2-6 5.9 1.4 8.2-7.4-3.9-7.4 3.9 1.4-8.2-6-5.9 8.3-1.2z"/><ellipse class="st21" cx="50.7" cy="69.3" rx="12.4" ry="1.9"/><path class="st22" d="M27.3 36.7C19.2 42 16.7 50 17.4 51.1c.8 1.2 4.3-5.5 12.5-10.9s17.9-7.4 17.1-8.5c-.7-1.1-11.5-.4-19.7 5z"/></g></svg>