<svg xmlns="http://www.w3.org/2000/svg" width="115" height="108.5" viewBox="0 0 115 108.5"><style>.st0{fill:#f05135}.st1{fill:#083b54}.st2{fill:#6acad1}.st3{fill:#f59223}.st4{stroke:#f05135;stroke-width:2.5;stroke-miterlimit:10}.st4,.st5,.st6,.st7{fill:none}.st5,.st6,.st7,.st8{stroke-width:2.5;stroke-miterlimit:10}.st5{stroke:#083b54}.st6{stroke:#6acad1}.st7{stroke:#f59223}.st8{fill:#fdd9c8;stroke:#f05135}.st10,.st11,.st12,.st13,.st14,.st15,.st9{stroke-width:2.5;stroke-miterlimit:10}.st9{fill:#d3d5db;stroke:#083b54}.st10{fill:#e0f2f3;stroke:#6acad1}.st11{fill:#fee5cb;stroke:#f59223}.st12{stroke:#f05135}.st12,.st13,.st14,.st15{fill:#fff}.st13{stroke:#083b54}.st14{stroke:#6acad1}.st15{stroke:#f59223}.st16{fill:#e0f2f3}.st17,.st18{stroke-linejoin:round}.st17{stroke:#d3d5db;stroke-miterlimit:10;fill:#d3d5db}.st18{fill:#fff;stroke-width:2.5}.st18,.st19,.st20{stroke:#6acad1;stroke-miterlimit:10}.st19{stroke-linejoin:round;fill:#e0f2f3;stroke-width:2.5}.st20{fill:none;stroke-width:1.5}.st21{fill:#d3d5db}.st22{fill:#fff}.st23,.st24{fill:none;stroke:#f05135;stroke-miterlimit:10}.st24{stroke:#d3d5db;stroke-width:.5}.st25,.st26{stroke:#063b54}.st25,.st26,.st27,.st28{stroke-miterlimit:10}.st25{stroke-linejoin:round;fill:#083b54;stroke-width:.5}.st26{stroke-width:.7}.st26,.st27,.st28{fill:none}.st27{stroke:#d3d5db;stroke-width:.3}.st28{stroke:#6acad1;stroke-width:2.5;stroke-linejoin:round}.st29{fill:#063b54}.st30{fill:none;stroke:#f05135;stroke-width:2.5;stroke-linecap:round}.st30,.st31,.st32{stroke-miterlimit:10}.st31{stroke-linejoin:round;fill:#083b54;stroke:#063b54}.st32,.st33{fill:none;stroke:#e0f2f3}.st33{stroke:#6acad1;stroke-linecap:round}.st33,.st34,.st35{stroke-linejoin:round;stroke-miterlimit:10}.st34{stroke-width:2.5;stroke-linecap:round;fill:none;stroke:#6acad1}.st35{fill:#f05135;stroke:#f05235}.st36{stroke:#f05135;stroke-width:2;stroke-linecap:round}.st36,.st37,.st38,.st39,.st40{fill:none;stroke-miterlimit:10}.st37{stroke-linecap:round;stroke:#e0f2f3;stroke-width:1.5}.st38{stroke:#063b54;stroke-width:2.5}.st39,.st40{stroke:#fcc941;stroke-width:2}.st40{stroke:#f05135}</style><circle class="st16" cx="57.1" cy="57.8" r="50.7" id="Layer_3"/><g id="stuffs"><path class="st17" d="M110.5 104.9H4.6c-1.6 0-3-1.3-3-3v-6l13-28.4c0-1.7 1.3-3 3-3h79.9c1.7 0 3 1.3 3 3l13 28.4v6c0 1.6-1.3 3-3 3z"/><path class="st18" d="M110.5 100.9H4.6c-1.6 0-3-1.3-3-3v-6l13-28.4c0-1.7 1.3-3 3-3h79.9c1.7 0 3 1.3 3 3l13 28.4v6c0 1.6-1.3 3-3 3z"/><path class="st10" d="M110.5 94.9H4.6c-1.6 0-3-1.3-3-3l13-34.4c0-1.7 1.3-3 3-3h79.9c1.7 0 3 1.3 3 3l13 34.4c0 1.6-1.3 3-3 3z"/><path class="st18" d="M91 89.3H11.4c-1.2 0-2.3-1-2.3-2.3l9.8-25.9c0-1.2 1-2.3 2.3-2.3h63.1c1.2 0 2.3 1 2.3 2.3L93.4 87c-.1 1.3-1.2 2.3-2.4 2.3z"/><ellipse class="st2" cx="98.3" cy="73.7" rx="3.3" ry="2.6"/><ellipse class="st17" cx="28.9" cy="71.1" rx="6" ry="2.8"/><ellipse class="st17" cx="45.4" cy="68" rx="6" ry="2.8"/><path class="st38" d="M28.9 71.1V41.9"/><circle class="st0" cx="28.9" cy="40.1" r="8.9"/><path class="st0" d="M49.8 66.9c0 1.5-2 2.7-4.4 2.7-2.4 0-4.4-1.2-4.4-2.7v-1.5s2.9-1.1 4.4-1.1c1.8 0 4.4 1.1 4.4 1.1v1.5z"/><ellipse class="st0" cx="45.4" cy="65.4" rx="4.4" ry="2.7"/><ellipse class="st17" cx="54.1" cy="75.9" rx="6" ry="2.8"/><path class="st1" d="M58.5 74.7c0 1.5-2 2.7-4.4 2.7-2.4 0-4.4-1.2-4.4-2.7v-1.5s2.9-1.1 4.4-1.1c1.8 0 4.4 1.1 4.4 1.1v1.5z"/><ellipse class="st1" cx="54.1" cy="73.2" rx="4.4" ry="2.7"/><path class="st1" d="M61.9 30.6h25.8V48H61.9z"/><path transform="rotate(-8.27 74.363 26.978)" class="st1" d="M61.5 25.2h25.8v3.6H61.5z"/><path class="st22" d="M68.2 29.1l-2.7.4-2-2.1 2.8-.4zm6.2-.9l-2.7.4-2-2.1 2.7-.4zm6.3-.9l-2.7.3-2-2 2.7-.4zm6.2-1l-2.7.4-2-2 2.7-.4zm-4.1 7.3h2.8l1.6-2.4h-2.7zm-6.2 0h2.7l1.6-2.4h-2.7zm-6.4 0H73l1.6-2.4h-2.7zm-6.2 0h2.7l1.6-2.4h-2.7z"/><ellipse class="st17" cx="73.3" cy="64.5" rx="10.7" ry="1.3"/><path class="st29" d="M46 15.4v9c-.5-.3-1.2-.5-1.9-.5-1.6 0-2.8.9-2.8 1.9 0 1 1.3 1.9 2.8 1.9 1.5 0 2.8-.8 2.8-1.8V17l6.6-1.8v6.9c-.5-.3-1.2-.5-1.9-.5-1.6 0-2.8.9-2.8 1.9s1.3 1.9 2.8 1.9c1.5 0 2.8-.8 2.8-1.8V13.2L46 15.4zm-7.1-8.8l-3.2.9v9c-.5-.3-1.2-.5-1.9-.5-1.6 0-2.8.9-2.8 1.9s1.3 1.9 2.8 1.9c1.5 0 2.8-.8 2.8-1.8V9l2.3-.6V6.6z"/><path class="st0" d="M66.6 0l-3.2.9v9c-.5-.3-1.2-.5-1.9-.5-1.6 0-2.8.9-2.8 1.9s1.3 1.9 2.8 1.9c1.5 0 2.8-.8 2.8-1.8v-9l2.3-.6V0z"/></g></svg>