<svg id="Layer_2" xmlns="http://www.w3.org/2000/svg" width="297.8" height="151.2" viewBox="0 0 297.8 151.2"><style>.st0{opacity:.19}.st1,.st2,.st3{fill:#e0f2f3;stroke:#6bcad0;stroke-width:2.5;stroke-miterlimit:10}.st2,.st3{fill:#fff}.st3{stroke-width:2}.st4{fill:#ffe5ca;stroke:#f59223}.st4,.st5,.st6{stroke-miterlimit:10}.st5{stroke-linecap:round;opacity:.5;fill:#fff;stroke:#6bcad0}.st6{opacity:.3;fill:none;stroke:#f59223}.st7{fill:#f05234}.st8{fill:#fff}.st9{opacity:.5}.st10,.st11{fill:#fff;stroke:#083b54;stroke-width:2.5;stroke-miterlimit:10}.st11{fill:#d3d4db}.st12{fill:#083b54}.st13{fill:#e0f2f3;stroke:#6bcad0;stroke-width:1.9999;stroke-miterlimit:10}.st14{opacity:.5;fill:#6bcad0}.st15,.st16{opacity:.2;fill:#083b54}.st16{opacity:.3}.st17,.st18,.st19{opacity:.5;fill:#083b54}.st18,.st19{opacity:.85}.st19{opacity:.7}.st20{fill:#f59223}.st21{fill:#6bcad0}.st22{opacity:.2;fill:none;stroke:#f59223}.st22,.st23,.st24{stroke-miterlimit:10}.st23{stroke-linecap:round;fill:none;stroke:#6bcad0;stroke-width:2}.st24{fill:#f05234;stroke:#ef5434;stroke-width:.7758;stroke-linejoin:round}.st25,.st26,.st27{fill:none;stroke:#6bcad0;stroke-width:2.5;stroke-linecap:round;stroke-miterlimit:10}.st26,.st27{stroke-width:2.4797}.st27{opacity:.3}.st28{opacity:.6}.st28,.st29{fill:none;stroke:#6bcad0;stroke-width:3;stroke-linecap:round;stroke-linejoin:round;stroke-miterlimit:10}</style><ellipse class="st22" cx="148.7" cy="48" rx="73.8" ry="27.3"/><ellipse class="st22" cx="148.7" cy="54.5" rx="109.1" ry="40.3"/><ellipse class="st22" cx="148.7" cy="59.7" rx="139" ry="51.3"/><path class="st23" d="M287.6 64.1l-23.9 26M216.2 86.4l47.5 3.7-6.5-32.5M57.2 74.7l41.1-34.3M50.4 38.4l47.9 1.2M12.4 64.3l85.9-24.7M135.3 74.4l-37-34.8M98.3 40.4l-25.7 61.8M98.7 40.7l23.3 70.4M130.7 8.9L98.3 40.4"/><circle class="st11" cx="98.3" cy="39.6" r="17.4"/><circle class="st2" cx="74.9" cy="102.2" r="10.8"/><path class="st23" d="M216.2 86.4l-28.5-33.5 15.1-40.8M173.6 23.2l14.1 28.9M182.9 109.1l33.3-22.7"/><circle class="st2" cx="216.2" cy="86.4" r="10.8"/><circle class="st1" cx="130.7" cy="8.9" r="7.1"/><circle class="st1" cx="57.2" cy="74.7" r="8.9"/><circle class="st1" cx="263.7" cy="90.1" r="8.9"/><circle class="st1" cx="12.4" cy="64.3" r="11.1"/><circle class="st2" cx="50.4" cy="38.4" r="6.5"/><circle class="st2" cx="187.7" cy="52.1" r="7.6"/><circle class="st11" cx="287.6" cy="64.1" r="6.5"/><circle class="st2" cx="173.6" cy="23.2" r="6.5"/><path class="st23" d="M253.4 25.4l3.8 32.2-38.9-16.9"/><circle class="st11" cx="182.9" cy="109.1" r="8.4"/><ellipse class="st1" cx="135.3" cy="74.4" rx="7.5" ry="7.3"/><ellipse class="st1" cx="253.4" cy="25.4" rx="8.2" ry="8"/><ellipse class="st1" cx="202.8" cy="12.1" rx="7.5" ry="7.3"/><circle class="st1" cx="121.8" cy="109.1" r="7.9"/><path class="st24" d="M75.4 14.9l6.8 15.7 24.8-7.1-2.7-16.8-4.1 8-5.9-5.2-2.8 7.7-6.1-5.2-2.4 7.6z"/><ellipse transform="rotate(-15.888 75.385 14.901)" class="st7" cx="75.4" cy="14.9" rx="1.8" ry="1.8"/><ellipse transform="rotate(-15.888 85.21 11.302)" class="st7" cx="85.2" cy="11.3" rx="1.8" ry="1.8"/><ellipse transform="rotate(-15.888 94.012 8.797)" class="st7" cx="94" cy="8.8" rx="1.8" ry="1.8"/><ellipse transform="rotate(-15.888 104.273 6.682)" class="st7" cx="104.3" cy="6.7" rx="1.8" ry="1.8"/><circle class="st11" cx="218.3" cy="40.7" r="8.7"/><circle class="st2" cx="257.2" cy="57.6" r="6.5"/><path class="st21" d="M216.3 150h.1c.6 0 1.1-.3 1.5-.7l8-10c.7-.9.6-2.1-.3-2.8-.9-.7-2.1-.6-2.8.3l-6.6 8.3-2.4-2.4c-.8-.8-2-.8-2.8 0-.8.8-.8 2 0 2.8l4 4c.3.3.8.5 1.3.5z"/><path class="st7" d="M85.9 143l4-4c.7-.7.7-1.8 0-2.5s-1.8-.7-2.5 0l-4 4-4-4c-.7-.7-1.8-.7-2.5 0s-.7 1.8 0 2.5l4 4-4 4c-.7.7-.7 1.8 0 2.5.3.3.8.5 1.2.5.4 0 .9-.2 1.2-.5l4-4 4 4c.3.3.8.5 1.2.5.4 0 .9-.2 1.2-.5.7-.7.7-1.8 0-2.5l-3.8-4z"/></svg>