<svg xmlns="http://www.w3.org/2000/svg" width="515.2" height="139.7" viewBox="0 0 515.2 139.7"><style>.st0{fill:#f05135}.st1{fill:#083b54}.st2{fill:#6acad1}.st3{fill:#f59223}.st4{stroke:#f05135;stroke-width:2.5;stroke-miterlimit:10}.st4,.st5,.st6,.st7{fill:none}.st5,.st6,.st7,.st8{stroke-width:2.5;stroke-miterlimit:10}.st5{stroke:#083b54}.st6{stroke:#6acad1}.st7{stroke:#f59223}.st8{fill:#fdd9c8;stroke:#f05135}.st10,.st11,.st12,.st13,.st14,.st15,.st9{stroke-width:2.5;stroke-miterlimit:10}.st9{fill:#d3d5db;stroke:#083b54}.st10{fill:#e0f2f3;stroke:#6acad1}.st11{fill:#fee5cb;stroke:#f59223}.st12{stroke:#f05135}.st12,.st13,.st14,.st15{fill:#fff}.st13{stroke:#083b54}.st14{stroke:#6acad1}.st15{stroke:#f59223}.st16{fill:#e0f2f3}.st17,.st18{stroke-linejoin:round}.st17{stroke:#d3d5db;stroke-miterlimit:10;fill:#d3d5db}.st18{fill:#fff;stroke-width:2.5}.st18,.st19,.st20{stroke:#6acad1;stroke-miterlimit:10}.st19{stroke-linejoin:round;fill:#e0f2f3;stroke-width:2.5}.st20{fill:none;stroke-width:1.5}.st21{fill:#d3d5db}.st22{fill:#fff}.st23,.st24{fill:none;stroke:#f05135;stroke-miterlimit:10}.st24{stroke:#d3d5db;stroke-width:.5}.st25,.st26{stroke:#063b54}.st25,.st26,.st27,.st28{stroke-miterlimit:10}.st25{stroke-linejoin:round;fill:#083b54;stroke-width:.5}.st26{stroke-width:.7}.st26,.st27,.st28{fill:none}.st27{stroke:#d3d5db;stroke-width:.3}.st28{stroke:#6acad1;stroke-width:2.5;stroke-linejoin:round}.st29{fill:#063b54}.st30{fill:none;stroke:#f05135;stroke-width:2.5;stroke-linecap:round}.st30,.st31,.st32{stroke-miterlimit:10}.st31{stroke-linejoin:round;fill:#083b54;stroke:#063b54}.st32,.st33{fill:none;stroke:#e0f2f3}.st33{stroke:#6acad1;stroke-linecap:round}.st33,.st34,.st35{stroke-linejoin:round;stroke-miterlimit:10}.st34{stroke-width:2.5;stroke-linecap:round;fill:none;stroke:#6acad1}.st35{fill:#f05135;stroke:#f05235}.st36{stroke:#f05135;stroke-width:2;stroke-linecap:round}.st36,.st37,.st38,.st39,.st40{fill:none;stroke-miterlimit:10}.st37{stroke-linecap:round;stroke:#e0f2f3;stroke-width:1.5}.st38{stroke:#063b54;stroke-width:2.5}.st39,.st40{stroke:#fcc941;stroke-width:2}.st40{stroke:#f05135}</style><g id="stuffs"><path class="st32" d="M4.6 52.3l50.8-34.9 53.9 39.3-53.9 2.5-9.6 29.3 42 26.6 34.6-30.3 64.4 18.5-55.2 31.5 28-126.2-48.2 12.2 74 38.4 33.2-50.6 53.5 99L205 82.5l83.1-70.7L325.9 39 293 62.1l29.4 56.6 23.7-47.4h73.6L408 8.6l-50.7 5.3 48.8 108.8L465 94.6 453.3 39l24.4-18.2 32.8 33.6"/><circle class="st16" cx="4.6" cy="52.1" r="4.6"/><circle class="st16" cx="55.4" cy="17.8" r="4.6"/><circle class="st16" cx="109.5" cy="56.7" r="4.6"/><circle class="st16" cx="55.4" cy="59.1" r="4.6"/><circle class="st16" cx="45.4" cy="88.5" r="4.6"/><circle class="st16" cx="87.5" cy="115.1" r="4.6"/><circle class="st16" cx="122.7" cy="84.8" r="4.6"/><circle class="st16" cx="111.5" cy="20.8" r="4.6"/><circle class="st16" cx="159.9" cy="4.6" r="4.6"/><circle class="st16" cx="131.9" cy="135.1" r="4.6"/><circle class="st16" cx="185.7" cy="103" r="4.6"/><circle class="st16" cx="185.7" cy="59.1" r="4.6"/><circle class="st16" cx="218.6" cy="4.6" r="4.6"/><circle class="st16" cx="205" cy="82.1" r="4.6"/><circle class="st16" cx="272" cy="107.6" r="4.6"/><circle class="st16" cx="288.1" cy="13.3" r="4.6"/><circle class="st16" cx="325.8" cy="38.8" r="4.6"/><circle class="st16" cx="292.8" cy="62" r="4.6"/><circle class="st16" cx="323.2" cy="119.8" r="4.6"/><circle class="st16" cx="346.9" cy="71.3" r="4.6"/><circle class="st16" cx="357.7" cy="13.3" r="4.6"/><circle class="st16" cx="406.9" cy="4.6" r="4.6"/><circle class="st16" cx="419.7" cy="71.3" r="4.6"/><circle class="st16" cx="406.7" cy="123.8" r="4.6"/><circle class="st16" cx="465" cy="94.6" r="4.6"/><circle class="st16" cx="453.3" cy="38.8" r="4.6"/><circle class="st16" cx="477.7" cy="20.8" r="4.6"/><circle class="st16" cx="510.5" cy="54.6" r="4.6"/></g></svg>