<svg id="Layer_2" xmlns="http://www.w3.org/2000/svg" width="297.8" height="151.2" viewBox="0 0 297.8 151.2"><style>.st0{opacity:.19}.st1,.st2,.st3{fill:#e0f2f3;stroke:#6bcad0;stroke-width:2.5;stroke-miterlimit:10}.st2,.st3{fill:#fff}.st3{stroke-width:2}.st4{fill:#ffe5ca;stroke:#f59223}.st4,.st5,.st6{stroke-miterlimit:10}.st5{stroke-linecap:round;opacity:.5;fill:#fff;stroke:#6bcad0}.st6{opacity:.3;fill:none;stroke:#f59223}.st7{fill:#f05234}.st8{fill:#fff}.st9{opacity:.5}.st10,.st11{fill:#fff;stroke:#083b54;stroke-width:2.5;stroke-miterlimit:10}.st11{fill:#d3d4db}.st12{fill:#083b54}.st13{fill:#e0f2f3;stroke:#6bcad0;stroke-width:1.9999;stroke-miterlimit:10}.st14{opacity:.5;fill:#6bcad0}.st15,.st16{opacity:.2;fill:#083b54}.st16{opacity:.3}.st17,.st18,.st19{opacity:.5;fill:#083b54}.st18,.st19{opacity:.85}.st19{opacity:.7}.st20{fill:#f59223}.st21{fill:#6bcad0}.st22{opacity:.2;fill:none;stroke:#f59223}.st22,.st23,.st24{stroke-miterlimit:10}.st23{stroke-linecap:round;fill:none;stroke:#6bcad0;stroke-width:2}.st24{fill:#f05234;stroke:#ef5434;stroke-width:.7758;stroke-linejoin:round}.st25,.st26,.st27{fill:none;stroke:#6bcad0;stroke-width:2.5;stroke-linecap:round;stroke-miterlimit:10}.st26,.st27{stroke-width:2.4797}.st27{opacity:.3}.st28{opacity:.6}.st28,.st29{fill:none;stroke:#6bcad0;stroke-width:3;stroke-linecap:round;stroke-linejoin:round;stroke-miterlimit:10}</style><path class="st26" d="M105 56.4l-5.6 9.3"/><path class="st27" d="M97.4 107.1l12.7-4.5"/><path class="st28" d="M117.5 23.2L99.4 37.1"/><path class="st27" d="M42.9 71.9L53 81.2"/><path class="st28" d="M76.4 85.2L71 69.6"/><path class="st27" d="M19 98.3l3.5 12.1"/><path class="st28" d="M36.4 47.2L31 31.6M175.8 92.5l-9.2-22.1M175.8 92.5l22.6 14.6 22.6-9-7.2-48 23.9-18.9 54.7 33.7-9.3-49.3"/><path class="st27" d="M180.6 57.7l33.2-7.6M157.2 109.2l18.6-16.7M238.4 30.5l27-11.3M31 31.6L43.6 6.1M31 31.6L19 70M6.5 26.1l24.9 5.5M277 89.3l15.4-24.4M228 62.6l-14-12.5M157.8 82.9l18 9.6M214 50.1L183.6 39M221.2 11.6l16.5 18.9M49.4 47.5l-18-15.9M210.5 25.5l26.4 5M217.4 50.1l27.8 4.6M181 81.7l-5.2 10.8M200.8 74.4L221 98.1l35.8-15.8M253.9 107.1l-32.9-9M292.4 64.9L245 72.1M247.5 2.8l-9.1 27.7M34.6 31.6l15-3.7"/><circle class="st7" cx="198.4" cy="107.1" r="5.6"/><circle class="st7" cx="75.9" cy="83.5" r="5.6"/><circle class="st7" cx="256.8" cy="82.3" r="3.6"/><circle class="st21" cx="43.6" cy="6.1" r="3.6"/><circle class="st21" cx="247.5" cy="3.8" r="3.6"/><circle class="st21" cx="283.1" cy="17.6" r="5.6"/><circle class="st12" cx="241.4" cy="72.1" r="3.6"/><circle class="st12" cx="292.4" cy="64.9" r="5.6"/><circle class="st7" cx="6.5" cy="26.1" r="3.6"/><circle class="st7" cx="220.5" cy="11.6" r="3.6"/><circle class="st7" cx="117.5" cy="23.2" r="3.6"/><circle class="st7" cx="180.6" cy="57.7" r="3.6"/><circle class="st21" cx="208" cy="25.1" r="3.6"/><circle class="st21" cx="237.7" cy="31.2" r="5.6"/><circle class="st21" cx="245.7" cy="54.9" r="3.6"/><circle class="st21" cx="228" cy="62.5" r="3.6"/><circle class="st21" cx="277" cy="89.3" r="3.6"/><circle class="st21" cx="221" cy="98.1" r="5.6"/><circle class="st21" cx="99.4" cy="36.7" r="5.6"/><circle class="st21" cx="49.4" cy="47.5" r="3.6"/><circle class="st21" cx="183.6" cy="39" r="3.6"/><circle class="st21" cx="181.4" cy="79.7" r="3.6"/><circle class="st21" cx="157.2" cy="109.2" r="3.6"/><circle class="st21" cx="19" cy="70.5" r="3.6"/><circle class="st21" cx="17.8" cy="94.7" r="3.6"/><circle class="st21" cx="66.7" cy="107.1" r="3.6"/><circle class="st21" cx="77.3" cy="56.4" r="3.6"/><circle class="st21" cx="84.3" cy="15.2" r="3.6"/><circle class="st21" cx="157.8" cy="83.3" r="3.6"/><circle class="st12" cx="265.4" cy="19.2" r="3.6"/><circle class="st12" cx="213.8" cy="50.1" r="5.6"/><circle class="st12" cx="253.9" cy="107.1" r="3.6"/><circle class="st12" cx="200.8" cy="74.4" r="3.6"/><circle class="st12" cx="105" cy="56.4" r="3.6"/><circle class="st12" cx="97.4" cy="107.1" r="3.6"/><circle class="st12" cx="31" cy="31.6" r="5.6"/><path class="st29" d="M22.5 110.4l19.6-10.1"/><circle class="st12" cx="22.5" cy="110.4" r="5.6"/><circle class="st12" cx="175.8" cy="92.5" r="5.6"/><circle class="st7" cx="42.9" cy="99.5" r="3.6"/><circle class="st7" cx="42.9" cy="71.9" r="3.6"/><path class="st27" d="M84.3 15.2l15.1 21.5"/><path class="st21" d="M210.2 150h.1c.6 0 1.1-.3 1.5-.7l8-10c.7-.9.6-2.1-.3-2.8-.9-.7-2.1-.6-2.8.3L210 145l-2.4-2.4c-.8-.8-2-.8-2.8 0-.8.8-.8 2 0 2.8l4 4c.3.4.8.6 1.4.6z"/><path class="st7" d="M79.7 143l4-4c.7-.7.7-1.8 0-2.5s-1.8-.7-2.5 0l-4 4-4-4c-.7-.7-1.8-.7-2.5 0s-.7 1.8 0 2.5l4 4-4 4c-.7.7-.7 1.8 0 2.5.3.3.8.5 1.2.5.4 0 .9-.2 1.2-.5l4-4 4 4c.3.3.8.5 1.2.5.4 0 .9-.2 1.2-.5.7-.7.7-1.8 0-2.5l-3.8-4z"/></svg>