<?xml version="1.0" encoding="UTF-8" standalone="no"?>
<svg
   xmlns:svg="http://www.w3.org/2000/svg"
   xmlns="http://www.w3.org/2000/svg"
   xmlns:sodipodi="http://sodipodi.sourceforge.net/DTD/sodipodi-0.dtd"
   xmlns:inkscape="http://www.inkscape.org/namespaces/inkscape"
   version="1.0"
   width="1150"
   height="200"
   viewBox="0 0 300 150"
   preserveAspectRatio="xMidYMid meet"
   id="svg114"
   sodipodi:docname="js-cosmos-logo.svg"
   inkscape:version="0.92.3 (2405546, 2018-03-11)">
  <defs
     id="defs118" />
  <sodipodi:namedview
     pagecolor="none"
     bordercolor="none"
     borderopacity="1"
     objecttolerance="10"
     gridtolerance="10"
     guidetolerance="10"
     inkscape:pageopacity="0"
     inkscape:pageshadow="2"
     inkscape:window-width="1920"
     inkscape:window-height="1052"
     id="namedview116"
     showgrid="false"
     inkscape:zoom="0.56510417"
     inkscape:cx="761.80645"
     inkscape:cy="248.01229"
     inkscape:window-x="0"
     inkscape:window-y="0"
     inkscape:window-maximized="1"
     inkscape:current-layer="svg114" />
  <g
     transform="matrix(0.10136443,0,0,-0.09482331,-432.46753,236.58367)"
     id="g112"
     style="fill:#ffffff">
    <path
       d="m 5033,2305 c -93,-25 -174,-74 -249,-149 -110,-110 -154,-215 -154,-366 0,-123 23,-201 90,-307 14,-21 11,-26 -40,-78 l -54,-55 25,-26 c 13,-14 36,-35 52,-46 l 27,-19 52,45 c 29,25 56,46 60,46 4,0 29,-14 55,-30 140,-89 365,-95 516,-13 192,105 307,328 278,537 -15,100 -26,133 -66,201 l -36,59 53,53 53,53 -53,52 -52,53 -52,-52 -53,-52 -70,39 c -117,66 -264,86 -382,55 z m 290,-171 58,-28 -268,-268 c -147,-147 -272,-268 -276,-268 -4,0 -20,26 -35,58 -24,50 -27,69 -27,157 0,87 3,107 26,155 95,201 326,287 522,194 z m 195,-191 c 24,-52 27,-70 27,-163 0,-93 -3,-112 -27,-162 -81,-174 -288,-266 -467,-208 -127,41 -141,14 164,320 148,148 271,270 273,270 2,0 15,-26 30,-57 z"
       id="path94"
       inkscape:connector-curvature="0" />
    <path
       d="m 2639,2269 c -117,-8 -188,-30 -233,-73 -46,-42 -59,-97 -54,-221 4,-123 28,-176 97,-214 40,-22 61,-25 205,-31 228,-9 246,-22 246,-180 0,-155 -33,-182 -228,-181 -64,0 -155,7 -202,15 -47,9 -88,16 -92,16 -5,0 -8,-27 -8,-60 0,-59 0,-59 33,-65 63,-12 271,-20 352,-14 218,17 286,91 285,313 -1,218 -45,254 -319,265 -179,7 -201,14 -222,63 -6,16 -10,63 -8,112 4,73 7,88 28,110 39,41 88,49 256,42 83,-4 165,-9 183,-12 l 32,-6 v 55 55 l -62,6 c -111,10 -191,11 -289,5 z"
       id="path96"
       inkscape:connector-curvature="0" />
    <path
       d="m 4080,2269 c -154,-16 -268,-87 -298,-185 -16,-56 -17,-597 0,-645 28,-82 118,-147 238,-169 74,-14 278,-13 367,1 l 73,12 v 57 57 l -62,-15 c -40,-10 -113,-16 -198,-16 -131,-1 -137,0 -194,29 -96,48 -96,49 -96,369 0,252 1,272 21,312 32,68 84,88 236,92 85,3 146,-1 201,-12 43,-9 82,-16 86,-16 4,0 6,24 4,53 l -3,52 -55,11 c -82,16 -235,22 -320,13 z"
       id="path98"
       inkscape:connector-curvature="0" />
    <path
       d="m 6175,2269 c -141,-10 -211,-37 -257,-99 -40,-56 -47,-235 -12,-320 39,-91 106,-120 283,-120 140,-1 189,-11 219,-45 20,-24 22,-37 22,-134 0,-127 -13,-153 -83,-172 -58,-16 -245,-12 -347,6 -47,8 -88,15 -92,15 -5,0 -8,-27 -8,-59 v -59 l 43,-8 c 75,-12 270,-19 358,-12 143,11 228,61 260,155 8,23 13,83 13,153 0,96 -3,123 -21,161 -37,82 -116,109 -320,109 -124,0 -173,13 -193,50 -8,14 -11,58 -8,120 4,116 14,132 91,151 49,11 276,7 370,-7 l 37,-6 v 55 55 l -72,6 c -144,11 -194,12 -283,5 z"
       id="path100"
       inkscape:connector-curvature="0" />
    <path
       d="m 8404,2268 c -110,-8 -192,-37 -247,-87 -75,-67 -77,-76 -77,-422 0,-301 0,-307 23,-350 47,-89 146,-137 307,-148 207,-14 368,25 446,108 49,52 55,104 52,413 -3,282 -3,284 -29,333 -62,121 -221,173 -475,153 z m 236,-109 c 51,-17 88,-46 108,-82 14,-27 17,-67 20,-272 2,-132 1,-264 -3,-293 -14,-109 -96,-155 -276,-155 -155,1 -249,46 -264,126 -3,18 -5,157 -3,309 3,261 4,278 24,305 24,33 74,60 136,73 55,12 212,5 258,-11 z"
       id="path102"
       inkscape:connector-curvature="0" />
    <path
       d="m 9395,2269 c -154,-10 -225,-41 -267,-114 -20,-35 -23,-53 -23,-155 0,-104 3,-120 25,-165 20,-38 37,-55 74,-74 44,-23 66,-26 205,-32 86,-3 168,-11 183,-17 47,-19 60,-61 56,-177 -3,-118 -12,-134 -81,-155 -56,-17 -241,-14 -347,5 -47,8 -88,15 -92,15 -5,0 -8,-27 -8,-60 0,-59 0,-59 33,-64 90,-14 137,-17 264,-17 215,1 302,34 349,134 21,45 24,66 24,167 0,136 -10,178 -51,218 -44,43 -96,55 -271,61 -138,5 -160,8 -185,27 -34,26 -49,94 -38,180 10,79 40,109 120,119 60,8 265,1 343,-11 l 43,-7 -3,54 -3,54 -40,6 c -63,11 -212,15 -310,8 z"
       id="path104"
       inkscape:connector-curvature="0" />
    <path
       d="m 1978,1829 -3,-431 -29,-25 c -29,-25 -34,-25 -130,-20 -56,3 -111,9 -123,12 -22,7 -23,5 -23,-43 0,-61 3,-63 170,-63 142,0 189,11 234,56 52,52 56,87 56,540 v 405 h -75 -74 z"
       id="path106"
       inkscape:connector-curvature="0" />
    <path
       d="m 6790,1765 v -495 h 65 65 v 423 c 1,351 3,418 14,397 7,-14 82,-204 167,-422 l 154,-398 h 67 67 l 39,103 c 22,56 93,243 158,414 66,172 122,313 127,313 4,0 7,-187 7,-415 v -415 h 65 65 v 495 495 h -109 -109 l -10,-27 c -88,-247 -285,-780 -290,-785 -4,-4 -78,176 -164,400 l -156,407 -111,3 -111,3 z"
       id="path108"
       inkscape:connector-curvature="0" />
    <path
       d="m 3190,1705 v -55 h 210 210 v 55 55 h -210 -210 z"
       id="path110"
       inkscape:connector-curvature="0" />
  </g>
</svg>
