<svg xmlns="http://www.w3.org/2000/svg" version="1" width="1150" height="200" viewBox="0 0 300 150"><path d="M77.7 18.016c-9.427 2.37-17.638 7.017-25.24 14.129-11.15 10.43-15.61 20.387-15.61 34.705 0 11.663 2.331 19.06 9.123 29.11 1.419 1.992 1.115 2.466-4.055 7.397l-5.474 5.215 2.534 2.466c1.318 1.327 3.65 3.318 5.271 4.361l2.737 1.802 5.271-4.267c2.94-2.37 5.677-4.362 6.082-4.362.405 0 2.94 1.328 5.575 2.845 14.191 8.44 36.998 9.008 52.304 1.233 19.462-9.957 31.119-31.102 28.18-50.92-1.521-9.483-2.636-12.612-6.69-19.06l-3.65-5.595 5.373-5.025 5.372-5.026-5.372-4.93-5.271-5.026-5.271 4.93-5.373 4.931-7.095-3.698c-11.86-6.258-26.76-8.155-38.721-5.215zm29.395 16.215l5.88 2.655-27.166 25.412c-14.9 13.94-27.571 25.413-27.977 25.413-.405 0-2.027-2.465-3.548-5.5-2.432-4.74-2.736-6.542-2.736-14.887 0-8.25.304-10.146 2.635-14.698 9.63-19.059 33.045-27.214 52.912-18.395zm19.766 18.111c2.433 4.93 2.737 6.638 2.737 15.456 0 8.819-.304 10.62-2.737 15.362-8.21 16.499-29.193 25.223-47.337 19.723-12.873-3.888-14.292-1.328 16.624-30.344 15.002-14.034 27.47-25.602 27.672-25.602.203 0 1.52 2.465 3.041 5.405zM-164.967 21.43c-11.86.758-19.056 2.844-23.618 6.922-4.662 3.982-5.98 9.198-5.473 20.956.405 11.663 2.838 16.689 9.832 20.292 4.055 2.086 6.183 2.37 20.78 2.94 23.11.853 24.935 2.085 24.935 17.068 0 14.697-3.345 17.257-23.11 17.163-6.488 0-15.712-.664-20.476-1.423-4.765-.853-8.92-1.517-9.326-1.517-.507 0-.81 2.56-.81 5.69 0 5.594 0 5.594 3.344 6.163 6.386 1.138 27.47 1.896 35.68 1.327 22.098-1.612 28.99-8.628 28.89-29.68-.102-20.67-4.562-24.084-32.336-25.127-18.144-.664-20.374-1.328-22.503-5.974-.608-1.517-1.013-5.974-.81-10.62.405-6.923.709-8.345 2.837-10.431 3.954-3.888 8.92-4.646 25.95-3.983 8.413.38 16.725.854 18.55 1.138l3.243.57V22.472l-6.284-.57c-11.252-.948-19.361-1.042-29.295-.473zm146.067 0c-15.61 1.517-27.166 8.25-30.207 17.542-1.622 5.31-1.723 56.61 0 61.16 2.838 7.776 11.96 13.94 24.124 16.026 7.501 1.328 28.18 1.233 37.201-.095l7.4-1.138v-10.809l-6.285 1.422c-4.054.948-11.454 1.517-20.07 1.517-13.279.095-13.887 0-19.665-2.75-9.73-4.551-9.73-4.646-9.73-34.99 0-23.895.1-25.792 2.128-29.585 3.244-6.448 8.515-8.344 23.922-8.723 8.616-.285 14.8.095 20.374 1.138 4.359.853 8.312 1.517 8.718 1.517.405 0 .608-2.276.405-5.026l-.304-4.93-5.575-1.044c-8.312-1.517-23.82-2.086-32.437-1.232zm212.358 0c-14.293.948-21.388 3.508-26.05 9.387-4.055 5.31-4.765 22.284-1.217 30.344 3.953 8.628 10.744 11.378 28.686 11.378 14.19.095 19.158 1.043 22.199 4.267 2.027 2.276 2.23 3.509 2.23 12.707 0 12.042-1.318 14.508-8.413 16.31-5.88 1.516-24.835 1.137-35.174-.57-4.764-.758-8.92-1.422-9.325-1.422-.507 0-.811 2.56-.811 5.595v5.594l4.358.759c7.603 1.138 27.369 1.801 36.289 1.138 14.495-1.043 23.11-5.785 26.354-14.698.811-2.18 1.318-7.87 1.318-14.508 0-9.103-.304-11.663-2.128-15.266-3.75-7.776-11.759-10.336-32.437-10.336-12.57 0-17.536-1.233-19.563-4.741-.811-1.328-1.115-5.5-.811-11.38.405-10.999 1.419-12.516 9.224-14.318 4.967-1.043 27.976-.663 37.505.664l3.75.57V22.472l-7.298-.57c-14.597-1.042-19.665-1.137-28.686-.473zm225.942.094c-11.15.759-19.463 3.509-25.038 8.25-7.602 6.353-7.805 7.207-7.805 40.015 0 28.542 0 29.111 2.331 33.189 4.765 8.439 14.8 12.99 31.12 14.033 20.982 1.328 37.301-2.37 45.208-10.24 4.967-4.931 5.575-9.862 5.27-39.162-.303-26.74-.303-26.93-2.939-31.577-6.284-11.473-22.401-16.404-48.148-14.508zm23.92 10.336c5.17 1.612 8.92 4.362 10.948 7.776 1.419 2.56 1.723 6.353 2.027 25.792.203 12.516.101 25.033-.304 27.783-1.42 10.336-9.731 14.697-27.977 14.697-15.711-.094-25.24-4.361-26.76-11.947-.304-1.707-.507-14.888-.304-29.3.304-24.75.405-26.362 2.433-28.922 2.432-3.129 7.5-5.69 13.785-6.922 5.575-1.138 21.49-.474 26.152 1.043zm76.531-10.43c-15.61.948-22.807 3.887-27.064 10.81-2.027 3.318-2.331 5.025-2.331 14.697 0 9.862.304 11.379 2.534 15.646 2.027 3.603 3.75 5.215 7.5 7.017 4.46 2.18 6.69 2.465 20.78 3.034 8.718.285 17.03 1.043 18.55 1.612 4.764 1.802 6.082 5.784 5.676 16.784-.304 11.189-1.216 12.706-8.21 14.698-5.676 1.611-24.429 1.327-35.173-.475-4.765-.758-8.92-1.422-9.326-1.422-.507 0-.81 2.56-.81 5.69 0 5.594 0 5.594 3.344 6.068 9.123 1.328 13.887 1.612 26.76 1.612 21.794-.095 30.612-3.224 35.376-12.706 2.13-4.267 2.433-6.259 2.433-15.836 0-12.896-1.013-16.878-5.17-20.671-4.46-4.078-9.73-5.215-27.47-5.784-13.987-.475-16.217-.759-18.752-2.56-3.446-2.466-4.966-8.914-3.851-17.069 1.013-7.49 4.054-10.336 12.163-11.284 6.082-.758 26.862-.095 34.768 1.043l4.359.664-.304-5.12-.304-5.12-4.055-.57c-6.386-1.043-21.489-1.422-31.423-.758zm-751.82 41.722l-.304 40.869-2.94 2.37c-2.939 2.37-3.446 2.37-13.177 1.897-5.676-.285-11.251-.854-12.468-1.138-2.23-.664-2.33-.474-2.33 4.077 0 5.784.303 5.974 17.231 5.974 14.394 0 19.158-1.043 23.72-5.31 5.27-4.93 5.676-8.25 5.676-51.205V22.283h-15.103zm487.766 6.068v46.938h13.177v-40.11c.102-33.283.304-39.636 1.42-37.645.709 1.327 8.311 19.344 16.927 40.015l15.61 37.74h13.583l3.953-9.767c2.23-5.31 9.427-23.042 16.016-39.257 6.69-16.31 12.366-29.68 12.873-29.68.406 0 .71 17.733.71 39.352v39.352h13.177V22.283h-22.098l-1.013 2.56c-8.92 23.422-28.889 73.962-29.396 74.437-.405.379-7.906-16.69-16.623-37.93L278.3 22.757l-11.252-.284-11.251-.285zm-364.912 5.69v5.215h42.573v-10.43h-42.573z" fill="#fff"/></svg>