<svg id="logo_x5F_1" xmlns="http://www.w3.org/2000/svg" viewBox="0 0 160 160"><style>.st0{fill:#32ff10}.st1{opacity:.24}.st2,.st3{opacity:.36;fill:none;stroke:url(#SVGID_1_);stroke-width:.5;stroke-linecap:round;stroke-linejoin:round;stroke-dasharray:2.9314,2.9314,2.9314,2.9314,2.9314,2.9314}.st3{stroke:url(#SVGID_2_);stroke-dasharray:2.9921,2.9921,2.9921,2.9921,2.9921,2.9921}</style><path class="st0" d="M97.4 108.6c-5.1 2.8-11 4.2-17.2 3.9-17-.9-30.6-15-30.9-32-.3-18.2 14.4-33 32.5-33 5.2 0 10.2 1.2 14.6 3.4 2.3 1.1 5 .8 6.8-1 2.9-2.8 2.1-7.6-1.5-9.4-4.9-2.4-11.8-4.8-19.9-4.8C57 35.7 37 56.1 37.6 81.1c.6 23.9 20.3 43.1 44.1 43.2 7.7 0 14.9-1.9 21.2-5.3 3.4-1.8 4.2-6.3 1.6-9.1-1.8-2.1-4.7-2.6-7.1-1.3z"/><path d="M58.7 109.8c-2.6 2.8-1.8 7.3 1.6 9.1 6.3 3.4 13.5 5.4 21.2 5.3 23.9-.1 43.6-19.4 44.1-43.2.6-24.9-19.5-45.3-44.3-45.3-8.1 0-15 2.4-19.9 4.8-3.6 1.8-4.4 6.6-1.5 9.4 1.8 1.8 4.5 2.1 6.8 1 4.4-2.2 9.3-3.4 14.6-3.4 18.1 0 32.8 14.8 32.5 33-.2 17-13.9 31.2-30.9 32-6.3.3-12.2-1.1-17.2-3.9-2.3-1.3-5.2-.8-7 1.2z" class="st1"/><radialGradient id="SVGID_1_" cx="80" cy="276.792" r="56.25" gradientTransform="matrix(1 0 0 3 0 -750.375)" gradientUnits="userSpaceOnUse"><stop offset="0" stop-color="#191a47"/><stop offset="1" stop-color="#f1f1f2"/></radialGradient><circle class="st2" cx="80" cy="80" r="56"/><radialGradient id="SVGID_2_" cx="80" cy="276.792" r="80.25" gradientTransform="matrix(1 0 0 3 0 -750.375)" gradientUnits="userSpaceOnUse"><stop offset="0" stop-color="#191a47"/><stop offset="1" stop-color="#f1f1f2"/></radialGradient><circle class="st3" cx="80" cy="80" r="80"/></svg>