<svg width="151" height="70" viewBox="0 0 151 70" fill="none" xmlns="http://www.w3.org/2000/svg"><path d="M77.837 21.722h-7.316v2.904h3.898c-.521 1.39-1.793 2.241-3.731 2.241-2.835 0-4.586-1.805-4.586-4.274 0-2.552 1.834-4.357 4.294-4.357 1.647 0 2.96.747 3.564 1.701l2.835-1.618C75.565 16.37 73.21 15 70.417 15c-4.294 0-7.65 3.362-7.65 7.573 0 4.17 3.293 7.532 7.879 7.532 4.085 0 7.191-2.698 7.191-7.137v-1.245zm10.627 8.091h3.648l-4.96-14.523h-4.253l-4.961 14.523h3.647l.73-2.282h5.42l.73 2.282zm-5.148-5.394l1.709-5.332 1.71 5.332h-3.42zm13.376 2.199V15.29h-3.336v14.523h8.547v-3.195h-5.212zm15.011-11.328h-10.839v3.195h3.752v11.328h3.335V18.485h3.752V15.29zM68.916 40.187h-5.524v14.522h3.335v-4.564h2.189c2.876 0 5.107-2.22 5.107-4.98 0-2.759-2.23-4.978-5.107-4.978zm0 6.846h-2.189v-3.735h2.189c1.021 0 1.772.81 1.772 1.868s-.75 1.867-1.772 1.867zm14.442 7.677h3.585l-3.106-5.333c1.605-.809 2.69-2.427 2.69-4.211a4.98 4.98 0 0 0-5.003-4.98h-5.837V54.71h3.335v-4.772h1.584l2.752 4.772zm-4.336-11.412h2.502c.917 0 1.667.81 1.667 1.868s-.75 1.867-1.667 1.867h-2.502v-3.735zM95.27 55c4.19 0 7.588-3.278 7.588-7.552 0-4.274-3.398-7.552-7.588-7.552-4.19 0-7.587 3.278-7.587 7.552 0 4.274 3.397 7.552 7.587 7.552zm0-3.237c-2.376 0-4.252-1.722-4.252-4.315 0-2.593 1.876-4.316 4.252-4.316s4.252 1.723 4.252 4.316-1.876 4.315-4.252 4.315zM107.585 55c3.001 0 5.253-1.764 5.253-4.959v-9.854h-3.336v9.854c0 .892-.437 1.722-1.896 1.722-1.126 0-1.606-.435-2.064-1.245l-2.898 1.66c.959 1.847 2.627 2.822 4.941 2.822zm10.989-3.486v-2.572h5.212v-3.154h-5.212v-2.406h5.733v-3.195h-9.068v14.522h9.172v-3.195h-5.837zM133.153 55c2.668 0 5.003-1.307 6.254-3.361l-2.877-1.66c-.625 1.12-1.897 1.784-3.377 1.784-2.585 0-4.252-1.722-4.252-4.315 0-2.593 1.667-4.316 4.252-4.316 1.48 0 2.731.664 3.377 1.785l2.877-1.66c-1.272-2.054-3.607-3.361-6.254-3.361-4.398 0-7.587 3.278-7.587 7.552 0 4.274 3.189 7.552 7.587 7.552zm17.614-14.813h-10.84v3.195h3.752v11.327h3.336V43.381h3.752v-3.194zM44.166 29.547c-.1 0-.1 0-.2.1-.1.198-.2.297-.2.495 0 .1-.1.199-.1.298 0 .198-.1.198-.2.198h-.2c-.1 0-.1-.1-.1-.1-.1-.197-.1-.297-.2-.495 0-.099-.1-.099-.1-.198-.2-.298-.4-.496-.7-.694-.3-.198-.5-.198-.6.099-.1.397-.3.694-.5.991-.1.1-.1.199 0 .298.1.198.2.297.3.496.2.297.5.595.7.892.1.1.1.1 0 .198-.1.1-.2.1-.3.1-.1 0-.1-.1-.2-.1-.2-.099-.3-.297-.5-.396-.1-.1-.2-.1-.3-.1-.1 0-.1 0-.1.1.1.198.1.396.2.495.1.199.3.298.5.397.2.1.2.198.1.397-.2.198-.3.495-.4.793-.1.099-.2.297-.2.397-.1.297-.2.396-.4.594-.3.298-.6.496-1 .794h-.1c-.3.198-.6.297-.9.495-.3.199-.6.298-.8.496-.4.198-.9.496-1.3.793-.1.1-.2.1-.3.199-.2.099-.4.297-.5.396-.3.298-.5.595-.7.892l-.1.1c-.1.396-.3.793-.1 1.289v.198h-.2c-.4-.297-.9-.595-1.4-.793l-.9-.298c-.9-.099-1.7-.099-2.5.298-.2.099-.3.099-.5 0-.2-.1-.3-.1-.5-.1h-.8c-.2 0-.4.1-.7.1-.4 0-.7-.199-.7-.595 0-.1 0-.199.1-.298l.6-.595c.3-.297.5-.594.7-.892.2-.297.3-.595.5-.892.1-.199.2-.397.2-.595 0-.496 0-.892-.2-1.388-.2-.397-.5-.793-.8-1.19-.3-.297-.6-.496-1-.694-.3-.198-.5-.198-1-.198h-.5c-.3 0-.6 0-.9.198-.4.198-.7.397-1 .793-.2.198-.3.496-.4.694l-.3.892c-.1.199-.2.496-.3.695-.1.396-.3.694-.6.991-.1.198-.3.297-.4.397-.1.099-.2.099-.4.099h-.5c-.2 0-.3-.1-.5-.198-.2-.1-1.2-.496-1.4-.595-.6-.1-1.2-.1-1.8.099-.2.099-1 .297-1.2.495-.1.1-.9-.297-1-.297-.6-.198-1.3-.397-2-.496-.4-.099-.8-.099-1.2 0-.4.1-.7.199-1 .397-.2.1-.4.297-.5.397-.1.099-.3.099-.3-.1-.1-.297-.1-.594-.2-.793-.1-.396-.3-.694-.5-.991-.2-.298-.5-.595-.7-.793l-.4-.397c-.2-.198-.4-.298-.7-.496-.3-.198-.5-.396-.8-.595-.2-.198-.4-.297-.6-.495-.4-.397-.9-.794-1.2-1.29-.3-.396-.5-.793-.8-1.19-.1-.098-.1-.198 0-.297.1-.099.1-.099.2-.099.2-.099.3-.198.4-.297.1-.1.2-.298.3-.397v-.198h-.2l-.6.297c-.1.1-.2.1-.4.198h-.2c-.1 0 0-.099 0-.198.1-.198.2-.396.5-.595.2-.099.4-.297.5-.595 0-.198.1-.396.1-.595 0-.099 0-.297-.2-.297-.1-.1-.2-.1-.2-.297 0-.199-.2-.397-.5-.397s-.5.198-.7.297c-.2.1-.3.199-.3.397-.1.198-.1.297-.2.496 0 .099-.1.099-.2.099-.2-.1-.3-.198-.4-.496-.1-.198-.1-.396-.2-.595 0-.099-.1-.198-.2-.198v.198c0 .595.1 1.091.1 1.686v.198c.2.595.3 1.19.5 1.686.1.297.3.595.4.991l.3.595c.2.298.4.694.6.992.1.297.4.595.5.892.1.198.3.397.4.694l.9 1.785c.1.297.2.495.4.793l.3.595c0 .099.1.099.1.198.2.298.3.595.5.892l.9 1.19a7 7 0 0 0 1 .794c.1.099.7.396 1 .396.1 0 .3.1.4.1.3.098 1.3.396 4.1.792.6.1 2.1.298 2.3.298.1 0 .3.099.4.099.2.1.9.297 1 .397.5.297.9.694 1.2 1.19.3.396.6.892 1.1 1.09.1 0 .2.1.2.1.2.098.5.197.7.197 0 0 .1 0 .1.1 0 .099-.1.099-.2.099-.3 0-.7 0-1-.1-.2-.099-.5-.198-.7-.396-.2-.1-.3-.297-.5-.396-.2-.199-.3-.397-.5-.595l-.6-.595c-.2-.199-.4-.397-.7-.496-.2-.1-.4-.198-.6-.198-.2-.1-.4-.1-.6-.1-.1 0-.2 0-.2.199v.099c.1.694.2 1.388.4 1.983.1.198.1.396.2.595.2.396.3.793.5 1.19.1.198.1.297.1.495 0 .298.1.595.2.893.1.495.2.991.2 1.487v2.181c0 .198-.1.298-.2.397l-.2.198-.2.198c0 .1-.1.1-.1.199s-.1.099-.1.198c-.1.1-.1.198-.2.198-.2.397-.4.794-.5 1.29-.1.396-.2.892-.2 1.288 0 .793.1 1.587.4 2.38.1.297.3.496.4.793.3.496.5.992.8 1.487.2.397.4.893.7 1.29.2.396.7.99 1.5 2.478.2.397.3.793.5 1.19 0 .099.1.297 0 .396-.1.1-1 .1-1.3.1-.3 0-.6.099-.8.099-.3.099-.5.099-.8.198-.5.1-.9.297-1.4.496-.4.198-.9.297-1.3.495-.1 0-.2.1-.3.1-.3.099-.6.198-1 .297-.4.1-.7.1-1.1.1-.2 0-.3-.1-.5-.1-.4-.198-.7-.496-1.1-.694l-1.2-.595c-.5-.198-.9-.099-1.3.198-.4.298-.7.595-1 .893-.2.198-.5.297-.7.495-.2.1-.4.199-.6.199-.4.198-.8.297-1.2.496-.2.099-.5.198-.7.396-.1.1-.2.198-.2.298-.1.099-.2.297-.2.396-.1.1-.1.198-.1.198l.2.1h18.1c.1 0 2 0 2.5-.199.5-.099.9-.495 1.2-.892.5-.892.7-1.785.8-2.28 0-.199 0-.298.1-.496 0-.298.1-.694 0-.992-.1-.694-.1-1.388-.2-2.082-.1-.396-.1-.694-.2-1.09-.1-.397-.3-1.389-.3-1.389-.1-.297-.2-.495-.3-.793 0-.099 0-.198-.1-.297 0-.199 0-.199.2-.199h.5c1 .1 3-.396 3.1-.495.1 0 .1-.1.2-.1.2-.099.4-.099.7-.198.3-.099.6-.297.9-.496.3-.099.6-.297.9-.297.2 0 .3.1.2.297-.2.298-.3.496-.5.794-.1.198-.3.396-.4.595-.2.297-.3.694-.5.991-.2.595-.3 1.09-.3 1.686v.793c0 .892-.2 1.785-.5 2.677-.1.397-.3.694-.4 1.09-.1.199-.6 1.389-.8 1.686-.1.1-.3.892-.5 1.19-.1.198-.1.496.1.595.2.198.5.297.8.396.3.1.6 0 .9 0 .9-.099 1.8-.099 2.7 0 .5 0 .9.1 1.4.1.5 0 1-.1 1.5-.1h.5c.2 0 .3-.099.3-.297 0-.297-.2-.595-.5-.595-.5-.1-.9-.297-1.4-.496-.1-.099-.3-.099-.4-.198-.1-.1-.3-.1-.4-.198-.2-.1-.7-.298-.8-.298-1-.694-.3-1.586-.1-1.884.1-.297.3-.594.5-.892.2-.496.5-.892.7-1.388.1-.297.3-.595.5-.892.1-.1.2-.298.2-.397.2-.297.3-.595.5-.892.2-.298.3-.595.5-.992.2-.496.5-.892.7-1.388.2-.496.4-.892.6-1.388.1-.298.3-.595.4-.992.1-.396.6-1.883.6-2.18 0-.695-.1-1.29-.6-1.885-.2-.198-.4-.396-.7-.495-.7-.298-1.5-.397-2.2-.496-.4-.1-.7-.1-1.1-.1-1-.099-2 0-3 .1-.4.099-.9.099-1.3.198-.2 0-.4.1-.6.1-.5.098-1.1.198-1.6.297-.2 0-.5.099-.7.099-.3.099-.4 0-.3-.298.2-.595.3-1.288.5-1.883l.3-.893c.1-.198.2-.495.2-.694l.3-.892c.1-.496.1-.595.2-1.09 0-.1 0-.2-.2-.2-.3 0-.6-.098-.9-.197-.3-.1-.4-.298-.6-.397v-.1s.1-.098.1 0h.3c.2 0 .4.1.6.1.6.1 1.2-.1 1.8-.397.2-.099.4-.297.5-.396.3-.397.7-.793 1-1.09.1-.2.3-.298.4-.397h.2v.099c0 .099-.1.198-.2.396-.1.199 0 .298.2.298.4 0 .7 0 1.1.099h1.9c.9-.1 1.8-.1 2.6-.397.4-.099.7-.198 1.1-.396.2-.1.3-.199.5-.298.2-.198.4-.297.6-.495.5-.397.9-.893 1.3-1.29.2-.198.4-.495.5-.793.3-.396.5-.793.8-1.19.1-.099.1-.198.2-.198.2-.198.3-.495.5-.694l.6-.892c.3-.397.6-.892.9-1.29.3-.396.6-.891.9-1.288.2-.198.3-.397.4-.694.2-.297.3-.595.5-.892.3-.496.6-.992.7-1.587l.3-1.19c.1-.297 0-.495 0-.793-.3-.396-.4-.496-.4-.496zM23.267 0c-12.4 0-22.5 10.014-22.5 22.309 0 .793 0 1.685.1 2.578l1.3-.199c-.1-.793-.1-1.586-.1-2.38 0-11.6 9.5-21.02 21.2-21.02 11.7.001 21.2 9.42 21.2 21.02 0 1.885-.3 3.868-.8 5.751l1.3.397c.6-1.983.9-4.065.9-6.048C45.767 10.014 35.666 0 23.267 0z" fill="#fff"/><path d="M34.067 35.793h-1.6v1.586h1.6v-1.586zm3.599-2.975h-4.2v1.586h4.2v-1.586zm1.701-3.073h-4.2v1.586h4.2v-1.586zm1.499-2.974h-7.4v1.586h7.4v-1.586zm1-2.876h-12.5v1.586h12.5v-1.586zm.501-2.875h-12v1.587h12V21.02zm-5.8-2.876h-5v1.586h5v-1.586zm5.2 0h-2.1v1.586h2.1v-1.586zm-.9-2.874h-3.5v1.586h3.5v-1.587zm-5.701 0h-4.3v1.586h4.3v-1.587zm4.301-2.976h-7v1.587h7v-1.587zm-5.101-2.876h-1.8v1.586h1.8V9.418zm3.001 0h-2.2v1.586h2.2V9.418zm-3-2.974h-2.2v1.587h2.2V6.444zM21.166 32.818h-7.4v1.586h7.4v-1.586zm1.301-3.073h-10.2v1.586h10.2v-1.586zm-4.501-2.974h-8.3v1.586h8.3v-1.586zm-4.6-2.876h-5.3v1.586h5.3v-1.586zM9.167 21.02h-3.2v1.587h3.2V21.02zm9.7-2.876h-14.9v1.586h14.9v-1.586zm5.2-2.974h-18.5v1.587h18.5V15.17zm-6.401-2.876h-10.7v1.587h10.7v-1.587zm6 0h-4.4v1.587h4.4v-1.587zm-7.499-5.85h-4.4v1.587h4.4V6.444zm7.999 0h-4.8v1.587h4.8V6.444zm1-3.072h-6.7v1.586h6.7V3.372zm-2.999 6.046h-2.4v1.586h2.4V9.418zm-6.401 0h-2.4v1.586h2.4V9.418zm-6.999 1.586h3V9.418h-3v1.586zm7.1 10.016h-1.6v1.587h1.6V21.02z" fill="#fff"/></svg>