<svg xmlns="http://www.w3.org/2000/svg" width="300" height="206.047" viewBox="0 0 400 286.04651"><path d="M2.089 138.685v100.379H49.98v-10.759l-14.15-.246-14.149-.248V49.826l12.672.131c15.995.166 15.627.316 15.627-6.347v-5.305H2.089v100.38m351.083-94.753l.26 5.627 13.932.158 13.932.16V227.81l-14.15.248-14.149.246v10.759h47.89V38.305h-47.974l.26 5.627M107.76 55.37c-5.96 2.595-6.323 12.04-.586 15.198 6.165 3.396 13.17-1.926 11.862-9.009-.884-4.783-6.912-8.09-11.276-6.189m174.147 0c-5.959 2.595-6.323 12.04-.585 15.198 6.164 3.396 13.172-1.926 11.861-9.009-.883-4.783-6.91-8.09-11.276-6.189M55.574 77.322c-.248.662-.333 4.41-.19 8.327l.255 7.123h58.34l.255-7.575c.184-5.454-.06-7.783-.87-8.314-2.073-1.36-57.28-.941-57.79.439m226.39 0c-.245.662-.33 4.41-.19 8.327l.258 7.123h58.338l.256-7.575c.183-5.454-.06-7.783-.871-8.314-2.072-1.36-57.279-.941-57.79.439M107.76 109.385c-5.96 2.596-6.323 12.04-.586 15.198 6.165 3.396 13.17-1.926 11.862-9.008-.884-4.784-6.912-8.091-11.276-6.19m174.147 0c-5.959 2.596-6.323 12.04-.585 15.198 6.164 3.396 13.172-1.926 11.861-9.008-.883-4.784-6.91-8.091-11.276-6.19m-123.086 20.466c-2.703 1.448-3.077 2.086-3.324 5.674l-.28 4.041 2.155-2.092c3.867-3.755 7.883-4.002 16.22-.995 12.397 4.468 20.06 3.084 20.06-3.627v-3.674l-2.617 2c-3.43 2.622-9.413 2.578-15.233-.108-6.067-2.803-13.082-3.306-16.98-1.219m50.502 0c-2.705 1.448-3.077 2.086-3.325 5.674l-.278 4.041 2.153-2.092c3.867-3.755 7.883-4.002 16.22-.995 12.396 4.468 20.06 3.084 20.06-3.627v-3.674l-2.616 2c-3.43 2.622-9.413 2.578-15.233-.108-6.067-2.803-13.082-3.306-16.98-1.219M55.203 141.824v8.114h59.279l-.25-7.877-.252-7.877-29.39-.237-29.386-.237v8.114m226.392 0v8.114h59.277l-.251-7.877-.252-7.877-29.387-.237-29.387-.237v8.114M107.76 163.4c-5.96 2.595-6.323 12.04-.586 15.2 6.165 3.394 13.17-1.927 11.862-9.01-.884-4.782-6.912-8.09-11.276-6.19m174.147 0c-5.959 2.595-6.323 12.04-.585 15.2 6.164 3.394 13.172-1.927 11.861-9.01-.883-4.782-6.91-8.09-11.276-6.19M55.204 194.04v8.113h59.278l-.25-7.877-.252-7.877-29.39-.237-29.386-.237v8.114m226.392 0v8.114h59.277l-.251-7.877-.252-7.877-29.387-.237-29.387-.237" fill-rule="evenodd" stroke-width="1.523" fill="#fff"/></svg>