<svg xmlns="http://www.w3.org/2000/svg" width="208" height="210" viewBox="0 0 208 210"><path d="M122.105 171.282c-24.93-.267-44.536-17.672-44.227-39.444.463-21.37 19.992-38.37 43.995-38.304 25.24.068 45 17.539 44.382 39.378-.694 23.722-22.615 38.64-44.15 38.371m58.508-89.374c3.087.403 4.939 2.62 4.476 5.443-2.7 15.456-5.634 30.912-8.182 46.434-1.003 6.25-2.006 12.365-5.017 18.211-9.185 17.942-30.489 29.5-52.564 28.358-26.088-1.344-47.314-18.278-51.172-40.857-4.246-24.796 13.66-47.845 41.68-53.691 22.924-4.772 47.468 4.435 59.277 22.31.464.47.85 1.142 1.621 2.285.926-5.175 1.776-9.812 2.624-14.448.618-3.36 1.159-6.72 1.775-10.013.465-2.62 2.934-4.368 5.482-4.032zm-53.182-40.79c-2.314.874-4.4 1.613-6.406 2.42-18.524 7.056-37.048 14.044-55.573 21.1-4.323 1.613-8.415-.672-7.95-4.436.231-2.015 1.775-3.157 3.858-3.896 12.582-4.772 25.24-9.543 37.822-14.314 15.436-5.846 30.874-11.692 46.31-17.606 20.302-7.728 43.842 3.897 46.544 22.982 2.238 15.724-9.107 29.433-26.938 32.659-18.447 3.36-37.357-8.87-39.287-25.2-.464-4.233-.155-8.4 1.311-12.432.078-.202.154-.605.31-1.276zm30.797-10.012c-12.117.201-22.615 9.676-22.383 20.294.231 11.424 10.728 20.495 23.463 20.293 12.35-.268 22.54-9.608 22.307-20.36-.23-11.558-10.418-20.43-23.387-20.227zM64.68 87.083c2.7 13.91-8.569 25.4-21.69 26.947-.386.067-.694.201-1.39.403 5.095 4.704 9.957 9.206 14.743 13.641 1.003.94 2.007 1.815 2.934 2.755 2.469 2.352 2.469 4.84.077 6.788-2.162 1.747-5.018 1.545-7.41-.672a3744.067 3258.918 0 0 1-23.928-22.243c-3.55-3.36-7.488-6.518-10.496-10.214C5.71 89.905 16.592 69.813 37.046 68.2c12.967-1.008 25.471 7.661 27.633 18.883zm-26.475 18.279c9.107.2 16.286-5.847 16.518-13.776.23-7.527-6.793-14.113-15.283-14.314-8.954-.336-16.055 5.712-16.287 13.843-.231 7.526 6.639 14.045 15.051 14.247z" fill="#fff" fill-rule="evenodd"/></svg>