<?xml version="1.0" encoding="utf-8"?>
<!-- Generator: Adobe Illustrator 22.0.1, SVG Export Plug-In . SVG Version: 6.00 Build 0)  -->
<svg version="1.1" id="Layer_1" xmlns="http://www.w3.org/2000/svg" xmlns:xlink="http://www.w3.org/1999/xlink" x="0px" y="0px"
	 viewBox="0 0 874.9 812.9" style="enable-background:new 0 0 874.9 812.9;" xml:space="preserve">
<style type="text/css">
	.st0{fill:#231F20;}
	.st1{fill-rule:evenodd;clip-rule:evenodd;fill:#2DF910;}
</style>
<g>
	<path class="st0" d="M131.5,214.5c-4.5-0.4-9.7-1.4-15.5-3c-6.2-1.6-11.1-4-14.5-7.2c-3.4-3.2-6.3-7.9-8.7-14.2
		c-2.4-6-3.6-13.6-3.6-22.6v-53.7c0-16.3,3.1-27.9,9.4-35c3.4-4,6.9-7.1,10.4-9.2c3.5-2.1,8.1-3.6,13.7-4.4
		c5.6-0.8,10.7-1.4,15.1-1.7c4.4-0.3,10.7-0.5,18.7-0.5c13.9,0,27.7,1.5,41.6,4.5v19.9c-16.1-4-31.1-6-44.9-6
		c-10.5,0-18.1,0.8-23.1,2.3c-4.9,1.5-8.3,4.2-10.3,8.1c-1.9,3.9-2.9,9.9-2.9,17.9v59.7c0,7.4,1.1,13,3.2,16.6
		c2.1,3.6,5.9,6.2,11.5,7.7c5.5,1.5,13.7,2.3,24.6,2.3c14.7,0,29.4-1.9,44-5.7v20.5c-13.7,2.8-29.3,4.2-46.8,4.2
		C143.3,215.1,136,214.9,131.5,214.5z"/>
	<path class="st0" d="M269.2,214.2L212.8,66.1h29.6l40.7,119.1h0.6l36.8-119.1h27.4l-73.3,208.7h-28.4L269.2,214.2z"/>
	<path class="st0" d="M412.3,213.5c-6.5-1.1-13-3.2-19.5-6.2c-13.1-6.2-19.6-20.5-19.6-42.8V1h27.1v43.7v17.2
		c-0.2,5.2-0.3,11.1-0.3,17.5c1-4.6,5.2-8.5,12.7-11.8c7.6-3,18.7-4.5,33.2-4.5c40.2,0,60.3,13.8,60.3,41.3v60
		c0,8.6-1.3,16.2-3.8,22.6c-2.5,6.4-5.8,11.5-9.8,15.1c-3.6,3.4-8.6,6.1-14.9,8.1s-12.6,3.3-18.9,3.9c-5.6,0.6-12.5,0.9-20.5,0.9
		C427.5,215.1,418.8,214.6,412.3,213.5z M463,195.1c5.5-1.5,9.5-4.3,11.9-8.3c2.4-4,3.6-10.2,3.6-18.4v-57.3
		c0-8.2-1.2-14.4-3.6-18.6c-2.4-4.1-6.4-6.8-11.9-8.1c-5.5-1.3-13.6-2-24.3-2c-9.9,0-17.5,0.8-22.9,2.4c-5.4,1.6-9.4,4.5-11.8,8.6
		c-2.4,4.1-3.6,10-3.6,17.6v57.3c0,8.2,1.2,14.4,3.5,18.4c2.3,4,6.2,6.8,11.6,8.3c5.4,1.5,13.3,2.3,23.5,2.3
		C449.4,197.3,457.4,196.6,463,195.1z"/>
	<path class="st0" d="M542.4,170.5v-57.6c0-17.7,5.1-30.4,15.2-38.2c10.2-7.7,26.6-11.6,49.3-11.6c21.5,0,37,3.7,46.6,11.2
		c9.5,7.4,14.3,20.3,14.3,38.6v32.3h-98v22c0,10.1,3.5,17.3,10.6,21.7c7,4.4,17.9,6.6,32.6,6.6c13.9,0,30.3-2.4,49.2-7.2v20.8
		c-18.5,4-36.1,6-52.8,6C564.8,215.1,542.4,200.2,542.4,170.5z M640.8,127.4v-22.9c0-8.8-2.7-14.9-8-18.2c-5.3-3.3-14.4-5-27.3-5
		c-12.5,0-21.5,1.7-27.1,5c-5.6,3.3-8.4,9.4-8.4,18.2v22.9H640.8z"/>
	<path class="st0" d="M709.2,66.1h25.6V90c0-4.6,2-9,6-13.1c4-4.1,9.1-7.4,15.4-10c6.2-2.5,12.4-3.8,18.4-3.8H788v23.2h-15.1
		c-12.9,0-22.2,1.7-27.9,5c-5.7,3.3-8.6,9.3-8.6,17.9v102.9h-27.1V66.1z"/>
</g>
<g>
	<path class="st0" d="M6.3,807.3v-24.4c23.3,5,43.8,7.5,61.5,7.5c14.9,0,25.7-1.7,32.6-5c6.8-3.3,10.3-9.5,10.3-18.5v-25.3
		c0-8.4-2.4-14.4-7.2-17.8c-4.8-3.4-13.3-5.1-25.3-5.1H55.2c-19.1,0-32.7-3.8-40.7-11.5c-8-7.6-12.1-19.5-12.1-35.6v-15.7
		c0-10.7,2.4-19.3,7.1-25.9c4.7-6.6,12.7-11.6,23.8-14.8c11.2-3.2,26.5-4.8,46-4.8c13.1,0,29.9,1.1,50.4,3.3v22
		c-22.9-3.4-40.4-5.1-52.5-5.1c-18.7,0-31.1,1.8-37.1,5.4c-6.2,3.8-9.4,10.2-9.4,19v22.3c0,6.8,2.5,11.8,7.4,14.9
		c4.9,3.1,13.4,4.7,25.5,4.7h23.5c13.5,0,24,1.6,31.5,4.8c7.5,3.2,12.9,8.1,16,14.6c3.1,6.5,4.7,15.3,4.7,26.4v14.2
		c0,13.9-2.6,24.8-7.7,32.9c-5.1,8-13,13.8-23.7,17.2c-10.7,3.4-24.6,5.1-41.9,5.1C49.3,812.1,29.4,810.5,6.3,807.3z"/>
	<path class="st0" d="M174,767.5v-57.6c0-17.7,5.1-30.4,15.2-38.2c10.2-7.7,26.6-11.6,49.3-11.6c21.5,0,37,3.7,46.6,11.2
		c9.5,7.4,14.3,20.3,14.3,38.6v32.3h-98v22c0,10.1,3.5,17.3,10.6,21.7c7,4.4,17.9,6.6,32.6,6.6c13.9,0,30.3-2.4,49.2-7.2v20.8
		c-18.5,4-36.1,6-52.8,6C196.3,812.1,174,797.2,174,767.5z M272.3,724.4v-22.9c0-8.8-2.7-14.9-8-18.2c-5.3-3.3-14.4-5-27.3-5
		c-12.5,0-21.5,1.7-27.1,5c-5.6,3.3-8.4,9.4-8.4,18.2v22.9H272.3z"/>
	<path class="st0" d="M353.6,808.2c-7.5-2.6-13-7.2-16.3-13.9c-3.3-6.6-5-16.2-5-28.7c0-11.1,1.6-19.7,4.7-25.8
		c3.1-6.1,8.4-10.5,16-13.1c7.5-2.6,18.2-3.9,32.1-3.9h43.7v-23.2c0-5.4-1.1-9.6-3.2-12.5c-2.1-2.9-5.6-5-10.6-6.2
		c-4.9-1.2-12.1-1.8-21.6-1.8c-15.1,0-31.8,1.2-50.1,3.6v-19.9c19.9-1.8,37.9-2.7,54-2.7c16.9,0,29.4,1.3,37.4,3.8
		c8,2.5,13.6,6.9,16.6,13.1c3,6.2,4.5,15.9,4.5,29v103.2h-26.2v-13.9c-2.2,11.3-16.9,16.9-44,16.9
		C371.9,812.1,361.2,810.8,353.6,808.2z M390.3,794.3c9.8,0,18.2-0.7,25-2.1c9-1.8,13.6-6,13.6-12.7v-39.8H387
		c-8.6,0-14.9,0.7-18.7,2c-3.8,1.3-6.3,3.8-7.5,7.4c-1.2,3.6-1.8,9.5-1.8,17.5c0,7.2,0.7,12.8,2.1,16.7c1.4,3.9,3.9,6.7,7.5,8.4
		c3.6,1.7,9,2.6,16.3,2.6H390.3z"/>
	<path class="st0" d="M503.1,663.1h25.6V687c0-4.6,2-9,6-13.1c4-4.1,9.1-7.4,15.4-10c6.2-2.5,12.4-3.8,18.4-3.8h13.3v23.2h-15.1
		c-12.9,0-22.2,1.7-27.9,5c-5.7,3.3-8.6,9.3-8.6,17.9v102.9h-27.1V663.1z"/>
	<path class="st0" d="M645.9,811.5c-4.5-0.4-9.7-1.4-15.5-3c-6.2-1.6-11.1-4-14.5-7.2c-3.4-3.2-6.3-7.9-8.7-14.2
		c-2.4-6-3.6-13.6-3.6-22.6v-53.7c0-16.3,3.1-27.9,9.4-35c3.4-4,6.9-7.1,10.4-9.2c3.5-2.1,8.1-3.6,13.7-4.4
		c5.6-0.8,10.7-1.4,15.1-1.7c4.4-0.3,10.7-0.5,18.7-0.5c13.9,0,27.8,1.5,41.6,4.5v19.9c-16.1-4-31.1-6-44.9-6
		c-10.5,0-18.1,0.8-23.1,2.3c-4.9,1.5-8.3,4.2-10.3,8.1c-1.9,3.9-2.9,9.9-2.9,17.9v59.7c0,7.4,1.1,13,3.2,16.6
		c2.1,3.6,5.9,6.2,11.5,7.7c5.5,1.5,13.7,2.3,24.6,2.3c14.7,0,29.4-1.9,44-5.7v20.5c-13.7,2.8-29.3,4.2-46.8,4.2
		C657.7,812.1,650.4,811.9,645.9,811.5z"/>
	<path class="st0" d="M748.9,598h27.1v82.9c2.8-13.9,18.8-20.8,48-20.8c18.7,0,31.8,3.4,39.4,10.1c7.5,6.7,11.3,17.3,11.3,31.8
		v107.1h-27.1V703.8c0-3.8-0.3-6.9-0.9-9.4s-1.8-4.8-3.6-7.2c-4-5-13-7.5-26.8-7.5c-11.1,0-19.5,0.8-25.2,2.3
		c-5.7,1.5-9.7,4-11.8,7.4c-2.1,3.4-3.2,8.2-3.2,14.5v105.3h-27.1V598z"/>
</g>
<g>
	<circle class="st0" cx="438.5" cy="422" r="121.5"/>
	<path class="st1" d="M438.5,300.3c-67.2,0-121.7,54.5-121.7,121.8c0,53.8,34.9,99.4,83.3,115.5c6.1,1.1,8.3-2.6,8.3-5.9
		c0-2.9-0.1-10.5-0.2-20.7c-33.9,7.4-41-16.3-41-16.3c-5.5-14.1-13.5-17.8-13.5-17.8c-11.1-7.6,0.8-7.4,0.8-7.4
		c12.2,0.9,18.6,12.5,18.6,12.5c10.9,18.6,28.5,13.2,35.4,10.1c1.1-7.9,4.3-13.2,7.7-16.3c-27-3.1-55.5-13.5-55.5-60.2
		c0-13.3,4.7-24.2,12.5-32.7c-1.3-3.1-5.4-15.5,1.2-32.2c0,0,10.2-3.3,33.5,12.5c9.7-2.7,20.1-4.1,30.5-4.1
		c10.3,0,20.8,1.4,30.5,4.1c23.2-15.8,33.4-12.5,33.4-12.5c6.6,16.8,2.5,29.1,1.2,32.2c7.8,8.5,12.5,19.4,12.5,32.7
		c0,46.8-28.5,57.1-55.6,60.1c4.4,3.8,8.3,11.2,8.3,22.5c0,16.3-0.1,29.4-0.1,33.4c0,3.3,2.2,7,8.4,5.9
		c48.3-16.1,83.2-61.7,83.2-115.5C560.3,354.9,505.8,300.3,438.5,300.3z"/>
</g>
</svg>
