<?xml version="1.0" encoding="utf-8"?>
<!-- Generator: Adobe Illustrator 22.1.0, SVG Export Plug-In . SVG Version: 6.00 Build 0)  -->
<svg version="1.1" id="Layer_1" xmlns="http://www.w3.org/2000/svg" xmlns:xlink="http://www.w3.org/1999/xlink" x="0px" y="0px"
	 viewBox="0 0 1280 2802" style="enable-background:new 0 0 1280 2802;" xml:space="preserve">
<style type="text/css">
	.st0{fill:#061116;}
	.st1{display:none;}
	.st2{display:inline;opacity:0.45;}
	.st3{opacity:7.000000e-02;clip-path:url(#SVGID_2_);}
	.st4{fill:#C1C1C1;}
	.st5{opacity:7.000000e-02;clip-path:url(#SVGID_4_);}
	.st6{display:inline;opacity:0.5;}
	.st7{fill:#FCFCFC;}
	.st8{display:none;fill:#FCFCFC;}
	.st9{display:inline;}
	.st10{fill:none;stroke:#686868;stroke-width:0.25;stroke-miterlimit:10;}
	.st11{opacity:0.15;fill:none;stroke:#686868;stroke-width:0.25;stroke-miterlimit:10;enable-background:new    ;}
	.st12{opacity:0.15;fill:#FCFCFC;enable-background:new    ;}
	.st13{opacity:0.3;fill:none;stroke:#686868;stroke-width:0.25;stroke-miterlimit:10;enable-background:new    ;}
	.st14{opacity:0.3;fill:#FCFCFC;enable-background:new    ;}
	.st15{fill:#FFFFFF;}
	.st16{fill:#34FF10;}
	.st17{fill:#0D0F12;}
	
		.st18{opacity:0.36;fill:none;stroke:url(#SVGID_5_);stroke-width:0.5;stroke-linecap:round;stroke-linejoin:round;stroke-dasharray:2.9719,2.9719,2.9719,2.9719,2.9719,2.9719;enable-background:new    ;}
	
		.st19{opacity:0.36;fill:none;stroke:url(#SVGID_6_);stroke-width:0.5;stroke-linecap:round;stroke-linejoin:round;stroke-dasharray:3.0209,3.0209,3.0209,3.0209,3.0209,3.0209;enable-background:new    ;}
	.st20{fill:#777777;}
	.st21{font-family:'Play-Regular';}
	.st22{font-size:24px;}
	.st23{font-size:27.5199px;}
	.st24{fill:#353535;}
	.st25{fill:#898989;}
	
		.st26{opacity:0.36;fill:none;stroke:url(#SVGID_7_);stroke-width:0.5;stroke-linecap:round;stroke-linejoin:round;stroke-dasharray:2.9719,2.9719,2.9719,2.9719,2.9719,2.9719;enable-background:new    ;}
	
		.st27{opacity:0.36;fill:none;stroke:url(#SVGID_8_);stroke-width:0.5;stroke-linecap:round;stroke-linejoin:round;stroke-dasharray:3.0209,3.0209,3.0209,3.0209,3.0209,3.0209;enable-background:new    ;}
	.st28{fill:#727272;}
	.st29{fill:#E0E0E0;}
	
		.st30{opacity:0.36;fill:none;stroke:url(#SVGID_9_);stroke-width:0.5;stroke-linecap:round;stroke-linejoin:round;stroke-dasharray:2.9719,2.9719,2.9719,2.9719,2.9719,2.9719;enable-background:new    ;}
	
		.st31{opacity:0.36;fill:none;stroke:url(#SVGID_10_);stroke-width:0.5;stroke-linecap:round;stroke-linejoin:round;stroke-dasharray:3.0209,3.0209,3.0209,3.0209,3.0209,3.0209;enable-background:new    ;}
	.st32{fill:#060000;}
	.st33{opacity:0.42;}
	.st34{fill:#32FF10;}
	.st35{fill:#52EF00;}
	.st36{opacity:0.7;}
	.st37{opacity:0.62;fill:#777777;enable-background:new    ;}
	.st38{fill:#AFAFAF;}
	
		.st39{opacity:0.36;fill:none;stroke:url(#SVGID_11_);stroke-width:0.5;stroke-linecap:round;stroke-linejoin:round;stroke-dasharray:2.9719,2.9719,2.9719,2.9719,2.9719,2.9719;enable-background:new    ;}
	
		.st40{opacity:0.36;fill:none;stroke:url(#SVGID_12_);stroke-width:0.5;stroke-linecap:round;stroke-linejoin:round;stroke-dasharray:3.0209,3.0209,3.0209,3.0209,3.0209,3.0209;enable-background:new    ;}
	
		.st41{opacity:0.36;fill:none;stroke:url(#SVGID_13_);stroke-width:0.5;stroke-linecap:round;stroke-linejoin:round;stroke-dasharray:2.9719,2.9719,2.9719,2.9719,2.9719,2.9719;enable-background:new    ;}
	
		.st42{opacity:0.36;fill:none;stroke:url(#SVGID_14_);stroke-width:0.5;stroke-linecap:round;stroke-linejoin:round;stroke-dasharray:3.0209,3.0209,3.0209,3.0209,3.0209,3.0209;enable-background:new    ;}
	
		.st43{opacity:0.36;fill:none;stroke:url(#SVGID_15_);stroke-width:0.5;stroke-linecap:round;stroke-linejoin:round;stroke-dasharray:2.9719,2.9719,2.9719,2.9719,2.9719,2.9719;enable-background:new    ;}
	
		.st44{opacity:0.36;fill:none;stroke:url(#SVGID_16_);stroke-width:0.5;stroke-linecap:round;stroke-linejoin:round;stroke-dasharray:3.0209,3.0209,3.0209,3.0209,3.0209,3.0209;enable-background:new    ;}
	
		.st45{opacity:0.36;fill:none;stroke:url(#SVGID_17_);stroke-width:0.5;stroke-linecap:round;stroke-linejoin:round;stroke-dasharray:2.9719,2.9719,2.9719,2.9719,2.9719,2.9719;enable-background:new    ;}
	
		.st46{opacity:0.36;fill:none;stroke:url(#SVGID_18_);stroke-width:0.5;stroke-linecap:round;stroke-linejoin:round;stroke-dasharray:3.0209,3.0209,3.0209,3.0209,3.0209,3.0209;enable-background:new    ;}
	
		.st47{opacity:0.36;fill:none;stroke:url(#SVGID_19_);stroke-width:0.5;stroke-linecap:round;stroke-linejoin:round;stroke-dasharray:2.9719,2.9719,2.9719,2.9719,2.9719,2.9719;enable-background:new    ;}
	
		.st48{opacity:0.36;fill:none;stroke:url(#SVGID_20_);stroke-width:0.5;stroke-linecap:round;stroke-linejoin:round;stroke-dasharray:3.0209,3.0209,3.0209,3.0209,3.0209,3.0209;enable-background:new    ;}
	.st49{font-size:30.3021px;}
	.st50{font-family:'Play-Bold';}
	
		.st51{opacity:0.36;fill:none;stroke:url(#SVGID_21_);stroke-width:0.5;stroke-linecap:round;stroke-linejoin:round;stroke-dasharray:2.9719,2.9719,2.9719,2.9719,2.9719,2.9719;enable-background:new    ;}
	
		.st52{opacity:0.36;fill:none;stroke:url(#SVGID_22_);stroke-width:0.5;stroke-linecap:round;stroke-linejoin:round;stroke-dasharray:3.0209,3.0209,3.0209,3.0209,3.0209,3.0209;enable-background:new    ;}
	
		.st53{opacity:0.36;fill:none;stroke:url(#SVGID_23_);stroke-width:0.5;stroke-linecap:round;stroke-linejoin:round;stroke-dasharray:2.9719,2.9719,2.9719,2.9719,2.9719,2.9719;enable-background:new    ;}
	
		.st54{opacity:0.36;fill:none;stroke:url(#SVGID_24_);stroke-width:0.5;stroke-linecap:round;stroke-linejoin:round;stroke-dasharray:3.0209,3.0209,3.0209,3.0209,3.0209,3.0209;enable-background:new    ;}
</style>
<g id="Layer_1_1_">
	<g id="logo">
		<g id="background">
			<rect id="background_x5F_2" x="594.5" class="st0" width="685.6" height="2802.2"/>
		</g>
		<g id="cat_x5F_opacity" class="st1">
			<g id="cat_x5F_little" class="st2">
				<g>
					<g>
						<g>
							<g>
								<g>
									<defs>
										<rect id="SVGID_1_" x="-0.5" y="1019.1" width="271.6" height="538.8"/>
									</defs>
									<clipPath id="SVGID_2_">
										<use xlink:href="#SVGID_1_"  style="overflow:visible;"/>
									</clipPath>
									<g id="Layer_6_1_" class="st3">
										<g>
											<g>
												<g>
													<g>
														<path class="st4" d="M20.2,1446.6l26.4-90.7c-37.9-4.3-77.8-19-77.8-84.6c0-18.7,6.8-33.8,17.6-45.8
															c-1.8-4.3-7.7-21.7,1.6-45.4c0,0,14.4-4.5,46.9,17.6c13.5-3.8,28.2-5.6,42.9-5.9c14.4,0,29.1,2,42.9,5.9
															c32.7-22.1,46.9-17.6,46.9-17.6c9.3,23.5,3.4,40.8,1.8,45.4c11.1,12,17.6,27.3,17.6,45.8c0,65.7-39.9,80.1-78.1,84.4
															l25.5,92.3l-56.4,9.5L20.2,1446.6z"/>
														<g>
															<g>
																<path class="st4" d="M179.7,1128.1c-86.8-56.7-206.2-29.8-258.7,60c-48.7,83-22.3,192.7,58,245.3
																	c45.4,29.8,100.6,36.8,152.1,20.1c6.1-2,3.6-11.7-2.7-9.7c-43.2,13.7-88.8,10.7-129.2-10.2
																	c-38.1-19.9-68.4-53.9-83-94.5c-30.7-85.5,12-183,95.9-218c53.3-22.4,114.4-15.6,162.5,15.8
																	C180,1140.5,185.2,1131.7,179.7,1128.1L179.7,1128.1z"/>
															</g>
														</g>
													</g>
												</g>
											</g>
										</g>
									</g>
								</g>
							</g>
						</g>
					</g>
				</g>
			</g>
			<g id="cat_x5F_big" class="st2">
				<g>
					<g>
						<g>
							<g>
								<g>
									<defs>
										<rect id="SVGID_3_" x="1109.9" y="1704.3" width="170.1" height="337.5"/>
									</defs>
									<clipPath id="SVGID_4_">
										<use xlink:href="#SVGID_3_"  style="overflow:visible;"/>
									</clipPath>
									<g id="Layer_6_2_" class="st5">
										<g>
											<g>
												<g>
													<g>
														<path class="st4" d="M1242.9,1972.1l16.5-56.8c-23.7-2.7-48.8-11.9-48.8-53c0-11.7,4.2-21.2,11-28.7
															c-1.1-2.7-4.8-13.6,1-28.4c0,0,9-2.8,29.4,11c8.5-2.4,17.7-3.5,26.8-3.7c9,0,18.2,1.3,26.8,3.7
															c20.5-13.8,29.4-11,29.4-11c5.8,14.7,2.1,25.6,1.1,28.4c6.9,7.5,11,17.1,11,28.7c0,41.1-25,50.2-48.9,52.8l16,57.8
															l-35.3,5.9L1242.9,1972.1z"/>
														<g>
															<g>
																<path class="st4" d="M1342.8,1772.5c-54.4-35.5-129.2-18.7-162.1,37.6c-30.5,52-14,120.7,36.3,153.6
																	c28.4,18.7,63,23,95.2,12.6c3.8-1.3,2.3-7.3-1.7-6.1c-27,8.6-55.5,6.8-80.8-6.4c-23.9-12.4-42.8-33.8-52-59.2
																	c-19.2-53.6,7.5-114.6,60.1-136.5c33.3-14,71.6-9.8,101.7,9.9C1343,1780.3,1346.2,1774.8,1342.8,1772.5
																	L1342.8,1772.5z"/>
															</g>
														</g>
													</g>
												</g>
											</g>
										</g>
									</g>
								</g>
							</g>
						</g>
					</g>
				</g>
			</g>
		</g>
		<g id="point" class="st1">
			<g id="point_x5F_cat" class="st6">
				<circle class="st7" cx="559.7" cy="1420.7" r="2.5"/>
				<circle class="st8" cx="559.7" cy="1500.5" r="2.5"/>
				<circle class="st7" cx="559.7" cy="1463.1" r="2.5"/>
				<circle class="st7" cx="634.5" cy="1463.1" r="2.5"/>
				<circle class="st8" cx="634.5" cy="1542.8" r="2.5"/>
				<circle class="st8" cx="634.5" cy="1505.4" r="2.5"/>
				<circle class="st7" cx="634.5" cy="1625" r="2.5"/>
				<circle class="st7" cx="634.5" cy="1744.6" r="2.5"/>
				<circle class="st7" cx="634.5" cy="1667.4" r="2.5"/>
				<circle class="st7" cx="415.2" cy="1542.8" r="2.5"/>
				<circle class="st7" cx="415.3" cy="1505.3" r="2.5"/>
				<circle class="st7" cx="488.7" cy="1463.1" r="2.5"/>
				<circle class="st7" cx="559.7" cy="1545.3" r="2.5"/>
				<circle class="st7" cx="704.2" cy="1545.3" r="2.5"/>
				<circle class="st7" cx="704.2" cy="1625" r="2.5"/>
				<circle class="st8" cx="704.2" cy="1587.6" r="2.5"/>
				<circle class="st8" cx="778.9" cy="1587.6" r="2.5"/>
				<circle class="st7" cx="853.7" cy="1587.6" r="2.5"/>
				<circle class="st7" cx="778.9" cy="1625" r="2.5"/>
				<circle class="st7" cx="704.2" cy="1669.9" r="2.5"/>
				<circle class="st7" cx="340.5" cy="1545.3" r="2.5"/>
				<circle class="st8" cx="340.5" cy="1620" r="2.5"/>
				<circle class="st8" cx="340.5" cy="1582.7" r="2.5"/>
				<circle class="st8" cx="270.8" cy="1582.7" r="2.5"/>
				<circle class="st7" cx="559.7" cy="1666.1" r="2.5"/>
				<circle class="st7" cx="559.7" cy="1748.3" r="2.5"/>
				<circle class="st7" cx="559.7" cy="1595.1" r="2.5"/>
				<circle class="st8" cx="487.5" cy="1585.2" r="2.5"/>
				<circle class="st8" cx="487.5" cy="1544.1" r="2.5"/>
				<circle class="st7" cx="487.6" cy="1624.3" r="2.5"/>
				<circle class="st7" cx="487.5" cy="1666.1" r="2.5"/>
				<circle class="st7" cx="487.5" cy="1706" r="2.5"/>
			</g>
			<g id="point_x5F_background" class="st9">
				<circle class="st10" cx="487.6" cy="1624.3" r="10.6"/>
				<circle class="st10" cx="415.3" cy="1505.3" r="10.6"/>
				<circle class="st11" cx="309.5" cy="1311" r="8.5"/>
				<circle class="st12" cx="309.5" cy="1311" r="2"/>
				<circle class="st13" cx="1039.3" cy="1980" r="8.5"/>
				<circle class="st14" cx="1039.3" cy="1980" r="2"/>
				<circle class="st14" cx="1045.4" cy="1960" r="0.8"/>
				<circle class="st14" cx="1015.4" cy="1983" r="1.6"/>
				<circle class="st14" cx="1034" cy="1930" r="0.6"/>
				<circle class="st14" cx="1064.4" cy="1950" r="0.5"/>
				<circle class="st14" cx="1018.1" cy="2020" r="0.6"/>
				<circle class="st14" cx="1041.3" cy="2000" r="0.8"/>
				<circle class="st14" cx="1059.4" cy="2020" r="1.4"/>
				<circle class="st11" cx="341.5" cy="1287" r="8.5"/>
				<circle class="st12" cx="341.5" cy="1287" r="2"/>
				<circle class="st12" cx="347.7" cy="1267" r="0.8"/>
				<circle class="st12" cx="317.7" cy="1290" r="1.6"/>
				<circle class="st12" cx="336.2" cy="1237" r="0.6"/>
				<circle class="st12" cx="366.7" cy="1257" r="0.5"/>
				<circle class="st12" cx="320.4" cy="1327" r="0.6"/>
				<circle class="st13" cx="229.5" cy="1371" r="8.5"/>
				<circle class="st14" cx="229.5" cy="1371" r="2"/>
				<circle class="st14" cx="237.7" cy="1350" r="1.6"/>
				<circle class="st14" cx="240.4" cy="1387" r="0.6"/>
				<circle class="st12" cx="343.6" cy="1307" r="0.8"/>
				<circle class="st12" cx="361.7" cy="1327" r="1.4"/>
			</g>
		</g>
		<g id="cat_x5F_square" class="st1">
			<g class="st9">
				<path class="st15" d="M905.6,2362.8c-0.8-0.1-1.7-0.2-2.8-0.5s-2-0.8-2.7-1.3c-0.6-0.6-1.1-1.4-1.6-2.6
					c-0.5-1.1-0.7-2.4-0.7-4.1v-9.7c0-3,0.5-5.1,1.7-6.3c0.6-0.8,1.2-1.3,1.9-1.7c0.6-0.4,1.4-0.7,2.5-0.8c1-0.2,1.9-0.2,2.7-0.3
					c0.8-0.1,1.9-0.1,3.4-0.1c2.5,0,5,0.3,7.5,0.8v3.6c-2.9-0.8-5.6-1.1-8.1-1.1c-1.9,0-3.3,0.2-4.2,0.4c-0.9,0.3-1.5,0.8-1.8,1.4
					c-0.4,0.7-0.5,1.8-0.5,3.3v10.8c0,1.4,0.2,2.3,0.6,3c0.4,0.7,1.1,1.1,2,1.4c1,0.3,2.5,0.4,4.5,0.4c2.7,0,5.3-0.4,8-1.1v3.7
					c-2.5,0.5-5.3,0.8-8.4,0.8C907.7,2362.9,906.4,2362.9,905.6,2362.8z"/>
				<path class="st15" d="M930.5,2362.7l-10.2-26.8h5.3l7.4,21.5h0.1l6.7-21.5h4.9l-13.3,37.7h-5L930.5,2362.7z"/>
				<path class="st15" d="M956.4,2362.6c-1.2-0.2-2.3-0.6-3.5-1.1c-2.3-1.1-3.6-3.7-3.6-7.7v-29.6h4.9v7.9v3.1c0,0.9-0.1,2-0.1,3.2
					c0.2-0.8,0.9-1.5,2.3-2.1c1.4-0.5,3.4-0.8,6-0.8c7.3,0,10.9,2.5,10.9,7.5v10.8c0,1.6-0.2,3-0.7,4.1c-0.5,1.1-1.1,2-1.7,2.7
					c-0.7,0.6-1.5,1.1-2.7,1.4c-1.1,0.4-2.3,0.6-3.4,0.7c-1,0.1-2.3,0.2-3.7,0.2C959.1,2362.9,957.5,2362.8,956.4,2362.6z
					 M965.5,2359.3c1-0.3,1.7-0.8,2.1-1.5c0.5-0.8,0.7-1.8,0.7-3.3v-10.3c0-1.5-0.2-2.6-0.7-3.3c-0.5-0.8-1.1-1.2-2.1-1.4
					s-2.4-0.4-4.4-0.4c-1.7,0-3.2,0.2-4.2,0.5s-1.7,0.8-2.1,1.5c-0.5,0.8-0.7,1.8-0.7,3.2v10.4c0,1.5,0.2,2.6,0.6,3.3
					c0.5,0.8,1.1,1.2,2.1,1.5s2.4,0.4,4.2,0.4C963,2359.7,964.5,2359.6,965.5,2359.3z"/>
				<path class="st15" d="M979.9,2354.9v-10.5c0-3.2,0.9-5.5,2.7-6.9c1.8-1.4,4.8-2.1,8.9-2.1c3.9,0,6.7,0.7,8.4,2s2.6,3.6,2.6,7
					v5.8h-17.7v3.9c0,1.8,0.6,3.1,1.9,3.9c1.3,0.8,3.3,1.2,5.9,1.2c2.5,0,5.5-0.5,8.9-1.3v3.8c-3.3,0.8-6.5,1.1-9.5,1.1
					C983.9,2362.9,979.9,2360.2,979.9,2354.9z M997.7,2347.1v-4.2c0-1.6-0.5-2.7-1.4-3.3s-2.6-0.9-4.9-0.9c-2.3,0-3.9,0.3-4.9,0.9
					c-1,0.6-1.5,1.7-1.5,3.3v4.2H997.7z"/>
				<path class="st15" d="M1010,2336h4.6v4.3c0-0.8,0.4-1.6,1.1-2.3c0.8-0.8,1.7-1.4,2.8-1.8c1.1-0.5,2.2-0.7,3.3-0.7h2.4v4.2h-2.7
					c-2.3,0-4,0.3-5.1,0.9c-1.1,0.6-1.5,1.7-1.5,3.3v18.6h-4.9L1010,2336L1010,2336z"/>
			</g>
			<g class="st9">
				<path class="st15" d="M850.7,2602.6v-16.9c0-6.8,5-10.2,15-10.2c3.4,0,6.7,0.4,9.8,1.1v3.9c-3.5-0.9-6.7-1.3-9.7-1.3
					c-1.4,0-2.7,0.1-3.7,0.2c-1.1,0.2-2.1,0.5-3.1,0.8c-2.1,0.9-3.2,2.7-3.2,5.4v16.7c0,4.1,3.4,6.1,10.2,6.1c3,0,6.1-0.5,9.7-1.3
					v4.1c-3.1,0.7-6.4,1.1-10,1.1C855.7,2612.3,850.7,2609,850.7,2602.6z"/>
				<path class="st15" d="M888.3,2612c-1.1-0.2-2.3-0.5-3.5-1.1c-1.2-0.5-2.1-1.4-2.7-2.7c-0.6-1.3-0.8-2.9-0.8-5v-9.2
					c0-1.7,0.2-3.1,0.6-4.3c0.4-1.2,0.9-2.2,1.6-2.9c0.5-0.6,1.4-1.1,2.5-1.4c1.1-0.4,2.3-0.6,3.4-0.7c1.3-0.1,2.7-0.1,4.1-0.1
					c1.9,0,3.3,0.1,4.3,0.2c1,0.1,2,0.3,3.1,0.6c1.1,0.3,2,0.8,2.7,1.5s1.1,1.6,1.6,2.9c0.4,1.3,0.6,2.7,0.6,4.5v9.2
					c0,3.1-0.7,5.4-2.1,6.8c-0.6,0.6-1.4,1.1-2.5,1.4s-2.2,0.5-3.4,0.7c-1.4,0.1-2.8,0.1-4.2,0.1
					C891.3,2612.3,889.6,2612.2,888.3,2612z M897,2608.9c0.7-0.1,1.4-0.3,2-0.6c0.7-0.3,1.1-0.8,1.4-1.4c0.3-0.7,0.4-1.6,0.4-2.8
					v-10.8c0-1.7-0.2-2.9-0.6-3.6c-0.4-0.8-1.1-1.2-2-1.5c-1-0.2-2.5-0.4-4.5-0.4s-3.6,0.2-4.5,0.4c-1,0.2-1.7,0.8-2,1.5
					c-0.4,0.8-0.6,2-0.6,3.6v10.8c0,1.2,0.2,2.1,0.4,2.8c0.3,0.7,0.8,1.1,1.4,1.4c0.7,0.3,1.4,0.5,2,0.6c0.7,0.1,1.8,0.1,3.3,0.1
					C895.2,2609,896.3,2609,897,2608.9z"/>
				<path class="st15" d="M913.6,2585.1h4.9v3.3c0.5-2.5,3.4-3.8,8.7-3.8c3.4,0,5.8,0.6,7.2,1.8s2,3.2,2,5.8v19.5h-4.9v-19.2
					c0-0.7-0.1-1.3-0.2-1.7c-0.1-0.5-0.3-0.9-0.7-1.3c-0.8-0.9-2.3-1.4-4.9-1.4c-2,0-3.4,0.2-4.5,0.4c-1.1,0.3-1.7,0.8-2.2,1.4
					c-0.5,0.6-0.6,1.5-0.6,2.7v19.3h-4.9L913.6,2585.1L913.6,2585.1z"/>
				<path class="st15" d="M945.9,2623.2v-3.5c4.4,0.5,7.6,0.8,9.6,0.8c2.5,0,4.4-0.4,5.5-1.2s1.7-2.1,1.7-4v-6.4
					c-0.1,1.1-0.8,2-2.4,2.6c-1.5,0.5-3.4,0.8-5.8,0.8c-2.7,0-4.9-0.2-6.4-0.8c-1.5-0.5-2.6-1.4-3.3-2.5c-0.6-1.1-1-2.7-1-4.8v-10.8
					c0-3.2,0.8-5.4,2.6-6.7c1.7-1.4,4.5-2,8.4-2c4.6,0,7.4,1.1,8.1,3.1v-2.6h4.6v29.1c0,2.4-0.5,4.4-1.4,5.8c-0.9,1.4-2.3,2.3-4.1,3
					c-1.8,0.5-4.2,0.8-7.1,0.8C951.5,2623.8,948.4,2623.6,945.9,2623.2z M961.3,2608c1.1-0.6,1.6-1.8,1.6-3.5v-12
					c0-1.2-0.2-2.1-0.6-2.7c-0.4-0.6-1.1-1.1-2.1-1.4s-2.5-0.4-4.5-0.4c-1.9,0-3.3,0.2-4.2,0.4c-0.9,0.2-1.6,0.7-1.9,1.4
					c-0.4,0.6-0.5,1.6-0.5,2.8v12.1c0,1.2,0.2,2.2,0.5,2.8c0.4,0.6,1.1,1.1,2,1.3c1,0.2,2.3,0.4,4.2,0.4
					C958.3,2608.9,960.2,2608.6,961.3,2608z"/>
				<path class="st15" d="M976.3,2585.1h4.7v4.3c0-0.8,0.4-1.7,1.1-2.4c0.8-0.8,1.7-1.4,2.8-1.8c1.1-0.5,2.3-0.7,3.3-0.7h2.4v4.2
					h-2.7c-2.3,0-4,0.3-5.1,0.9c-1.1,0.6-1.6,1.7-1.6,3.3v18.7h-4.9V2585.1L976.3,2585.1z"/>
				<path class="st15" d="M994.6,2604.2v-10.5c0-3.3,0.9-5.5,2.8-7c1.8-1.4,4.9-2.1,9-2.1c3.9,0,6.7,0.7,8.5,2
					c1.7,1.4,2.6,3.7,2.6,7v5.9h-17.9v4c0,1.8,0.6,3.2,1.9,3.9c1.3,0.8,3.3,1.2,5.9,1.2c2.5,0,5.5-0.5,8.9-1.3v3.8
					c-3.3,0.8-6.6,1.1-9.6,1.1C998.7,2612.3,994.6,2609.5,994.6,2604.2z M1012.5,2596.3v-4.2c0-1.6-0.5-2.7-1.4-3.3
					c-1-0.6-2.7-0.9-5-0.9s-3.9,0.3-4.9,0.9c-1.1,0.6-1.5,1.7-1.5,3.3v4.2H1012.5z"/>
				<path class="st15" d="M1024,2611.6v-3.8c4.3,0.7,7.4,1.1,9.2,1.1c2.3,0,4-0.2,5.1-0.7s1.5-1.3,1.5-2.6v-2.7c0-1.1-0.4-2-1.1-2.4
					c-0.8-0.5-2-0.7-3.7-0.7h-3c-2.7,0-4.9-0.5-6.3-1.7c-1.4-1.1-2.2-2.7-2.2-4.8v-2.5c0-4.2,3.9-6.3,11.9-6.3
					c0.6,0,3.3,0.2,8.1,0.5v3.6c-3.3-0.5-6-0.8-8.3-0.8c-2.6,0-4.4,0.2-5.3,0.8c-1,0.5-1.4,1.4-1.4,2.6v2.3c0,1.8,1.6,2.7,4.9,2.7
					h3.1c5.6,0,8.4,2.1,8.4,6.3v2.3c0,2.7-1,4.7-2.9,5.8s-4.9,1.7-8.7,1.7C1030.3,2612.3,1027.3,2612,1024,2611.6z"/>
				<path class="st15" d="M1050.5,2611.6v-3.8c4.3,0.7,7.4,1.1,9.2,1.1c2.3,0,4-0.2,5.1-0.7s1.5-1.3,1.5-2.6v-2.7
					c0-1.1-0.4-2-1.1-2.4c-0.8-0.5-2-0.7-3.7-0.7h-3c-2.7,0-4.9-0.5-6.3-1.7c-1.4-1.1-2.2-2.7-2.2-4.8v-2.5c0-4.2,3.9-6.3,11.9-6.3
					c0.6,0,3.3,0.2,8.1,0.5v3.6c-3.3-0.5-6-0.8-8.3-0.8c-2.6,0-4.4,0.2-5.3,0.8c-1,0.5-1.4,1.4-1.4,2.6v2.3c0,1.8,1.6,2.7,4.9,2.7
					h3.1c5.6,0,8.4,2.1,8.4,6.3v2.3c0,2.7-1,4.7-2.9,5.8s-4.9,1.7-8.7,1.7C1056.8,2612.3,1053.8,2612,1050.5,2611.6z"/>
			</g>
			<g id="Layer_6_10_" class="st9">
				<g>
					<g>
						<path class="st16" d="M953.8,2530.1l8.9-30.5c-12.7-1.4-26.1-6.4-26.1-28.4c0-6.3,2.3-11.4,5.9-15.4
							c-0.6-1.4-2.6-7.3,0.5-15.2c0,0,4.9-1.5,15.8,5.9c4.5-1.3,9.5-1.9,14.4-2c4.9,0,9.8,0.7,14.4,2c11-7.4,15.8-5.9,15.8-5.9
							c3.1,7.9,1.1,13.7,0.6,15.2c3.7,4,5.9,9.2,5.9,15.4c0,22.1-13.4,26.9-26.2,28.3l8.6,31l-18.9,3.2L953.8,2530.1z"/>
						<g>
							<g>
								<path class="st16" d="M1007.4,2423.1c-29.2-19-69.3-10-86.9,20.2c-16.4,27.9-7.5,64.7,19.5,82.4c15.2,10,33.8,12.4,51.1,6.7
									c2-0.7,1.2-3.9-0.9-3.3c-14.5,4.6-29.8,3.6-43.4-3.4c-12.8-6.7-23-18.1-27.9-31.8c-10.3-28.7,4-61.5,32.2-73.2
									c17.9-7.5,38.4-5.2,54.6,5.3C1007.5,2427.3,1009.2,2424.3,1007.4,2423.1L1007.4,2423.1z"/>
							</g>
						</g>
					</g>
				</g>
			</g>
		</g>
		<g id="cat_x5F_black" class="st1">
			<g id="Layer_2_3_" class="st9">
				<g>
					<path class="st17" d="M71.4,2507.4c-0.8-0.1-1.7-0.2-2.8-0.5c-1.1-0.3-2-0.8-2.7-1.3c-0.6-0.6-1.1-1.4-1.6-2.6
						c-0.5-1.1-0.7-2.4-0.7-4.1v-9.7c0-3,0.5-5.1,1.7-6.3c0.6-0.8,1.2-1.3,1.9-1.7c0.6-0.4,1.4-0.7,2.5-0.8c1-0.2,1.9-0.2,2.7-0.3
						c0.8-0.1,1.9-0.1,3.4-0.1c2.5,0,5,0.3,7.5,0.8v3.6c-2.9-0.8-5.6-1.1-8.1-1.1c-1.9,0-3.3,0.2-4.2,0.4c-0.9,0.3-1.5,0.8-1.8,1.4
						c-0.4,0.7-0.5,1.8-0.5,3.3v10.8c0,1.4,0.2,2.3,0.6,3s1.1,1.1,2,1.4c1,0.3,2.5,0.4,4.5,0.4c2.7,0,5.3-0.4,8-1.1v3.7
						c-2.5,0.5-5.3,0.8-8.4,0.8C73.5,2507.4,72.2,2507.4,71.4,2507.4z"/>
					<path class="st17" d="M96.3,2507.3l-10.2-26.8h5.3l7.4,21.5h0.1l6.7-21.5h4.9l-13.3,37.7h-5L96.3,2507.3z"/>
					<path class="st17" d="M122.2,2507.1c-1.2-0.2-2.3-0.6-3.5-1.1c-2.3-1.1-3.6-3.7-3.6-7.7v-29.6h4.9v7.9v3.1c0,0.9-0.1,2-0.1,3.2
						c0.2-0.8,0.9-1.5,2.3-2.1c1.4-0.5,3.4-0.8,6-0.8c7.3,0,10.9,2.5,10.9,7.5v10.8c0,1.6-0.2,3-0.7,4.1c-0.5,1.1-1.1,2-1.7,2.7
						c-0.7,0.6-1.5,1.1-2.7,1.4c-1.1,0.4-2.3,0.6-3.4,0.7c-1,0.1-2.3,0.2-3.7,0.2C124.9,2507.4,123.3,2507.4,122.2,2507.1z
						 M131.3,2503.8c1-0.3,1.7-0.8,2.1-1.5c0.5-0.8,0.7-1.8,0.7-3.3v-10.3c0-1.5-0.2-2.6-0.7-3.3c-0.5-0.8-1.1-1.2-2.1-1.4
						s-2.4-0.4-4.4-0.4c-1.7,0-3.2,0.2-4.2,0.5s-1.7,0.8-2.1,1.5c-0.5,0.8-0.7,1.8-0.7,3.2v10.4c0,1.5,0.2,2.6,0.6,3.3
						c0.5,0.8,1.1,1.2,2.1,1.5s2.4,0.4,4.2,0.4C128.8,2504.3,130.3,2504.1,131.3,2503.8z"/>
					<path class="st17" d="M145.7,2499.4v-10.5c0-3.2,0.9-5.5,2.7-6.9c1.8-1.4,4.8-2.1,8.9-2.1c3.9,0,6.7,0.7,8.4,2
						c1.7,1.4,2.6,3.6,2.6,7v5.8h-17.7v3.9c0,1.8,0.6,3.1,1.9,3.9c1.3,0.8,3.3,1.2,5.9,1.2c2.5,0,5.5-0.5,8.9-1.3v3.8
						c-3.3,0.8-6.5,1.1-9.5,1.1C149.7,2507.4,145.7,2504.8,145.7,2499.4z M163.5,2491.6v-4.2c0-1.6-0.5-2.7-1.4-3.3
						s-2.6-0.9-4.9-0.9c-2.3,0-3.9,0.3-4.9,0.9c-1,0.6-1.5,1.7-1.5,3.3v4.2H163.5z"/>
					<path class="st17" d="M175.8,2480.5h4.6v4.3c0-0.8,0.4-1.6,1.1-2.3c0.8-0.8,1.7-1.4,2.8-1.8c1.1-0.4,2.2-0.7,3.3-0.7h2.4v4.2
						h-2.7c-2.3,0-4,0.3-5.1,0.9c-1.1,0.6-1.5,1.7-1.5,3.3v18.6h-4.9L175.8,2480.5L175.8,2480.5z"/>
				</g>
				<g>
					<path class="st17" d="M354,2496.5v-17c0-6.8,5-10.2,15-10.2c3.4,0,6.7,0.4,9.8,1.1v3.9c-3.5-0.9-6.7-1.3-9.7-1.3
						c-1.4,0-2.7,0.1-3.7,0.2c-1,0.1-2.1,0.5-3.1,0.8c-2.1,0.9-3.2,2.7-3.2,5.4v16.7c0,4.1,3.4,6.1,10.2,6.1c3,0,6.1-0.5,9.7-1.3
						v4.1c-3.1,0.7-6.4,1.1-10,1.1C359,2506.2,354,2502.9,354,2496.5z"/>
					<path class="st17" d="M391.7,2505.9c-1.1-0.2-2.3-0.5-3.5-1.1c-1.2-0.5-2.1-1.4-2.7-2.7c-0.5-1.2-0.8-2.9-0.8-5v-9.2
						c0-1.7,0.2-3.1,0.6-4.3c0.4-1.2,0.9-2.2,1.6-2.9c0.5-0.6,1.4-1.1,2.5-1.4c1.1-0.4,2.3-0.6,3.4-0.7c1.3-0.1,2.7-0.1,4.1-0.1
						c1.9,0,3.3,0.1,4.3,0.2c1,0.1,2,0.3,3.1,0.6c1.1,0.3,2,0.8,2.7,1.5s1.1,1.6,1.6,2.9c0.4,1.3,0.6,2.7,0.6,4.5v9.2
						c0,3.1-0.7,5.4-2.1,6.8c-0.6,0.6-1.4,1.1-2.5,1.4s-2.2,0.5-3.4,0.7c-1.4,0.1-2.8,0.1-4.2,0.1
						C394.6,2506.2,392.9,2506.1,391.7,2505.9z M400.3,2502.8c0.7-0.1,1.4-0.3,2-0.6c0.7-0.3,1.1-0.8,1.4-1.4
						c0.3-0.7,0.4-1.6,0.4-2.8v-10.8c0-1.7-0.2-2.9-0.6-3.6c-0.4-0.8-1.1-1.2-2-1.5c-1-0.2-2.5-0.4-4.5-0.4s-3.6,0.2-4.5,0.4
						c-1,0.2-1.7,0.8-2,1.5s-0.6,2-0.6,3.6v10.8c0,1.2,0.2,2.1,0.4,2.8c0.3,0.7,0.8,1.1,1.4,1.4c0.7,0.3,1.4,0.5,2,0.6
						c0.7,0.1,1.8,0.1,3.3,0.1C398.5,2502.9,399.7,2502.9,400.3,2502.8z"/>
					<path class="st17" d="M416.9,2479h4.9v3.3c0.5-2.5,3.4-3.8,8.7-3.8c3.4,0,5.8,0.6,7.2,1.8c1.4,1.2,2,3.2,2,5.8v19.5h-4.9v-19.2
						c0-0.7-0.1-1.3-0.2-1.7c-0.1-0.5-0.3-0.9-0.7-1.3c-0.8-0.9-2.3-1.4-4.9-1.4c-2,0-3.4,0.2-4.5,0.4c-1.1,0.3-1.7,0.8-2.2,1.4
						c-0.5,0.6-0.6,1.5-0.6,2.7v19.3h-4.9L416.9,2479L416.9,2479z"/>
					<path class="st17" d="M449.3,2517.1v-3.5c4.4,0.5,7.6,0.8,9.6,0.8c2.5,0,4.4-0.4,5.5-1.2s1.7-2.1,1.7-4v-6.4
						c-0.1,1.1-0.8,2-2.4,2.6c-1.5,0.5-3.4,0.8-5.8,0.8c-2.7,0-4.9-0.2-6.4-0.8c-1.5-0.5-2.6-1.4-3.3-2.5c-0.6-1.1-1-2.7-1-4.8
						v-10.8c0-3.2,0.8-5.4,2.6-6.7c1.7-1.4,4.5-2,8.4-2c4.6,0,7.4,1.1,8.1,3.1v-2.6h4.6v29.1c0,2.4-0.5,4.4-1.4,5.8
						c-0.9,1.4-2.3,2.3-4.1,3c-1.8,0.5-4.2,0.8-7.1,0.8C454.8,2517.7,451.8,2517.4,449.3,2517.1z M464.6,2501.9
						c1.1-0.6,1.6-1.8,1.6-3.5v-12.1c0-1.2-0.2-2.1-0.6-2.7c-0.4-0.6-1.1-1.1-2.1-1.4c-1.1-0.3-2.5-0.4-4.5-0.4
						c-1.9,0-3.3,0.2-4.2,0.4c-0.9,0.2-1.6,0.7-1.9,1.4c-0.4,0.6-0.5,1.6-0.5,2.8v12.1c0,1.2,0.2,2.2,0.5,2.8s1.1,1.1,2,1.3
						c1,0.2,2.3,0.4,4.2,0.4C461.6,2502.8,463.5,2502.5,464.6,2501.9z"/>
					<path class="st17" d="M479.7,2479h4.7v4.3c0-0.8,0.4-1.7,1.1-2.4c0.8-0.8,1.7-1.4,2.8-1.8c1.1-0.5,2.3-0.7,3.3-0.7h2.4v4.2
						h-2.7c-2.3,0-4,0.3-5.1,0.9c-1.1,0.6-1.6,1.7-1.6,3.3v18.7h-4.9L479.7,2479L479.7,2479z"/>
					<path class="st17" d="M498,2498v-10.5c0-3.3,0.9-5.5,2.8-7c1.8-1.4,4.9-2.1,9-2.1c3.9,0,6.7,0.7,8.5,2s2.6,3.7,2.6,7v5.9H503v4
						c0,1.8,0.6,3.2,1.9,3.9c1.3,0.8,3.3,1.2,5.9,1.2c2.5,0,5.5-0.5,8.9-1.3v3.8c-3.3,0.8-6.6,1.1-9.6,1.1
						C502,2506.2,498,2503.4,498,2498z M515.8,2490.2v-4.2c0-1.6-0.5-2.7-1.4-3.3c-1-0.6-2.7-0.9-5-0.9s-3.9,0.3-4.9,0.9
						c-1.1,0.6-1.5,1.7-1.5,3.3v4.2H515.8z"/>
					<path class="st17" d="M527.4,2505.5v-3.8c4.3,0.7,7.4,1.1,9.2,1.1c2.3,0,4-0.2,5.1-0.7s1.5-1.3,1.5-2.6v-2.7
						c0-1.1-0.4-2-1.1-2.4c-0.7-0.4-2-0.7-3.7-0.7h-3c-2.7,0-4.9-0.5-6.3-1.7c-1.4-1.1-2.2-2.7-2.2-4.8v-2.5c0-4.2,3.9-6.3,11.9-6.3
						c0.6,0,3.3,0.2,8.1,0.5v3.6c-3.3-0.5-6-0.8-8.3-0.8c-2.6,0-4.4,0.2-5.3,0.8c-1,0.5-1.4,1.4-1.4,2.6v2.3c0,1.8,1.6,2.7,4.9,2.7
						h3.1c5.6,0,8.4,2.1,8.4,6.3v2.3c0,2.7-1,4.7-2.9,5.8c-1.9,1.1-4.9,1.7-8.7,1.7C533.7,2506.2,530.6,2505.9,527.4,2505.5z"/>
					<path class="st17" d="M553.9,2505.5v-3.8c4.3,0.7,7.4,1.1,9.2,1.1c2.3,0,4-0.2,5.1-0.7s1.5-1.3,1.5-2.6v-2.7
						c0-1.1-0.4-2-1.1-2.4c-0.7-0.4-2-0.7-3.7-0.7h-3c-2.7,0-4.9-0.5-6.3-1.7c-1.4-1.1-2.2-2.7-2.2-4.8v-2.5c0-4.2,3.9-6.3,11.9-6.3
						c0.6,0,3.3,0.2,8.1,0.5v3.6c-3.3-0.5-6-0.8-8.3-0.8c-2.6,0-4.4,0.2-5.3,0.8c-1,0.5-1.4,1.4-1.4,2.6v2.3c0,1.8,1.6,2.7,4.9,2.7
						h3.1c5.6,0,8.4,2.1,8.4,6.3v2.3c0,2.7-1,4.7-2.9,5.8c-1.9,1.1-4.9,1.7-8.7,1.7C560.2,2506.2,557.1,2505.9,553.9,2505.5z"/>
				</g>
			</g>
			<g id="Layer_6_7_" class="st9">
				<g>
					<g>
						<path class="st17" d="M266.3,2538.8l8.9-30.5c-12.7-1.4-26.1-6.4-26.1-28.4c0-6.3,2.3-11.4,5.9-15.4
							c-0.6-1.4-2.6-7.3,0.5-15.2c0,0,4.9-1.5,15.8,5.9c4.5-1.3,9.5-1.9,14.4-2c4.9,0,9.8,0.7,14.4,2c11-7.4,15.8-5.9,15.8-5.9
							c3.1,7.9,1.1,13.7,0.6,15.2c3.7,4,5.9,9.2,5.9,15.4c0,22.1-13.4,26.9-26.2,28.3l8.6,31l-18.9,3.2L266.3,2538.8z"/>
						<g>
							<g>
								<path class="st17" d="M319.9,2431.8c-29.2-19-69.3-10-86.9,20.2c-16.4,27.9-7.5,64.7,19.5,82.4c15.2,10,33.8,12.4,51.1,6.7
									c2-0.7,1.2-3.9-0.9-3.3c-14.5,4.6-29.8,3.6-43.4-3.4c-12.8-6.7-23-18.1-27.9-31.8c-10.3-28.7,4-61.5,32.2-73.2
									c17.9-7.5,38.4-5.2,54.6,5.3C319.9,2436,321.7,2433,319.9,2431.8L319.9,2431.8z"/>
							</g>
						</g>
					</g>
				</g>
			</g>
		</g>
		<g id="cat" class="st1">
			<g class="st9">
				<g id="Layer_2_2_">
					<g>
						<path class="st15" d="M232.2,1621.3c-1.4-0.1-2.9-0.4-4.6-0.9c-1.9-0.5-3.2-1.2-4.4-2.1c-1-1-1.9-2.4-2.6-4.2
							c-0.7-1.7-1.1-4-1.1-6.7v-15.9c0-4.9,0.9-8.3,2.7-10.3c1-1.2,2-2.1,3.1-2.7c1-0.6,2.4-1.1,4.1-1.2c1.6-0.2,3.1-0.4,4.5-0.5
							s3.1-0.1,5.6-0.1c4.1,0,8.2,0.5,12.3,1.4v5.9c-4.7-1.2-9.2-1.7-13.3-1.7c-3.1,0-5.4,0.2-6.9,0.6c-1.5,0.5-2.5,1.2-3,2.4
							c-0.6,1.1-0.9,3-0.9,5.4v17.7c0,2.2,0.4,3.9,1,5s1.7,1.9,3.4,2.2c1.6,0.5,4.1,0.6,7.3,0.6c4.4,0,8.7-0.6,13.1-1.7v6.1
							c-4.1,0.9-8.7,1.2-13.8,1.2C235.6,1621.5,233.5,1621.5,232.2,1621.3z"/>
						<path class="st15" d="M273.1,1621.2l-16.8-44h8.7l12.1,35.4h0.1l11-35.4h8.1l-21.8,62h-8.2L273.1,1621.2z"/>
						<path class="st15" d="M315.6,1621c-2-0.4-3.9-1-5.7-1.9c-3.9-1.9-5.9-6.1-5.9-12.7v-48.6h8.1v13v5.1c0,1.5-0.1,3.2-0.1,5.2
							c0.2-1.4,1.5-2.5,3.7-3.5c2.2-0.9,5.6-1.4,9.8-1.4c12,0,17.9,4.1,17.9,12.3v17.8c0,2.6-0.4,4.9-1.1,6.7
							c-0.7,1.9-1.7,3.4-2.9,4.5c-1.1,1-2.5,1.9-4.5,2.4c-1.9,0.6-3.7,1-5.6,1.1c-1.6,0.1-3.7,0.2-6.1,0.2
							C320.1,1621.5,317.5,1621.3,315.6,1621z M330.7,1615.5c1.6-0.5,2.9-1.2,3.5-2.5c0.7-1.2,1.1-3,1.1-5.5v-16.9
							c0-2.5-0.4-4.2-1.1-5.5c-0.7-1.2-1.9-2-3.5-2.4s-4-0.6-7.2-0.6c-2.9,0-5.2,0.2-6.9,0.7c-1.6,0.5-2.7,1.4-3.5,2.5
							c-0.7,1.2-1.1,3-1.1,5.2v17.1c0,2.5,0.4,4.2,1,5.5c0.7,1.2,1.9,2,3.5,2.5s4,0.6,7,0.6C326.6,1616.2,328.9,1616,330.7,1615.5z"
							/>
						<path class="st15" d="M354.2,1608.3v-17.2c0-5.2,1.5-9.1,4.5-11.3c3-2.2,7.8-3.5,14.7-3.5c6.4,0,11,1.1,13.8,3.4
							s4.2,6,4.2,11.5v9.6h-29.1v6.5c0,3,1,5.1,3.1,6.5s5.4,2,9.7,2c4.1,0,9-0.7,14.6-2.1v6.2c-5.5,1.2-10.7,1.7-15.7,1.7
							C360.8,1621.5,354.2,1617.1,354.2,1608.3z M383.5,1595.4v-6.9c0-2.6-0.7-4.5-2.4-5.5c-1.6-1-4.2-1.5-8.1-1.5
							c-3.7,0-6.4,0.5-8.1,1.5c-1.6,1-2.5,2.7-2.5,5.5v6.9H383.5z"/>
						<path class="st15" d="M403.8,1577.3h7.6v7.1c0-1.4,0.6-2.6,1.7-3.9c1.2-1.2,2.7-2.2,4.6-3c1.9-0.7,3.6-1.1,5.5-1.1h4v6.9h-4.5
							c-3.9,0-6.6,0.5-8.3,1.5c-1.7,1-2.5,2.7-2.5,5.4v30.5h-8.1L403.8,1577.3L403.8,1577.3z"/>
					</g>
					<g>
						<path class="st15" d="M696.6,1603.4v-27.8c0-11.2,8.2-16.8,24.7-16.8c5.6,0,11,0.6,16.1,1.7v6.5c-5.7-1.5-11.1-2.1-15.9-2.1
							c-2.4,0-4.4,0.1-6.1,0.4s-3.5,0.7-5.1,1.4c-3.5,1.5-5.2,4.5-5.2,8.8v27.4c0,6.7,5.6,10.1,16.8,10.1c4.9,0,10.1-0.7,15.9-2.1
							v6.7c-5.1,1.1-10.6,1.7-16.4,1.7C704.8,1619.4,696.6,1614,696.6,1603.4z"/>
						<path class="st15" d="M758.5,1619c-1.9-0.2-3.9-0.9-5.7-1.7c-2-0.9-3.5-2.4-4.4-4.4s-1.4-4.7-1.4-8.2v-15.2
							c0-2.7,0.4-5.1,1-7.1s1.5-3.6,2.6-4.7c0.9-1,2.2-1.9,4.1-2.4c1.9-0.6,3.7-1,5.6-1.1c2.1-0.1,4.5-0.1,6.7-0.1
							c3.1,0,5.5,0.1,7.1,0.2s3.2,0.5,5.1,1s3.4,1.4,4.4,2.5s1.9,2.6,2.6,4.7c0.6,2.1,1,4.5,1,7.3v15.2c0,5.1-1.1,8.8-3.5,11.2
							c-1,1-2.4,1.7-4.1,2.2c-1.7,0.5-3.6,0.9-5.6,1.1c-2.2,0.1-4.6,0.1-6.9,0.1C763.4,1619.4,760.5,1619.2,758.5,1619z
							 M772.7,1613.9c1.1-0.1,2.2-0.5,3.4-1c1.1-0.5,1.9-1.2,2.2-2.4c0.5-1.1,0.6-2.6,0.6-4.6v-17.8c0-2.7-0.4-4.7-1-5.9
							c-0.6-1.2-1.7-2-3.4-2.5c-1.6-0.4-4.1-0.6-7.5-0.6s-5.9,0.2-7.5,0.6s-2.7,1.2-3.4,2.5c-0.6,1.2-1,3.2-1,5.9v17.7
							c0,2,0.2,3.5,0.6,4.6c0.5,1.1,1.2,1.9,2.2,2.4c1.1,0.5,2.2,0.9,3.4,1c1.1,0.1,3,0.1,5.5,0.1
							C769.7,1614,771.6,1614,772.7,1613.9z"/>
						<path class="st15" d="M800,1574.8h8.1v5.4c0.9-4.1,5.6-6.2,14.3-6.2c5.6,0,9.5,1,11.8,3c2.2,2,3.4,5.2,3.4,9.5v32h-8.1V1587
							c0-1.1-0.1-2.1-0.2-2.7c-0.1-0.7-0.5-1.5-1.1-2.1c-1.2-1.5-3.9-2.2-8.1-2.2c-3.2,0-5.6,0.2-7.3,0.6c-1.7,0.5-2.9,1.2-3.6,2.2
							c-0.7,1-1,2.5-1,4.4v31.6H800V1574.8L800,1574.8z"/>
						<path class="st15" d="M853.2,1637.3v-5.7c7.2,0.9,12.5,1.2,15.8,1.2c4.1,0,7.2-0.6,9.1-2s2.9-3.5,2.9-6.6v-10.5
							c-0.1,1.9-1.4,3.4-4,4.2c-2.5,0.9-5.6,1.4-9.5,1.4c-4.5,0-8-0.4-10.5-1.2c-2.5-0.8-4.2-2.2-5.4-4.1c-1-1.9-1.6-4.5-1.6-7.8
							v-17.8c0-5.2,1.4-8.8,4.2-11.1c2.7-2.2,7.3-3.4,13.8-3.4c7.6,0,12.1,1.7,13.3,5.1v-4.2h7.6v47.8c0,4-0.7,7.2-2.2,9.5
							c-1.5,2.2-3.7,3.9-6.7,4.9c-3,0.9-7,1.4-11.7,1.4C862.3,1638.3,857.3,1637.9,853.2,1637.3z M878.3,1612.4c1.7-1,2.6-3,2.6-5.7
							v-19.8c0-2-0.4-3.5-1-4.5s-1.7-1.7-3.5-2.2c-1.7-0.5-4.1-0.6-7.3-0.6c-3.1,0-5.4,0.2-6.9,0.6s-2.6,1.1-3.1,2.2
							c-0.6,1-0.9,2.6-0.9,4.6v19.8c0,2,0.2,3.6,0.9,4.6c0.6,1,1.7,1.7,3.2,2.1c1.6,0.4,3.9,0.6,7,0.6
							C873.5,1613.9,876.6,1613.4,878.3,1612.4z"/>
						<path class="st15" d="M903.1,1574.8h7.7v7.1c0-1.4,0.6-2.7,1.7-4c1.2-1.2,2.7-2.2,4.6-3c1.9-0.7,3.7-1.1,5.5-1.1h4v7h-4.5
							c-3.9,0-6.6,0.5-8.3,1.5s-2.6,2.7-2.6,5.4v30.8h-8.1L903.1,1574.8L903.1,1574.8z"/>
						<path class="st15" d="M933.2,1606v-17.3c0-5.4,1.5-9.1,4.6-11.5c3-2.4,8-3.5,14.8-3.5c6.5,0,11.1,1.1,14,3.4
							c2.9,2.2,4.2,6.1,4.2,11.6v9.7h-29.4v6.6c0,3,1,5.2,3.1,6.5c2.1,1.4,5.4,2,9.7,2c4.1,0,9.1-0.7,14.7-2.1v6.2
							c-5.5,1.2-10.8,1.7-15.8,1.7C939.9,1619.4,933.2,1614.9,933.2,1606z M962.5,1593.1v-6.9c0-2.6-0.7-4.5-2.4-5.5
							c-1.6-1-4.4-1.5-8.2-1.5c-3.7,0-6.5,0.5-8.1,1.5c-1.7,1-2.5,2.9-2.5,5.5v6.9H962.5z"/>
						<path class="st15" d="M981.5,1618.2v-6.2c7.1,1.1,12.1,1.7,15.2,1.7c3.9,0,6.6-0.4,8.3-1.1s2.5-2.1,2.5-4.2v-4.5
							c0-1.9-0.6-3.2-1.9-4c-1.2-0.7-3.4-1.1-6.1-1.1h-5c-4.5,0-8-0.9-10.3-2.7c-2.4-1.9-3.6-4.5-3.6-7.8v-4.1
							c0-6.9,6.5-10.3,19.6-10.3c1,0,5.4,0.2,13.3,0.7v5.9c-5.4-0.9-9.8-1.2-13.6-1.2c-4.2,0-7.2,0.4-8.7,1.2
							c-1.6,0.9-2.4,2.2-2.4,4.2v3.7c0,3,2.6,4.5,8.1,4.5h5.1c9.2,0,13.8,3.5,13.8,10.3v3.7c0,4.5-1.6,7.7-4.7,9.6
							c-3.1,1.9-8,2.9-14.3,2.9C991.8,1619.4,986.8,1619,981.5,1618.2z"/>
						<path class="st15" d="M1025.1,1618.2v-6.2c7.1,1.1,12.1,1.7,15.2,1.7c3.9,0,6.6-0.4,8.3-1.1c1.7-0.7,2.5-2.1,2.5-4.2v-4.5
							c0-1.9-0.6-3.2-1.9-4c-1.2-0.7-3.4-1.1-6.1-1.1h-5c-4.5,0-8-0.9-10.3-2.7c-2.4-1.9-3.6-4.5-3.6-7.8v-4.1
							c0-6.9,6.5-10.3,19.6-10.3c1,0,5.4,0.2,13.3,0.7v5.9c-5.4-0.9-9.8-1.2-13.6-1.2c-4.2,0-7.2,0.4-8.7,1.2
							c-1.6,0.9-2.4,2.2-2.4,4.2v3.7c0,3,2.6,4.5,8.1,4.5h5.1c9.2,0,13.8,3.5,13.8,10.3v3.7c0,4.5-1.6,7.7-4.7,9.6s-8,2.9-14.3,2.9
							C1035.4,1619.4,1030.4,1619,1025.1,1618.2z"/>
					</g>
				</g>
				<g id="Layer_6_9_">
					<g>
						<g>
							<path class="st16" d="M552.4,1673l14.6-50.1c-20.9-2.4-43-10.5-43-46.7c0-10.3,3.7-18.7,9.7-25.3c-1-2.4-4.2-12,0.9-25
								c0,0,8-2.5,25.9,9.7c7.5-2.1,15.6-3.1,23.7-3.2c8,0,16.1,1.1,23.7,3.2c18.1-12.2,25.9-9.7,25.9-9.7c5.1,13,1.9,22.5,1,25
								c6.1,6.6,9.7,15.1,9.7,25.3c0,36.2-22,44.2-43.1,46.6l14.1,50.9l-31.1,5.2L552.4,1673z"/>
							<g>
								<g>
									<path class="st16" d="M640.5,1497.2c-48-31.3-113.8-16.4-142.9,33.1c-26.9,45.8-12.3,106.4,32,135.4
										c25,16.4,55.6,20.3,84,11.1c3.4-1.1,2-6.5-1.5-5.4c-23.8,7.6-49,6-71.2-5.6c-21-11-37.7-29.8-45.8-52.2
										c-16.9-47.2,6.6-101,52.9-120.3c29.4-12.3,63.1-8.6,89.7,8.7C640.6,1504,643.5,1499.2,640.5,1497.2L640.5,1497.2z"/>
								</g>
							</g>
						</g>
					</g>
				</g>
			</g>
		</g>
	</g>
	<g id="Layer_2_1_">
		<g>
			
				<radialGradient id="SVGID_5_" cx="949.6" cy="1716.0042" r="105.2331" gradientTransform="matrix(1 0 0 3 0 -2840.9524)" gradientUnits="userSpaceOnUse">
				<stop  offset="0" style="stop-color:#191A47"/>
				<stop  offset="1" style="stop-color:#F1F1F2"/>
			</radialGradient>
			<circle class="st18" cx="949.6" cy="2307.1" r="105"/>
		</g>
		<g>
			
				<radialGradient id="SVGID_6_" cx="949.6" cy="1716.0042" r="150.2331" gradientTransform="matrix(1 0 0 3 0 -2840.9524)" gradientUnits="userSpaceOnUse">
				<stop  offset="0" style="stop-color:#191A47"/>
				<stop  offset="1" style="stop-color:#F1F1F2"/>
			</radialGradient>
			<circle class="st19" cx="949.6" cy="2307.1" r="150"/>
		</g>
		<text transform="matrix(1 0 0 1 788.8826 2316.1387)" class="st20 st21 st22">cyber </text>
		<text transform="matrix(1 0 0 1 1050.2671 2316.1384)" class="st20 st21 st23">Congress</text>
	</g>
	<g>
		<path class="st24" d="M227.8,1164.4v-7.8l76.8,26v30.3l-55.5-18.8C236.4,1189.8,227.8,1177.8,227.8,1164.4z"/>
		<g>
			<g>
				<path class="st25" d="M261.1,1197.9l-11.8-3.9c-12.8-4.2-21.5-16.2-21.5-29.7v-74.1l30.3,10v63.8c0,0-0.1,9.6,0,16.3
					C258.3,1193.2,261.1,1197.9,261.1,1197.9z"/>
			</g>
		</g>
		<path class="st24" d="M298.8,1064.2l-7.4-2.5l-0.2,81.1l28.7,9.8l0.1-58.6C320,1080.5,311.5,1068.5,298.8,1064.2z"/>
		<g>
			<g>
				<path class="st25" d="M319.9,1106.5l0.1-12.4c0.1-13.5-8.4-25.6-21.2-29.9l-70.2-23.9l-0.3,31.9l60.4,20.6c0,0,9.1,3,15.5,5.3
					C316.4,1102.3,319.9,1106.5,319.9,1106.5z"/>
			</g>
		</g>
		<g>
			
				<radialGradient id="SVGID_7_" cx="273" cy="1321.3375" r="105.2521" gradientTransform="matrix(1 0 0 3 0 -2840.9524)" gradientUnits="userSpaceOnUse">
				<stop  offset="0" style="stop-color:#191A47"/>
				<stop  offset="1" style="stop-color:#F1F1F2"/>
			</radialGradient>
			<circle class="st26" cx="273" cy="1123.1" r="105"/>
		</g>
		<g>
			
				<radialGradient id="SVGID_8_" cx="273" cy="1321.3375" r="150.2521" gradientTransform="matrix(1 0 0 3 0 -2840.9524)" gradientUnits="userSpaceOnUse">
				<stop  offset="0" style="stop-color:#191A47"/>
				<stop  offset="1" style="stop-color:#F1F1F2"/>
			</radialGradient>
			<circle class="st27" cx="273" cy="1123.1" r="150"/>
		</g>
		<text transform="matrix(1 0 0 1 131.8089 1139.0771)" class="st20 st21 st22">cyber </text>
		<text transform="matrix(1 0 0 1 345.2646 1135.1449)" class="st20 st21 st23">Congress</text>
	</g>
	<g id="Layer_3">
		<path class="st28" d="M900.3,1166.8v-7.8l76.8,26v30.3l-55.5-18.8C908.8,1192.2,900.3,1180.2,900.3,1166.8z"/>
		<g>
			<g>
				<path class="st29" d="M933.5,1200.3l-11.8-3.9c-12.8-4.2-21.5-16.2-21.5-29.7v-74.1l30.3,10v63.7c0,0-0.1,9.6,0,16.3
					C930.7,1195.6,933.5,1200.3,933.5,1200.3z"/>
			</g>
		</g>
		<path class="st28" d="M971.2,1066.6l-7.4-2.5l-0.2,81.1l28.7,9.8l0.1-58.7C992.5,1082.9,983.9,1070.9,971.2,1066.6z"/>
		<text transform="matrix(1 0 0 1 1021.0277 1146.3647)" class="st15 st21 st22">Congress</text>
		<text transform="matrix(1 0 0 1 814.5684 1146.3643)" class="st15 st21 st22">cyber </text>
		<g>
			<g>
				<path class="st29" d="M992.1,1108.9l0.1-12.4c0.1-13.5-8.4-25.6-21.2-29.9l-70.2-23.9l-0.3,31.9l60.4,20.6c0,0,9.1,3,15.5,5.3
					C988.6,1104.8,992.1,1108.9,992.1,1108.9z"/>
			</g>
		</g>
		<g>
			
				<radialGradient id="SVGID_9_" cx="942.5" cy="1322.7375" r="105.2437" gradientTransform="matrix(1 0 0 3 0 -2840.9524)" gradientUnits="userSpaceOnUse">
				<stop  offset="0" style="stop-color:#191A47"/>
				<stop  offset="1" style="stop-color:#F1F1F2"/>
			</radialGradient>
			<circle class="st30" cx="942.5" cy="1127.3" r="105"/>
		</g>
		<g>
			
				<radialGradient id="SVGID_10_" cx="942.5" cy="1322.7375" r="150.2437" gradientTransform="matrix(1 0 0 3 0 -2840.9524)" gradientUnits="userSpaceOnUse">
				<stop  offset="0" style="stop-color:#191A47"/>
				<stop  offset="1" style="stop-color:#F1F1F2"/>
			</radialGradient>
			<circle class="st31" cx="942.5" cy="1127.3" r="150"/>
		</g>
	</g>
	<circle class="st32" cx="863.4" cy="1536" r="63.3"/>
	<g id="Layer_4">
		<path class="st20" d="M977.8,2360.7c-9.5,5.2-20.6,7.9-32.3,7.3c-31.9-1.6-57.4-28.1-57.9-60c-0.5-34.1,27-61.9,61-61.9
			c9.8,0,19.1,2.3,27.3,6.5c4.2,2.1,9.4,1.4,12.7-1.9l0,0c5.4-5.3,3.9-14.2-2.8-17.6c-9.2-4.6-22.1-9-37.3-9
			c-46.5,0-84.1,38.3-83,85c1.1,44.7,38,80.9,82.8,81c14.4,0,28-3.6,39.8-10c6.3-3.4,7.8-11.8,3-17.1l0,0
			C987.7,2359.2,982.2,2358.3,977.8,2360.7z"/>
		<g class="st33">
			<g>
				<g>
					<path class="st34" d="M905.2,2363L905.2,2363c-4.8,5.3-3.4,13.7,3,17.1c11.8,6.4,25.4,10.1,39.8,10c44.7-0.1,81.7-36.3,82.8-81
						c1.1-46.8-36.5-85-83-85c-15.2,0-28.1,4.4-37.3,9c-6.7,3.3-8.2,12.3-2.8,17.6l0,0c3.4,3.3,8.5,4,12.7,1.9
						c8.2-4.1,17.5-6.5,27.3-6.5c34,0,61.5,27.8,61,61.9c-0.5,31.9-26,58.4-57.9,60c-11.7,0.6-22.8-2.1-32.3-7.3
						C914.1,2358.3,908.6,2359.2,905.2,2363z"/>
				</g>
			</g>
		</g>
	</g>
	<g id="Layer_4_1_">
		<path class="st35" d="M892,1589.6c-9.5,5.2-20.6,7.9-32.3,7.3c-31.9-1.6-57.4-28.1-57.9-60c-0.5-34.1,27-61.9,61-61.9
			c9.8,0,19.1,2.3,27.3,6.5c4.2,2.1,9.4,1.4,12.7-1.9l0,0c5.4-5.3,3.9-14.2-2.8-17.6c-9.2-4.6-22.1-9-37.3-9
			c-46.5,0-84.1,38.3-83,85c1.1,44.7,38,80.9,82.8,81c14.4,0,28-3.6,39.8-10c6.3-3.4,7.8-11.8,3-17.1l0,0
			C901.9,1588.1,896.4,1587.2,892,1589.6z"/>
		<g>
			<g class="st36">
				<g>
					<path class="st20" d="M819.4,1591.9L819.4,1591.9c-4.8,5.3-3.4,13.7,3,17.1c11.8,6.4,25.4,10.1,39.8,10
						c44.7-0.1,81.7-36.3,82.8-81c1.1-46.8-36.5-85-83-85c-15.2,0-28.1,4.4-37.3,9c-6.7,3.3-8.2,12.3-2.8,17.6l0,0
						c3.4,3.3,8.5,4,12.7,1.9c8.2-4.1,17.5-6.5,27.3-6.5c34,0,61.5,27.8,61,61.9c-0.5,31.9-26,58.4-57.9,60
						c-11.7,0.6-22.8-2.1-32.3-7.3C828.3,1587.2,822.8,1588.1,819.4,1591.9z"/>
				</g>
			</g>
		</g>
	</g>
	<g>
		<g>
			<path class="st20" d="M835.7,1481.5c8.2-4.1,17.5-6.5,27.3-6.5c0.2,0,0.3,0,0.4,0c0.2,0,0.3,0,0.4,0c9.8,0,19.1,2.3,27.3,6.5
				c4.2,2.1,9.4,1.4,12.7-1.9c4.9-4.8,4.1-12.5-1.1-16.5c-11.7-6.4-25.1-10-39.4-10.1c-14.3,0.1-27.8,3.8-39.6,10.2
				c-5,3.9-5.7,11.6-0.9,16.4C826.4,1482.9,831.5,1483.6,835.7,1481.5z"/>
			<path class="st20" d="M893.1,1589.6c-8.6,4.7-18.6,7.4-29.2,7.4c-0.2,0-0.3,0-0.5,0s-0.3,0-0.5,0c-10.5,0-20.5-2.6-29.2-7.4
				c-4.4-2.4-9.9-1.5-13.3,2.3c-3.9,4.3-3.7,10.8,0,14.8c12.5,7.7,27.2,12.2,42.9,12.3c15.7-0.1,30.3-4.6,42.9-12.3
				c3.7-4,4-10.5,0.1-14.8C903,1588.1,897.5,1587.2,893.1,1589.6z"/>
		</g>
	</g>
	<path class="st35" d="M866.8,1543.6c-1.2,0.7-2.6,1.1-4,1.2c-4.8,0.2-9.1-3.7-9.2-8.5c-0.1-5,3.9-9.1,8.8-9.1
		c1.6,0,3.1,0.4,4.4,1.2c1.8,1.1,4.2,0.6,5.6-1l0,0c1.8-2.1,1.3-5.3-1-6.7c-3-1.8-6.6-2.7-10.4-2.3c-8.3,0.7-15.1,7.3-16.1,15.6
		c-1.2,10.7,7.2,19.7,17.6,19.7c3.4,0,6.5-0.9,9.2-2.6c2.3-1.4,2.6-4.7,0.8-6.6l-0.2-0.2C870.7,1542.8,868.5,1542.6,866.8,1543.6z"
		/>
	<path class="st37" d="M852.6,1544.3l-0.2,0.2c-1.9,2-1.6,5.2,0.8,6.6c2.7,1.6,5.8,2.6,9.2,2.6c10.4,0,18.8-9,17.6-19.7
		c-0.9-8.3-7.7-14.9-16.1-15.6c-3.8-0.3-7.4,0.6-10.4,2.3c-2.4,1.4-2.8,4.6-1,6.7l0,0c1.4,1.6,3.7,2,5.6,1c1.3-0.7,2.8-1.2,4.4-1.2
		c4.9,0,8.9,4.1,8.8,9.1c-0.1,4.8-4.4,8.8-9.2,8.5c-1.5-0.1-2.8-0.5-4-1.2C856.2,1542.6,854,1542.8,852.6,1544.3z"/>
	<g>
		<path class="st20" d="M869.7,1519.9c-0.4-0.2-0.8-0.3-1.2-0.5c-0.1,0-0.3-0.1-0.4-0.1c-0.3-0.1-0.6-0.2-0.9-0.3
			c-0.2-0.1-0.4-0.1-0.6-0.1c-0.3-0.1-0.5-0.1-0.8-0.2c-0.2,0-0.4-0.1-0.6-0.1c-0.3,0-0.6-0.1-0.9-0.1c-0.2,0-0.4-0.1-0.6-0.1
			c-0.2,0-0.5,0-0.7,0s-0.5,0-0.7,0s-0.5,0-0.7,0s-0.5,0-0.7,0s-0.4,0-0.6,0.1c-0.3,0-0.6,0.1-0.9,0.1c-0.2,0-0.4,0.1-0.6,0.1
			c-0.3,0.1-0.5,0.1-0.8,0.2c-0.2,0-0.4,0.1-0.6,0.1c-0.3,0.1-0.6,0.2-0.9,0.3c-0.1,0-0.3,0.1-0.4,0.1c-0.4,0.1-0.8,0.3-1.2,0.5
			h-0.1c-0.6,0.3-1.1,0.6-1.6,0.9c-2.2,1.4-2.6,4.6-0.9,6.6c1.4,1.6,3.7,2,5.6,1c0,0,0,0,0.1,0c0.3-0.2,0.6-0.3,0.9-0.4
			c0.1,0,0.1,0,0.2-0.1c0.3-0.1,0.5-0.2,0.8-0.3c0.1,0,0.2-0.1,0.3-0.1c0.2-0.1,0.5-0.1,0.7-0.1c0.1,0,0.2,0,0.3,0
			c0.4,0,0.7-0.1,1.1-0.1l0,0l0,0c0.4,0,0.7,0,1.1,0.1c0.1,0,0.2,0,0.3,0c0.2,0,0.5,0.1,0.7,0.1c0.1,0,0.2,0.1,0.3,0.1
			c0.3,0.1,0.5,0.2,0.8,0.3c0.1,0,0.1,0,0.2,0.1c0.3,0.1,0.6,0.3,0.9,0.4c0,0,0,0,0.1,0c1.8,1.1,4.2,0.6,5.6-1
			c1.8-2,1.3-5.2-0.9-6.6C870.9,1520.5,870.3,1520.2,869.7,1519.9C869.8,1519.9,869.7,1519.9,869.7,1519.9z"/>
		<path class="st20" d="M872.1,1544.3c-1.4-1.4-3.6-1.6-5.3-0.6c-1,0.6-2.2,1-3.5,1.1c-0.2,0-0.3,0-0.5,0.1l0,0c-0.1,0-0.3,0-0.4,0
			c-0.1,0-0.3,0-0.4,0l0,0c-0.2,0-0.3,0-0.5-0.1c-1.2-0.1-2.4-0.5-3.5-1.1c-1.7-1-3.9-0.8-5.3,0.6l-0.2,0.2
			c-1.8,1.9-1.6,5.1,0.6,6.5c0.1,0.1,0.2,0.1,0.3,0.2s0.2,0.1,0.3,0.2c0.4,0.2,0.8,0.5,1.3,0.7c0.1,0,0.2,0.1,0.3,0.1
			c0.5,0.2,1,0.4,1.5,0.6c0.1,0,0.2,0.1,0.4,0.1c0.5,0.2,1,0.3,1.5,0.4c0.1,0,0.1,0,0.2,0c0.5,0.1,1.1,0.2,1.6,0.3
			c0.1,0,0.3,0,0.4,0c0.6,0.1,1.1,0.1,1.7,0.1l0,0l0,0c0.6,0,1.2,0,1.7-0.1c0.1,0,0.3,0,0.4,0c0.6-0.1,1.1-0.2,1.6-0.3
			c0.1,0,0.1,0,0.2,0c0.5-0.1,1-0.2,1.5-0.4c0.1,0,0.2-0.1,0.4-0.1c0.5-0.2,1-0.4,1.5-0.6c0.1,0,0.2-0.1,0.3-0.1
			c0.4-0.2,0.9-0.4,1.3-0.7c0.1-0.1,0.2-0.1,0.3-0.2s0.2-0.1,0.3-0.2c2.2-1.5,2.5-4.6,0.6-6.5L872.1,1544.3z"/>
	</g>
	<path class="st35" d="M980.6,1981.7c-9.5,5.2-20.6,7.9-32.3,7.3c-31.9-1.6-57.4-28.1-57.9-60c-0.5-34.1,27-61.9,61-61.9
		c9.8,0,19.1,2.3,27.3,6.5c4.2,2.1,9.4,1.4,12.7-1.9l0,0c5.4-5.3,3.9-14.2-2.8-17.6c-9.2-4.6-22.1-9-37.3-9c-46.5,0-84.1,38.3-83,85
		c1.1,44.7,38,80.9,82.8,81c14.4,0,28-3.6,39.8-10c6.3-3.4,7.8-11.8,3-17.1l0,0C990.5,1980.2,985,1979.3,980.6,1981.7z"/>
	<path class="st38" d="M965.5,1953.7c-4.5,2.5-9.9,3.8-15.5,3.5c-15.3-0.8-27.5-13.4-27.7-28.7c-0.2-16.3,12.9-29.6,29.2-29.6
		c4.7,0,9.1,1.1,13.1,3.1c2,1,4.5,0.7,6.1-0.9l0,0c2.6-2.5,1.9-6.8-1.3-8.4c-4.4-2.2-10.6-4.3-17.8-4.3c-22.2,0-40.2,18.3-39.7,40.7
		c0.5,21.4,18.2,38.7,39.6,38.7c6.9,0,13.4-1.7,19-4.8c3-1.6,3.7-5.6,1.4-8.2l0,0C970.2,1953,967.6,1952.5,965.5,1953.7z"/>
	<g>
		
			<radialGradient id="SVGID_11_" cx="944.5" cy="1589.6709" r="105.2657" gradientTransform="matrix(1 0 0 3 0 -2840.9524)" gradientUnits="userSpaceOnUse">
			<stop  offset="0" style="stop-color:#191A47"/>
			<stop  offset="1" style="stop-color:#F1F1F2"/>
		</radialGradient>
		<circle class="st39" cx="944.5" cy="1928.1" r="105"/>
	</g>
	<g>
		
			<radialGradient id="SVGID_12_" cx="944.5" cy="1589.6709" r="150.2657" gradientTransform="matrix(1 0 0 3 0 -2840.9524)" gradientUnits="userSpaceOnUse">
			<stop  offset="0" style="stop-color:#191A47"/>
			<stop  offset="1" style="stop-color:#F1F1F2"/>
		</radialGradient>
		<circle class="st40" cx="944.5" cy="1928.1" r="150"/>
	</g>
	
		<ellipse transform="matrix(3.327795e-02 -0.9994 0.9994 3.327795e-02 -1252.8479 1772.0626)" class="st32" cx="289.6" cy="1533.7" rx="63.3" ry="63.3"/>
	<g id="Layer_4_2_">
		<path class="st35" d="M322.2,1587.3c-9.5,5.2-20.6,7.9-32.3,7.3c-31.9-1.6-57.4-28.1-57.9-60c-0.5-34.1,27-61.9,61-61.9
			c9.8,0,19.1,2.3,27.3,6.5c4.2,2.1,9.4,1.4,12.7-1.9l0,0c5.4-5.3,3.9-14.2-2.8-17.6c-9.2-4.6-22.1-9-37.3-9
			c-46.5,0-84.1,38.3-83,85c1.1,44.7,38,80.9,82.8,81c14.4,0,28-3.6,39.8-10c6.3-3.4,7.8-11.8,3-17.1l0,0
			C332.1,1585.8,326.6,1584.9,322.2,1587.3z"/>
		<g>
			<g class="st36">
				<g>
					<path class="st20" d="M249.6,1589.6L249.6,1589.6c-4.8,5.3-3.4,13.7,3,17.1c11.8,6.4,25.4,10.1,39.8,10
						c44.7-0.1,81.7-36.3,82.8-81c1.1-46.8-36.5-85-83-85c-15.2,0-28.1,4.4-37.3,9c-6.7,3.3-8.2,12.3-2.8,17.6l0,0
						c3.4,3.3,8.5,4,12.7,1.9c8.2-4.1,17.5-6.5,27.3-6.5c34,0,61.5,27.8,61,61.9c-0.5,31.9-26,58.4-57.9,60
						c-11.7,0.6-22.8-2.1-32.3-7.3C258.5,1584.9,253,1585.8,249.6,1589.6z"/>
				</g>
			</g>
		</g>
	</g>
	<g>
		<g>
			<path class="st20" d="M265.9,1479.2c8.2-4.1,17.5-6.5,27.3-6.5c0.2,0,0.3,0,0.4,0c0.2,0,0.3,0,0.4,0c9.8,0,19.1,2.3,27.3,6.5
				c4.2,2.1,9.4,1.4,12.7-1.9c4.9-4.8,4.1-12.5-1.1-16.5c-11.7-6.4-25.1-10-39.4-10.1c-14.3,0.1-27.8,3.8-39.6,10.2
				c-5,3.9-5.7,11.6-0.9,16.4C256.6,1480.6,261.7,1481.3,265.9,1479.2z"/>
			<path class="st20" d="M323.3,1587.3c-8.6,4.7-18.6,7.4-29.2,7.4c-0.2,0-0.3,0-0.5,0s-0.3,0-0.5,0c-10.5,0-20.5-2.6-29.2-7.4
				c-4.4-2.4-9.9-1.5-13.3,2.3c-3.9,4.3-3.7,10.8,0,14.8c12.5,7.7,27.2,12.2,42.9,12.3c15.7-0.1,30.3-4.6,42.9-12.3
				c3.7-4,4-10.5,0.1-14.8C333.2,1585.8,327.7,1584.9,323.3,1587.3z"/>
		</g>
	</g>
	<path class="st35" d="M297,1541.3c-1.2,0.7-2.6,1.1-4,1.2c-4.8,0.2-9.1-3.7-9.2-8.5c-0.1-5,3.9-9.1,8.8-9.1c1.6,0,3.1,0.4,4.4,1.2
		c1.8,1.1,4.2,0.6,5.6-1l0,0c1.8-2.1,1.3-5.3-1-6.7c-3-1.8-6.6-2.7-10.4-2.3c-8.3,0.7-15.1,7.3-16.1,15.6
		c-1.2,10.7,7.2,19.7,17.6,19.7c3.4,0,6.5-0.9,9.2-2.6c2.3-1.4,2.6-4.7,0.8-6.6l-0.2-0.2C300.9,1540.5,298.7,1540.3,297,1541.3z"/>
	<path class="st37" d="M282.8,1542l-0.2,0.2c-1.9,2-1.6,5.2,0.8,6.6c2.7,1.6,5.8,2.6,9.2,2.6c10.4,0,18.8-9,17.6-19.7
		c-0.9-8.3-7.7-14.9-16.1-15.6c-3.8-0.3-7.4,0.6-10.4,2.3c-2.4,1.4-2.8,4.6-1,6.7l0,0c1.4,1.6,3.7,2,5.6,1c1.3-0.7,2.8-1.2,4.4-1.2
		c4.9,0,8.9,4.1,8.8,9.1c-0.1,4.8-4.4,8.8-9.2,8.5c-1.5-0.1-2.8-0.5-4-1.2C286.4,1540.3,284.2,1540.5,282.8,1542z"/>
	<g>
		<path class="st20" d="M299.9,1517.6c-0.4-0.2-0.8-0.3-1.2-0.5c-0.1,0-0.3-0.1-0.4-0.1c-0.3-0.1-0.6-0.2-0.9-0.3
			c-0.2-0.1-0.4-0.1-0.6-0.1c-0.3-0.1-0.5-0.1-0.8-0.2c-0.2,0-0.4-0.1-0.6-0.1c-0.3,0-0.6-0.1-0.9-0.1c-0.2,0-0.4-0.1-0.6-0.1
			s-0.5,0-0.7,0s-0.5,0-0.7,0s-0.5,0-0.7,0s-0.5,0-0.7,0s-0.4,0-0.6,0.1c-0.3,0-0.6,0.1-0.9,0.1c-0.2,0-0.4,0.1-0.6,0.1
			c-0.3,0.1-0.5,0.1-0.8,0.2c-0.2,0-0.4,0.1-0.6,0.1c-0.3,0.1-0.6,0.2-0.9,0.3c-0.1,0-0.3,0.1-0.4,0.1c-0.4,0.1-0.8,0.3-1.2,0.5H285
			c-0.6,0.3-1.1,0.6-1.6,0.9c-2.2,1.4-2.6,4.6-0.9,6.6c1.4,1.6,3.7,2,5.6,1c0,0,0,0,0.1,0c0.3-0.2,0.6-0.3,0.9-0.4
			c0.1,0,0.1,0,0.2-0.1c0.3-0.1,0.5-0.2,0.8-0.3c0.1,0,0.2-0.1,0.3-0.1c0.2-0.1,0.5-0.1,0.7-0.1c0.1,0,0.2,0,0.3,0
			c0.4,0,0.7-0.1,1.1-0.1l0,0l0,0c0.4,0,0.7,0,1.1,0.1c0.1,0,0.2,0,0.3,0c0.2,0,0.5,0.1,0.7,0.1c0.1,0,0.2,0.1,0.3,0.1
			c0.3,0.1,0.5,0.2,0.8,0.3c0.1,0,0.1,0,0.2,0.1c0.3,0.1,0.6,0.3,0.9,0.4c0,0,0,0,0.1,0c1.8,1.1,4.2,0.6,5.6-1
			c1.8-2,1.3-5.2-0.9-6.6C301.1,1518.2,300.5,1517.9,299.9,1517.6C299.9,1517.7,299.9,1517.6,299.9,1517.6z"/>
		<path class="st20" d="M302.3,1542c-1.4-1.4-3.6-1.6-5.3-0.6c-1,0.6-2.2,1-3.5,1.1c-0.2,0-0.3,0-0.5,0.1l0,0c-0.1,0-0.3,0-0.4,0
			s-0.3,0-0.4,0l0,0c-0.2,0-0.3,0-0.5-0.1c-1.2-0.1-2.4-0.5-3.5-1.1c-1.7-1-3.9-0.8-5.3,0.6l-0.2,0.2c-1.8,1.9-1.6,5.1,0.6,6.5
			c0.1,0.1,0.2,0.1,0.3,0.2c0.1,0.1,0.2,0.1,0.3,0.2c0.4,0.2,0.8,0.5,1.3,0.7c0.1,0,0.2,0.1,0.3,0.1c0.5,0.2,1,0.4,1.5,0.6
			c0.1,0,0.2,0.1,0.4,0.1c0.5,0.2,1,0.3,1.5,0.4c0.1,0,0.1,0,0.2,0c0.5,0.1,1.1,0.2,1.6,0.3c0.1,0,0.3,0,0.4,0
			c0.6,0.1,1.1,0.1,1.7,0.1l0,0l0,0c0.6,0,1.2,0,1.7-0.1c0.1,0,0.3,0,0.4,0c0.6-0.1,1.1-0.2,1.6-0.3c0.1,0,0.1,0,0.2,0
			c0.5-0.1,1-0.2,1.5-0.4c0.1,0,0.2-0.1,0.4-0.1c0.5-0.2,1-0.4,1.5-0.6c0.1,0,0.2-0.1,0.3-0.1c0.4-0.2,0.9-0.4,1.3-0.7
			c0.1-0.1,0.2-0.1,0.3-0.2c0.1-0.1,0.2-0.1,0.3-0.2c2.2-1.5,2.5-4.6,0.6-6.5L302.3,1542z"/>
	</g>
	<path class="st25" d="M327.6,1980.7c-9.5,5.2-20.6,7.9-32.3,7.3c-31.9-1.6-57.4-28.1-57.9-60c-0.5-34.1,27-61.9,61-61.9
		c9.8,0,19.1,2.3,27.3,6.5c4.2,2.1,9.4,1.4,12.7-1.9l0,0c5.4-5.3,3.9-14.2-2.8-17.6c-9.2-4.6-22.1-9-37.3-9c-46.5,0-84.1,38.3-83,85
		c1.1,44.7,38,80.9,82.8,81c14.4,0,28-3.6,39.8-10c6.3-3.4,7.8-11.8,3-17.1l0,0C337.5,1979.2,332,1978.3,327.6,1980.7z"/>
	<path class="st24" d="M312.5,1952.7c-4.5,2.5-9.9,3.8-15.5,3.5c-15.3-0.8-27.5-13.4-27.7-28.7c-0.2-16.3,12.9-29.6,29.2-29.6
		c4.7,0,9.1,1.1,13.1,3.1c2,1,4.5,0.7,6.1-0.9l0,0c2.6-2.5,1.9-6.8-1.3-8.4c-4.4-2.2-10.6-4.3-17.8-4.3c-22.2,0-40.2,18.3-39.7,40.7
		c0.5,21.4,18.2,38.7,39.6,38.7c6.9,0,13.4-1.7,19-4.8c3-1.6,3.7-5.6,1.4-8.2l0,0C317.2,1952,314.6,1951.5,312.5,1952.7z"/>
	<g>
		
			<radialGradient id="SVGID_13_" cx="291.5" cy="1589.3375" r="105.2657" gradientTransform="matrix(1 0 0 3 0 -2840.9524)" gradientUnits="userSpaceOnUse">
			<stop  offset="0" style="stop-color:#191A47"/>
			<stop  offset="1" style="stop-color:#F1F1F2"/>
		</radialGradient>
		<circle class="st41" cx="291.5" cy="1927.1" r="105"/>
	</g>
	<g>
		
			<radialGradient id="SVGID_14_" cx="291.5" cy="1589.3375" r="150.2657" gradientTransform="matrix(1 0 0 3 0 -2840.9524)" gradientUnits="userSpaceOnUse">
			<stop  offset="0" style="stop-color:#191A47"/>
			<stop  offset="1" style="stop-color:#F1F1F2"/>
		</radialGradient>
		<circle class="st42" cx="291.5" cy="1927.1" r="150"/>
	</g>
	<g id="Layer_2_4_">
		<g>
			
				<radialGradient id="SVGID_15_" cx="266" cy="1714.6375" r="105.2216" gradientTransform="matrix(1 0 0 3 0 -2840.9524)" gradientUnits="userSpaceOnUse">
				<stop  offset="0" style="stop-color:#191A47"/>
				<stop  offset="1" style="stop-color:#F1F1F2"/>
			</radialGradient>
			<circle class="st43" cx="266" cy="2303" r="105"/>
		</g>
		<g>
			
				<radialGradient id="SVGID_16_" cx="266" cy="1714.6375" r="150.2216" gradientTransform="matrix(1 0 0 3 0 -2840.9524)" gradientUnits="userSpaceOnUse">
				<stop  offset="0" style="stop-color:#191A47"/>
				<stop  offset="1" style="stop-color:#F1F1F2"/>
			</radialGradient>
			<circle class="st44" cx="266" cy="2303" r="150"/>
		</g>
		<text transform="matrix(1 0 0 1 105.2698 2312.0388)" class="st20 st21 st22">cyber </text>
		<text transform="matrix(1 0 0 1 366.6543 2312.0383)" class="st20 st21 st23">Congress</text>
	</g>
	<g id="Layer_4_3_">
		<path class="st20" d="M294.2,2356.6c-9.5,5.2-20.6,7.9-32.3,7.3c-31.9-1.6-57.4-28.1-57.9-60c-0.5-34.1,27-61.9,61-61.9
			c9.8,0,19.1,2.3,27.3,6.5c4.2,2.1,9.4,1.4,12.7-1.9l0,0c5.4-5.3,3.9-14.2-2.8-17.6c-9.2-4.6-22.1-9-37.3-9
			c-46.5,0-84.1,38.3-83,85c1.1,44.7,38,80.9,82.8,81c14.4,0,28-3.6,39.8-10c6.3-3.4,7.8-11.8,3-17.1l0,0
			C304.1,2355.1,298.6,2354.2,294.2,2356.6z"/>
		<g class="st33">
			<g>
				<g>
					<path d="M221.6,2358.9L221.6,2358.9c-4.8,5.3-3.4,13.7,3,17.1c11.8,6.4,25.4,10.1,39.8,10c44.7-0.1,81.7-36.3,82.8-81
						c1.1-46.8-36.5-85-83-85c-15.2,0-28.1,4.4-37.3,9c-6.7,3.3-8.2,12.3-2.8,17.6l0,0c3.4,3.3,8.5,4,12.7,1.9
						c8.2-4.1,17.5-6.5,27.3-6.5c34,0,61.5,27.8,61,61.9c-0.5,31.9-26,58.4-57.9,60c-11.7,0.6-22.8-2.1-32.3-7.3
						C230.5,2354.2,225,2355.1,221.6,2358.9z"/>
				</g>
			</g>
		</g>
	</g>
	<path class="st35" d="M977.6,774.2c-9.5,5.2-20.6,7.9-32.3,7.3c-31.9-1.6-57.4-28.1-57.9-60c-0.5-34.1,27-61.9,61-61.9
		c9.8,0,19.1,2.3,27.3,6.5c4.2,2.1,9.4,1.4,12.7-1.9l0,0c5.4-5.3,3.9-14.2-2.8-17.6c-9.2-4.6-22.1-9-37.3-9c-46.5,0-84.1,38.3-83,85
		c1.1,44.7,38,80.9,82.8,81c14.4,0,28-3.6,39.8-10c6.3-3.4,7.8-11.8,3-17.1l0,0C987.5,772.7,982,771.8,977.6,774.2z"/>
	<g>
		
			<radialGradient id="SVGID_17_" cx="944.5" cy="1187.3042" r="105.2713" gradientTransform="matrix(1 0 0 3 0 -2840.9524)" gradientUnits="userSpaceOnUse">
			<stop  offset="0" style="stop-color:#191A47"/>
			<stop  offset="1" style="stop-color:#F1F1F2"/>
		</radialGradient>
		<circle class="st45" cx="944.5" cy="721" r="105"/>
	</g>
	<g>
		
			<radialGradient id="SVGID_18_" cx="944.5" cy="1187.3042" r="150.2713" gradientTransform="matrix(1 0 0 3 0 -2840.9524)" gradientUnits="userSpaceOnUse">
			<stop  offset="0" style="stop-color:#191A47"/>
			<stop  offset="1" style="stop-color:#F1F1F2"/>
		</radialGradient>
		<circle class="st46" cx="944.5" cy="721" r="150"/>
	</g>
	<path class="st25" d="M327.6,773.6c-9.5,5.2-20.6,7.9-32.3,7.3c-31.9-1.6-57.4-28.1-57.9-60c-0.5-34.1,27-61.9,61-61.9
		c9.8,0,19.1,2.3,27.3,6.5c4.2,2.1,9.4,1.4,12.7-1.9l0,0c5.4-5.3,3.9-14.2-2.8-17.6c-9.2-4.6-22.1-9-37.3-9c-46.5,0-84.1,38.3-83,85
		c1.1,44.7,38,80.9,82.8,81c14.4,0,28-3.6,39.8-10c6.3-3.4,7.8-11.8,3-17.1l0,0C337.5,772.1,332,771.2,327.6,773.6z"/>
	<path class="st24" d="M312.5,745.6c-4.5,2.5-9.9,3.8-15.5,3.5c-15.3-0.8-27.5-13.4-27.7-28.7c-0.2-16.3,12.9-29.6,29.2-29.6
		c4.7,0,9.1,1.1,13.1,3.1c2,1,4.5,0.7,6.1-0.9l0,0c2.6-2.5,1.9-6.8-1.3-8.4c-4.4-2.2-10.6-4.3-17.8-4.3c-22.2,0-40.2,18.3-39.7,40.7
		c0.5,21.4,18.2,38.7,39.6,38.7c6.9,0,13.4-1.7,19-4.8c3-1.6,3.7-5.6,1.4-8.2l0,0C317.2,744.9,314.6,744.5,312.5,745.6z"/>
	<g>
		
			<radialGradient id="SVGID_19_" cx="291.5" cy="1186.9708" r="105.2712" gradientTransform="matrix(1 0 0 3 0 -2840.9524)" gradientUnits="userSpaceOnUse">
			<stop  offset="0" style="stop-color:#191A47"/>
			<stop  offset="1" style="stop-color:#F1F1F2"/>
		</radialGradient>
		<circle class="st47" cx="291.5" cy="720" r="105"/>
	</g>
	<g>
		
			<radialGradient id="SVGID_20_" cx="291.5" cy="1186.9708" r="150.2712" gradientTransform="matrix(1 0 0 3 0 -2840.9524)" gradientUnits="userSpaceOnUse">
			<stop  offset="0" style="stop-color:#191A47"/>
			<stop  offset="1" style="stop-color:#F1F1F2"/>
		</radialGradient>
		<circle class="st48" cx="291.5" cy="720" r="150"/>
	</g>
	<circle class="st24" cx="299.6" cy="720.8" r="40.5"/>
	<circle class="st38" cx="952" cy="720.6" r="37.2"/>
	<g>
		<text transform="matrix(1 0 0 1 334.7234 1917.6936)" class="st20 st21 st22">cyber </text>
		<text transform="matrix(1 0 0 1 334.7233 1946.0187)" class="st20 st21 st22">Congress</text>
	</g>
	<g>
		<text transform="matrix(1 0 0 1 183.5002 1657.3823)" class="st20 st21 st49">cyber </text>
		<text transform="matrix(1 0 0 1 261.4998 1658.145)" class="st20 st21 st49"> Congress</text>
	</g>
	<g>
		<text transform="matrix(1 0 0 1 963.9326 1520.6472)" class="st20 st21 st49">cyber </text>
		<text transform="matrix(1 0 0 1 965.267 1566.7576)" class="st20 st21 st49">Congress</text>
	</g>
	<g>
		<text transform="matrix(1 0 0 1 987.7234 1916.6936)" class="st38 st21 st22">cyber </text>
		<text transform="matrix(1 0 0 1 987.7233 1945.0187)" class="st38 st21 st22">Congress</text>
	</g>
	<g>
		<text transform="matrix(1 0 0 1 1010.3605 704.9125)" class="st35 st21 st49">cyber </text>
		<text transform="matrix(1 0 0 1 1011.6949 751.023)" class="st20 st50 st49">Congress</text>
	</g>
	<g>
		<text transform="matrix(1 0 0 1 352.1716 703.9128)" class="st25 st21 st49">cyber </text>
		<text transform="matrix(1 0 0 1 353.506 746.0231)" class="st24 st21 st49">Congress</text>
	</g>
</g>
<g id="Layer_2_5_">
</g>
<g>
	
		<image style="overflow:visible;" width="201" height="239" xlink:href="6A36FA1E2D5F503E.png"  transform="matrix(1 0 0 1 833 220.96)">
	</image>
</g>
<g>
	
		<image style="overflow:visible;" width="201" height="239" xlink:href="6A36FA1E2D5F5039.png"  transform="matrix(1 0 0 1 831 225.96)">
	</image>
</g>
<g>
	<path class="st15" d="M977.1,395.4c-9.5,5.2-20.6,7.9-32.3,7.3c-31.9-1.6-57.4-28.1-57.9-60c-0.5-34.1,27-61.9,61-61.9
		c9.8,0,19.1,2.3,27.3,6.5c4.2,2.1,9.4,1.4,12.7-1.9l0,0c5.4-5.3,3.9-14.2-2.8-17.6c-9.2-4.6-22.1-9-37.3-9c-46.5,0-84.1,38.3-83,85
		c1.1,44.7,38,80.9,82.8,81c14.4,0,28-3.6,39.8-10c6.3-3.4,7.8-11.8,3-17.1l0,0C987,393.9,981.5,393,977.1,395.4z"/>
	<g>
		
			<radialGradient id="SVGID_21_" cx="944" cy="1061.0657" r="105.2713" gradientTransform="matrix(1 0 0 3 0 -2840.9524)" gradientUnits="userSpaceOnUse">
			<stop  offset="0" style="stop-color:#191A47"/>
			<stop  offset="1" style="stop-color:#F1F1F2"/>
		</radialGradient>
		<circle class="st51" cx="944" cy="342.2" r="105"/>
	</g>
	<g>
		
			<radialGradient id="SVGID_22_" cx="944" cy="1061.0657" r="150.2713" gradientTransform="matrix(1 0 0 3 0 -2840.9524)" gradientUnits="userSpaceOnUse">
			<stop  offset="0" style="stop-color:#191A47"/>
			<stop  offset="1" style="stop-color:#F1F1F2"/>
		</radialGradient>
		<circle class="st52" cx="944" cy="342.2" r="150"/>
	</g>
	<circle class="st15" cx="951.5" cy="341.8" r="37.2"/>
	<g>
		<text transform="matrix(1 0 0 1 1009.8605 326.197)" class="st15 st21 st49">cyber </text>
		<text transform="matrix(1 0 0 1 1011.1949 372.3074)" class="st15 st50 st49">Congress</text>
	</g>
</g>
<g>
	<g>
		
			<image style="overflow:visible;" width="201" height="239" xlink:href="6A36FA1E2D5F5038.png"  transform="matrix(1 0 0 1 188.6 220.56)">
		</image>
	</g>
	<g>
		
			<image style="overflow:visible;" width="202" height="239" xlink:href="6A36FA1E2D5F5037.png"  transform="matrix(1 0 0 1 186 224.96)">
		</image>
	</g>
	<g>
		<path class="st0" d="M332.7,395c-9.5,5.2-20.6,7.9-32.3,7.3c-31.9-1.6-57.4-28.1-57.9-60c-0.5-34.1,27-61.9,61-61.9
			c9.8,0,19.1,2.3,27.3,6.5c4.2,2.1,9.4,1.4,12.7-1.9l0,0c5.4-5.3,3.9-14.2-2.8-17.6c-9.2-4.6-22.1-9-37.3-9
			c-46.5,0-84.1,38.3-83,85c1.1,44.7,38,80.9,82.8,81c14.4,0,28-3.6,39.8-10c6.3-3.4,7.8-11.8,3-17.1l0,0
			C342.6,393.5,337.1,392.6,332.7,395z"/>
		<g>
			
				<radialGradient id="SVGID_23_" cx="299.6" cy="1060.9324" r="105.2713" gradientTransform="matrix(1 0 0 3 0 -2840.9524)" gradientUnits="userSpaceOnUse">
				<stop  offset="0" style="stop-color:#191A47"/>
				<stop  offset="1" style="stop-color:#F1F1F2"/>
			</radialGradient>
			<circle class="st53" cx="299.6" cy="341.8" r="105"/>
		</g>
		<g>
			
				<radialGradient id="SVGID_24_" cx="299.6" cy="1060.9324" r="150.2713" gradientTransform="matrix(1 0 0 3 0 -2840.9524)" gradientUnits="userSpaceOnUse">
				<stop  offset="0" style="stop-color:#191A47"/>
				<stop  offset="1" style="stop-color:#F1F1F2"/>
			</radialGradient>
			<circle class="st54" cx="299.6" cy="341.8" r="150"/>
		</g>
		<circle class="st0" cx="307.1" cy="341.4" r="37.2"/>
		<g>
			<text transform="matrix(1 0 0 1 365.4605 325.7969)" class="st0 st21 st49">cyber </text>
			<text transform="matrix(1 0 0 1 366.7949 371.9074)" class="st0 st50 st49">Congress</text>
		</g>
	</g>
</g>
</svg>
