<?xml version="1.0" encoding="utf-8"?>
<!-- Generator: Adobe Illustrator 22.1.0, SVG Export Plug-In . SVG Version: 6.00 Build 0)  -->
<svg version="1.1" xmlns="http://www.w3.org/2000/svg" xmlns:xlink="http://www.w3.org/1999/xlink" x="0px" y="0px"
	 viewBox="0 0 1280 3859.6" style="enable-background:new 0 0 1280 3859.6;" xml:space="preserve">
<style type="text/css">
	.st0{fill:url(#SVGID_1_);}
	.st1{fill:#061116;}
	.st2{display:none;}
	.st3{display:inline;opacity:0.45;}
	.st4{opacity:7.000000e-02;clip-path:url(#SVGID_3_);}
	.st5{fill:#C1C1C1;}
	.st6{opacity:7.000000e-02;clip-path:url(#SVGID_5_);}
	.st7{display:inline;opacity:0.5;}
	.st8{fill:#FCFCFC;}
	.st9{display:none;fill:#FCFCFC;}
	.st10{display:inline;}
	.st11{fill:none;stroke:#686868;stroke-width:0.25;stroke-miterlimit:10;}
	.st12{opacity:0.15;fill:none;stroke:#686868;stroke-width:0.25;stroke-miterlimit:10;enable-background:new    ;}
	.st13{opacity:0.15;fill:#FCFCFC;enable-background:new    ;}
	.st14{opacity:0.3;fill:none;stroke:#686868;stroke-width:0.25;stroke-miterlimit:10;enable-background:new    ;}
	.st15{opacity:0.3;fill:#FCFCFC;enable-background:new    ;}
	.st16{fill:#FFFFFF;}
	.st17{fill:#34FF10;}
	.st18{fill:#0D0F12;}
	
		.st19{opacity:0.36;fill:none;stroke:url(#SVGID_6_);stroke-width:0.5;stroke-linecap:round;stroke-linejoin:round;stroke-dasharray:2.9719,2.9719,2.9719,2.9719,2.9719,2.9719;enable-background:new    ;}
	
		.st20{opacity:0.36;fill:none;stroke:url(#SVGID_7_);stroke-width:0.5;stroke-linecap:round;stroke-linejoin:round;stroke-dasharray:3.0209,3.0209,3.0209,3.0209,3.0209,3.0209;enable-background:new    ;}
	.st21{fill:#777777;}
	.st22{font-family:'Play-Regular';}
	.st23{font-size:24px;}
	.st24{font-size:27.5199px;}
	.st25{fill:#353535;}
	.st26{fill:#898989;}
	
		.st27{opacity:0.36;fill:none;stroke:url(#SVGID_8_);stroke-width:0.5;stroke-linecap:round;stroke-linejoin:round;stroke-dasharray:2.9719,2.9719,2.9719,2.9719,2.9719,2.9719;enable-background:new    ;}
	
		.st28{opacity:0.36;fill:none;stroke:url(#SVGID_9_);stroke-width:0.5;stroke-linecap:round;stroke-linejoin:round;stroke-dasharray:3.0209,3.0209,3.0209,3.0209,3.0209,3.0209;enable-background:new    ;}
	.st29{fill:#727272;}
	.st30{fill:#E0E0E0;}
	
		.st31{opacity:0.36;fill:none;stroke:url(#SVGID_10_);stroke-width:0.5;stroke-linecap:round;stroke-linejoin:round;stroke-dasharray:2.9719,2.9719,2.9719,2.9719,2.9719,2.9719;enable-background:new    ;}
	
		.st32{opacity:0.36;fill:none;stroke:url(#SVGID_11_);stroke-width:0.5;stroke-linecap:round;stroke-linejoin:round;stroke-dasharray:3.0209,3.0209,3.0209,3.0209,3.0209,3.0209;enable-background:new    ;}
	.st33{fill:#060000;}
	.st34{opacity:0.42;}
	.st35{fill:#32FF10;}
	.st36{fill:#52EF00;}
	.st37{opacity:0.7;}
	.st38{opacity:0.62;fill:#777777;enable-background:new    ;}
	.st39{fill:#AFAFAF;}
	
		.st40{opacity:0.36;fill:none;stroke:url(#SVGID_12_);stroke-width:0.5;stroke-linecap:round;stroke-linejoin:round;stroke-dasharray:2.9719,2.9719,2.9719,2.9719,2.9719,2.9719;enable-background:new    ;}
	
		.st41{opacity:0.36;fill:none;stroke:url(#SVGID_13_);stroke-width:0.5;stroke-linecap:round;stroke-linejoin:round;stroke-dasharray:3.0209,3.0209,3.0209,3.0209,3.0209,3.0209;enable-background:new    ;}
	
		.st42{opacity:0.36;fill:none;stroke:url(#SVGID_14_);stroke-width:0.5;stroke-linecap:round;stroke-linejoin:round;stroke-dasharray:2.9719,2.9719,2.9719,2.9719,2.9719,2.9719;enable-background:new    ;}
	
		.st43{opacity:0.36;fill:none;stroke:url(#SVGID_15_);stroke-width:0.5;stroke-linecap:round;stroke-linejoin:round;stroke-dasharray:3.0209,3.0209,3.0209,3.0209,3.0209,3.0209;enable-background:new    ;}
	
		.st44{opacity:0.36;fill:none;stroke:url(#SVGID_16_);stroke-width:0.5;stroke-linecap:round;stroke-linejoin:round;stroke-dasharray:2.9719,2.9719,2.9719,2.9719,2.9719,2.9719;enable-background:new    ;}
	
		.st45{opacity:0.36;fill:none;stroke:url(#SVGID_17_);stroke-width:0.5;stroke-linecap:round;stroke-linejoin:round;stroke-dasharray:3.0209,3.0209,3.0209,3.0209,3.0209,3.0209;enable-background:new    ;}
	
		.st46{opacity:0.36;fill:none;stroke:url(#SVGID_18_);stroke-width:0.5;stroke-linecap:round;stroke-linejoin:round;stroke-dasharray:2.9719,2.9719,2.9719,2.9719,2.9719,2.9719;enable-background:new    ;}
	
		.st47{opacity:0.36;fill:none;stroke:url(#SVGID_19_);stroke-width:0.5;stroke-linecap:round;stroke-linejoin:round;stroke-dasharray:3.0209,3.0209,3.0209,3.0209,3.0209,3.0209;enable-background:new    ;}
	
		.st48{opacity:0.36;fill:none;stroke:url(#SVGID_20_);stroke-width:0.5;stroke-linecap:round;stroke-linejoin:round;stroke-dasharray:2.9719,2.9719,2.9719,2.9719,2.9719,2.9719;enable-background:new    ;}
	
		.st49{opacity:0.36;fill:none;stroke:url(#SVGID_21_);stroke-width:0.5;stroke-linecap:round;stroke-linejoin:round;stroke-dasharray:3.0209,3.0209,3.0209,3.0209,3.0209,3.0209;enable-background:new    ;}
	.st50{font-size:30.3021px;}
	.st51{font-family:'Play-Bold';}
	
		.st52{opacity:0.36;fill:none;stroke:url(#SVGID_22_);stroke-width:0.5;stroke-linecap:round;stroke-linejoin:round;stroke-dasharray:2.9719,2.9719,2.9719,2.9719,2.9719,2.9719;enable-background:new    ;}
	
		.st53{opacity:0.36;fill:none;stroke:url(#SVGID_23_);stroke-width:0.5;stroke-linecap:round;stroke-linejoin:round;stroke-dasharray:3.0209,3.0209,3.0209,3.0209,3.0209,3.0209;enable-background:new    ;}
	
		.st54{opacity:0.36;fill:none;stroke:url(#SVGID_24_);stroke-width:0.5;stroke-linecap:round;stroke-linejoin:round;stroke-dasharray:2.9719,2.9719,2.9719,2.9719,2.9719,2.9719;enable-background:new    ;}
	
		.st55{opacity:0.36;fill:none;stroke:url(#SVGID_25_);stroke-width:0.5;stroke-linecap:round;stroke-linejoin:round;stroke-dasharray:3.0209,3.0209,3.0209,3.0209,3.0209,3.0209;enable-background:new    ;}
	.st56{fill:#9B9B9B;}
	.st57{fill:none;stroke:#FFFFFF;stroke-width:2;stroke-miterlimit:10;}
	.st58{fill:url(#SVGID_26_);}
	.st59{fill:none;stroke:#061116;stroke-width:3;stroke-miterlimit:10;}
	.st60{fill:url(#SVGID_27_);}
	.st61{fill:#C200A5;}
	.st62{clip-path:url(#SVGID_29_);}
	.st63{clip-path:url(#SVGID_31_);}
	.st64{fill:url(#SVGID_32_);}
	.st65{fill:url(#SVGID_33_);}
	.st66{fill:none;stroke:#FCFCFC;stroke-width:3;stroke-miterlimit:10;}
	.st67{fill:url(#SVGID_34_);}
</style>
<g id="Layer_3_1_">
	<g>
		
			<linearGradient id="SVGID_1_" gradientUnits="userSpaceOnUse" x1="232.3643" y1="3479.4094" x2="357.2001" y2="3479.4094" gradientTransform="matrix(0.9982 6.065660e-02 -6.065660e-02 0.9982 218.481 -10.5729)">
			<stop  offset="1.212740e-02" style="stop-color:#0810BD"/>
			<stop  offset="0.9788" style="stop-color:#BE2267"/>
		</linearGradient>
		<path class="st0" d="M239.6,3472c8.2-7.8,17.7-13.9,28.7-18c10.9-4.2,22.5-6.3,34.8-6.3c9.7,0,18.4,0.9,26,2.8
			c7.6,1.9,14.1,4,19.6,6.4c6.3,2.7,11.8,5.7,16.4,9l-26.9,47.4c-2.7-2-5.7-4-9-5.9c-2.9-1.4-6.4-2.7-10.4-4
			c-4-1.3-8.6-1.9-13.7-1.9c-5.3,0-10.2,0.9-14.6,2.8c-4.4,1.9-8.3,4.4-11.6,7.7"/>
	</g>
</g>
<g id="Layer_1">
	<g id="Layer_1_1_">
		<g id="logo">
			<g id="background">
				<rect id="background_x5F_2" x="594.5" class="st1" width="685.6" height="3859.6"/>
			</g>
			<g id="cat_x5F_opacity" class="st2">
				<g id="cat_x5F_little" class="st3">
					<g>
						<g>
							<g>
								<g>
									<g>
										<g>
											<g>
												<defs>
													<rect id="SVGID_2_" x="-0.5" y="1280" width="271.6" height="676.7"/>
												</defs>
												<clipPath id="SVGID_3_">
													<use xlink:href="#SVGID_2_"  style="overflow:visible;"/>
												</clipPath>
												<g id="Layer_6_1_" class="st4">
													<g>
														<g>
															<g>
																<g>
																	<path class="st5" d="M20.2,1816.9L46.6,1703c-37.9-5.4-77.8-23.9-77.8-106.3c0-23.5,6.8-42.5,17.6-57.5
																		c-1.8-5.4-7.7-27.3,1.6-57c0,0,14.4-5.7,46.9,22.1c13.5-4.8,28.2-7,42.9-7.4c14.4,0,29.1,2.5,42.9,7.4
																		c32.7-27.8,46.9-22.1,46.9-22.1c9.3,29.5,3.4,51.2,1.8,57c11.1,15.1,17.6,34.3,17.6,57.5
																		c0,82.5-39.9,100.6-78.1,106l25.5,115.9L78,1830.6L20.2,1816.9z"/>
																	<g>
																		<g>
																			<path class="st5" d="M179.7,1416.9c-86.8-71.2-206.2-37.4-258.7,75.4c-48.7,104.2-22.3,242,58,308.1
																				c45.4,37.4,100.6,46.2,152.1,25.2c6.1-2.5,3.6-14.7-2.7-12.2c-43.2,17.2-88.8,13.4-129.2-12.8
																				c-38.1-25-68.4-67.7-83-118.7c-30.7-107.4,12-229.8,95.9-273.8c53.3-28.1,114.4-19.6,162.5,19.8
																				C180,1432.5,185.2,1421.4,179.7,1416.9L179.7,1416.9z"/>
																		</g>
																	</g>
																</g>
															</g>
														</g>
													</g>
												</g>
											</g>
										</g>
									</g>
								</g>
							</g>
						</g>
					</g>
				</g>
				<g id="cat_x5F_big" class="st3">
					<g>
						<g>
							<g>
								<g>
									<g>
										<g>
											<g>
												<defs>
													<rect id="SVGID_4_" x="1109.9" y="2140.6" width="170.1" height="423.9"/>
												</defs>
												<clipPath id="SVGID_5_">
													<use xlink:href="#SVGID_4_"  style="overflow:visible;"/>
												</clipPath>
												<g id="Layer_6_2_" class="st6">
													<g>
														<g>
															<g>
																<g>
																	<path class="st5" d="M1242.9,2476.9l16.5-71.3c-23.7-3.4-48.8-14.9-48.8-66.6c0-14.7,4.2-26.6,11-36
																		c-1.1-3.4-4.8-17.1,1-35.7c0,0,9-3.5,29.4,13.8c8.5-3,17.7-4.4,26.8-4.6c9,0,18.2,1.6,26.8,4.6
																		c20.5-17.3,29.4-13.8,29.4-13.8c5.8,18.5,2.1,32.2,1.1,35.7c6.9,9.4,11,21.5,11,36c0,51.6-25,63.1-48.9,66.3
																		l16,72.6l-35.3,7.4L1242.9,2476.9z"/>
																	<g>
																		<g>
																			<path class="st5" d="M1342.8,2226.2c-54.4-44.6-129.2-23.5-162.1,47.2c-30.5,65.3-14,151.6,36.3,192.9
																				c28.4,23.5,63,28.9,95.2,15.8c3.8-1.6,2.3-9.2-1.7-7.7c-27,10.8-55.5,8.5-80.8-8c-23.9-15.6-42.8-42.5-52-74.4
																				c-19.2-67.3,7.5-143.9,60.1-171.4c33.3-17.6,71.6-12.3,101.7,12.4C1343,2236,1346.2,2229.1,1342.8,2226.2
																				L1342.8,2226.2z"/>
																		</g>
																	</g>
																</g>
															</g>
														</g>
													</g>
												</g>
											</g>
										</g>
									</g>
								</g>
							</g>
						</g>
					</g>
				</g>
			</g>
			<g id="point" class="st2">
				<g id="point_x5F_cat" class="st7">
					<ellipse class="st8" cx="559.7" cy="1784.4" rx="2.5" ry="3.1"/>
					<ellipse class="st9" cx="559.7" cy="1884.6" rx="2.5" ry="3.1"/>
					<ellipse class="st8" cx="559.7" cy="1837.6" rx="2.5" ry="3.1"/>
					<ellipse class="st8" cx="634.5" cy="1837.6" rx="2.5" ry="3.1"/>
					<ellipse class="st9" cx="634.5" cy="1937.7" rx="2.5" ry="3.1"/>
					<ellipse class="st9" cx="634.5" cy="1890.8" rx="2.5" ry="3.1"/>
					<ellipse class="st8" cx="634.5" cy="2041" rx="2.5" ry="3.1"/>
					<ellipse class="st8" cx="634.5" cy="2191.2" rx="2.5" ry="3.1"/>
					<ellipse class="st8" cx="634.5" cy="2094.2" rx="2.5" ry="3.1"/>
					<ellipse class="st8" cx="415.2" cy="1937.7" rx="2.5" ry="3.1"/>
					<ellipse class="st8" cx="415.3" cy="1890.6" rx="2.5" ry="3.1"/>
					<ellipse class="st8" cx="488.7" cy="1837.6" rx="2.5" ry="3.1"/>
					<ellipse class="st8" cx="559.7" cy="1940.9" rx="2.5" ry="3.1"/>
					<ellipse class="st8" cx="704.2" cy="1940.9" rx="2.5" ry="3.1"/>
					<ellipse class="st8" cx="704.2" cy="2041" rx="2.5" ry="3.1"/>
					<ellipse class="st9" cx="704.2" cy="1994" rx="2.5" ry="3.1"/>
					<ellipse class="st9" cx="778.9" cy="1994" rx="2.5" ry="3.1"/>
					<ellipse class="st8" cx="853.7" cy="1994" rx="2.5" ry="3.1"/>
					<ellipse class="st8" cx="778.9" cy="2041" rx="2.5" ry="3.1"/>
					<ellipse class="st8" cx="704.2" cy="2097.4" rx="2.5" ry="3.1"/>
					<ellipse class="st8" cx="340.5" cy="1940.9" rx="2.5" ry="3.1"/>
					<ellipse class="st9" cx="340.5" cy="2034.7" rx="2.5" ry="3.1"/>
					<ellipse class="st9" cx="340.5" cy="1987.8" rx="2.5" ry="3.1"/>
					<ellipse class="st9" cx="270.8" cy="1987.8" rx="2.5" ry="3.1"/>
					<ellipse class="st8" cx="559.7" cy="2092.6" rx="2.5" ry="3.1"/>
					<ellipse class="st8" cx="559.7" cy="2195.8" rx="2.5" ry="3.1"/>
					<ellipse class="st8" cx="559.7" cy="2003.4" rx="2.5" ry="3.1"/>
					<ellipse class="st9" cx="487.5" cy="1991" rx="2.5" ry="3.1"/>
					<ellipse class="st9" cx="487.5" cy="1939.4" rx="2.5" ry="3.1"/>
					<ellipse class="st8" cx="487.6" cy="2040.1" rx="2.5" ry="3.1"/>
					<ellipse class="st8" cx="487.5" cy="2092.6" rx="2.5" ry="3.1"/>
					<ellipse class="st8" cx="487.5" cy="2142.7" rx="2.5" ry="3.1"/>
				</g>
				<g id="point_x5F_background" class="st10">
					<ellipse class="st11" cx="487.6" cy="2040.1" rx="10.6" ry="13.3"/>
					<ellipse class="st11" cx="415.3" cy="1890.6" rx="10.6" ry="13.3"/>
					<ellipse class="st12" cx="309.5" cy="1646.6" rx="8.5" ry="10.7"/>
					<ellipse class="st13" cx="309.5" cy="1646.6" rx="2" ry="2.5"/>
					<ellipse class="st14" cx="1039.3" cy="2486.8" rx="8.5" ry="10.7"/>
					<ellipse class="st15" cx="1039.3" cy="2486.8" rx="2" ry="2.5"/>
					<ellipse class="st15" cx="1045.4" cy="2461.7" rx="0.8" ry="1"/>
					<ellipse class="st15" cx="1015.4" cy="2490.6" rx="1.6" ry="2"/>
					<ellipse class="st15" cx="1034" cy="2424.1" rx="0.6" ry="0.8"/>
					<ellipse class="st15" cx="1064.4" cy="2449.2" rx="0.5" ry="0.6"/>
					<ellipse class="st15" cx="1018.1" cy="2537.1" rx="0.6" ry="0.8"/>
					<ellipse class="st15" cx="1041.3" cy="2512" rx="0.8" ry="1"/>
					<ellipse class="st15" cx="1059.4" cy="2537.1" rx="1.4" ry="1.8"/>
					<ellipse class="st12" cx="341.5" cy="1616.5" rx="8.5" ry="10.7"/>
					<ellipse class="st13" cx="341.5" cy="1616.5" rx="2" ry="2.5"/>
					<ellipse class="st13" cx="347.7" cy="1591.3" rx="0.8" ry="1"/>
					<ellipse class="st13" cx="317.7" cy="1620.2" rx="1.6" ry="2"/>
					<ellipse class="st13" cx="336.2" cy="1553.7" rx="0.6" ry="0.8"/>
					<ellipse class="st13" cx="366.7" cy="1578.8" rx="0.5" ry="0.6"/>
					<ellipse class="st13" cx="320.4" cy="1666.7" rx="0.6" ry="0.8"/>
					<ellipse class="st14" cx="229.5" cy="1722" rx="8.5" ry="10.7"/>
					<ellipse class="st15" cx="229.5" cy="1722" rx="2" ry="2.5"/>
					<ellipse class="st15" cx="237.7" cy="1695.6" rx="1.6" ry="2"/>
					<ellipse class="st15" cx="240.4" cy="1742.1" rx="0.6" ry="0.8"/>
					<ellipse class="st13" cx="343.6" cy="1641.6" rx="0.8" ry="1"/>
					<ellipse class="st13" cx="361.7" cy="1666.7" rx="1.4" ry="1.8"/>
				</g>
			</g>
			<g id="cat_x5F_square" class="st2">
				<g class="st10">
					<path class="st16" d="M905.6,2967.6c-0.8-0.1-1.7-0.3-2.8-0.6s-2-1-2.7-1.6c-0.6-0.8-1.1-1.8-1.6-3.3c-0.5-1.4-0.7-3-0.7-5.1
						v-12.2c0-3.8,0.5-6.4,1.7-7.9c0.6-1,1.2-1.6,1.9-2.1c0.6-0.5,1.4-0.9,2.5-1c1-0.3,1.9-0.3,2.7-0.4s1.9-0.1,3.4-0.1
						c2.5,0,5,0.4,7.5,1v4.5c-2.9-1-5.6-1.4-8.1-1.4c-1.9,0-3.3,0.3-4.2,0.5c-0.9,0.4-1.5,1-1.8,1.8c-0.4,0.9-0.5,2.3-0.5,4.1v13.6
						c0,1.8,0.2,2.9,0.6,3.8c0.4,0.9,1.1,1.4,2,1.8c1,0.4,2.5,0.5,4.5,0.5c2.7,0,5.3-0.5,8-1.4v4.6c-2.5,0.6-5.3,1-8.4,1
						C907.7,2967.8,906.4,2967.8,905.6,2967.6z"/>
					<path class="st16" d="M930.5,2967.5l-10.2-33.7h5.3l7.4,27h0.1l6.7-27h4.9l-13.3,47.4h-5L930.5,2967.5z"/>
					<path class="st16" d="M956.4,2967.4c-1.2-0.3-2.3-0.8-3.5-1.4c-2.3-1.4-3.6-4.6-3.6-9.7v-37.2h4.9v9.9v3.9c0,1.1-0.1,2.5-0.1,4
						c0.2-1,0.9-1.9,2.3-2.6c1.4-0.6,3.4-1,6-1c7.3,0,10.9,3.1,10.9,9.4v13.6c0,2-0.2,3.8-0.7,5.1c-0.5,1.4-1.1,2.5-1.7,3.4
						c-0.7,0.8-1.5,1.4-2.7,1.8c-1.1,0.5-2.3,0.8-3.4,0.9c-1,0.1-2.3,0.3-3.7,0.3C959.1,2967.8,957.5,2967.6,956.4,2967.4z
						 M965.5,2963.2c1-0.4,1.7-1,2.1-1.9c0.5-1,0.7-2.3,0.7-4.1v-12.9c0-1.9-0.2-3.3-0.7-4.1c-0.5-1-1.1-1.5-2.1-1.8
						s-2.4-0.5-4.4-0.5c-1.7,0-3.2,0.3-4.2,0.6c-1,0.4-1.7,1-2.1,1.9c-0.5,1-0.7,2.3-0.7,4v13.1c0,1.9,0.2,3.3,0.6,4.1
						c0.5,1,1.1,1.5,2.1,1.9c1,0.4,2.4,0.5,4.2,0.5C963,2963.7,964.5,2963.6,965.5,2963.2z"/>
					<path class="st16" d="M979.9,2957.7v-13.2c0-4,0.9-6.9,2.7-8.7s4.8-2.6,8.9-2.6c3.9,0,6.7,0.9,8.4,2.5s2.6,4.5,2.6,8.8v7.3
						h-17.7v4.9c0,2.3,0.6,3.9,1.9,4.9c1.3,1,3.3,1.5,5.9,1.5c2.5,0,5.5-0.6,8.9-1.6v4.8c-3.3,1-6.5,1.4-9.5,1.4
						C983.9,2967.8,979.9,2964.4,979.9,2957.7z M997.7,2947.9v-5.3c0-2-0.5-3.4-1.4-4.1s-2.6-1.1-4.9-1.1c-2.3,0-3.9,0.4-4.9,1.1
						c-1,0.8-1.5,2.1-1.5,4.1v5.3H997.7z"/>
					<path class="st16" d="M1010,2934h4.6v5.4c0-1,0.4-2,1.1-2.9c0.8-1,1.7-1.8,2.8-2.3c1.1-0.6,2.2-0.9,3.3-0.9h2.4v5.3h-2.7
						c-2.3,0-4,0.4-5.1,1.1c-1.1,0.8-1.5,2.1-1.5,4.1v23.4h-4.9L1010,2934L1010,2934z"/>
				</g>
				<g class="st10">
					<path class="st16" d="M850.7,3268.8v-21.2c0-8.5,5-12.8,15-12.8c3.4,0,6.7,0.5,9.8,1.4v4.9c-3.5-1.1-6.7-1.6-9.7-1.6
						c-1.4,0-2.7,0.1-3.7,0.3c-1.1,0.3-2.1,0.6-3.1,1c-2.1,1.1-3.2,3.4-3.2,6.8v21c0,5.1,3.4,7.7,10.2,7.7c3,0,6.1-0.6,9.7-1.6v5.1
						c-3.1,0.9-6.4,1.4-10,1.4C855.7,3281,850.7,3276.9,850.7,3268.8z"/>
					<path class="st16" d="M888.3,3280.6c-1.1-0.3-2.3-0.6-3.5-1.4c-1.2-0.6-2.1-1.8-2.7-3.4c-0.6-1.6-0.8-3.6-0.8-6.3V3258
						c0-2.1,0.2-3.9,0.6-5.4c0.4-1.5,0.9-2.8,1.6-3.6c0.5-0.8,1.4-1.4,2.5-1.8c1.1-0.5,2.3-0.8,3.4-0.9c1.3-0.1,2.7-0.1,4.1-0.1
						c1.9,0,3.3,0.1,4.3,0.3c1,0.1,2,0.4,3.1,0.8c1.1,0.4,2,1,2.7,1.9s1.1,2,1.6,3.6c0.4,1.6,0.6,3.4,0.6,5.7v11.6
						c0,3.9-0.7,6.8-2.1,8.5c-0.6,0.8-1.4,1.4-2.5,1.8s-2.2,0.6-3.4,0.9c-1.4,0.1-2.8,0.1-4.2,0.1
						C891.3,3281,889.6,3280.9,888.3,3280.6z M897,3276.7c0.7-0.1,1.4-0.4,2-0.8c0.7-0.4,1.1-1,1.4-1.8c0.3-0.9,0.4-2,0.4-3.5v-13.6
						c0-2.1-0.2-3.6-0.6-4.5c-0.4-1-1.1-1.5-2-1.9c-1-0.3-2.5-0.5-4.5-0.5s-3.6,0.3-4.5,0.5c-1,0.3-1.7,1-2,1.9
						c-0.4,1-0.6,2.5-0.6,4.5v13.6c0,1.5,0.2,2.6,0.4,3.5c0.3,0.9,0.8,1.4,1.4,1.8c0.7,0.4,1.4,0.6,2,0.8c0.7,0.1,1.8,0.1,3.3,0.1
						C895.2,3276.9,896.3,3276.9,897,3276.7z"/>
					<path class="st16" d="M913.6,3246.8h4.9v4.1c0.5-3.1,3.4-4.8,8.7-4.8c3.4,0,5.8,0.8,7.2,2.3s2,4,2,7.3v24.5h-4.9v-24.1
						c0-0.9-0.1-1.6-0.2-2.1c-0.1-0.6-0.3-1.1-0.7-1.6c-0.8-1.1-2.3-1.8-4.9-1.8c-2,0-3.4,0.3-4.5,0.5c-1.1,0.4-1.7,1-2.2,1.8
						c-0.5,0.8-0.6,1.9-0.6,3.4v24.2h-4.9L913.6,3246.8L913.6,3246.8z"/>
					<path class="st16" d="M945.9,3294.7v-4.4c4.4,0.6,7.6,1,9.6,1c2.5,0,4.4-0.5,5.5-1.5s1.7-2.6,1.7-5v-8
						c-0.1,1.4-0.8,2.5-2.4,3.3c-1.5,0.6-3.4,1-5.8,1c-2.7,0-4.9-0.3-6.4-1c-1.5-0.6-2.6-1.8-3.3-3.1c-0.6-1.4-1-3.4-1-6v-13.6
						c0-4,0.8-6.8,2.6-8.4c1.7-1.8,4.5-2.5,8.4-2.5c4.6,0,7.4,1.4,8.1,3.9v-3.3h4.6v36.5c0,3-0.5,5.5-1.4,7.3
						c-0.9,1.8-2.3,2.9-4.1,3.8c-1.8,0.6-4.2,1-7.1,1C951.5,3295.5,948.4,3295.2,945.9,3294.7z M961.3,3275.6
						c1.1-0.8,1.6-2.3,1.6-4.4v-15.1c0-1.5-0.2-2.6-0.6-3.4c-0.4-0.8-1.1-1.4-2.1-1.8s-2.5-0.5-4.5-0.5c-1.9,0-3.3,0.3-4.2,0.5
						s-1.6,0.9-1.9,1.8c-0.4,0.8-0.5,2-0.5,3.5v15.2c0,1.5,0.2,2.8,0.5,3.5c0.4,0.8,1.1,1.4,2,1.6c1,0.3,2.3,0.5,4.2,0.5
						C958.3,3276.7,960.2,3276.4,961.3,3275.6z"/>
					<path class="st16" d="M976.3,3246.8h4.7v5.4c0-1,0.4-2.1,1.1-3c0.8-1,1.7-1.8,2.8-2.3c1.1-0.6,2.3-0.9,3.3-0.9h2.4v5.3h-2.7
						c-2.3,0-4,0.4-5.1,1.1c-1.1,0.8-1.6,2.1-1.6,4.1v23.5h-4.9V3246.8L976.3,3246.8z"/>
					<path class="st16" d="M994.6,3270.8v-13.2c0-4.1,0.9-6.9,2.8-8.8c1.8-1.8,4.9-2.6,9-2.6c3.9,0,6.7,0.9,8.5,2.5
						c1.7,1.8,2.6,4.6,2.6,8.8v7.4h-17.9v5c0,2.3,0.6,4,1.9,4.9c1.3,1,3.3,1.5,5.9,1.5c2.5,0,5.5-0.6,8.9-1.6v4.8
						c-3.3,1-6.6,1.4-9.6,1.4C998.7,3281,994.6,3277.5,994.6,3270.8z M1012.5,3260.9v-5.3c0-2-0.5-3.4-1.4-4.1c-1-0.8-2.7-1.1-5-1.1
						s-3.9,0.4-4.9,1.1c-1.1,0.8-1.5,2.1-1.5,4.1v5.3H1012.5z"/>
					<path class="st16" d="M1024,3280.1v-4.8c4.3,0.9,7.4,1.4,9.2,1.4c2.3,0,4-0.3,5.1-0.9c1.1-0.6,1.5-1.6,1.5-3.3v-3.4
						c0-1.4-0.4-2.5-1.1-3c-0.8-0.6-2-0.9-3.7-0.9h-3c-2.7,0-4.9-0.6-6.3-2.1c-1.4-1.4-2.2-3.4-2.2-6v-3.1c0-5.3,3.9-7.9,11.9-7.9
						c0.6,0,3.3,0.3,8.1,0.6v4.5c-3.3-0.6-6-1-8.3-1c-2.6,0-4.4,0.3-5.3,1c-1,0.6-1.4,1.8-1.4,3.3v2.9c0,2.3,1.6,3.4,4.9,3.4h3.1
						c5.6,0,8.4,2.6,8.4,7.9v2.9c0,3.4-1,5.9-2.9,7.3c-1.9,1.4-4.9,2.1-8.7,2.1C1030.3,3281,1027.3,3280.6,1024,3280.1z"/>
					<path class="st16" d="M1050.5,3280.1v-4.8c4.3,0.9,7.4,1.4,9.2,1.4c2.3,0,4-0.3,5.1-0.9c1.1-0.6,1.5-1.6,1.5-3.3v-3.4
						c0-1.4-0.4-2.5-1.1-3c-0.8-0.6-2-0.9-3.7-0.9h-3c-2.7,0-4.9-0.6-6.3-2.1c-1.4-1.4-2.2-3.4-2.2-6v-3.1c0-5.3,3.9-7.9,11.9-7.9
						c0.6,0,3.3,0.3,8.1,0.6v4.5c-3.3-0.6-6-1-8.3-1c-2.6,0-4.4,0.3-5.3,1c-1,0.6-1.4,1.8-1.4,3.3v2.9c0,2.3,1.6,3.4,4.9,3.4h3.1
						c5.6,0,8.4,2.6,8.4,7.9v2.9c0,3.4-1,5.9-2.9,7.3c-1.9,1.4-4.9,2.1-8.7,2.1C1056.8,3281,1053.8,3280.6,1050.5,3280.1z"/>
				</g>
				<g id="Layer_6_10_" class="st10">
					<g>
						<g>
							<path class="st17" d="M953.8,3177.8l8.9-38.3c-12.7-1.8-26.1-8-26.1-35.7c0-7.9,2.3-14.3,5.9-19.3c-0.6-1.8-2.6-9.2,0.5-19.1
								c0,0,4.9-1.9,15.8,7.4c4.5-1.6,9.5-2.4,14.4-2.5c4.9,0,9.8,0.9,14.4,2.5c11-9.3,15.8-7.4,15.8-7.4c3.1,9.9,1.1,17.2,0.6,19.1
								c3.7,5,5.9,11.6,5.9,19.3c0,27.8-13.4,33.8-26.2,35.5l8.6,38.9l-18.9,4L953.8,3177.8z"/>
							<g>
								<g>
									<path class="st17" d="M1007.4,3043.4c-29.2-23.9-69.3-12.6-86.9,25.4c-16.4,35-7.5,81.3,19.5,103.5
										c15.2,12.6,33.8,15.6,51.1,8.4c2-0.9,1.2-4.9-0.9-4.1c-14.5,5.8-29.8,4.5-43.4-4.3c-12.8-8.4-23-22.7-27.9-39.9
										c-10.3-36,4-77.2,32.2-91.9c17.9-9.4,38.4-6.5,54.6,6.7C1007.5,3048.7,1009.2,3044.9,1007.4,3043.4L1007.4,3043.4z"/>
								</g>
							</g>
						</g>
					</g>
				</g>
			</g>
			<g id="cat_x5F_black" class="st2">
				<g id="Layer_2_3_" class="st10">
					<g>
						<path class="st18" d="M71.4,3149.3c-0.8-0.1-1.7-0.3-2.8-0.6c-1.1-0.4-2-1-2.7-1.6c-0.6-0.8-1.1-1.8-1.6-3.3
							c-0.5-1.4-0.7-3-0.7-5.1v-12.2c0-3.8,0.5-6.4,1.7-7.9c0.6-1,1.2-1.6,1.9-2.1c0.6-0.5,1.4-0.9,2.5-1c1-0.3,1.9-0.3,2.7-0.4
							c0.8-0.1,1.9-0.1,3.4-0.1c2.5,0,5,0.4,7.5,1v4.5c-2.9-1-5.6-1.4-8.1-1.4c-1.9,0-3.3,0.3-4.2,0.5c-0.9,0.4-1.5,1-1.8,1.8
							c-0.4,0.9-0.5,2.3-0.5,4.1v13.6c0,1.8,0.2,2.9,0.6,3.8s1.1,1.4,2,1.8c1,0.4,2.5,0.5,4.5,0.5c2.7,0,5.3-0.5,8-1.4v4.6
							c-2.5,0.6-5.3,1-8.4,1C73.5,3149.3,72.2,3149.3,71.4,3149.3z"/>
						<path class="st18" d="M96.3,3149.1l-10.2-33.7h5.3l7.4,27h0.1l6.7-27h4.9l-13.3,47.4h-5L96.3,3149.1z"/>
						<path class="st18" d="M122.2,3148.9c-1.2-0.3-2.3-0.8-3.5-1.4c-2.3-1.4-3.6-4.6-3.6-9.7v-37.2h4.9v9.9v3.9
							c0,1.1-0.1,2.5-0.1,4c0.2-1,0.9-1.9,2.3-2.6c1.4-0.6,3.4-1,6-1c7.3,0,10.9,3.1,10.9,9.4v13.6c0,2-0.2,3.8-0.7,5.1
							c-0.5,1.4-1.1,2.5-1.7,3.4c-0.7,0.8-1.5,1.4-2.7,1.8c-1.1,0.5-2.3,0.8-3.4,0.9c-1,0.1-2.3,0.3-3.7,0.3
							C124.9,3149.3,123.3,3149.3,122.2,3148.9z M131.3,3144.7c1-0.4,1.7-1,2.1-1.9c0.5-1,0.7-2.3,0.7-4.1v-12.9
							c0-1.9-0.2-3.3-0.7-4.1c-0.5-1-1.1-1.5-2.1-1.8s-2.4-0.5-4.4-0.5c-1.7,0-3.2,0.3-4.2,0.6s-1.7,1-2.1,1.9c-0.5,1-0.7,2.3-0.7,4
							v13.1c0,1.9,0.2,3.3,0.6,4.1c0.5,1,1.1,1.5,2.1,1.9c1,0.4,2.4,0.5,4.2,0.5C128.8,3145.4,130.3,3145.1,131.3,3144.7z"/>
						<path class="st18" d="M145.7,3139.2V3126c0-4,0.9-6.9,2.7-8.7s4.8-2.6,8.9-2.6c3.9,0,6.7,0.9,8.4,2.5c1.7,1.8,2.6,4.5,2.6,8.8
							v7.3h-17.7v4.9c0,2.3,0.6,3.9,1.9,4.9c1.3,1,3.3,1.5,5.9,1.5c2.5,0,5.5-0.6,8.9-1.6v4.8c-3.3,1-6.5,1.4-9.5,1.4
							C149.7,3149.3,145.7,3146,145.7,3139.2z M163.5,3129.4v-5.3c0-2-0.5-3.4-1.4-4.1s-2.6-1.1-4.9-1.1c-2.3,0-3.9,0.4-4.9,1.1
							c-1,0.8-1.5,2.1-1.5,4.1v5.3H163.5z"/>
						<path class="st18" d="M175.8,3115.5h4.6v5.4c0-1,0.4-2,1.1-2.9c0.8-1,1.7-1.8,2.8-2.3c1.1-0.5,2.2-0.9,3.3-0.9h2.4v5.3h-2.7
							c-2.3,0-4,0.4-5.1,1.1c-1.1,0.8-1.5,2.1-1.5,4.1v23.4h-4.9L175.8,3115.5L175.8,3115.5z"/>
					</g>
					<g>
						<path class="st18" d="M354,3135.6v-21.4c0-8.5,5-12.8,15-12.8c3.4,0,6.7,0.5,9.8,1.4v4.9c-3.5-1.1-6.7-1.6-9.7-1.6
							c-1.4,0-2.7,0.1-3.7,0.3c-1,0.1-2.1,0.6-3.1,1c-2.1,1.1-3.2,3.4-3.2,6.8v21c0,5.1,3.4,7.7,10.2,7.7c3,0,6.1-0.6,9.7-1.6v5.1
							c-3.1,0.9-6.4,1.4-10,1.4C359,3147.7,354,3143.6,354,3135.6z"/>
						<path class="st18" d="M391.7,3147.4c-1.1-0.3-2.3-0.6-3.5-1.4c-1.2-0.6-2.1-1.8-2.7-3.4c-0.5-1.5-0.8-3.6-0.8-6.3v-11.6
							c0-2.1,0.2-3.9,0.6-5.4c0.4-1.5,0.9-2.8,1.6-3.6c0.5-0.8,1.4-1.4,2.5-1.8c1.1-0.5,2.3-0.8,3.4-0.9c1.3-0.1,2.7-0.1,4.1-0.1
							c1.9,0,3.3,0.1,4.3,0.3c1,0.1,2,0.4,3.1,0.8s2,1,2.7,1.9s1.1,2,1.6,3.6c0.4,1.6,0.6,3.4,0.6,5.7v11.6c0,3.9-0.7,6.8-2.1,8.5
							c-0.6,0.8-1.4,1.4-2.5,1.8c-1.1,0.4-2.2,0.6-3.4,0.9c-1.4,0.1-2.8,0.1-4.2,0.1C394.6,3147.7,392.9,3147.6,391.7,3147.4z
							 M400.3,3143.5c0.7-0.1,1.4-0.4,2-0.8c0.7-0.4,1.1-1,1.4-1.8c0.3-0.9,0.4-2,0.4-3.5v-13.6c0-2.1-0.2-3.6-0.6-4.5
							c-0.4-1-1.1-1.5-2-1.9c-1-0.3-2.5-0.5-4.5-0.5s-3.6,0.3-4.5,0.5c-1,0.3-1.7,1-2,1.9c-0.3,0.9-0.6,2.5-0.6,4.5v13.6
							c0,1.5,0.2,2.6,0.4,3.5c0.3,0.9,0.8,1.4,1.4,1.8c0.7,0.4,1.4,0.6,2,0.8c0.7,0.1,1.8,0.1,3.3,0.1
							C398.5,3143.6,399.7,3143.6,400.3,3143.5z"/>
						<path class="st18" d="M416.9,3113.6h4.9v4.1c0.5-3.1,3.4-4.8,8.7-4.8c3.4,0,5.8,0.8,7.2,2.3c1.4,1.5,2,4,2,7.3v24.5h-4.9
							v-24.1c0-0.9-0.1-1.6-0.2-2.1c-0.1-0.6-0.3-1.1-0.7-1.6c-0.8-1.1-2.3-1.8-4.9-1.8c-2,0-3.4,0.3-4.5,0.5
							c-1.1,0.4-1.7,1-2.2,1.8c-0.5,0.8-0.6,1.9-0.6,3.4v24.2h-4.9L416.9,3113.6L416.9,3113.6z"/>
						<path class="st18" d="M449.3,3161.4v-4.4c4.4,0.6,7.6,1,9.6,1c2.5,0,4.4-0.5,5.5-1.5s1.7-2.6,1.7-5v-8
							c-0.1,1.4-0.8,2.5-2.4,3.3c-1.5,0.6-3.4,1-5.8,1c-2.7,0-4.9-0.3-6.4-1c-1.5-0.6-2.6-1.8-3.3-3.1c-0.6-1.4-1-3.4-1-6V3124
							c0-4,0.8-6.8,2.6-8.4c1.7-1.8,4.5-2.5,8.4-2.5c4.6,0,7.4,1.4,8.1,3.9v-3.3h4.6v36.5c0,3-0.5,5.5-1.4,7.3
							c-0.9,1.8-2.3,2.9-4.1,3.8c-1.8,0.6-4.2,1-7.1,1C454.8,3162.2,451.8,3161.8,449.3,3161.4z M464.6,3142.3
							c1.1-0.8,1.6-2.3,1.6-4.4v-15.2c0-1.5-0.2-2.6-0.6-3.4c-0.4-0.8-1.1-1.4-2.1-1.8c-1.1-0.4-2.5-0.5-4.5-0.5
							c-1.9,0-3.3,0.3-4.2,0.5c-0.9,0.3-1.6,0.9-1.9,1.8c-0.4,0.8-0.5,2-0.5,3.5v15.2c0,1.5,0.2,2.8,0.5,3.5c0.3,0.8,1.1,1.4,2,1.6
							c1,0.3,2.3,0.5,4.2,0.5C461.6,3143.5,463.5,3143.1,464.6,3142.3z"/>
						<path class="st18" d="M479.7,3113.6h4.7v5.4c0-1,0.4-2.1,1.1-3c0.8-1,1.7-1.8,2.8-2.3c1.1-0.6,2.3-0.9,3.3-0.9h2.4v5.3h-2.7
							c-2.3,0-4,0.4-5.1,1.1c-1.1,0.8-1.6,2.1-1.6,4.1v23.5h-4.9L479.7,3113.6L479.7,3113.6z"/>
						<path class="st18" d="M498,3137.4v-13.2c0-4.1,0.9-6.9,2.8-8.8c1.8-1.8,4.9-2.6,9-2.6c3.9,0,6.7,0.9,8.5,2.5s2.6,4.6,2.6,8.8
							v7.4H503v5c0,2.3,0.6,4,1.9,4.9c1.3,1,3.3,1.5,5.9,1.5c2.5,0,5.5-0.6,8.9-1.6v4.8c-3.3,1-6.6,1.4-9.6,1.4
							C502,3147.7,498,3144.2,498,3137.4z M515.8,3127.7v-5.3c0-2-0.5-3.4-1.4-4.1c-1-0.8-2.7-1.1-5-1.1s-3.9,0.4-4.9,1.1
							c-1.1,0.8-1.5,2.1-1.5,4.1v5.3H515.8z"/>
						<path class="st18" d="M527.4,3146.9v-4.8c4.3,0.9,7.4,1.4,9.2,1.4c2.3,0,4-0.3,5.1-0.9s1.5-1.6,1.5-3.3v-3.4
							c0-1.4-0.4-2.5-1.1-3c-0.7-0.5-2-0.9-3.7-0.9h-3c-2.7,0-4.9-0.6-6.3-2.1c-1.4-1.4-2.2-3.4-2.2-6v-3.1c0-5.3,3.9-7.9,11.9-7.9
							c0.6,0,3.3,0.3,8.1,0.6v4.5c-3.3-0.6-6-1-8.3-1c-2.6,0-4.4,0.3-5.3,1c-1,0.6-1.4,1.8-1.4,3.3v2.9c0,2.3,1.6,3.4,4.9,3.4h3.1
							c5.6,0,8.4,2.6,8.4,7.9v2.9c0,3.4-1,5.9-2.9,7.3s-4.9,2.1-8.7,2.1C533.7,3147.7,530.6,3147.4,527.4,3146.9z"/>
						<path class="st18" d="M553.9,3146.9v-4.8c4.3,0.9,7.4,1.4,9.2,1.4c2.3,0,4-0.3,5.1-0.9s1.5-1.6,1.5-3.3v-3.4
							c0-1.4-0.4-2.5-1.1-3c-0.7-0.5-2-0.9-3.7-0.9h-3c-2.7,0-4.9-0.6-6.3-2.1c-1.4-1.4-2.2-3.4-2.2-6v-3.1c0-5.3,3.9-7.9,11.9-7.9
							c0.6,0,3.3,0.3,8.1,0.6v4.5c-3.3-0.6-6-1-8.3-1c-2.6,0-4.4,0.3-5.3,1c-1,0.6-1.4,1.8-1.4,3.3v2.9c0,2.3,1.6,3.4,4.9,3.4h3.1
							c5.6,0,8.4,2.6,8.4,7.9v2.9c0,3.4-1,5.9-2.9,7.3s-4.9,2.1-8.7,2.1C560.2,3147.7,557.1,3147.4,553.9,3146.9z"/>
					</g>
				</g>
				<g id="Layer_6_7_" class="st10">
					<g>
						<g>
							<path class="st18" d="M266.3,3188.7l8.9-38.3c-12.7-1.8-26.1-8-26.1-35.7c0-7.9,2.3-14.3,5.9-19.3c-0.6-1.8-2.6-9.2,0.5-19.1
								c0,0,4.9-1.9,15.8,7.4c4.5-1.6,9.5-2.4,14.4-2.5c4.9,0,9.8,0.9,14.4,2.5c11-9.3,15.8-7.4,15.8-7.4c3.1,9.9,1.1,17.2,0.6,19.1
								c3.7,5,5.9,11.6,5.9,19.3c0,27.8-13.4,33.8-26.2,35.5l8.6,38.9l-18.9,4L266.3,3188.7z"/>
							<g>
								<g>
									<path class="st18" d="M319.9,3054.3c-29.2-23.9-69.3-12.6-86.9,25.4c-16.4,35-7.5,81.3,19.5,103.5
										c15.2,12.6,33.8,15.6,51.1,8.4c2-0.9,1.2-4.9-0.9-4.1c-14.5,5.8-29.8,4.5-43.4-4.3c-12.8-8.4-23-22.7-27.9-39.9
										c-10.3-36,4-77.2,32.2-91.9c17.9-9.4,38.4-6.5,54.6,6.7C319.9,3059.6,321.7,3055.8,319.9,3054.3L319.9,3054.3z"/>
								</g>
							</g>
						</g>
					</g>
				</g>
			</g>
			<g id="cat" class="st2">
				<g class="st10">
					<g id="Layer_2_2_">
						<g>
							<path class="st16" d="M232.2,2036.3c-1.4-0.1-2.9-0.5-4.6-1.1c-1.9-0.6-3.2-1.5-4.4-2.6c-1-1.3-1.9-3-2.6-5.3
								c-0.7-2.1-1.1-5-1.1-8.4v-20c0-6.2,0.9-10.4,2.7-12.9c1-1.5,2-2.6,3.1-3.4c1-0.8,2.4-1.4,4.1-1.5c1.6-0.3,3.1-0.5,4.5-0.6
								c1.4-0.1,3.1-0.1,5.6-0.1c4.1,0,8.2,0.6,12.3,1.8v7.4c-4.7-1.5-9.2-2.1-13.3-2.1c-3.1,0-5.4,0.3-6.9,0.8
								c-1.5,0.6-2.5,1.5-3,3c-0.6,1.4-0.9,3.8-0.9,6.8v22.2c0,2.8,0.4,4.9,1,6.3s1.7,2.4,3.4,2.8c1.6,0.6,4.1,0.8,7.3,0.8
								c4.4,0,8.7-0.8,13.1-2.1v7.7c-4.1,1.1-8.7,1.5-13.8,1.5C235.6,2036.6,233.5,2036.6,232.2,2036.3z"/>
							<path class="st16" d="M273.1,2036.2l-16.8-55.3h8.7l12.1,44.5h0.1l11-44.5h8.1l-21.8,77.9h-8.2L273.1,2036.2z"/>
							<path class="st16" d="M315.6,2036c-2-0.5-3.9-1.3-5.7-2.4c-3.9-2.4-5.9-7.7-5.9-16v-61h8.1v16.3v6.4c0,1.9-0.1,4-0.1,6.5
								c0.2-1.8,1.5-3.1,3.7-4.4c2.2-1.1,5.6-1.8,9.8-1.8c12,0,17.9,5.1,17.9,15.4v22.4c0,3.3-0.4,6.2-1.1,8.4
								c-0.7,2.4-1.7,4.3-2.9,5.7c-1.1,1.3-2.5,2.4-4.5,3c-1.9,0.8-3.7,1.3-5.6,1.4c-1.6,0.1-3.7,0.3-6.1,0.3
								C320.1,2036.6,317.5,2036.3,315.6,2036z M330.7,2029c1.6-0.6,2.9-1.5,3.5-3.1c0.7-1.5,1.1-3.8,1.1-6.9v-21.2
								c0-3.1-0.4-5.3-1.1-6.9c-0.7-1.5-1.9-2.5-3.5-3c-1.6-0.5-4-0.8-7.2-0.8c-2.9,0-5.2,0.3-6.9,0.9c-1.6,0.6-2.7,1.8-3.5,3.1
								c-0.7,1.5-1.1,3.8-1.1,6.5v21.5c0,3.1,0.4,5.3,1,6.9c0.7,1.5,1.9,2.5,3.5,3.1c1.6,0.6,4,0.8,7,0.8
								C326.6,2029.9,328.9,2029.7,330.7,2029z"/>
							<path class="st16" d="M354.2,2020v-21.6c0-6.5,1.5-11.4,4.5-14.2c3-2.8,7.8-4.4,14.7-4.4c6.4,0,11,1.4,13.8,4.3
								c2.8,2.9,4.2,7.5,4.2,14.4v12.1h-29.1v8.2c0,3.8,1,6.4,3.1,8.2s5.4,2.5,9.7,2.5c4.1,0,9-0.9,14.6-2.6v7.8
								c-5.5,1.5-10.7,2.1-15.7,2.1C360.8,2036.6,354.2,2031.1,354.2,2020z M383.5,2003.8v-8.7c0-3.3-0.7-5.7-2.4-6.9
								c-1.6-1.3-4.2-1.9-8.1-1.9c-3.7,0-6.4,0.6-8.1,1.9c-1.6,1.3-2.5,3.4-2.5,6.9v8.7H383.5z"/>
							<path class="st16" d="M403.8,1981.1h7.6v8.9c0-1.8,0.6-3.3,1.7-4.9c1.2-1.5,2.7-2.8,4.6-3.8c1.9-0.9,3.6-1.4,5.5-1.4h4v8.7
								h-4.5c-3.9,0-6.6,0.6-8.3,1.9c-1.7,1.3-2.5,3.4-2.5,6.8v38.3h-8.1L403.8,1981.1L403.8,1981.1z"/>
						</g>
						<g>
							<path class="st16" d="M696.6,2013.8v-34.9c0-14.1,8.2-21.1,24.7-21.1c5.6,0,11,0.8,16.1,2.1v8.2c-5.7-1.9-11.1-2.6-15.9-2.6
								c-2.4,0-4.4,0.1-6.1,0.5s-3.5,0.9-5.1,1.8c-3.5,1.9-5.2,5.7-5.2,11.1v34.4c0,8.4,5.6,12.7,16.8,12.7c4.9,0,10.1-0.9,15.9-2.6
								v8.4c-5.1,1.4-10.6,2.1-16.4,2.1C704.8,2033.9,696.6,2027.2,696.6,2013.8z"/>
							<path class="st16" d="M758.5,2033.4c-1.9-0.3-3.9-1.1-5.7-2.1c-2-1.1-3.5-3-4.4-5.5s-1.4-5.9-1.4-10.3v-19.1
								c0-3.4,0.4-6.4,1-8.9s1.5-4.5,2.6-5.9c0.9-1.3,2.2-2.4,4.1-3c1.9-0.8,3.7-1.3,5.6-1.4c2.1-0.1,4.5-0.1,6.7-0.1
								c3.1,0,5.5,0.1,7.1,0.3s3.2,0.6,5.1,1.3c1.9,0.6,3.4,1.8,4.4,3.1c1,1.4,1.9,3.3,2.6,5.9c0.6,2.6,1,5.7,1,9.2v19.1
								c0,6.4-1.1,11.1-3.5,14.1c-1,1.3-2.4,2.1-4.1,2.8c-1.7,0.6-3.6,1.1-5.6,1.4c-2.2,0.1-4.6,0.1-6.9,0.1
								C763.4,2033.9,760.5,2033.7,758.5,2033.4z M772.7,2027c1.1-0.1,2.2-0.6,3.4-1.3c1.1-0.6,1.9-1.5,2.2-3
								c0.5-1.4,0.6-3.3,0.6-5.8v-22.4c0-3.4-0.4-5.9-1-7.4c-0.6-1.5-1.7-2.5-3.4-3.1c-1.6-0.5-4.1-0.8-7.5-0.8s-5.9,0.3-7.5,0.8
								c-1.6,0.5-2.7,1.5-3.4,3.1c-0.6,1.5-1,4-1,7.4v22.2c0,2.5,0.2,4.4,0.6,5.8c0.5,1.4,1.2,2.4,2.2,3c1.1,0.6,2.2,1.1,3.4,1.3
								c1.1,0.1,3,0.1,5.5,0.1C769.7,2027.2,771.6,2027.2,772.7,2027z"/>
							<path class="st16" d="M800,1977.9h8.1v6.8c0.9-5.1,5.6-7.8,14.3-7.8c5.6,0,9.5,1.3,11.8,3.8c2.2,2.5,3.4,6.5,3.4,11.9v40.2
								h-8.1v-39.6c0-1.4-0.1-2.6-0.2-3.4c-0.1-0.9-0.5-1.9-1.1-2.6c-1.2-1.9-3.9-2.8-8.1-2.8c-3.2,0-5.6,0.3-7.3,0.8
								c-1.7,0.6-2.9,1.5-3.6,2.8c-0.7,1.3-1,3.1-1,5.5v39.7H800V1977.9L800,1977.9z"/>
							<path class="st16" d="M853.2,2056.4v-7.2c7.2,1.1,12.5,1.5,15.8,1.5c4.1,0,7.2-0.8,9.1-2.5c1.9-1.8,2.9-4.4,2.9-8.3v-13.2
								c-0.1,2.4-1.4,4.3-4,5.3c-2.5,1.1-5.6,1.8-9.5,1.8c-4.5,0-8-0.5-10.5-1.5c-2.5-1-4.2-2.8-5.4-5.1c-1-2.4-1.6-5.7-1.6-9.8
								V1995c0-6.5,1.4-11.1,4.2-13.9c2.7-2.8,7.3-4.3,13.8-4.3c7.6,0,12.1,2.1,13.3,6.4v-5.3h7.6v60c0,5-0.7,9-2.2,11.9
								c-1.5,2.8-3.7,4.9-6.7,6.2c-3,1.1-7,1.8-11.7,1.8C862.3,2057.7,857.3,2057.2,853.2,2056.4z M878.3,2025.1
								c1.7-1.3,2.6-3.8,2.6-7.2v-24.9c0-2.5-0.4-4.4-1-5.7s-1.7-2.1-3.5-2.8c-1.7-0.6-4.1-0.8-7.3-0.8c-3.1,0-5.4,0.3-6.9,0.8
								s-2.6,1.4-3.1,2.8c-0.6,1.3-0.9,3.3-0.9,5.8v24.9c0,2.5,0.2,4.5,0.9,5.8c0.6,1.3,1.7,2.1,3.2,2.6c1.6,0.5,3.9,0.8,7,0.8
								C873.5,2027,876.6,2026.4,878.3,2025.1z"/>
							<path class="st16" d="M903.1,1977.9h7.7v8.9c0-1.8,0.6-3.4,1.7-5c1.2-1.5,2.7-2.8,4.6-3.8c1.9-0.9,3.7-1.4,5.5-1.4h4v8.8
								h-4.5c-3.9,0-6.6,0.6-8.3,1.9s-2.6,3.4-2.6,6.8v38.7h-8.1L903.1,1977.9L903.1,1977.9z"/>
							<path class="st16" d="M933.2,2017.1v-21.7c0-6.8,1.5-11.4,4.6-14.4c3-3,8-4.4,14.8-4.4c6.5,0,11.1,1.4,14,4.3
								c2.9,2.8,4.2,7.7,4.2,14.6v12.2h-29.4v8.3c0,3.8,1,6.5,3.1,8.2c2.1,1.8,5.4,2.5,9.7,2.5c4.1,0,9.1-0.9,14.7-2.6v7.8
								c-5.5,1.5-10.8,2.1-15.8,2.1C939.9,2033.9,933.2,2028.3,933.2,2017.1z M962.5,2000.9v-8.7c0-3.3-0.7-5.7-2.4-6.9
								c-1.6-1.3-4.4-1.9-8.2-1.9c-3.7,0-6.5,0.6-8.1,1.9c-1.7,1.3-2.5,3.6-2.5,6.9v8.7H962.5z"/>
							<path class="st16" d="M981.5,2032.4v-7.8c7.1,1.4,12.1,2.1,15.2,2.1c3.9,0,6.6-0.5,8.3-1.4c1.7-0.9,2.5-2.6,2.5-5.3v-5.7
								c0-2.4-0.6-4-1.9-5c-1.2-0.9-3.4-1.4-6.1-1.4h-5c-4.5,0-8-1.1-10.3-3.4c-2.4-2.4-3.6-5.7-3.6-9.8v-5.1
								c0-8.7,6.5-12.9,19.6-12.9c1,0,5.4,0.3,13.3,0.9v7.4c-5.4-1.1-9.8-1.5-13.6-1.5c-4.2,0-7.2,0.5-8.7,1.5
								c-1.6,1.1-2.4,2.8-2.4,5.3v4.6c0,3.8,2.6,5.7,8.1,5.7h5.1c9.2,0,13.8,4.4,13.8,12.9v4.6c0,5.7-1.6,9.7-4.7,12.1
								c-3.1,2.4-8,3.6-14.3,3.6C991.8,2033.9,986.8,2033.4,981.5,2032.4z"/>
							<path class="st16" d="M1025.1,2032.4v-7.8c7.1,1.4,12.1,2.1,15.2,2.1c3.9,0,6.6-0.5,8.3-1.4c1.7-0.9,2.5-2.6,2.5-5.3v-5.7
								c0-2.4-0.6-4-1.9-5c-1.2-0.9-3.4-1.4-6.1-1.4h-5c-4.5,0-8-1.1-10.3-3.4c-2.4-2.4-3.6-5.7-3.6-9.8v-5.1
								c0-8.7,6.5-12.9,19.6-12.9c1,0,5.4,0.3,13.3,0.9v7.4c-5.4-1.1-9.8-1.5-13.6-1.5c-4.2,0-7.2,0.5-8.7,1.5
								c-1.6,1.1-2.4,2.8-2.4,5.3v4.6c0,3.8,2.6,5.7,8.1,5.7h5.1c9.2,0,13.8,4.4,13.8,12.9v4.6c0,5.7-1.6,9.7-4.7,12.1
								c-3.1,2.4-8,3.6-14.3,3.6C1035.4,2033.9,1030.4,2033.4,1025.1,2032.4z"/>
						</g>
					</g>
					<g id="Layer_6_9_">
						<g>
							<g>
								<path class="st17" d="M552.4,2101.3l14.6-62.9c-20.9-3-43-13.2-43-58.7c0-12.9,3.7-23.5,9.7-31.8c-1-3-4.2-15.1,0.9-31.4
									c0,0,8-3.1,25.9,12.2c7.5-2.6,15.6-3.9,23.7-4c8,0,16.1,1.4,23.7,4c18.1-15.3,25.9-12.2,25.9-12.2c5.1,16.3,1.9,28.3,1,31.4
									c6.1,8.3,9.7,19,9.7,31.8c0,45.5-22,55.5-43.1,58.5l14.1,63.9l-31.1,6.5L552.4,2101.3z"/>
								<g>
									<g>
										<path class="st17" d="M640.5,1880.5c-48-39.3-113.8-20.6-142.9,41.6c-26.9,57.5-12.3,133.6,32,170.1
											c25,20.6,55.6,25.5,84,13.9c3.4-1.4,2-8.2-1.5-6.8c-23.8,9.5-49,7.5-71.2-7c-21-13.8-37.7-37.4-45.8-65.6
											c-16.9-59.3,6.6-126.9,52.9-151.1c29.4-15.4,63.1-10.8,89.7,10.9C640.6,1889,643.5,1883,640.5,1880.5L640.5,1880.5z"/>
									</g>
								</g>
							</g>
						</g>
					</g>
				</g>
			</g>
		</g>
		<g id="Layer_2_1_">
			<g>
				
					<radialGradient id="SVGID_6_" cx="949.6" cy="1549.3508" r="105.2371" gradientTransform="matrix(1 0 0 3 0 -1910.9524)" gradientUnits="userSpaceOnUse">
					<stop  offset="0" style="stop-color:#191A47"/>
					<stop  offset="1" style="stop-color:#F1F1F2"/>
				</radialGradient>
				<circle class="st19" cx="949.6" cy="2737.1" r="105"/>
			</g>
			<g>
				
					<radialGradient id="SVGID_7_" cx="949.6" cy="1549.3508" r="150.2371" gradientTransform="matrix(1 0 0 3 0 -1910.9524)" gradientUnits="userSpaceOnUse">
					<stop  offset="0" style="stop-color:#191A47"/>
					<stop  offset="1" style="stop-color:#F1F1F2"/>
				</radialGradient>
				<circle class="st20" cx="949.6" cy="2737.1" r="150"/>
			</g>
			<text transform="matrix(1 0 0 1 788.8826 2746.1387)" class="st21 st22 st23">cyber </text>
			<text transform="matrix(1 0 0 1 1050.2671 2746.1384)" class="st21 st22 st24">Congress</text>
		</g>
		<g>
			<path class="st25" d="M227.8,1164.4v-7.8l76.8,26v30.3l-55.5-18.8C236.4,1189.8,227.8,1177.8,227.8,1164.4z"/>
			<g>
				<g>
					<path class="st26" d="M261.1,1197.9l-11.8-3.9c-12.8-4.2-21.5-16.2-21.5-29.7v-74.1l30.3,10v63.8c0,0-0.1,9.6,0,16.3
						C258.3,1193.2,261.1,1197.9,261.1,1197.9z"/>
				</g>
			</g>
			<path class="st25" d="M298.8,1064.2l-7.4-2.5l-0.2,81.1l28.7,9.8l0.1-58.6C320,1080.5,311.5,1068.5,298.8,1064.2z"/>
			<g>
				<g>
					<path class="st26" d="M319.9,1106.5l0.1-12.4c0.1-13.5-8.4-25.6-21.2-29.9l-70.2-23.9l-0.3,31.9l60.4,20.6c0,0,9.1,3,15.5,5.3
						C316.4,1102.3,319.9,1106.5,319.9,1106.5z"/>
				</g>
			</g>
			<g>
				
					<radialGradient id="SVGID_8_" cx="273" cy="1011.3508" r="105.2561" gradientTransform="matrix(1 0 0 3 0 -1910.9524)" gradientUnits="userSpaceOnUse">
					<stop  offset="0" style="stop-color:#191A47"/>
					<stop  offset="1" style="stop-color:#F1F1F2"/>
				</radialGradient>
				<circle class="st27" cx="273" cy="1123.1" r="105"/>
			</g>
			<g>
				
					<radialGradient id="SVGID_9_" cx="273" cy="1011.3508" r="150.2561" gradientTransform="matrix(1 0 0 3 0 -1910.9524)" gradientUnits="userSpaceOnUse">
					<stop  offset="0" style="stop-color:#191A47"/>
					<stop  offset="1" style="stop-color:#F1F1F2"/>
				</radialGradient>
				<circle class="st28" cx="273" cy="1123.1" r="150"/>
			</g>
			<text transform="matrix(1 0 0 1 131.8089 1139.0771)" class="st21 st22 st23">cyber </text>
			<text transform="matrix(1 0 0 1 345.2646 1135.1449)" class="st21 st22 st24">Congress</text>
		</g>
		<g id="Layer_3">
			<path class="st29" d="M900.3,1166.8v-7.8l76.8,26v30.3l-55.5-18.8C908.8,1192.2,900.3,1180.2,900.3,1166.8z"/>
			<g>
				<g>
					<path class="st30" d="M933.5,1200.3l-11.8-3.9c-12.8-4.2-21.5-16.2-21.5-29.7v-74.1l30.3,10v63.7c0,0-0.1,9.6,0,16.3
						C930.7,1195.6,933.5,1200.3,933.5,1200.3z"/>
				</g>
			</g>
			<path class="st29" d="M971.2,1066.6l-7.4-2.5l-0.2,81.1l28.7,9.8l0.1-58.7C992.5,1082.9,983.9,1070.9,971.2,1066.6z"/>
			<text transform="matrix(1 0 0 1 1021.0277 1146.3647)" class="st16 st22 st23">Congress</text>
			<text transform="matrix(1 0 0 1 814.5684 1146.3643)" class="st16 st22 st23">cyber </text>
			<g>
				<g>
					<path class="st30" d="M992.1,1108.9l0.1-12.4c0.1-13.5-8.4-25.6-21.2-29.9l-70.2-23.9l-0.3,31.9l60.4,20.6c0,0,9.1,3,15.5,5.3
						C988.6,1104.8,992.1,1108.9,992.1,1108.9z"/>
				</g>
			</g>
			<g>
				
					<radialGradient id="SVGID_10_" cx="942.5" cy="1012.7508" r="105.2477" gradientTransform="matrix(1 0 0 3 0 -1910.9524)" gradientUnits="userSpaceOnUse">
					<stop  offset="0" style="stop-color:#191A47"/>
					<stop  offset="1" style="stop-color:#F1F1F2"/>
				</radialGradient>
				<circle class="st31" cx="942.5" cy="1127.3" r="105"/>
			</g>
			<g>
				
					<radialGradient id="SVGID_11_" cx="942.5" cy="1012.7508" r="150.2477" gradientTransform="matrix(1 0 0 3 0 -1910.9524)" gradientUnits="userSpaceOnUse">
					<stop  offset="0" style="stop-color:#191A47"/>
					<stop  offset="1" style="stop-color:#F1F1F2"/>
				</radialGradient>
				<circle class="st32" cx="942.5" cy="1127.3" r="150"/>
			</g>
		</g>
		<circle class="st33" cx="863.4" cy="1516" r="63.3"/>
		<g id="Layer_4">
			<path class="st21" d="M977.8,2790.7c-9.5,5.2-20.6,7.9-32.3,7.3c-31.9-1.6-57.4-28.1-57.9-60c-0.5-34.1,27-61.9,61-61.9
				c9.8,0,19.1,2.3,27.3,6.5c4.2,2.1,9.4,1.4,12.7-1.9l0,0c5.4-5.3,3.9-14.2-2.8-17.6c-9.2-4.6-22.1-9-37.3-9
				c-46.5,0-84.1,38.3-83,85c1.1,44.7,38,80.9,82.8,81c14.4,0,28-3.6,39.8-10c6.3-3.4,7.8-11.8,3-17.1l0,0
				C987.7,2789.2,982.2,2788.3,977.8,2790.7z"/>
			<g class="st34">
				<g>
					<g>
						<path class="st35" d="M905.2,2793L905.2,2793c-4.8,5.3-3.4,13.7,3,17.1c11.8,6.4,25.4,10.1,39.8,10
							c44.7-0.1,81.7-36.3,82.8-81c1.1-46.8-36.5-85-83-85c-15.2,0-28.1,4.4-37.3,9c-6.7,3.3-8.2,12.3-2.8,17.6l0,0
							c3.4,3.3,8.5,4,12.7,1.9c8.2-4.1,17.5-6.5,27.3-6.5c34,0,61.5,27.8,61,61.9c-0.5,31.9-26,58.4-57.9,60
							c-11.7,0.6-22.8-2.1-32.3-7.3C914.1,2788.3,908.6,2789.2,905.2,2793z"/>
					</g>
				</g>
			</g>
		</g>
		<g id="Layer_4_1_">
			<path class="st36" d="M892,1569.6c-9.5,5.2-20.6,7.9-32.3,7.3c-31.9-1.6-57.4-28.1-57.9-60c-0.5-34.1,27-61.9,61-61.9
				c9.8,0,19.1,2.3,27.3,6.5c4.2,2.1,9.4,1.4,12.7-1.9l0,0c5.4-5.3,3.9-14.2-2.8-17.6c-9.2-4.6-22.1-9-37.3-9
				c-46.5,0-84.1,38.3-83,85c1.1,44.7,38,80.9,82.8,81c14.4,0,28-3.6,39.8-10c6.3-3.4,7.8-11.8,3-17.1l0,0
				C901.9,1568.1,896.4,1567.2,892,1569.6z"/>
			<g>
				<g class="st37">
					<g>
						<path class="st21" d="M819.4,1571.9L819.4,1571.9c-4.8,5.3-3.4,13.7,3,17.1c11.8,6.4,25.4,10.1,39.8,10
							c44.7-0.1,81.7-36.3,82.8-81c1.1-46.8-36.5-85-83-85c-15.2,0-28.1,4.4-37.3,9c-6.7,3.3-8.2,12.3-2.8,17.6l0,0
							c3.4,3.3,8.5,4,12.7,1.9c8.2-4.1,17.5-6.5,27.3-6.5c34,0,61.5,27.8,61,61.9c-0.5,31.9-26,58.4-57.9,60
							c-11.7,0.6-22.8-2.1-32.3-7.3C828.3,1567.2,822.8,1568.1,819.4,1571.9z"/>
					</g>
				</g>
			</g>
		</g>
		<g>
			<g>
				<path class="st21" d="M835.7,1461.5c8.2-4.1,17.5-6.5,27.3-6.5c0.2,0,0.3,0,0.4,0c0.2,0,0.3,0,0.4,0c9.8,0,19.1,2.3,27.3,6.5
					c4.2,2.1,9.4,1.4,12.7-1.9c4.9-4.8,4.1-12.5-1.1-16.5c-11.7-6.4-25.1-10-39.4-10.1c-14.3,0.1-27.8,3.8-39.6,10.2
					c-5,3.9-5.7,11.6-0.9,16.4C826.4,1462.9,831.5,1463.6,835.7,1461.5z"/>
				<path class="st21" d="M893.1,1569.6c-8.6,4.7-18.6,7.4-29.2,7.4c-0.2,0-0.3,0-0.5,0s-0.3,0-0.5,0c-10.5,0-20.5-2.6-29.2-7.4
					c-4.4-2.4-9.9-1.5-13.3,2.3c-3.9,4.3-3.7,10.8,0,14.8c12.5,7.7,27.2,12.2,42.9,12.3c15.7-0.1,30.3-4.6,42.9-12.3
					c3.7-4,4-10.5,0.1-14.8C903,1568.1,897.5,1567.2,893.1,1569.6z"/>
			</g>
		</g>
		<path class="st36" d="M866.8,1523.6c-1.2,0.7-2.6,1.1-4,1.2c-4.8,0.2-9.1-3.7-9.2-8.5c-0.1-5,3.9-9.1,8.8-9.1
			c1.6,0,3.1,0.4,4.4,1.2c1.8,1.1,4.2,0.6,5.6-1l0,0c1.8-2.1,1.3-5.3-1-6.7c-3-1.8-6.6-2.7-10.4-2.3c-8.3,0.7-15.1,7.3-16.1,15.6
			c-1.2,10.7,7.2,19.7,17.6,19.7c3.4,0,6.5-0.9,9.2-2.6c2.3-1.4,2.6-4.7,0.8-6.6l-0.2-0.2C870.7,1522.8,868.5,1522.6,866.8,1523.6z"
			/>
		<path class="st38" d="M852.6,1524.3l-0.2,0.2c-1.9,2-1.6,5.2,0.8,6.6c2.7,1.6,5.8,2.6,9.2,2.6c10.4,0,18.8-9,17.6-19.7
			c-0.9-8.3-7.7-14.9-16.1-15.6c-3.8-0.3-7.4,0.6-10.4,2.3c-2.4,1.4-2.8,4.6-1,6.7l0,0c1.4,1.6,3.7,2,5.6,1c1.3-0.7,2.8-1.2,4.4-1.2
			c4.9,0,8.9,4.1,8.8,9.1c-0.1,4.8-4.4,8.8-9.2,8.5c-1.5-0.1-2.8-0.5-4-1.2C856.2,1522.6,854,1522.8,852.6,1524.3z"/>
		<g>
			<path class="st21" d="M869.7,1499.9c-0.4-0.2-0.8-0.3-1.2-0.5c-0.1,0-0.3-0.1-0.4-0.1c-0.3-0.1-0.6-0.2-0.9-0.3
				c-0.2-0.1-0.4-0.1-0.6-0.1c-0.3-0.1-0.5-0.1-0.8-0.2c-0.2,0-0.4-0.1-0.6-0.1c-0.3,0-0.6-0.1-0.9-0.1c-0.2,0-0.4-0.1-0.6-0.1
				c-0.2,0-0.5,0-0.7,0s-0.5,0-0.7,0s-0.5,0-0.7,0s-0.5,0-0.7,0s-0.4,0-0.6,0.1c-0.3,0-0.6,0.1-0.9,0.1c-0.2,0-0.4,0.1-0.6,0.1
				c-0.3,0.1-0.5,0.1-0.8,0.2c-0.2,0-0.4,0.1-0.6,0.1c-0.3,0.1-0.6,0.2-0.9,0.3c-0.1,0-0.3,0.1-0.4,0.1c-0.4,0.1-0.8,0.3-1.2,0.5
				h-0.1c-0.6,0.3-1.1,0.6-1.6,0.9c-2.2,1.4-2.6,4.6-0.9,6.6c1.4,1.6,3.7,2,5.6,1c0,0,0,0,0.1,0c0.3-0.2,0.6-0.3,0.9-0.4
				c0.1,0,0.1,0,0.2-0.1c0.3-0.1,0.5-0.2,0.8-0.3c0.1,0,0.2-0.1,0.3-0.1c0.2-0.1,0.5-0.1,0.7-0.1c0.1,0,0.2,0,0.3,0
				c0.4,0,0.7-0.1,1.1-0.1l0,0l0,0c0.4,0,0.7,0,1.1,0.1c0.1,0,0.2,0,0.3,0c0.2,0,0.5,0.1,0.7,0.1c0.1,0,0.2,0.1,0.3,0.1
				c0.3,0.1,0.5,0.2,0.8,0.3c0.1,0,0.1,0,0.2,0.1c0.3,0.1,0.6,0.3,0.9,0.4c0,0,0,0,0.1,0c1.8,1.1,4.2,0.6,5.6-1
				c1.8-2,1.3-5.2-0.9-6.6C870.9,1500.5,870.3,1500.2,869.7,1499.9C869.8,1499.9,869.7,1499.9,869.7,1499.9z"/>
			<path class="st21" d="M872.1,1524.3c-1.4-1.4-3.6-1.6-5.3-0.6c-1,0.6-2.2,1-3.5,1.1c-0.2,0-0.3,0-0.5,0.1l0,0c-0.1,0-0.3,0-0.4,0
				c-0.1,0-0.3,0-0.4,0l0,0c-0.2,0-0.3,0-0.5-0.1c-1.2-0.1-2.4-0.5-3.5-1.1c-1.7-1-3.9-0.8-5.3,0.6l-0.2,0.2
				c-1.8,1.9-1.6,5.1,0.6,6.5c0.1,0.1,0.2,0.1,0.3,0.2s0.2,0.1,0.3,0.2c0.4,0.2,0.8,0.5,1.3,0.7c0.1,0,0.2,0.1,0.3,0.1
				c0.5,0.2,1,0.4,1.5,0.6c0.1,0,0.2,0.1,0.4,0.1c0.5,0.2,1,0.3,1.5,0.4c0.1,0,0.1,0,0.2,0c0.5,0.1,1.1,0.2,1.6,0.3
				c0.1,0,0.3,0,0.4,0c0.6,0.1,1.1,0.1,1.7,0.1l0,0l0,0c0.6,0,1.2,0,1.7-0.1c0.1,0,0.3,0,0.4,0c0.6-0.1,1.1-0.2,1.6-0.3
				c0.1,0,0.1,0,0.2,0c0.5-0.1,1-0.2,1.5-0.4c0.1,0,0.2-0.1,0.4-0.1c0.5-0.2,1-0.4,1.5-0.6c0.1,0,0.2-0.1,0.3-0.1
				c0.4-0.2,0.9-0.4,1.3-0.7c0.1-0.1,0.2-0.1,0.3-0.2s0.2-0.1,0.3-0.2c2.2-1.5,2.5-4.6,0.6-6.5L872.1,1524.3z"/>
		</g>
		<path class="st36" d="M980.6,2411.7c-9.5,5.2-20.6,7.9-32.3,7.3c-31.9-1.6-57.4-28.1-57.9-60c-0.5-34.1,27-61.9,61-61.9
			c9.8,0,19.1,2.3,27.3,6.5c4.2,2.1,9.4,1.4,12.7-1.9l0,0c5.4-5.3,3.9-14.2-2.8-17.6c-9.2-4.6-22.1-9-37.3-9
			c-46.5,0-84.1,38.3-83,85c1.1,44.7,38,80.9,82.8,81c14.4,0,28-3.6,39.8-10c6.3-3.4,7.8-11.8,3-17.1l0,0
			C990.5,2410.2,985,2409.3,980.6,2411.7z"/>
		<path class="st39" d="M965.5,2383.7c-4.5,2.5-9.9,3.8-15.5,3.5c-15.3-0.8-27.5-13.4-27.7-28.7c-0.2-16.3,12.9-29.6,29.2-29.6
			c4.7,0,9.1,1.1,13.1,3.1c2,1,4.5,0.7,6.1-0.9l0,0c2.6-2.5,1.9-6.8-1.3-8.4c-4.4-2.2-10.6-4.3-17.8-4.3
			c-22.2,0-40.2,18.3-39.7,40.7c0.5,21.4,18.2,38.7,39.6,38.7c6.9,0,13.4-1.7,19-4.8c3-1.6,3.7-5.6,1.4-8.2l0,0
			C970.2,2383,967.6,2382.5,965.5,2383.7z"/>
		<g>
			
				<radialGradient id="SVGID_12_" cx="944.5" cy="1423.0175" r="105.2697" gradientTransform="matrix(1 0 0 3 0 -1910.9524)" gradientUnits="userSpaceOnUse">
				<stop  offset="0" style="stop-color:#191A47"/>
				<stop  offset="1" style="stop-color:#F1F1F2"/>
			</radialGradient>
			<circle class="st40" cx="944.5" cy="2358.1" r="105"/>
		</g>
		<g>
			
				<radialGradient id="SVGID_13_" cx="944.5" cy="1423.0175" r="150.2697" gradientTransform="matrix(1 0 0 3 0 -1910.9524)" gradientUnits="userSpaceOnUse">
				<stop  offset="0" style="stop-color:#191A47"/>
				<stop  offset="1" style="stop-color:#F1F1F2"/>
			</radialGradient>
			<circle class="st41" cx="944.5" cy="2358.1" r="150"/>
		</g>
		
			<ellipse transform="matrix(9.968697e-02 -0.995 0.995 9.968697e-02 -1245.354 1650.9288)" class="st33" cx="289.6" cy="1513.6" rx="63.3" ry="63.3"/>
		<g id="Layer_4_2_">
			<path class="st36" d="M322.2,1567.3c-9.5,5.2-20.6,7.9-32.3,7.3c-31.9-1.6-57.4-28.1-57.9-60c-0.5-34.1,27-61.9,61-61.9
				c9.8,0,19.1,2.3,27.3,6.5c4.2,2.1,9.4,1.4,12.7-1.9l0,0c5.4-5.3,3.9-14.2-2.8-17.6c-9.2-4.6-22.1-9-37.3-9
				c-46.5,0-84.1,38.3-83,85c1.1,44.7,38,80.9,82.8,81c14.4,0,28-3.6,39.8-10c6.3-3.4,7.8-11.8,3-17.1l0,0
				C332.1,1565.8,326.6,1564.9,322.2,1567.3z"/>
			<g>
				<g class="st37">
					<g>
						<path class="st21" d="M249.6,1569.6L249.6,1569.6c-4.8,5.3-3.4,13.7,3,17.1c11.8,6.4,25.4,10.1,39.8,10
							c44.7-0.1,81.7-36.3,82.8-81c1.1-46.8-36.5-85-83-85c-15.2,0-28.1,4.4-37.3,9c-6.7,3.3-8.2,12.3-2.8,17.6l0,0
							c3.4,3.3,8.5,4,12.7,1.9c8.2-4.1,17.5-6.5,27.3-6.5c34,0,61.5,27.8,61,61.9c-0.5,31.9-26,58.4-57.9,60
							c-11.7,0.6-22.8-2.1-32.3-7.3C258.5,1564.9,253,1565.8,249.6,1569.6z"/>
					</g>
				</g>
			</g>
		</g>
		<g>
			<g>
				<path class="st21" d="M265.9,1459.2c8.2-4.1,17.5-6.5,27.3-6.5c0.2,0,0.3,0,0.4,0c0.2,0,0.3,0,0.4,0c9.8,0,19.1,2.3,27.3,6.5
					c4.2,2.1,9.4,1.4,12.7-1.9c4.9-4.8,4.1-12.5-1.1-16.5c-11.7-6.4-25.1-10-39.4-10.1c-14.3,0.1-27.8,3.8-39.6,10.2
					c-5,3.9-5.7,11.6-0.9,16.4C256.6,1460.6,261.7,1461.3,265.9,1459.2z"/>
				<path class="st21" d="M323.3,1567.3c-8.6,4.7-18.6,7.4-29.2,7.4c-0.2,0-0.3,0-0.5,0s-0.3,0-0.5,0c-10.5,0-20.5-2.6-29.2-7.4
					c-4.4-2.4-9.9-1.5-13.3,2.3c-3.9,4.3-3.7,10.8,0,14.8c12.5,7.7,27.2,12.2,42.9,12.3c15.7-0.1,30.3-4.6,42.9-12.3
					c3.7-4,4-10.5,0.1-14.8C333.2,1565.8,327.7,1564.9,323.3,1567.3z"/>
			</g>
		</g>
		<path class="st36" d="M297,1521.3c-1.2,0.7-2.6,1.1-4,1.2c-4.8,0.2-9.1-3.7-9.2-8.5c-0.1-5,3.9-9.1,8.8-9.1c1.6,0,3.1,0.4,4.4,1.2
			c1.8,1.1,4.2,0.6,5.6-1l0,0c1.8-2.1,1.3-5.3-1-6.7c-3-1.8-6.6-2.7-10.4-2.3c-8.3,0.7-15.1,7.3-16.1,15.6
			c-1.2,10.7,7.2,19.7,17.6,19.7c3.4,0,6.5-0.9,9.2-2.6c2.3-1.4,2.6-4.7,0.8-6.6l-0.2-0.2C300.9,1520.5,298.7,1520.3,297,1521.3z"/>
		<path class="st38" d="M282.8,1522l-0.2,0.2c-1.9,2-1.6,5.2,0.8,6.6c2.7,1.6,5.8,2.6,9.2,2.6c10.4,0,18.8-9,17.6-19.7
			c-0.9-8.3-7.7-14.9-16.1-15.6c-3.8-0.3-7.4,0.6-10.4,2.3c-2.4,1.4-2.8,4.6-1,6.7l0,0c1.4,1.6,3.7,2,5.6,1c1.3-0.7,2.8-1.2,4.4-1.2
			c4.9,0,8.9,4.1,8.8,9.1c-0.1,4.8-4.4,8.8-9.2,8.5c-1.5-0.1-2.8-0.5-4-1.2C286.4,1520.3,284.2,1520.5,282.8,1522z"/>
		<g>
			<path class="st21" d="M299.9,1497.6c-0.4-0.2-0.8-0.3-1.2-0.5c-0.1,0-0.3-0.1-0.4-0.1c-0.3-0.1-0.6-0.2-0.9-0.3
				c-0.2-0.1-0.4-0.1-0.6-0.1c-0.3-0.1-0.5-0.1-0.8-0.2c-0.2,0-0.4-0.1-0.6-0.1c-0.3,0-0.6-0.1-0.9-0.1c-0.2,0-0.4-0.1-0.6-0.1
				s-0.5,0-0.7,0s-0.5,0-0.7,0s-0.5,0-0.7,0s-0.5,0-0.7,0s-0.4,0-0.6,0.1c-0.3,0-0.6,0.1-0.9,0.1c-0.2,0-0.4,0.1-0.6,0.1
				c-0.3,0.1-0.5,0.1-0.8,0.2c-0.2,0-0.4,0.1-0.6,0.1c-0.3,0.1-0.6,0.2-0.9,0.3c-0.1,0-0.3,0.1-0.4,0.1c-0.4,0.1-0.8,0.3-1.2,0.5
				H285c-0.6,0.3-1.1,0.6-1.6,0.9c-2.2,1.4-2.6,4.6-0.9,6.6c1.4,1.6,3.7,2,5.6,1c0,0,0,0,0.1,0c0.3-0.2,0.6-0.3,0.9-0.4
				c0.1,0,0.1,0,0.2-0.1c0.3-0.1,0.5-0.2,0.8-0.3c0.1,0,0.2-0.1,0.3-0.1c0.2-0.1,0.5-0.1,0.7-0.1c0.1,0,0.2,0,0.3,0
				c0.4,0,0.7-0.1,1.1-0.1l0,0l0,0c0.4,0,0.7,0,1.1,0.1c0.1,0,0.2,0,0.3,0c0.2,0,0.5,0.1,0.7,0.1c0.1,0,0.2,0.1,0.3,0.1
				c0.3,0.1,0.5,0.2,0.8,0.3c0.1,0,0.1,0,0.2,0.1c0.3,0.1,0.6,0.3,0.9,0.4c0,0,0,0,0.1,0c1.8,1.1,4.2,0.6,5.6-1
				c1.8-2,1.3-5.2-0.9-6.6C301.1,1498.2,300.5,1497.9,299.9,1497.6C299.9,1497.7,299.9,1497.6,299.9,1497.6z"/>
			<path class="st21" d="M302.3,1522c-1.4-1.4-3.6-1.6-5.3-0.6c-1,0.6-2.2,1-3.5,1.1c-0.2,0-0.3,0-0.5,0.1l0,0c-0.1,0-0.3,0-0.4,0
				s-0.3,0-0.4,0l0,0c-0.2,0-0.3,0-0.5-0.1c-1.2-0.1-2.4-0.5-3.5-1.1c-1.7-1-3.9-0.8-5.3,0.6l-0.2,0.2c-1.8,1.9-1.6,5.1,0.6,6.5
				c0.1,0.1,0.2,0.1,0.3,0.2c0.1,0.1,0.2,0.1,0.3,0.2c0.4,0.2,0.8,0.5,1.3,0.7c0.1,0,0.2,0.1,0.3,0.1c0.5,0.2,1,0.4,1.5,0.6
				c0.1,0,0.2,0.1,0.4,0.1c0.5,0.2,1,0.3,1.5,0.4c0.1,0,0.1,0,0.2,0c0.5,0.1,1.1,0.2,1.6,0.3c0.1,0,0.3,0,0.4,0
				c0.6,0.1,1.1,0.1,1.7,0.1l0,0l0,0c0.6,0,1.2,0,1.7-0.1c0.1,0,0.3,0,0.4,0c0.6-0.1,1.1-0.2,1.6-0.3c0.1,0,0.1,0,0.2,0
				c0.5-0.1,1-0.2,1.5-0.4c0.1,0,0.2-0.1,0.4-0.1c0.5-0.2,1-0.4,1.5-0.6c0.1,0,0.2-0.1,0.3-0.1c0.4-0.2,0.9-0.4,1.3-0.7
				c0.1-0.1,0.2-0.1,0.3-0.2c0.1-0.1,0.2-0.1,0.3-0.2c2.2-1.5,2.5-4.6,0.6-6.5L302.3,1522z"/>
		</g>
		<path class="st26" d="M327.6,2410.7c-9.5,5.2-20.6,7.9-32.3,7.3c-31.9-1.6-57.4-28.1-57.9-60c-0.5-34.1,27-61.9,61-61.9
			c9.8,0,19.1,2.3,27.3,6.5c4.2,2.1,9.4,1.4,12.7-1.9l0,0c5.4-5.3,3.9-14.2-2.8-17.6c-9.2-4.6-22.1-9-37.3-9
			c-46.5,0-84.1,38.3-83,85c1.1,44.7,38,80.9,82.8,81c14.4,0,28-3.6,39.8-10c6.3-3.4,7.8-11.8,3-17.1l0,0
			C337.5,2409.2,332,2408.3,327.6,2410.7z"/>
		<path class="st25" d="M312.5,2382.7c-4.5,2.5-9.9,3.8-15.5,3.5c-15.3-0.8-27.5-13.4-27.7-28.7c-0.2-16.3,12.9-29.6,29.2-29.6
			c4.7,0,9.1,1.1,13.1,3.1c2,1,4.5,0.7,6.1-0.9l0,0c2.6-2.5,1.9-6.8-1.3-8.4c-4.4-2.2-10.6-4.3-17.8-4.3
			c-22.2,0-40.2,18.3-39.7,40.7c0.5,21.4,18.2,38.7,39.6,38.7c6.9,0,13.4-1.7,19-4.8c3-1.6,3.7-5.6,1.4-8.2l0,0
			C317.2,2382,314.6,2381.5,312.5,2382.7z"/>
		<g>
			
				<radialGradient id="SVGID_14_" cx="291.5" cy="1422.6842" r="105.2697" gradientTransform="matrix(1 0 0 3 0 -1910.9524)" gradientUnits="userSpaceOnUse">
				<stop  offset="0" style="stop-color:#191A47"/>
				<stop  offset="1" style="stop-color:#F1F1F2"/>
			</radialGradient>
			<circle class="st42" cx="291.5" cy="2357.1" r="105"/>
		</g>
		<g>
			
				<radialGradient id="SVGID_15_" cx="291.5" cy="1422.6842" r="150.2697" gradientTransform="matrix(1 0 0 3 0 -1910.9524)" gradientUnits="userSpaceOnUse">
				<stop  offset="0" style="stop-color:#191A47"/>
				<stop  offset="1" style="stop-color:#F1F1F2"/>
			</radialGradient>
			<circle class="st43" cx="291.5" cy="2357.1" r="150"/>
		</g>
		<g id="Layer_2_4_">
			<g>
				
					<radialGradient id="SVGID_16_" cx="266" cy="1547.9841" r="105.2256" gradientTransform="matrix(1 0 0 3 0 -1910.9524)" gradientUnits="userSpaceOnUse">
					<stop  offset="0" style="stop-color:#191A47"/>
					<stop  offset="1" style="stop-color:#F1F1F2"/>
				</radialGradient>
				<circle class="st44" cx="266" cy="2733" r="105"/>
			</g>
			<g>
				
					<radialGradient id="SVGID_17_" cx="266" cy="1547.9841" r="150.2256" gradientTransform="matrix(1 0 0 3 0 -1910.9524)" gradientUnits="userSpaceOnUse">
					<stop  offset="0" style="stop-color:#191A47"/>
					<stop  offset="1" style="stop-color:#F1F1F2"/>
				</radialGradient>
				<circle class="st45" cx="266" cy="2733" r="150"/>
			</g>
			<text transform="matrix(1 0 0 1 105.2698 2742.0388)" class="st21 st22 st23">cyber </text>
			<text transform="matrix(1 0 0 1 366.6543 2742.0383)" class="st21 st22 st24">Congress</text>
		</g>
		<g id="Layer_4_3_">
			<path class="st21" d="M294.2,2786.6c-9.5,5.2-20.6,7.9-32.3,7.3c-31.9-1.6-57.4-28.1-57.9-60c-0.5-34.1,27-61.9,61-61.9
				c9.8,0,19.1,2.3,27.3,6.5c4.2,2.1,9.4,1.4,12.7-1.9l0,0c5.4-5.3,3.9-14.2-2.8-17.6c-9.2-4.6-22.1-9-37.3-9
				c-46.5,0-84.1,38.3-83,85c1.1,44.7,38,80.9,82.8,81c14.4,0,28-3.6,39.8-10c6.3-3.4,7.8-11.8,3-17.1l0,0
				C304.1,2785.1,298.6,2784.2,294.2,2786.6z"/>
			<g class="st34">
				<g>
					<g>
						<path d="M221.6,2788.9L221.6,2788.9c-4.8,5.3-3.4,13.7,3,17.1c11.8,6.4,25.4,10.1,39.8,10c44.7-0.1,81.7-36.3,82.8-81
							c1.1-46.8-36.5-85-83-85c-15.2,0-28.1,4.4-37.3,9c-6.7,3.3-8.2,12.3-2.8,17.6l0,0c3.4,3.3,8.5,4,12.7,1.9
							c8.2-4.1,17.5-6.5,27.3-6.5c34,0,61.5,27.8,61,61.9c-0.5,31.9-26,58.4-57.9,60c-11.7,0.6-22.8-2.1-32.3-7.3
							C230.5,2784.2,225,2785.1,221.6,2788.9z"/>
					</g>
				</g>
			</g>
		</g>
		<path class="st36" d="M977.6,774.2c-9.5,5.2-20.6,7.9-32.3,7.3c-31.9-1.6-57.4-28.1-57.9-60c-0.5-34.1,27-61.9,61-61.9
			c9.8,0,19.1,2.3,27.3,6.5c4.2,2.1,9.4,1.4,12.7-1.9l0,0c5.4-5.3,3.9-14.2-2.8-17.6c-9.2-4.6-22.1-9-37.3-9
			c-46.5,0-84.1,38.3-83,85c1.1,44.7,38,80.9,82.8,81c14.4,0,28-3.6,39.8-10c6.3-3.4,7.8-11.8,3-17.1l0,0
			C987.5,772.7,982,771.8,977.6,774.2z"/>
		<g>
			
				<radialGradient id="SVGID_18_" cx="944.5" cy="877.3174" r="105.2753" gradientTransform="matrix(1 0 0 3 0 -1910.9524)" gradientUnits="userSpaceOnUse">
				<stop  offset="0" style="stop-color:#191A47"/>
				<stop  offset="1" style="stop-color:#F1F1F2"/>
			</radialGradient>
			<circle class="st46" cx="944.5" cy="721" r="105"/>
		</g>
		<g>
			
				<radialGradient id="SVGID_19_" cx="944.5" cy="877.3174" r="150.2753" gradientTransform="matrix(1 0 0 3 0 -1910.9524)" gradientUnits="userSpaceOnUse">
				<stop  offset="0" style="stop-color:#191A47"/>
				<stop  offset="1" style="stop-color:#F1F1F2"/>
			</radialGradient>
			<circle class="st47" cx="944.5" cy="721" r="150"/>
		</g>
		<path class="st26" d="M327.6,773.6c-9.5,5.2-20.6,7.9-32.3,7.3c-31.9-1.6-57.4-28.1-57.9-60c-0.5-34.1,27-61.9,61-61.9
			c9.8,0,19.1,2.3,27.3,6.5c4.2,2.1,9.4,1.4,12.7-1.9l0,0c5.4-5.3,3.9-14.2-2.8-17.6c-9.2-4.6-22.1-9-37.3-9
			c-46.5,0-84.1,38.3-83,85c1.1,44.7,38,80.9,82.8,81c14.4,0,28-3.6,39.8-10c6.3-3.4,7.8-11.8,3-17.1l0,0
			C337.5,772.1,332,771.2,327.6,773.6z"/>
		<path class="st25" d="M312.5,745.6c-4.5,2.5-9.9,3.8-15.5,3.5c-15.3-0.8-27.5-13.4-27.7-28.7c-0.2-16.3,12.9-29.6,29.2-29.6
			c4.7,0,9.1,1.1,13.1,3.1c2,1,4.5,0.7,6.1-0.9l0,0c2.6-2.5,1.9-6.8-1.3-8.4c-4.4-2.2-10.6-4.3-17.8-4.3
			c-22.2,0-40.2,18.3-39.7,40.7c0.5,21.4,18.2,38.7,39.6,38.7c6.9,0,13.4-1.7,19-4.8c3-1.6,3.7-5.6,1.4-8.2l0,0
			C317.2,744.9,314.6,744.5,312.5,745.6z"/>
		<g>
			
				<radialGradient id="SVGID_20_" cx="291.5" cy="876.9841" r="105.2752" gradientTransform="matrix(1 0 0 3 0 -1910.9524)" gradientUnits="userSpaceOnUse">
				<stop  offset="0" style="stop-color:#191A47"/>
				<stop  offset="1" style="stop-color:#F1F1F2"/>
			</radialGradient>
			<circle class="st48" cx="291.5" cy="720" r="105"/>
		</g>
		<g>
			
				<radialGradient id="SVGID_21_" cx="291.5" cy="876.9841" r="150.2752" gradientTransform="matrix(1 0 0 3 0 -1910.9524)" gradientUnits="userSpaceOnUse">
				<stop  offset="0" style="stop-color:#191A47"/>
				<stop  offset="1" style="stop-color:#F1F1F2"/>
			</radialGradient>
			<circle class="st49" cx="291.5" cy="720" r="150"/>
		</g>
		<circle class="st25" cx="299.6" cy="720.8" r="40.5"/>
		<circle class="st39" cx="952" cy="720.6" r="37.2"/>
		<g>
			<text transform="matrix(1 0 0 1 334.7234 2347.6936)" class="st21 st22 st23">cyber </text>
			<text transform="matrix(1 0 0 1 334.7233 2376.0186)" class="st21 st22 st23">Congress</text>
		</g>
		<g>
			<text transform="matrix(1 0 0 1 183.5002 1637.3823)" class="st21 st22 st50">cyber </text>
			<text transform="matrix(1 0 0 1 261.4998 1638.145)" class="st21 st22 st50"> Congress</text>
		</g>
		<g>
			<text transform="matrix(1 0 0 1 963.9326 1500.6472)" class="st21 st22 st50">cyber </text>
			<text transform="matrix(1 0 0 1 965.267 1546.7576)" class="st21 st22 st50">Congress</text>
		</g>
		<g>
			<text transform="matrix(1 0 0 1 987.7234 2346.6936)" class="st39 st22 st23">cyber </text>
			<text transform="matrix(1 0 0 1 987.7233 2375.0186)" class="st39 st22 st23">Congress</text>
		</g>
		<g>
			<text transform="matrix(1 0 0 1 1010.3605 704.9125)" class="st36 st22 st50">cyber </text>
			<text transform="matrix(1 0 0 1 1011.6949 751.0229)" class="st21 st51 st50">Congress</text>
		</g>
		<g>
			<text transform="matrix(1 0 0 1 352.1716 703.9128)" class="st26 st22 st50">cyber </text>
			<text transform="matrix(1 0 0 1 353.506 746.0231)" class="st25 st22 st50">Congress</text>
		</g>
	</g>
	<g>
		
			<image style="overflow:visible;enable-background:new    ;" width="242" height="242" xlink:href="6A36FA1E2D5F5038.png"  transform="matrix(0.9959 0 0 0.9959 743.9084 1817.6495)">
		</image>
	</g>
	<g>
		
			<image style="overflow:visible;enable-background:new    ;" width="240" height="240" xlink:href="6A36FA1E2D5F5035.png"  transform="matrix(0.9958 0 0 0.9958 742.9084 1822.6495)">
		</image>
	</g>
	<g id="Layer_2_5_">
	</g>
	<g>
		
			<image style="overflow:visible;enable-background:new    ;" width="201" height="239" xlink:href="6A36FA1E2D5F503D.png"  transform="matrix(1 0 0 1 833 220.96)">
		</image>
	</g>
	<g>
		
			<image style="overflow:visible;enable-background:new    ;" width="201" height="239" xlink:href="6A36FA1E2D5F503F.png"  transform="matrix(1 0 0 1 831 225.96)">
		</image>
	</g>
	<g>
		<path class="st16" d="M977.1,395.4c-9.5,5.2-20.6,7.9-32.3,7.3c-31.9-1.6-57.4-28.1-57.9-60c-0.5-34.1,27-61.9,61-61.9
			c9.8,0,19.1,2.3,27.3,6.5c4.2,2.1,9.4,1.4,12.7-1.9l0,0c5.4-5.3,3.9-14.2-2.8-17.6c-9.2-4.6-22.1-9-37.3-9
			c-46.5,0-84.1,38.3-83,85c1.1,44.7,38,80.9,82.8,81c14.4,0,28-3.6,39.8-10c6.3-3.4,7.8-11.8,3-17.1l0,0
			C987,393.9,981.5,393,977.1,395.4z"/>
		<g>
			
				<radialGradient id="SVGID_22_" cx="944" cy="751.0508" r="105.2668" gradientTransform="matrix(1 0 0 3 0 -1910.9524)" gradientUnits="userSpaceOnUse">
				<stop  offset="0" style="stop-color:#191A47"/>
				<stop  offset="1" style="stop-color:#F1F1F2"/>
			</radialGradient>
			<circle class="st52" cx="944" cy="342.2" r="105"/>
		</g>
		<g>
			
				<radialGradient id="SVGID_23_" cx="944" cy="751.0508" r="150.2668" gradientTransform="matrix(1 0 0 3 0 -1910.9524)" gradientUnits="userSpaceOnUse">
				<stop  offset="0" style="stop-color:#191A47"/>
				<stop  offset="1" style="stop-color:#F1F1F2"/>
			</radialGradient>
			<circle class="st53" cx="944" cy="342.2" r="150"/>
		</g>
		<circle class="st16" cx="951.5" cy="341.8" r="37.2"/>
		<g>
			<text transform="matrix(1 0 0 1 1009.8605 326.197)" class="st16 st22 st50">cyber </text>
			<text transform="matrix(1 0 0 1 1011.1949 372.3074)" class="st16 st51 st50">Congress</text>
		</g>
	</g>
	<g>
		<g>
			
				<image style="overflow:visible;enable-background:new    ;" width="202" height="240" xlink:href="6A36FA1E2D5F503A.png"  transform="matrix(0.9955 0 0 0.9955 188.5537 220.599)">
			</image>
		</g>
		<g>
			
				<image style="overflow:visible;enable-background:new    ;" width="202" height="239" xlink:href="6A36FA1E2D5F503B.png"  transform="matrix(1 0 0 1 186 224.96)">
			</image>
		</g>
		<g>
			<path class="st1" d="M332.7,395c-9.5,5.2-20.6,7.9-32.3,7.3c-31.9-1.6-57.4-28.1-57.9-60c-0.5-34.1,27-61.9,61-61.9
				c9.8,0,19.1,2.3,27.3,6.5c4.2,2.1,9.4,1.4,12.7-1.9l0,0c5.4-5.3,3.9-14.2-2.8-17.6c-9.2-4.6-22.1-9-37.3-9
				c-46.5,0-84.1,38.3-83,85c1.1,44.7,38,80.9,82.8,81c14.4,0,28-3.6,39.8-10c6.3-3.4,7.8-11.8,3-17.1l0,0
				C342.6,393.5,337.1,392.6,332.7,395z"/>
			<g>
				
					<radialGradient id="SVGID_24_" cx="299.6" cy="750.9175" r="105.2668" gradientTransform="matrix(1 0 0 3 0 -1910.9524)" gradientUnits="userSpaceOnUse">
					<stop  offset="0" style="stop-color:#191A47"/>
					<stop  offset="1" style="stop-color:#F1F1F2"/>
				</radialGradient>
				<circle class="st54" cx="299.6" cy="341.8" r="105"/>
			</g>
			<g>
				
					<radialGradient id="SVGID_25_" cx="299.6" cy="750.9175" r="150.2668" gradientTransform="matrix(1 0 0 3 0 -1910.9524)" gradientUnits="userSpaceOnUse">
					<stop  offset="0" style="stop-color:#191A47"/>
					<stop  offset="1" style="stop-color:#F1F1F2"/>
				</radialGradient>
				<circle class="st55" cx="299.6" cy="341.8" r="150"/>
			</g>
			<circle class="st1" cx="307.1" cy="341.4" r="37.2"/>
			<g>
				<text transform="matrix(1 0 0 1 365.4605 325.7969)" class="st1 st22 st50">cyber </text>
				<text transform="matrix(1 0 0 1 366.7949 371.9075)" class="st1 st51 st50">Congress</text>
			</g>
		</g>
	</g>
	<circle class="st33" cx="862.4" cy="1938.1" r="63.3"/>
	<g>
		
			<ellipse transform="matrix(0.7071 -0.7071 0.7071 0.7071 -1283.1871 772.9736)" class="st16" cx="291.5" cy="1935.4" rx="82.7" ry="82.7"/>
	</g>
	<g id="Layer_4_5_">
		<path class="st36" d="M891,1991.7c-9.5,5.2-20.6,7.9-32.3,7.3c-31.9-1.6-57.4-28.1-57.9-60c-0.5-34.1,27-61.9,61-61.9
			c9.8,0,19.1,2.3,27.3,6.5c4.2,2.1,9.4,1.4,12.7-1.9l0,0c5.4-5.3,3.9-14.2-2.8-17.6c-9.2-4.6-22.1-9-37.3-9
			c-46.5,0-84.1,38.3-83,85c1.1,44.7,38,80.9,82.8,81c14.4,0,28-3.6,39.8-10c6.3-3.4,7.8-11.8,3-17.1l0,0
			C900.9,1990.2,895.4,1989.3,891,1991.7z"/>
		<g>
			<g>
				<g>
					<path class="st56" d="M818.4,1994L818.4,1994c-4.8,5.3-3.4,13.7,3,17.1c11.8,6.4,25.4,10.1,39.8,10c44.7-0.1,81.7-36.3,82.8-81
						c1.1-46.8-36.5-85-83-85c-15.2,0-28.1,4.4-37.3,9c-6.7,3.3-8.2,12.3-2.8,17.6l0,0c3.4,3.3,8.5,4,12.7,1.9
						c8.2-4.1,17.5-6.5,27.3-6.5c34,0,61.5,27.8,61,61.9c-0.5,31.9-26,58.4-57.9,60c-11.7,0.6-22.8-2.1-32.3-7.3
						C827.3,1989.3,821.8,1990.2,818.4,1994z"/>
				</g>
			</g>
		</g>
	</g>
	<g>
		<g>
			<path class="st21" d="M834.7,1883.6c8.2-4.1,17.5-6.5,27.3-6.5c0.2,0,0.3,0,0.4,0c0.2,0,0.3,0,0.4,0c9.8,0,19.1,2.3,27.3,6.5
				c4.2,2.1,9.4,1.4,12.7-1.9c4.9-4.8,4.1-12.5-1.1-16.5c-11.7-6.4-25.1-10-39.4-10.1c-14.3,0.1-27.8,3.8-39.6,10.2
				c-5,3.9-5.7,11.6-0.9,16.4C825.4,1885,830.5,1885.7,834.7,1883.6z"/>
			<path class="st21" d="M892.1,1991.7c-8.6,4.7-18.6,7.4-29.2,7.4c-0.2,0-0.3,0-0.5,0s-0.3,0-0.5,0c-10.5,0-20.5-2.6-29.2-7.4
				c-4.4-2.4-9.9-1.5-13.3,2.3c-3.9,4.3-3.7,10.8,0,14.8c12.5,7.7,27.2,12.2,42.9,12.3c15.7-0.1,30.3-4.6,42.9-12.3
				c3.7-4,4-10.5,0.1-14.8C902,1990.2,896.5,1989.3,892.1,1991.7z"/>
		</g>
	</g>
	<path class="st36" d="M865.8,1945.7c-1.2,0.7-2.6,1.1-4,1.2c-4.8,0.2-9.1-3.7-9.2-8.5c-0.1-5,3.9-9.1,8.8-9.1
		c1.6,0,3.1,0.4,4.4,1.2c1.8,1.1,4.2,0.6,5.6-1l0,0c1.8-2.1,1.3-5.3-1-6.7c-3-1.8-6.6-2.7-10.4-2.3c-8.3,0.7-15.1,7.3-16.1,15.6
		c-1.2,10.7,7.2,19.7,17.6,19.7c3.4,0,6.5-0.9,9.2-2.6c2.3-1.4,2.6-4.7,0.8-6.6l-0.2-0.2C869.7,1944.9,867.5,1944.7,865.8,1945.7z"
		/>
	<path class="st38" d="M851.6,1946.4l-0.2,0.2c-1.9,2-1.6,5.2,0.8,6.6c2.7,1.6,5.8,2.6,9.2,2.6c10.4,0,18.8-9,17.6-19.7
		c-0.9-8.3-7.7-14.9-16.1-15.6c-3.8-0.3-7.4,0.6-10.4,2.3c-2.4,1.4-2.8,4.6-1,6.7l0,0c1.4,1.6,3.7,2,5.6,1c1.3-0.7,2.8-1.2,4.4-1.2
		c4.9,0,8.9,4.1,8.8,9.1c-0.1,4.8-4.4,8.8-9.2,8.5c-1.5-0.1-2.8-0.5-4-1.2C855.2,1944.7,853,1944.9,851.6,1946.4z"/>
	<g>
		<path class="st21" d="M868.7,1922c-0.4-0.2-0.8-0.3-1.2-0.5c-0.1,0-0.3-0.1-0.4-0.1c-0.3-0.1-0.6-0.2-0.9-0.3
			c-0.2-0.1-0.4-0.1-0.6-0.1c-0.3-0.1-0.5-0.1-0.8-0.2c-0.2,0-0.4-0.1-0.6-0.1c-0.3,0-0.6-0.1-0.9-0.1c-0.2,0-0.4-0.1-0.6-0.1
			c-0.2,0-0.5,0-0.7,0s-0.5,0-0.7,0s-0.5,0-0.7,0s-0.5,0-0.7,0s-0.4,0-0.6,0.1c-0.3,0-0.6,0.1-0.9,0.1c-0.2,0-0.4,0.1-0.6,0.1
			c-0.3,0.1-0.5,0.1-0.8,0.2c-0.2,0-0.4,0.1-0.6,0.1c-0.3,0.1-0.6,0.2-0.9,0.3c-0.1,0-0.3,0.1-0.4,0.1c-0.4,0.1-0.8,0.3-1.2,0.5
			h-0.1c-0.6,0.3-1.1,0.6-1.6,0.9c-2.2,1.4-2.6,4.6-0.9,6.6c1.4,1.6,3.7,2,5.6,1c0,0,0,0,0.1,0c0.3-0.2,0.6-0.3,0.9-0.4
			c0.1,0,0.1,0,0.2-0.1c0.3-0.1,0.5-0.2,0.8-0.3c0.1,0,0.2-0.1,0.3-0.1c0.2-0.1,0.5-0.1,0.7-0.1c0.1,0,0.2,0,0.3,0
			c0.4,0,0.7-0.1,1.1-0.1l0,0l0,0c0.4,0,0.7,0,1.1,0.1c0.1,0,0.2,0,0.3,0c0.2,0,0.5,0.1,0.7,0.1c0.1,0,0.2,0.1,0.3,0.1
			c0.3,0.1,0.5,0.2,0.8,0.3c0.1,0,0.1,0,0.2,0.1c0.3,0.1,0.6,0.3,0.9,0.4c0,0,0,0,0.1,0c1.8,1.1,4.2,0.6,5.6-1
			c1.8-2,1.3-5.2-0.9-6.6C869.9,1922.6,869.3,1922.3,868.7,1922C868.8,1922,868.7,1922,868.7,1922z"/>
		<path class="st21" d="M871.1,1946.4c-1.4-1.4-3.6-1.6-5.3-0.6c-1,0.6-2.2,1-3.5,1.1c-0.2,0-0.3,0-0.5,0.1l0,0c-0.1,0-0.3,0-0.4,0
			c-0.1,0-0.3,0-0.4,0l0,0c-0.2,0-0.3,0-0.5-0.1c-1.2-0.1-2.4-0.5-3.5-1.1c-1.7-1-3.9-0.8-5.3,0.6l-0.2,0.2
			c-1.8,1.9-1.6,5.1,0.6,6.5c0.1,0.1,0.2,0.1,0.3,0.2s0.2,0.1,0.3,0.2c0.4,0.2,0.8,0.5,1.3,0.7c0.1,0,0.2,0.1,0.3,0.1
			c0.5,0.2,1,0.4,1.5,0.6c0.1,0,0.2,0.1,0.4,0.1c0.5,0.2,1,0.3,1.5,0.4c0.1,0,0.1,0,0.2,0c0.5,0.1,1.1,0.2,1.6,0.3
			c0.1,0,0.3,0,0.4,0c0.6,0.1,1.1,0.1,1.7,0.1l0,0l0,0c0.6,0,1.2,0,1.7-0.1c0.1,0,0.3,0,0.4,0c0.6-0.1,1.1-0.2,1.6-0.3
			c0.1,0,0.1,0,0.2,0c0.5-0.1,1-0.2,1.5-0.4c0.1,0,0.2-0.1,0.4-0.1c0.5-0.2,1-0.4,1.5-0.6c0.1,0,0.2-0.1,0.3-0.1
			c0.4-0.2,0.9-0.4,1.3-0.7c0.1-0.1,0.2-0.1,0.3-0.2s0.2-0.1,0.3-0.2c2.2-1.5,2.5-4.6,0.6-6.5L871.1,1946.4z"/>
	</g>
	
		<ellipse transform="matrix(9.968697e-02 -0.995 0.995 9.968697e-02 -1666.2058 2029.9658)" class="st33" cx="288.6" cy="1935.7" rx="63.3" ry="63.3"/>
	<g id="Layer_4_4_">
		<path class="st36" d="M321.2,1989.4c-9.5,5.2-20.6,7.9-32.3,7.3c-31.9-1.6-57.4-28.1-57.9-60c-0.5-34.1,27-61.9,61-61.9
			c9.8,0,19.1,2.3,27.3,6.5c4.2,2.1,9.4,1.4,12.7-1.9l0,0c5.4-5.3,3.9-14.2-2.8-17.6c-9.2-4.6-22.1-9-37.3-9
			c-46.5,0-84.1,38.3-83,85c1.1,44.7,38,80.9,82.8,81c14.4,0,28-3.6,39.8-10c6.3-3.4,7.8-11.8,3-17.1l0,0
			C331.1,1987.9,325.6,1987,321.2,1989.4z"/>
		<g>
			<g>
				<g>
					<path class="st56" d="M248.6,1991.7L248.6,1991.7c-4.8,5.3-3.4,13.7,3,17.1c11.8,6.4,25.4,10.1,39.8,10
						c44.7-0.1,81.7-36.3,82.8-81c1.1-46.8-36.5-85-83-85c-15.2,0-28.1,4.4-37.3,9c-6.7,3.3-8.2,12.3-2.8,17.6l0,0
						c3.4,3.3,8.5,4,12.7,1.9c8.2-4.1,17.5-6.5,27.3-6.5c34,0,61.5,27.8,61,61.9c-0.5,31.9-26,58.4-57.9,60
						c-11.7,0.6-22.8-2.1-32.3-7.3C257.5,1987,252,1987.9,248.6,1991.7z"/>
				</g>
			</g>
		</g>
	</g>
	<g>
		<g>
			<path class="st21" d="M264.9,1881.3c8.2-4.1,17.5-6.5,27.3-6.5c0.2,0,0.3,0,0.4,0c0.2,0,0.3,0,0.4,0c9.8,0,19.1,2.3,27.3,6.5
				c4.2,2.1,9.4,1.4,12.7-1.9c4.9-4.8,4.1-12.5-1.1-16.5c-11.7-6.4-25.1-10-39.4-10.1c-14.3,0.1-27.8,3.8-39.6,10.2
				c-5,3.9-5.7,11.6-0.9,16.4C255.6,1882.7,260.7,1883.4,264.9,1881.3z"/>
			<path class="st21" d="M322.3,1989.4c-8.6,4.7-18.6,7.4-29.2,7.4c-0.2,0-0.3,0-0.5,0s-0.3,0-0.5,0c-10.5,0-20.5-2.6-29.2-7.4
				c-4.4-2.4-9.9-1.5-13.3,2.3c-3.9,4.3-3.7,10.8,0,14.8c12.5,7.7,27.2,12.2,42.9,12.3c15.7-0.1,30.3-4.6,42.9-12.3
				c3.7-4,4-10.5,0.1-14.8C332.2,1987.9,326.7,1987,322.3,1989.4z"/>
		</g>
	</g>
	<path class="st36" d="M296,1943.4c-1.2,0.7-2.6,1.1-4,1.2c-4.8,0.2-9.1-3.7-9.2-8.5c-0.1-5,3.9-9.1,8.8-9.1c1.6,0,3.1,0.4,4.4,1.2
		c1.8,1.1,4.2,0.6,5.6-1l0,0c1.8-2.1,1.3-5.3-1-6.7c-3-1.8-6.6-2.7-10.4-2.3c-8.3,0.7-15.1,7.3-16.1,15.6
		c-1.2,10.7,7.2,19.7,17.6,19.7c3.4,0,6.5-0.9,9.2-2.6c2.3-1.4,2.6-4.7,0.8-6.6l-0.2-0.2C299.9,1942.6,297.7,1942.4,296,1943.4z"/>
	<path class="st38" d="M281.8,1944.1l-0.2,0.2c-1.9,2-1.6,5.2,0.8,6.6c2.7,1.6,5.8,2.6,9.2,2.6c10.4,0,18.8-9,17.6-19.7
		c-0.9-8.3-7.7-14.9-16.1-15.6c-3.8-0.3-7.4,0.6-10.4,2.3c-2.4,1.4-2.8,4.6-1,6.7l0,0c1.4,1.6,3.7,2,5.6,1c1.3-0.7,2.8-1.2,4.4-1.2
		c4.9,0,8.9,4.1,8.8,9.1c-0.1,4.8-4.4,8.8-9.2,8.5c-1.5-0.1-2.8-0.5-4-1.2C285.4,1942.4,283.2,1942.6,281.8,1944.1z"/>
	<g>
		<path class="st21" d="M298.9,1919.7c-0.4-0.2-0.8-0.3-1.2-0.5c-0.1,0-0.3-0.1-0.4-0.1c-0.3-0.1-0.6-0.2-0.9-0.3
			c-0.2-0.1-0.4-0.1-0.6-0.1c-0.3-0.1-0.5-0.1-0.8-0.2c-0.2,0-0.4-0.1-0.6-0.1c-0.3,0-0.6-0.1-0.9-0.1c-0.2,0-0.4-0.1-0.6-0.1
			s-0.5,0-0.7,0s-0.5,0-0.7,0s-0.5,0-0.7,0s-0.5,0-0.7,0s-0.4,0-0.6,0.1c-0.3,0-0.6,0.1-0.9,0.1c-0.2,0-0.4,0.1-0.6,0.1
			c-0.3,0.1-0.5,0.1-0.8,0.2c-0.2,0-0.4,0.1-0.6,0.1c-0.3,0.1-0.6,0.2-0.9,0.3c-0.1,0-0.3,0.1-0.4,0.1c-0.4,0.1-0.8,0.3-1.2,0.5H284
			c-0.6,0.3-1.1,0.6-1.6,0.9c-2.2,1.4-2.6,4.6-0.9,6.6c1.4,1.6,3.7,2,5.6,1c0,0,0,0,0.1,0c0.3-0.2,0.6-0.3,0.9-0.4
			c0.1,0,0.1,0,0.2-0.1c0.3-0.1,0.5-0.2,0.8-0.3c0.1,0,0.2-0.1,0.3-0.1c0.2-0.1,0.5-0.1,0.7-0.1c0.1,0,0.2,0,0.3,0
			c0.4,0,0.7-0.1,1.1-0.1l0,0l0,0c0.4,0,0.7,0,1.1,0.1c0.1,0,0.2,0,0.3,0c0.2,0,0.5,0.1,0.7,0.1c0.1,0,0.2,0.1,0.3,0.1
			c0.3,0.1,0.5,0.2,0.8,0.3c0.1,0,0.1,0,0.2,0.1c0.3,0.1,0.6,0.3,0.9,0.4c0,0,0,0,0.1,0c1.8,1.1,4.2,0.6,5.6-1
			c1.8-2,1.3-5.2-0.9-6.6C300.1,1920.3,299.5,1920,298.9,1919.7C298.9,1919.8,298.9,1919.7,298.9,1919.7z"/>
		<path class="st21" d="M301.3,1944.1c-1.4-1.4-3.6-1.6-5.3-0.6c-1,0.6-2.2,1-3.5,1.1c-0.2,0-0.3,0-0.5,0.1l0,0c-0.1,0-0.3,0-0.4,0
			s-0.3,0-0.4,0l0,0c-0.2,0-0.3,0-0.5-0.1c-1.2-0.1-2.4-0.5-3.5-1.1c-1.7-1-3.9-0.8-5.3,0.6l-0.2,0.2c-1.8,1.9-1.6,5.1,0.6,6.5
			c0.1,0.1,0.2,0.1,0.3,0.2c0.1,0.1,0.2,0.1,0.3,0.2c0.4,0.2,0.8,0.5,1.3,0.7c0.1,0,0.2,0.1,0.3,0.1c0.5,0.2,1,0.4,1.5,0.6
			c0.1,0,0.2,0.1,0.4,0.1c0.5,0.2,1,0.3,1.5,0.4c0.1,0,0.1,0,0.2,0c0.5,0.1,1.1,0.2,1.6,0.3c0.1,0,0.3,0,0.4,0
			c0.6,0.1,1.1,0.1,1.7,0.1l0,0l0,0c0.6,0,1.2,0,1.7-0.1c0.1,0,0.3,0,0.4,0c0.6-0.1,1.1-0.2,1.6-0.3c0.1,0,0.1,0,0.2,0
			c0.5-0.1,1-0.2,1.5-0.4c0.1,0,0.2-0.1,0.4-0.1c0.5-0.2,1-0.4,1.5-0.6c0.1,0,0.2-0.1,0.3-0.1c0.4-0.2,0.9-0.4,1.3-0.7
			c0.1-0.1,0.2-0.1,0.3-0.2c0.1-0.1,0.2-0.1,0.3-0.2c2.2-1.5,2.5-4.6,0.6-6.5L301.3,1944.1z"/>
	</g>
	<g>
		<text transform="matrix(1 0 0 1 182.5002 2059.4604)" class="st21 st22 st50">cyber </text>
		<text transform="matrix(1 0 0 1 260.4998 2060.2231)" class="st21 st22 st50"> Congress</text>
	</g>
	<g>
		<text transform="matrix(1 0 0 1 962.9326 1922.7252)" class="st21 st22 st50">cyber </text>
		<text transform="matrix(1 0 0 1 964.267 1968.8356)" class="st21 st22 st50">Congress</text>
	</g>
	<g>
		<path class="st57" d="M852.7,3102.5c0-13.7,2.4-26,7.2-37c4.8-11,11.3-20.4,19.5-28.3c8.2-7.8,17.7-13.9,28.7-18
			c10.9-4.2,22.5-6.3,34.8-6.3c9.7,0,18.4,0.9,26,2.8c7.6,1.9,14.1,4,19.6,6.4c6.3,2.7,11.8,5.7,16.4,9l-26.9,47.4
			c-2.7-2-5.7-4-9-5.9c-2.9-1.4-6.4-2.7-10.4-4c-4-1.3-8.6-1.9-13.7-1.9c-5.3,0-10.2,0.9-14.6,2.8c-4.4,1.9-8.3,4.4-11.6,7.7
			c-3.3,3.2-5.9,7-7.8,11.4c-1.9,4.4-2.8,9-2.8,14c0,5,1,9.6,2.9,14c2,4.4,4.6,8.2,8.1,11.4c3.4,3.2,7.4,5.8,12,7.7
			c4.6,1.9,9.6,2.8,15.1,2.8c5.5,0,10.3-0.7,14.6-2c4.3-1.4,7.8-2.9,10.8-4.6c3.4-1.9,6.4-4.1,9-6.7l26.9,47.4
			c-4.6,3.8-10.1,7.1-16.4,10c-5.5,2.4-12,4.6-19.7,6.7c-7.7,2-16.5,3.1-26.4,3.1c-13.3,0-25.6-2.2-36.9-6.5
			c-11.3-4.4-21-10.5-29.2-18.3c-8.2-7.8-14.6-17.3-19.2-28.3C855,3128,852.7,3115.8,852.7,3102.5z"/>
	</g>
	<g>
		<linearGradient id="SVGID_26_" gradientUnits="userSpaceOnUse" x1="874.0391" y1="3102.5195" x2="1028.6631" y2="3102.5195">
			<stop  offset="0.1946" style="stop-color:#53D2FA"/>
			<stop  offset="0.7787" style="stop-color:#F02A58"/>
		</linearGradient>
		<path class="st58" d="M874,3102.5c0-13.7,2.4-26,7.2-37c4.8-11,11.3-20.4,19.5-28.3c8.2-7.8,17.7-13.9,28.7-18
			c10.9-4.2,22.5-6.3,34.8-6.3c9.7,0,18.4,0.9,26,2.8c7.6,1.9,14.1,4,19.6,6.4c6.3,2.7,11.8,5.7,16.4,9l-26.9,47.4
			c-2.7-2-5.7-4-9-5.9c-2.9-1.4-6.4-2.7-10.4-4c-4-1.3-8.6-1.9-13.7-1.9c-5.3,0-10.2,0.9-14.6,2.8c-4.4,1.9-8.3,4.4-11.6,7.7
			c-3.3,3.2-5.9,7-7.8,11.4c-1.9,4.4-2.8,9-2.8,14c0,5,1,9.6,2.9,14c2,4.4,4.6,8.2,8.1,11.4c3.4,3.2,7.4,5.8,12,7.7
			c4.6,1.9,9.6,2.8,15.1,2.8c5.5,0,10.3-0.7,14.6-2c4.3-1.4,7.8-2.9,10.8-4.6c3.4-1.9,6.4-4.1,9-6.7l26.9,47.4
			c-4.6,3.8-10.1,7.1-16.4,10c-5.5,2.4-12,4.6-19.7,6.7c-7.7,2-16.5,3.1-26.4,3.1c-13.3,0-25.6-2.2-36.9-6.5
			c-11.3-4.4-21-10.5-29.2-18.3c-8.2-7.8-14.6-17.3-19.2-28.3C876.3,3128,874,3115.8,874,3102.5z"/>
	</g>
	<g>
		<path class="st59" d="M201.7,3102.5c0-13.7,2.4-26,7.2-37c4.8-11,11.3-20.4,19.5-28.3c8.2-7.8,17.7-13.9,28.7-18
			c10.9-4.2,22.5-6.3,34.8-6.3c9.7,0,18.4,0.9,26,2.8c7.6,1.9,14.1,4,19.6,6.4c6.3,2.7,11.8,5.7,16.4,9l-26.9,47.4
			c-2.7-2-5.7-4-9-5.9c-2.9-1.4-6.4-2.7-10.4-4c-4-1.3-8.6-1.9-13.7-1.9c-5.3,0-10.2,0.9-14.6,2.8c-4.4,1.9-8.3,4.4-11.6,7.7
			c-3.3,3.2-5.9,7-7.8,11.4c-1.9,4.4-2.8,9-2.8,14c0,5,1,9.6,2.9,14c2,4.4,4.6,8.2,8.1,11.4c3.4,3.2,7.4,5.8,12,7.7
			c4.6,1.9,9.6,2.8,15.1,2.8c5.5,0,10.3-0.7,14.6-2c4.3-1.4,7.8-2.9,10.8-4.6c3.4-1.9,6.4-4.1,9-6.7l26.9,47.4
			c-4.6,3.8-10.1,7.1-16.4,10c-5.5,2.4-12,4.6-19.7,6.7c-7.7,2-16.5,3.1-26.4,3.1c-13.3,0-25.6-2.2-36.9-6.5
			c-11.3-4.4-21-10.5-29.2-18.3c-8.2-7.8-14.6-17.3-19.2-28.3C204,3128,201.7,3115.8,201.7,3102.5z"/>
	</g>
	<g>
		<path class="st59" d="M201.7,3523.5c0-13.7,2.4-26,7.2-37c4.8-11,11.3-20.4,19.5-28.3c8.2-7.8,17.7-13.9,28.7-18
			c10.9-4.2,22.5-6.3,34.8-6.3c9.7,0,18.4,0.9,26,2.8c7.6,1.9,14.1,4,19.6,6.4c6.3,2.7,11.8,5.7,16.4,9l-26.9,47.4
			c-2.7-2-5.7-4-9-5.9c-2.9-1.4-6.4-2.7-10.4-4c-4-1.3-8.6-1.9-13.7-1.9c-5.3,0-10.2,0.9-14.6,2.8c-4.4,1.9-8.3,4.4-11.6,7.7
			c-3.3,3.2-5.9,7-7.8,11.4c-1.9,4.4-2.8,9-2.8,14c0,5,1,9.6,2.9,14c2,4.4,4.6,8.2,8.1,11.4c3.4,3.2,7.4,5.8,12,7.7
			c4.6,1.9,9.6,2.8,15.1,2.8c5.5,0,10.3-0.7,14.6-2c4.3-1.4,7.8-2.9,10.8-4.6c3.4-1.9,6.4-4.1,9-6.7l26.9,47.4
			c-4.6,3.8-10.1,7.1-16.4,10c-5.5,2.4-12,4.6-19.7,6.7c-7.7,2-16.5,3.1-26.4,3.1c-13.3,0-25.6-2.2-36.9-6.5
			c-11.3-4.4-21-10.5-29.2-18.3c-8.2-7.8-14.6-17.3-19.2-28.3C204,3549,201.7,3536.8,201.7,3523.5z"/>
	</g>
	<g>
		<linearGradient id="SVGID_27_" gradientUnits="userSpaceOnUse" x1="223.0391" y1="3102.5195" x2="377.6631" y2="3102.5195">
			<stop  offset="0.1946" style="stop-color:#53D2FA"/>
			<stop  offset="0.7787" style="stop-color:#F02A58"/>
		</linearGradient>
		<path class="st60" d="M223,3102.5c0-13.7,2.4-26,7.2-37c4.8-11,11.3-20.4,19.5-28.3c8.2-7.8,17.7-13.9,28.7-18
			c10.9-4.2,22.5-6.3,34.8-6.3c9.7,0,18.4,0.9,26,2.8c7.6,1.9,14.1,4,19.6,6.4c6.3,2.7,11.8,5.7,16.4,9l-26.9,47.4
			c-2.7-2-5.7-4-9-5.9c-2.9-1.4-6.4-2.7-10.4-4c-4-1.3-8.6-1.9-13.7-1.9c-5.3,0-10.2,0.9-14.6,2.8c-4.4,1.9-8.3,4.4-11.6,7.7
			c-3.3,3.2-5.9,7-7.8,11.4c-1.9,4.4-2.8,9-2.8,14c0,5,1,9.6,2.9,14c2,4.4,4.6,8.2,8.1,11.4c3.4,3.2,7.4,5.8,12,7.7
			c4.6,1.9,9.6,2.8,15.1,2.8c5.5,0,10.3-0.7,14.6-2c4.3-1.4,7.8-2.9,10.8-4.6c3.4-1.9,6.4-4.1,9-6.7l26.9,47.4
			c-4.6,3.8-10.1,7.1-16.4,10c-5.5,2.4-12,4.6-19.7,6.7c-7.7,2-16.5,3.1-26.4,3.1c-13.3,0-25.6-2.2-36.9-6.5
			c-11.3-4.4-21-10.5-29.2-18.3c-8.2-7.8-14.6-17.3-19.2-28.3C225.3,3128,223,3115.8,223,3102.5z"/>
	</g>
	<g>
		
			<image style="overflow:visible;" width="184" height="211" xlink:href="6A36FA1E2D5F504A.png"  transform="matrix(1 0 0 1 860 3001)">
		</image>
	</g>
	<text transform="matrix(1 0 0 1 870.5931 3231.0981)" class="st21 st22 st23">cyber </text>
	<text transform="matrix(1 0 0 1 939.3945 3231.0986)" class="st21 st22 st23">Congress</text>
	<text transform="matrix(1 0 0 1 1034.2667 3523.5181)" class="st21 st22 st23">cyber </text>
	<text transform="matrix(1 0 0 1 1034.2662 3557.7327)" class="st21 st22 st24">Congress</text>
	<text transform="matrix(1 0 0 1 365.0838 3518.5728)" class="st21 st22 st23">cyber </text>
	<text transform="matrix(1 0 0 1 365.0833 3552.7874)" class="st21 st22 st24">Congress</text>
	<circle class="st61" cx="933.8" cy="3224.5" r="2"/>
	<text transform="matrix(1 0 0 1 209.5931 3231.0981)" class="st21 st22 st23">cyber </text>
	<text transform="matrix(1 0 0 1 278.3945 3231.0986)" class="st21 st22 st23">Congress</text>
	<circle class="st61" cx="272.8" cy="3224.5" r="2"/>
</g>
<g id="Layer_5">
	<g>
		<defs>
			<path id="SVGID_28_" d="M874,3101.5c0-13.7,2.4-26,7.2-37c4.8-11,11.3-20.4,19.5-28.3c8.2-7.8,17.7-13.9,28.7-18
				c10.9-4.2,22.5-6.3,34.8-6.3c9.7,0,18.4,0.9,26,2.8c7.6,1.9,14.1,4,19.6,6.4c6.3,2.7,11.8,5.7,16.4,9l-26.9,47.4
				c-2.7-2-5.7-4-9-5.9c-2.9-1.4-6.4-2.7-10.4-4c-4-1.3-8.6-1.9-13.7-1.9c-5.3,0-10.2,0.9-14.6,2.8c-4.4,1.9-8.3,4.4-11.6,7.7
				c-3.3,3.2-5.9,7-7.8,11.4c-1.9,4.4-2.8,9-2.8,14c0,5,1,9.6,2.9,14c2,4.4,4.6,8.2,8.1,11.4c3.4,3.2,7.4,5.8,12,7.7
				c4.6,1.9,9.6,2.8,15.1,2.8c5.5,0,10.3-0.7,14.6-2c4.3-1.4,7.8-2.9,10.8-4.6c3.4-1.9,6.4-4.1,9-6.7l26.9,47.4
				c-4.6,3.8-10.1,7.1-16.4,10c-5.5,2.4-12,4.6-19.7,6.7c-7.7,2-16.5,3.1-26.4,3.1c-13.3,0-25.6-2.2-36.9-6.5
				c-11.3-4.4-21-10.5-29.2-18.3c-8.2-7.8-14.6-17.3-19.2-28.3C876.3,3127,874,3114.8,874,3101.5z"/>
		</defs>
		<clipPath id="SVGID_29_">
			<use xlink:href="#SVGID_28_"  style="overflow:visible;"/>
		</clipPath>
		<g class="st62">
			
				<image style="overflow:visible;" width="211" height="240" xlink:href="6A36FA1E2D5F5049.png"  transform="matrix(1 0 0 1 843 2983)">
			</image>
		</g>
	</g>
</g>
<g id="Layer_2">
	<g>
		<defs>
			<path id="SVGID_30_" d="M222,3102.5c0-13.7,2.4-26,7.2-37c4.8-11,11.3-20.4,19.5-28.3c8.2-7.8,17.7-13.9,28.7-18
				c10.9-4.2,22.5-6.3,34.8-6.3c9.7,0,18.4,0.9,26,2.8c7.6,1.9,14.1,4,19.6,6.4c6.3,2.7,11.8,5.7,16.4,9l-26.9,47.4
				c-2.7-2-5.7-4-9-5.9c-2.9-1.4-6.4-2.7-10.4-4c-4-1.3-8.6-1.9-13.7-1.9c-5.3,0-10.2,0.9-14.6,2.8c-4.4,1.9-8.3,4.4-11.6,7.7
				c-3.3,3.2-5.9,7-7.8,11.4c-1.9,4.4-2.8,9-2.8,14c0,5,1,9.6,2.9,14c2,4.4,4.6,8.2,8.1,11.4c3.4,3.2,7.4,5.8,12,7.7
				c4.6,1.9,9.6,2.8,15.1,2.8c5.5,0,10.3-0.7,14.6-2c4.3-1.4,7.8-2.9,10.8-4.6c3.4-1.9,6.4-4.1,9-6.7l26.9,47.4
				c-4.6,3.8-10.1,7.1-16.4,10c-5.5,2.4-12,4.6-19.7,6.7c-7.7,2-16.5,3.1-26.4,3.1c-13.3,0-25.6-2.2-36.9-6.5
				c-11.3-4.4-21-10.5-29.2-18.3c-8.2-7.8-14.6-17.3-19.2-28.3C224.3,3128,222,3115.8,222,3102.5z"/>
		</defs>
		<clipPath id="SVGID_31_">
			<use xlink:href="#SVGID_30_"  style="overflow:visible;"/>
		</clipPath>
		<g class="st63">
			
				<image style="overflow:visible;" width="211" height="240" xlink:href="6A36FA1E2D5F504E.png"  transform="matrix(1 0 0 1 192 2983)">
			</image>
		</g>
	</g>
	<g>
		
			<image style="overflow:visible;" width="185" height="213" xlink:href="59F2265C8EC698D7.png"  transform="matrix(1 0 0 1 207 2996)">
		</image>
	</g>
</g>
<g id="Layer_4_6_">
	
		<linearGradient id="SVGID_32_" gradientUnits="userSpaceOnUse" x1="228.6913" y1="3592.762" x2="357.2031" y2="3592.762" gradientTransform="matrix(0.9993 3.616872e-02 -3.616872e-02 0.9993 131.9314 -5.7193)">
		<stop  offset="1.212740e-02" style="stop-color:#0810BD"/>
		<stop  offset="0.9788" style="stop-color:#BE2267"/>
	</linearGradient>
	<path class="st64" d="M271.8,3563.7c3.3,3.4,7.2,6.1,11.7,8.1c4.5,2,9.5,3.2,15,3.4c5.5,0.2,10.3-0.3,14.7-1.5
		c4.3-1.2,7.9-2.6,10.9-4.2c3.5-1.8,6.5-3.9,9.2-6.3l25.1,48.3c-4.7,3.6-10.3,6.7-16.7,9.4c-5.5,2.2-12.2,4.2-19.9,5.9
		c-7.7,1.8-16.6,2.5-26.5,2.1c-13.3-0.5-25.5-3.1-36.6-7.9c-11.1-4.8-20.6-11.2-28.5-19.3"/>
	<g>
		
			<linearGradient id="SVGID_33_" gradientUnits="userSpaceOnUse" x1="886.5073" y1="3439.6582" x2="1011.3431" y2="3439.6582" gradientTransform="matrix(0.9982 6.065660e-02 -6.065660e-02 0.9982 218.481 -10.5729)">
			<stop  offset="1.212740e-02" style="stop-color:#0810BD"/>
			<stop  offset="0.9788" style="stop-color:#BE2267"/>
		</linearGradient>
		<path class="st65" d="M895,3472c8.2-7.8,17.7-13.9,28.7-18c10.9-4.2,22.5-6.3,34.8-6.3c9.7,0,18.4,0.9,26,2.8
			c7.6,1.9,14.1,4,19.6,6.4c6.3,2.7,11.8,5.7,16.4,9l-26.9,47.4c-2.7-2-5.7-4-9-5.9c-2.9-1.4-6.4-2.7-10.4-4
			c-4-1.3-8.6-1.9-13.7-1.9c-5.3,0-10.2,0.9-14.6,2.8c-4.4,1.9-8.3,4.4-11.6,7.7"/>
	</g>
	<g>
		<path class="st66" d="M857.1,3523.5c0-13.7,2.4-26,7.2-37c4.8-11,11.3-20.4,19.5-28.3c8.2-7.8,17.7-13.9,28.7-18
			c10.9-4.2,22.5-6.3,34.8-6.3c9.7,0,18.4,0.9,26,2.8c7.6,1.9,14.1,4,19.6,6.4c6.3,2.7,11.8,5.7,16.4,9l-26.9,47.4
			c-2.7-2-5.7-4-9-5.9c-2.9-1.4-6.4-2.7-10.4-4c-4-1.3-8.6-1.9-13.7-1.9c-5.3,0-10.2,0.9-14.6,2.8c-4.4,1.9-8.3,4.4-11.6,7.7
			c-3.3,3.2-5.9,7-7.8,11.4c-1.9,4.4-2.8,9-2.8,14c0,5,1,9.6,2.9,14c2,4.4,4.6,8.2,8.1,11.4c3.4,3.2,7.4,5.8,12,7.7
			c4.6,1.9,9.6,2.8,15.1,2.8c5.5,0,10.3-0.7,14.6-2c4.3-1.4,7.8-2.9,10.8-4.6c3.4-1.9,6.4-4.1,9-6.7l26.9,47.4
			c-4.6,3.8-10.1,7.1-16.4,10c-5.5,2.4-12,4.6-19.7,6.7c-7.7,2-16.5,3.1-26.4,3.1c-13.3,0-25.6-2.2-36.9-6.5
			c-11.3-4.4-21-10.5-29.2-18.3c-8.2-7.8-14.6-17.3-19.2-28.3C859.4,3549,857.1,3536.8,857.1,3523.5z"/>
	</g>
	
		<linearGradient id="SVGID_34_" gradientUnits="userSpaceOnUse" x1="883.6122" y1="3569.0588" x2="1012.124" y2="3569.0588" gradientTransform="matrix(0.9993 3.616872e-02 -3.616872e-02 0.9993 131.9314 -5.7193)">
		<stop  offset="1.212740e-02" style="stop-color:#0810BD"/>
		<stop  offset="0.9788" style="stop-color:#BE2267"/>
	</linearGradient>
	<path class="st67" d="M927.2,3563.7c3.3,3.4,7.2,6.1,11.7,8.1c4.5,2,9.5,3.2,15,3.4c5.5,0.2,10.3-0.3,14.7-1.5
		c4.3-1.2,7.9-2.6,10.9-4.2c3.5-1.8,6.5-3.9,9.2-6.3l25.1,48.3c-4.7,3.6-10.3,6.7-16.7,9.4c-5.5,2.2-12.2,4.2-19.9,5.9
		c-7.7,1.8-16.6,2.5-26.5,2.1c-13.3-0.5-25.5-3.1-36.6-7.9c-11.1-4.8-20.6-11.2-28.5-19.3"/>
</g>
</svg>
