<?xml version="1.0" encoding="utf-8"?>
<!-- Generator: Adobe Illustrator 22.0.1, SVG Export Plug-In . SVG Version: 6.00 Build 0)  -->
<svg version="1.1" id="logo" xmlns="http://www.w3.org/2000/svg" xmlns:xlink="http://www.w3.org/1999/xlink" x="0px" y="0px"
	 viewBox="0 0 1280 1778.5" style="enable-background:new 0 0 1280 1778.5;" xml:space="preserve">
<style type="text/css">
	.st0{fill:#FFFFFF;}
	.st1{opacity:0.45;}
	.st2{opacity:7.000000e-02;clip-path:url(#SVGID_2_);}
	.st3{fill:#C1C1C1;}
	.st4{opacity:7.000000e-02;clip-path:url(#SVGID_4_);}
	.st5{opacity:0.5;}
	.st6{fill:#FCFCFC;}
	.st7{display:none;fill:#FCFCFC;}
	.st8{fill:none;stroke:#686868;stroke-width:0.25;stroke-miterlimit:10;}
	.st9{opacity:0.15;fill:none;stroke:#686868;stroke-width:0.25;stroke-miterlimit:10;enable-background:new    ;}
	.st10{opacity:0.15;fill:#FCFCFC;enable-background:new    ;}
	.st11{opacity:0.3;fill:none;stroke:#686868;stroke-width:0.25;stroke-miterlimit:10;enable-background:new    ;}
	.st12{opacity:0.3;fill:#FCFCFC;enable-background:new    ;}
	.st13{fill:#34FF10;}
	.st14{fill:#0D0F12;}
</style>
<g id="background">
	<g id="background_1_">
		
			<image style="overflow:visible;enable-background:new    ;" width="1348" height="1215" xlink:href="background_logo.png"  transform="matrix(1 0 0 1 -33 -36.5)">
		</image>
	</g>
	<rect id="background_x5F_2" x="640.1" y="1138.7" width="640" height="640"/>
	<rect id="background_x5F_2_1_" x="0.1" y="1138.7" class="st0" width="640" height="640"/>
</g>
<g id="cat_x5F_opacity">
	<g id="cat_x5F_little" class="st1">
		<g>
			<g>
				<defs>
					<rect id="SVGID_1_" x="-0.5" y="-4.4" width="271.6" height="538.8"/>
				</defs>
				<clipPath id="SVGID_2_">
					<use xlink:href="#SVGID_1_"  style="overflow:visible;"/>
				</clipPath>
				<g id="Layer_6_1_" class="st2">
					<g>
						<g>
							<g>
								<g>
									<path class="st3" d="M20.2,423.1l26.4-90.7c-37.9-4.3-77.8-19-77.8-84.6c0-18.7,6.8-33.8,17.6-45.8
										c-1.8-4.3-7.7-21.7,1.6-45.4c0,0,14.4-4.5,46.9,17.6c13.5-3.8,28.2-5.6,42.9-5.9c14.4,0,29.1,2,42.9,5.9
										c32.7-22.1,46.9-17.6,46.9-17.6c9.3,23.5,3.4,40.8,1.8,45.4c11.1,12,17.6,27.3,17.6,45.8c0,65.7-39.9,80.1-78.1,84.4
										l25.5,92.3L78,434L20.2,423.1z"/>
									<g>
										<g>
											<path class="st3" d="M179.7,104.6C92.9,47.9-26.5,74.8-79,164.6c-48.7,83-22.3,192.7,58,245.3
												c45.4,29.8,100.6,36.8,152.1,20.1c6.1-2,3.6-11.7-2.7-9.7C85.2,434,39.6,431-0.8,410.1c-38.1-19.9-68.4-53.9-83-94.5
												c-30.7-85.5,12-183,95.9-218C65.4,75.2,126.5,82,174.6,113.4C180,117,185.2,108.2,179.7,104.6L179.7,104.6z"/>
										</g>
									</g>
								</g>
							</g>
						</g>
					</g>
				</g>
			</g>
		</g>
	</g>
	<g id="cat_x5F_big" class="st1">
		<g>
			<g>
				<defs>
					<rect id="SVGID_3_" x="1109.9" y="680.8" width="170.1" height="337.5"/>
				</defs>
				<clipPath id="SVGID_4_">
					<use xlink:href="#SVGID_3_"  style="overflow:visible;"/>
				</clipPath>
				<g id="Layer_6_2_" class="st4">
					<g>
						<g>
							<g>
								<g>
									<path class="st3" d="M1242.9,948.6l16.5-56.8c-23.7-2.7-48.8-11.9-48.8-53c0-11.7,4.2-21.2,11-28.7
										c-1.1-2.7-4.8-13.6,1-28.4c0,0,9-2.8,29.4,11c8.5-2.4,17.7-3.5,26.8-3.7c9,0,18.2,1.3,26.8,3.7c20.5-13.8,29.4-11,29.4-11
										c5.8,14.7,2.1,25.6,1.1,28.4c6.9,7.5,11,17.1,11,28.7c0,41.1-25,50.2-48.9,52.8l16,57.8l-35.3,5.9L1242.9,948.6z"/>
									<g>
										<g>
											<path class="st3" d="M1342.8,749c-54.4-35.5-129.2-18.7-162.1,37.6c-30.5,52-14,120.7,36.3,153.6
												c28.4,18.7,63,23,95.2,12.6c3.8-1.3,2.3-7.3-1.7-6.1c-27,8.6-55.5,6.8-80.8-6.4c-23.9-12.4-42.8-33.8-52-59.2
												c-19.2-53.6,7.5-114.6,60.1-136.5c33.3-14,71.6-9.8,101.7,9.9C1343,756.8,1346.2,751.3,1342.8,749L1342.8,749z"/>
										</g>
									</g>
								</g>
							</g>
						</g>
					</g>
				</g>
			</g>
		</g>
	</g>
</g>
<g id="point">
	<g id="point_x5F_cat" class="st5">
		<circle class="st6" cx="559.7" cy="397.2" r="2.5"/>
		<circle class="st7" cx="559.7" cy="477" r="2.5"/>
		<circle class="st6" cx="559.7" cy="439.6" r="2.5"/>
		<circle class="st6" cx="634.5" cy="439.6" r="2.5"/>
		<circle class="st7" cx="634.5" cy="519.3" r="2.5"/>
		<circle class="st7" cx="634.5" cy="481.9" r="2.5"/>
		<circle class="st6" cx="634.5" cy="601.5" r="2.5"/>
		<circle class="st6" cx="634.5" cy="721.1" r="2.5"/>
		<circle class="st6" cx="634.5" cy="643.9" r="2.5"/>
		<circle class="st6" cx="415.2" cy="519.3" r="2.5"/>
		<circle class="st6" cx="415.3" cy="481.8" r="2.5"/>
		<circle class="st6" cx="488.7" cy="439.6" r="2.5"/>
		<circle class="st6" cx="559.7" cy="521.8" r="2.5"/>
		<circle class="st6" cx="704.2" cy="521.8" r="2.5"/>
		<circle class="st6" cx="704.2" cy="601.5" r="2.5"/>
		<circle class="st7" cx="704.2" cy="564.1" r="2.5"/>
		<circle class="st7" cx="778.9" cy="564.1" r="2.5"/>
		<circle class="st6" cx="853.7" cy="564.1" r="2.5"/>
		<circle class="st6" cx="778.9" cy="601.5" r="2.5"/>
		<circle class="st6" cx="704.2" cy="646.4" r="2.5"/>
		<circle class="st6" cx="340.5" cy="521.8" r="2.5"/>
		<circle class="st7" cx="340.5" cy="596.5" r="2.5"/>
		<circle class="st7" cx="340.5" cy="559.2" r="2.5"/>
		<circle class="st7" cx="270.8" cy="559.2" r="2.5"/>
		<circle class="st6" cx="559.7" cy="642.6" r="2.5"/>
		<circle class="st6" cx="559.7" cy="724.8" r="2.5"/>
		<circle class="st6" cx="559.7" cy="571.6" r="2.5"/>
		<circle class="st7" cx="487.5" cy="561.7" r="2.5"/>
		<circle class="st7" cx="487.5" cy="520.6" r="2.5"/>
		<circle class="st6" cx="487.6" cy="600.8" r="2.5"/>
		<circle class="st6" cx="487.5" cy="642.6" r="2.5"/>
		<circle class="st6" cx="487.5" cy="682.5" r="2.5"/>
	</g>
	<g id="point_x5F_background">
		<circle class="st8" cx="487.6" cy="600.8" r="10.6"/>
		<circle class="st8" cx="415.3" cy="481.8" r="10.6"/>
		<circle class="st9" cx="309.5" cy="287.5" r="8.5"/>
		<circle class="st10" cx="309.5" cy="287.5" r="2"/>
		<circle class="st11" cx="1039.3" cy="956.5" r="8.5"/>
		<circle class="st12" cx="1039.3" cy="956.5" r="2"/>
		<circle class="st12" cx="1045.4" cy="936.5" r="0.8"/>
		<circle class="st12" cx="1015.4" cy="959.5" r="1.6"/>
		<circle class="st12" cx="1034" cy="906.5" r="0.6"/>
		<circle class="st12" cx="1064.4" cy="926.5" r="0.5"/>
		<circle class="st12" cx="1018.1" cy="996.5" r="0.6"/>
		<circle class="st12" cx="1041.3" cy="976.5" r="0.8"/>
		<circle class="st12" cx="1059.4" cy="996.5" r="1.4"/>
		<circle class="st9" cx="341.5" cy="263.5" r="8.5"/>
		<circle class="st10" cx="341.5" cy="263.5" r="2"/>
		<circle class="st10" cx="347.7" cy="243.5" r="0.8"/>
		<circle class="st10" cx="317.7" cy="266.5" r="1.6"/>
		<circle class="st10" cx="336.2" cy="213.5" r="0.6"/>
		<circle class="st10" cx="366.7" cy="233.5" r="0.5"/>
		<circle class="st10" cx="320.4" cy="303.5" r="0.6"/>
		<circle class="st11" cx="229.5" cy="347.5" r="8.5"/>
		<circle class="st12" cx="229.5" cy="347.5" r="2"/>
		<circle class="st12" cx="237.7" cy="326.5" r="1.6"/>
		<circle class="st12" cx="240.4" cy="363.5" r="0.6"/>
		<circle class="st10" cx="343.6" cy="283.5" r="0.8"/>
		<circle class="st10" cx="361.7" cy="303.5" r="1.4"/>
	</g>
</g>
<g id="cat_x5F_square">
	<g>
		<path class="st0" d="M905.6,1339.3c-0.8-0.1-1.7-0.2-2.8-0.5s-2-0.8-2.7-1.3c-0.6-0.6-1.1-1.4-1.6-2.6c-0.5-1.1-0.7-2.4-0.7-4.1
			v-9.7c0-3,0.5-5.1,1.7-6.3c0.6-0.8,1.2-1.3,1.9-1.7c0.6-0.4,1.4-0.7,2.5-0.8c1-0.2,1.9-0.2,2.7-0.3c0.8-0.1,1.9-0.1,3.4-0.1
			c2.5,0,5,0.3,7.5,0.8v3.6c-2.9-0.8-5.6-1.1-8.1-1.1c-1.9,0-3.3,0.2-4.2,0.4c-0.9,0.3-1.5,0.8-1.8,1.4c-0.4,0.7-0.5,1.8-0.5,3.3
			v10.8c0,1.4,0.2,2.3,0.6,3c0.4,0.7,1.1,1.1,2,1.4c1,0.3,2.5,0.4,4.5,0.4c2.7,0,5.3-0.4,8-1.1v3.7c-2.5,0.5-5.3,0.8-8.4,0.8
			C907.7,1339.4,906.4,1339.4,905.6,1339.3z"/>
		<path class="st0" d="M930.5,1339.2l-10.2-26.8h5.3l7.4,21.5h0.1l6.7-21.5h4.9l-13.3,37.7h-5L930.5,1339.2z"/>
		<path class="st0" d="M956.4,1339.1c-1.2-0.2-2.3-0.6-3.5-1.1c-2.3-1.1-3.6-3.7-3.6-7.7v-29.6h4.9v7.9v3.1c0,0.9-0.1,2-0.1,3.2
			c0.2-0.8,0.9-1.5,2.3-2.1c1.4-0.5,3.4-0.8,6-0.8c7.3,0,10.9,2.5,10.9,7.5v10.8c0,1.6-0.2,3-0.7,4.1s-1.1,2-1.7,2.7
			c-0.7,0.6-1.5,1.1-2.7,1.4c-1.1,0.4-2.3,0.6-3.4,0.7c-1,0.1-2.3,0.2-3.7,0.2C959.1,1339.4,957.5,1339.3,956.4,1339.1z
			 M965.5,1335.8c1-0.3,1.7-0.8,2.1-1.5c0.5-0.8,0.7-1.8,0.7-3.3v-10.3c0-1.5-0.2-2.6-0.7-3.3c-0.5-0.8-1.1-1.2-2.1-1.4
			c-1-0.2-2.4-0.4-4.4-0.4c-1.7,0-3.2,0.2-4.2,0.5s-1.7,0.8-2.1,1.5c-0.5,0.8-0.7,1.8-0.7,3.2v10.4c0,1.5,0.2,2.6,0.6,3.3
			c0.5,0.8,1.1,1.2,2.1,1.5s2.4,0.4,4.2,0.4C963,1336.2,964.5,1336.1,965.5,1335.8z"/>
		<path class="st0" d="M979.9,1331.4v-10.5c0-3.2,0.9-5.5,2.7-6.9s4.8-2.1,8.9-2.1c3.9,0,6.7,0.7,8.4,2s2.6,3.6,2.6,7v5.8h-17.7v3.9
			c0,1.8,0.6,3.1,1.9,3.9c1.3,0.8,3.3,1.2,5.9,1.2c2.5,0,5.5-0.5,8.9-1.3v3.8c-3.3,0.8-6.5,1.1-9.5,1.1
			C983.9,1339.4,979.9,1336.7,979.9,1331.4z M997.7,1323.6v-4.2c0-1.6-0.5-2.7-1.4-3.3s-2.6-0.9-4.9-0.9c-2.3,0-3.9,0.3-4.9,0.9
			s-1.5,1.7-1.5,3.3v4.2H997.7z"/>
		<path class="st0" d="M1010,1312.5h4.6v4.3c0-0.8,0.4-1.6,1.1-2.3c0.8-0.8,1.7-1.4,2.8-1.8c1.1-0.5,2.2-0.7,3.3-0.7h2.4v4.2h-2.7
			c-2.3,0-4,0.3-5.1,0.9s-1.5,1.7-1.5,3.3v18.6h-4.9L1010,1312.5L1010,1312.5z"/>
	</g>
	<g>
		<path class="st0" d="M850.7,1579.1v-16.9c0-6.8,5-10.2,15-10.2c3.4,0,6.7,0.4,9.8,1.1v3.9c-3.5-0.9-6.7-1.3-9.7-1.3
			c-1.4,0-2.7,0.1-3.7,0.2c-1.1,0.2-2.1,0.5-3.1,0.8c-2.1,0.9-3.2,2.7-3.2,5.4v16.7c0,4.1,3.4,6.1,10.2,6.1c3,0,6.1-0.5,9.7-1.3v4.1
			c-3.1,0.7-6.4,1.1-10,1.1C855.7,1588.8,850.7,1585.5,850.7,1579.1z"/>
		<path class="st0" d="M888.3,1588.5c-1.1-0.2-2.3-0.5-3.5-1.1c-1.2-0.5-2.1-1.4-2.7-2.7s-0.8-2.9-0.8-5v-9.2c0-1.7,0.2-3.1,0.6-4.3
			s0.9-2.2,1.6-2.9c0.5-0.6,1.4-1.1,2.5-1.4c1.1-0.4,2.3-0.6,3.4-0.7c1.3-0.1,2.7-0.1,4.1-0.1c1.9,0,3.3,0.1,4.3,0.2s2,0.3,3.1,0.6
			c1.1,0.3,2,0.8,2.7,1.5s1.1,1.6,1.6,2.9c0.4,1.3,0.6,2.7,0.6,4.5v9.2c0,3.1-0.7,5.4-2.1,6.8c-0.6,0.6-1.4,1.1-2.5,1.4
			s-2.2,0.5-3.4,0.7c-1.4,0.1-2.8,0.1-4.2,0.1C891.3,1588.8,889.6,1588.7,888.3,1588.5z M897,1585.4c0.7-0.1,1.4-0.3,2-0.6
			c0.7-0.3,1.1-0.8,1.4-1.4c0.3-0.7,0.4-1.6,0.4-2.8v-10.8c0-1.7-0.2-2.9-0.6-3.6c-0.4-0.8-1.1-1.2-2-1.5c-1-0.2-2.5-0.4-4.5-0.4
			s-3.6,0.2-4.5,0.4c-1,0.2-1.7,0.8-2,1.5c-0.4,0.8-0.6,2-0.6,3.6v10.8c0,1.2,0.2,2.1,0.4,2.8c0.3,0.7,0.8,1.1,1.4,1.4
			c0.7,0.3,1.4,0.5,2,0.6c0.7,0.1,1.8,0.1,3.3,0.1C895.2,1585.5,896.3,1585.5,897,1585.4z"/>
		<path class="st0" d="M913.6,1561.6h4.9v3.3c0.5-2.5,3.4-3.8,8.7-3.8c3.4,0,5.8,0.6,7.2,1.8c1.4,1.2,2,3.2,2,5.8v19.5h-4.9V1569
			c0-0.7-0.1-1.3-0.2-1.7c-0.1-0.5-0.3-0.9-0.7-1.3c-0.8-0.9-2.3-1.4-4.9-1.4c-2,0-3.4,0.2-4.5,0.4c-1.1,0.3-1.7,0.8-2.2,1.4
			s-0.6,1.5-0.6,2.7v19.3h-4.9L913.6,1561.6L913.6,1561.6z"/>
		<path class="st0" d="M945.9,1599.7v-3.5c4.4,0.5,7.6,0.8,9.6,0.8c2.5,0,4.4-0.4,5.5-1.2c1.1-0.8,1.7-2.1,1.7-4v-6.4
			c-0.1,1.1-0.8,2-2.4,2.6c-1.5,0.5-3.4,0.8-5.8,0.8c-2.7,0-4.9-0.2-6.4-0.8c-1.5-0.5-2.6-1.4-3.3-2.5c-0.6-1.1-1-2.7-1-4.8v-10.8
			c0-3.2,0.8-5.4,2.6-6.7c1.7-1.4,4.5-2,8.4-2c4.6,0,7.4,1.1,8.1,3.1v-2.6h4.6v29.1c0,2.4-0.5,4.4-1.4,5.8s-2.3,2.3-4.1,3
			c-1.8,0.5-4.2,0.8-7.1,0.8C951.5,1600.3,948.4,1600.1,945.9,1599.7z M961.3,1584.5c1.1-0.6,1.6-1.8,1.6-3.5v-12
			c0-1.2-0.2-2.1-0.6-2.7s-1.1-1.1-2.1-1.4s-2.5-0.4-4.5-0.4c-1.9,0-3.3,0.2-4.2,0.4s-1.6,0.7-1.9,1.4c-0.4,0.6-0.5,1.6-0.5,2.8
			v12.1c0,1.2,0.2,2.2,0.5,2.8c0.4,0.6,1.1,1.1,2,1.3c1,0.2,2.3,0.4,4.2,0.4C958.3,1585.4,960.2,1585.1,961.3,1584.5z"/>
		<path class="st0" d="M976.3,1561.6h4.7v4.3c0-0.8,0.4-1.7,1.1-2.4c0.8-0.8,1.7-1.4,2.8-1.8c1.1-0.5,2.3-0.7,3.3-0.7h2.4v4.2h-2.7
			c-2.3,0-4,0.3-5.1,0.9s-1.6,1.7-1.6,3.3v18.7h-4.9V1561.6L976.3,1561.6z"/>
		<path class="st0" d="M994.6,1580.7v-10.5c0-3.3,0.9-5.5,2.8-7c1.8-1.4,4.9-2.1,9-2.1c3.9,0,6.7,0.7,8.5,2c1.7,1.4,2.6,3.7,2.6,7
			v5.9h-17.9v4c0,1.8,0.6,3.2,1.9,3.9c1.3,0.8,3.3,1.2,5.9,1.2c2.5,0,5.5-0.5,8.9-1.3v3.8c-3.3,0.8-6.6,1.1-9.6,1.1
			C998.7,1588.8,994.6,1586,994.6,1580.7z M1012.5,1572.8v-4.2c0-1.6-0.5-2.7-1.4-3.3c-1-0.6-2.7-0.9-5-0.9s-3.9,0.3-4.9,0.9
			c-1.1,0.6-1.5,1.7-1.5,3.3v4.2H1012.5z"/>
		<path class="st0" d="M1024,1588.1v-3.8c4.3,0.7,7.4,1.1,9.2,1.1c2.3,0,4-0.2,5.1-0.7s1.5-1.3,1.5-2.6v-2.7c0-1.1-0.4-2-1.1-2.4
			c-0.8-0.5-2-0.7-3.7-0.7h-3c-2.7,0-4.9-0.5-6.3-1.7c-1.4-1.1-2.2-2.7-2.2-4.8v-2.5c0-4.2,3.9-6.3,11.9-6.3c0.6,0,3.3,0.2,8.1,0.5
			v3.6c-3.3-0.5-6-0.8-8.3-0.8c-2.6,0-4.4,0.2-5.3,0.8c-1,0.5-1.4,1.4-1.4,2.6v2.3c0,1.8,1.6,2.7,4.9,2.7h3.1c5.6,0,8.4,2.1,8.4,6.3
			v2.3c0,2.7-1,4.7-2.9,5.8c-1.9,1.1-4.9,1.7-8.7,1.7C1030.3,1588.8,1027.3,1588.5,1024,1588.1z"/>
		<path class="st0" d="M1050.5,1588.1v-3.8c4.3,0.7,7.4,1.1,9.2,1.1c2.3,0,4-0.2,5.1-0.7s1.5-1.3,1.5-2.6v-2.7c0-1.1-0.4-2-1.1-2.4
			c-0.8-0.5-2-0.7-3.7-0.7h-3c-2.7,0-4.9-0.5-6.3-1.7c-1.4-1.1-2.2-2.7-2.2-4.8v-2.5c0-4.2,3.9-6.3,11.9-6.3c0.6,0,3.3,0.2,8.1,0.5
			v3.6c-3.3-0.5-6-0.8-8.3-0.8c-2.6,0-4.4,0.2-5.3,0.8c-1,0.5-1.4,1.4-1.4,2.6v2.3c0,1.8,1.6,2.7,4.9,2.7h3.1c5.6,0,8.4,2.1,8.4,6.3
			v2.3c0,2.7-1,4.7-2.9,5.8c-1.9,1.1-4.9,1.7-8.7,1.7C1056.8,1588.8,1053.8,1588.5,1050.5,1588.1z"/>
	</g>
	<g id="Layer_6_10_">
		<g>
			<g>
				<path class="st13" d="M953.8,1506.6l8.9-30.5c-12.7-1.4-26.1-6.4-26.1-28.4c0-6.3,2.3-11.4,5.9-15.4c-0.6-1.4-2.6-7.3,0.5-15.2
					c0,0,4.9-1.5,15.8,5.9c4.5-1.3,9.5-1.9,14.4-2c4.9,0,9.8,0.7,14.4,2c11-7.4,15.8-5.9,15.8-5.9c3.1,7.9,1.1,13.7,0.6,15.2
					c3.7,4,5.9,9.2,5.9,15.4c0,22.1-13.4,26.9-26.2,28.3l8.6,31l-18.9,3.2L953.8,1506.6z"/>
				<g>
					<g>
						<path class="st13" d="M1007.4,1399.6c-29.2-19-69.3-10-86.9,20.2c-16.4,27.9-7.5,64.7,19.5,82.4c15.2,10,33.8,12.4,51.1,6.7
							c2-0.7,1.2-3.9-0.9-3.3c-14.5,4.6-29.8,3.6-43.4-3.4c-12.8-6.7-23-18.1-27.9-31.8c-10.3-28.7,4-61.5,32.2-73.2
							c17.9-7.5,38.4-5.2,54.6,5.3C1007.5,1403.8,1009.2,1400.8,1007.4,1399.6L1007.4,1399.6z"/>
					</g>
				</g>
			</g>
		</g>
	</g>
</g>
<g id="cat_x5F_black">
	<g id="Layer_2_3_">
		<g>
			<path class="st14" d="M71.4,1483.9c-0.8-0.1-1.7-0.2-2.8-0.5c-1.1-0.3-2-0.8-2.7-1.3c-0.6-0.6-1.1-1.4-1.6-2.6
				c-0.5-1.1-0.7-2.4-0.7-4.1v-9.7c0-3,0.5-5.1,1.7-6.3c0.6-0.8,1.2-1.3,1.9-1.7c0.6-0.4,1.4-0.7,2.5-0.8c1-0.2,1.9-0.2,2.7-0.3
				c0.8-0.1,1.9-0.1,3.4-0.1c2.5,0,5,0.3,7.5,0.8v3.6c-2.9-0.8-5.6-1.1-8.1-1.1c-1.9,0-3.3,0.2-4.2,0.4c-0.9,0.3-1.5,0.8-1.8,1.4
				c-0.4,0.7-0.5,1.8-0.5,3.3v10.8c0,1.4,0.2,2.3,0.6,3s1.1,1.1,2,1.4c1,0.3,2.5,0.4,4.5,0.4c2.7,0,5.3-0.4,8-1.1v3.7
				c-2.5,0.5-5.3,0.8-8.4,0.8C73.5,1483.9,72.2,1483.9,71.4,1483.9z"/>
			<path class="st14" d="M96.3,1483.8L86.1,1457h5.3l7.4,21.5h0.1l6.7-21.5h4.9l-13.3,37.7h-5L96.3,1483.8z"/>
			<path class="st14" d="M122.2,1483.6c-1.2-0.2-2.3-0.6-3.5-1.1c-2.3-1.1-3.6-3.7-3.6-7.7v-29.6h4.9v7.9v3.1c0,0.9-0.1,2-0.1,3.2
				c0.2-0.8,0.9-1.5,2.3-2.1c1.4-0.5,3.4-0.8,6-0.8c7.3,0,10.9,2.5,10.9,7.5v10.8c0,1.6-0.2,3-0.7,4.1s-1.1,2-1.7,2.7
				c-0.7,0.6-1.5,1.1-2.7,1.4c-1.1,0.4-2.3,0.6-3.4,0.7c-1,0.1-2.3,0.2-3.7,0.2C124.9,1483.9,123.3,1483.9,122.2,1483.6z
				 M131.3,1480.3c1-0.3,1.7-0.8,2.1-1.5c0.5-0.8,0.7-1.8,0.7-3.3v-10.3c0-1.5-0.2-2.6-0.7-3.3c-0.5-0.8-1.1-1.2-2.1-1.4
				c-1-0.2-2.4-0.4-4.4-0.4c-1.7,0-3.2,0.2-4.2,0.5s-1.7,0.8-2.1,1.5c-0.5,0.8-0.7,1.8-0.7,3.2v10.4c0,1.5,0.2,2.6,0.6,3.3
				c0.5,0.8,1.1,1.2,2.1,1.5s2.4,0.4,4.2,0.4C128.8,1480.8,130.3,1480.6,131.3,1480.3z"/>
			<path class="st14" d="M145.7,1475.9v-10.5c0-3.2,0.9-5.5,2.7-6.9s4.8-2.1,8.9-2.1c3.9,0,6.7,0.7,8.4,2c1.7,1.4,2.6,3.6,2.6,7v5.8
				h-17.7v3.9c0,1.8,0.6,3.1,1.9,3.9c1.3,0.8,3.3,1.2,5.9,1.2c2.5,0,5.5-0.5,8.9-1.3v3.8c-3.3,0.8-6.5,1.1-9.5,1.1
				C149.7,1483.9,145.7,1481.3,145.7,1475.9z M163.5,1468.1v-4.2c0-1.6-0.5-2.7-1.4-3.3s-2.6-0.9-4.9-0.9c-2.3,0-3.9,0.3-4.9,0.9
				s-1.5,1.7-1.5,3.3v4.2H163.5z"/>
			<path class="st14" d="M175.8,1457h4.6v4.3c0-0.8,0.4-1.6,1.1-2.3c0.8-0.8,1.7-1.4,2.8-1.8s2.2-0.7,3.3-0.7h2.4v4.2h-2.7
				c-2.3,0-4,0.3-5.1,0.9s-1.5,1.7-1.5,3.3v18.6h-4.9L175.8,1457L175.8,1457z"/>
		</g>
		<g>
			<path class="st14" d="M354,1473v-17c0-6.8,5-10.2,15-10.2c3.4,0,6.7,0.4,9.8,1.1v3.9c-3.5-0.9-6.7-1.3-9.7-1.3
				c-1.4,0-2.7,0.1-3.7,0.2s-2.1,0.5-3.1,0.8c-2.1,0.9-3.2,2.7-3.2,5.4v16.7c0,4.1,3.4,6.1,10.2,6.1c3,0,6.1-0.5,9.7-1.3v4.1
				c-3.1,0.7-6.4,1.1-10,1.1C359,1482.7,354,1479.4,354,1473z"/>
			<path class="st14" d="M391.7,1482.4c-1.1-0.2-2.3-0.5-3.5-1.1c-1.2-0.5-2.1-1.4-2.7-2.7c-0.5-1.2-0.8-2.9-0.8-5v-9.2
				c0-1.7,0.2-3.1,0.6-4.3c0.4-1.2,0.9-2.2,1.6-2.9c0.5-0.6,1.4-1.1,2.5-1.4c1.1-0.4,2.3-0.6,3.4-0.7c1.3-0.1,2.7-0.1,4.1-0.1
				c1.9,0,3.3,0.1,4.3,0.2s2,0.3,3.1,0.6c1.1,0.3,2,0.8,2.7,1.5s1.1,1.6,1.6,2.9c0.4,1.3,0.6,2.7,0.6,4.5v9.2c0,3.1-0.7,5.4-2.1,6.8
				c-0.6,0.6-1.4,1.1-2.5,1.4s-2.2,0.5-3.4,0.7c-1.4,0.1-2.8,0.1-4.2,0.1C394.6,1482.7,392.9,1482.6,391.7,1482.4z M400.3,1479.3
				c0.7-0.1,1.4-0.3,2-0.6c0.7-0.3,1.1-0.8,1.4-1.4c0.3-0.7,0.4-1.6,0.4-2.8v-10.8c0-1.7-0.2-2.9-0.6-3.6c-0.4-0.8-1.1-1.2-2-1.5
				c-1-0.2-2.5-0.4-4.5-0.4s-3.6,0.2-4.5,0.4c-1,0.2-1.7,0.8-2,1.5s-0.6,2-0.6,3.6v10.8c0,1.2,0.2,2.1,0.4,2.8
				c0.3,0.7,0.8,1.1,1.4,1.4c0.7,0.3,1.4,0.5,2,0.6c0.7,0.1,1.8,0.1,3.3,0.1C398.5,1479.4,399.7,1479.4,400.3,1479.3z"/>
			<path class="st14" d="M416.9,1455.5h4.9v3.3c0.5-2.5,3.4-3.8,8.7-3.8c3.4,0,5.8,0.6,7.2,1.8c1.4,1.2,2,3.2,2,5.8v19.5h-4.9v-19.2
				c0-0.7-0.1-1.3-0.2-1.7c-0.1-0.5-0.3-0.9-0.7-1.3c-0.8-0.9-2.3-1.4-4.9-1.4c-2,0-3.4,0.2-4.5,0.4c-1.1,0.3-1.7,0.8-2.2,1.4
				s-0.6,1.5-0.6,2.7v19.3h-4.9L416.9,1455.5L416.9,1455.5z"/>
			<path class="st14" d="M449.3,1493.6v-3.5c4.4,0.5,7.6,0.8,9.6,0.8c2.5,0,4.4-0.4,5.5-1.2c1.1-0.8,1.7-2.1,1.7-4v-6.4
				c-0.1,1.1-0.8,2-2.4,2.6c-1.5,0.5-3.4,0.8-5.8,0.8c-2.7,0-4.9-0.2-6.4-0.8c-1.5-0.5-2.6-1.4-3.3-2.5c-0.6-1.1-1-2.7-1-4.8v-10.8
				c0-3.2,0.8-5.4,2.6-6.7c1.7-1.4,4.5-2,8.4-2c4.6,0,7.4,1.1,8.1,3.1v-2.6h4.6v29.1c0,2.4-0.5,4.4-1.4,5.8s-2.3,2.3-4.1,3
				c-1.8,0.5-4.2,0.8-7.1,0.8C454.8,1494.2,451.8,1493.9,449.3,1493.6z M464.6,1478.4c1.1-0.6,1.6-1.8,1.6-3.5v-12.1
				c0-1.2-0.2-2.1-0.6-2.7s-1.1-1.1-2.1-1.4c-1.1-0.3-2.5-0.4-4.5-0.4c-1.9,0-3.3,0.2-4.2,0.4c-0.9,0.2-1.6,0.7-1.9,1.4
				c-0.4,0.6-0.5,1.6-0.5,2.8v12.1c0,1.2,0.2,2.2,0.5,2.8s1.1,1.1,2,1.3c1,0.2,2.3,0.4,4.2,0.4
				C461.6,1479.3,463.5,1479,464.6,1478.4z"/>
			<path class="st14" d="M479.7,1455.5h4.7v4.3c0-0.8,0.4-1.7,1.1-2.4c0.8-0.8,1.7-1.4,2.8-1.8c1.1-0.5,2.3-0.7,3.3-0.7h2.4v4.2
				h-2.7c-2.3,0-4,0.3-5.1,0.9s-1.6,1.7-1.6,3.3v18.7h-4.9L479.7,1455.5L479.7,1455.5z"/>
			<path class="st14" d="M498,1474.5V1464c0-3.3,0.9-5.5,2.8-7c1.8-1.4,4.9-2.1,9-2.1c3.9,0,6.7,0.7,8.5,2s2.6,3.7,2.6,7v5.9H503v4
				c0,1.8,0.6,3.2,1.9,3.9c1.3,0.8,3.3,1.2,5.9,1.2c2.5,0,5.5-0.5,8.9-1.3v3.8c-3.3,0.8-6.6,1.1-9.6,1.1
				C502,1482.7,498,1479.9,498,1474.5z M515.8,1466.7v-4.2c0-1.6-0.5-2.7-1.4-3.3c-1-0.6-2.7-0.9-5-0.9s-3.9,0.3-4.9,0.9
				c-1.1,0.6-1.5,1.7-1.5,3.3v4.2H515.8z"/>
			<path class="st14" d="M527.4,1482v-3.8c4.3,0.7,7.4,1.1,9.2,1.1c2.3,0,4-0.2,5.1-0.7s1.5-1.3,1.5-2.6v-2.7c0-1.1-0.4-2-1.1-2.4
				s-2-0.7-3.7-0.7h-3c-2.7,0-4.9-0.5-6.3-1.7c-1.4-1.1-2.2-2.7-2.2-4.8v-2.5c0-4.2,3.9-6.3,11.9-6.3c0.6,0,3.3,0.2,8.1,0.5v3.6
				c-3.3-0.5-6-0.8-8.3-0.8c-2.6,0-4.4,0.2-5.3,0.8c-1,0.5-1.4,1.4-1.4,2.6v2.3c0,1.8,1.6,2.7,4.9,2.7h3.1c5.6,0,8.4,2.1,8.4,6.3
				v2.3c0,2.7-1,4.7-2.9,5.8c-1.9,1.1-4.9,1.7-8.7,1.7C533.7,1482.7,530.6,1482.4,527.4,1482z"/>
			<path class="st14" d="M553.9,1482v-3.8c4.3,0.7,7.4,1.1,9.2,1.1c2.3,0,4-0.2,5.1-0.7s1.5-1.3,1.5-2.6v-2.7c0-1.1-0.4-2-1.1-2.4
				s-2-0.7-3.7-0.7h-3c-2.7,0-4.9-0.5-6.3-1.7c-1.4-1.1-2.2-2.7-2.2-4.8v-2.5c0-4.2,3.9-6.3,11.9-6.3c0.6,0,3.3,0.2,8.1,0.5v3.6
				c-3.3-0.5-6-0.8-8.3-0.8c-2.6,0-4.4,0.2-5.3,0.8c-1,0.5-1.4,1.4-1.4,2.6v2.3c0,1.8,1.6,2.7,4.9,2.7h3.1c5.6,0,8.4,2.1,8.4,6.3
				v2.3c0,2.7-1,4.7-2.9,5.8c-1.9,1.1-4.9,1.7-8.7,1.7C560.2,1482.7,557.1,1482.4,553.9,1482z"/>
		</g>
	</g>
	<g id="Layer_6_7_">
		<g>
			<g>
				<path class="st14" d="M266.3,1515.3l8.9-30.5c-12.7-1.4-26.1-6.4-26.1-28.4c0-6.3,2.3-11.4,5.9-15.4c-0.6-1.4-2.6-7.3,0.5-15.2
					c0,0,4.9-1.5,15.8,5.9c4.5-1.3,9.5-1.9,14.4-2c4.9,0,9.8,0.7,14.4,2c11-7.4,15.8-5.9,15.8-5.9c3.1,7.9,1.1,13.7,0.6,15.2
					c3.7,4,5.9,9.2,5.9,15.4c0,22.1-13.4,26.9-26.2,28.3l8.6,31l-18.9,3.2L266.3,1515.3z"/>
				<g>
					<g>
						<path class="st14" d="M319.9,1408.3c-29.2-19-69.3-10-86.9,20.2c-16.4,27.9-7.5,64.7,19.5,82.4c15.2,10,33.8,12.4,51.1,6.7
							c2-0.7,1.2-3.9-0.9-3.3c-14.5,4.6-29.8,3.6-43.4-3.4c-12.8-6.7-23-18.1-27.9-31.8c-10.3-28.7,4-61.5,32.2-73.2
							c17.9-7.5,38.4-5.2,54.6,5.3C319.9,1412.5,321.7,1409.5,319.9,1408.3L319.9,1408.3z"/>
					</g>
				</g>
			</g>
		</g>
	</g>
</g>
<g id="cat">
	<g>
		<g id="Layer_2_2_">
			<g>
				<path class="st0" d="M232.2,597.8c-1.4-0.1-2.9-0.4-4.6-0.9c-1.9-0.5-3.2-1.2-4.4-2.1c-1-1-1.9-2.4-2.6-4.2
					c-0.7-1.7-1.1-4-1.1-6.7V568c0-4.9,0.9-8.3,2.7-10.3c1-1.2,2-2.1,3.1-2.7c1-0.6,2.4-1.1,4.1-1.2c1.6-0.2,3.1-0.4,4.5-0.5
					s3.1-0.1,5.6-0.1c4.1,0,8.2,0.5,12.3,1.4v5.9c-4.7-1.2-9.2-1.7-13.3-1.7c-3.1,0-5.4,0.2-6.9,0.6c-1.5,0.5-2.5,1.2-3,2.4
					c-0.6,1.1-0.9,3-0.9,5.4v17.7c0,2.2,0.4,3.9,1,5s1.7,1.9,3.4,2.2c1.6,0.5,4.1,0.6,7.3,0.6c4.4,0,8.7-0.6,13.1-1.7v6.1
					c-4.1,0.9-8.7,1.2-13.8,1.2C235.6,598,233.5,598,232.2,597.8z"/>
				<path class="st0" d="M273.1,597.7l-16.8-44h8.7l12.1,35.4h0.1l11-35.4h8.1l-21.8,62h-8.2L273.1,597.7z"/>
				<path class="st0" d="M315.6,597.5c-2-0.4-3.9-1-5.7-1.9c-3.9-1.9-5.9-6.1-5.9-12.7v-48.6h8.1v13v5.1c0,1.5-0.1,3.2-0.1,5.2
					c0.2-1.4,1.5-2.5,3.7-3.5c2.2-0.9,5.6-1.4,9.8-1.4c12,0,17.9,4.1,17.9,12.3v17.8c0,2.6-0.4,4.9-1.1,6.7
					c-0.7,1.9-1.7,3.4-2.9,4.5c-1.1,1-2.5,1.9-4.5,2.4c-1.9,0.6-3.7,1-5.6,1.1c-1.6,0.1-3.7,0.2-6.1,0.2
					C320.1,598,317.5,597.8,315.6,597.5z M330.7,592c1.6-0.5,2.9-1.2,3.5-2.5c0.7-1.2,1.1-3,1.1-5.5v-16.9c0-2.5-0.4-4.2-1.1-5.5
					c-0.7-1.2-1.9-2-3.5-2.4s-4-0.6-7.2-0.6c-2.9,0-5.2,0.2-6.9,0.7c-1.6,0.5-2.7,1.4-3.5,2.5c-0.7,1.2-1.1,3-1.1,5.2v17.1
					c0,2.5,0.4,4.2,1,5.5c0.7,1.2,1.9,2,3.5,2.5s4,0.6,7,0.6C326.6,592.7,328.9,592.5,330.7,592z"/>
				<path class="st0" d="M354.2,584.8v-17.2c0-5.2,1.5-9.1,4.5-11.3s7.8-3.5,14.7-3.5c6.4,0,11,1.1,13.8,3.4s4.2,6,4.2,11.5v9.6
					h-29.1v6.5c0,3,1,5.1,3.1,6.5s5.4,2,9.7,2c4.1,0,9-0.7,14.6-2.1v6.2c-5.5,1.2-10.7,1.7-15.7,1.7
					C360.8,598,354.2,593.6,354.2,584.8z M383.5,571.9V565c0-2.6-0.7-4.5-2.4-5.5c-1.6-1-4.2-1.5-8.1-1.5c-3.7,0-6.4,0.5-8.1,1.5
					c-1.6,1-2.5,2.7-2.5,5.5v6.9H383.5z"/>
				<path class="st0" d="M403.8,553.8h7.6v7.1c0-1.4,0.6-2.6,1.7-3.9c1.2-1.2,2.7-2.2,4.6-3c1.9-0.7,3.6-1.1,5.5-1.1h4v6.9h-4.5
					c-3.9,0-6.6,0.5-8.3,1.5c-1.7,1-2.5,2.7-2.5,5.4v30.5h-8.1L403.8,553.8L403.8,553.8z"/>
			</g>
			<g>
				<path class="st0" d="M696.6,579.9v-27.8c0-11.2,8.2-16.8,24.7-16.8c5.6,0,11,0.6,16.1,1.7v6.5c-5.7-1.5-11.1-2.1-15.9-2.1
					c-2.4,0-4.4,0.1-6.1,0.4s-3.5,0.7-5.1,1.4c-3.5,1.5-5.2,4.5-5.2,8.8v27.4c0,6.7,5.6,10.1,16.8,10.1c4.9,0,10.1-0.7,15.9-2.1v6.7
					c-5.1,1.1-10.6,1.7-16.4,1.7C704.8,595.9,696.6,590.5,696.6,579.9z"/>
				<path class="st0" d="M758.5,595.5c-1.9-0.2-3.9-0.9-5.7-1.7c-2-0.9-3.5-2.4-4.4-4.4s-1.4-4.7-1.4-8.2V566c0-2.7,0.4-5.1,1-7.1
					s1.5-3.6,2.6-4.7c0.9-1,2.2-1.9,4.1-2.4c1.9-0.6,3.7-1,5.6-1.1c2.1-0.1,4.5-0.1,6.7-0.1c3.1,0,5.5,0.1,7.1,0.2
					c1.6,0.1,3.2,0.5,5.1,1s3.4,1.4,4.4,2.5s1.9,2.6,2.6,4.7c0.6,2.1,1,4.5,1,7.3v15.2c0,5.1-1.1,8.8-3.5,11.2c-1,1-2.4,1.7-4.1,2.2
					c-1.7,0.5-3.6,0.9-5.6,1.1c-2.2,0.1-4.6,0.1-6.9,0.1C763.4,595.9,760.5,595.7,758.5,595.5z M772.7,590.4c1.1-0.1,2.2-0.5,3.4-1
					c1.1-0.5,1.9-1.2,2.2-2.4c0.5-1.1,0.6-2.6,0.6-4.6v-17.8c0-2.7-0.4-4.7-1-5.9s-1.7-2-3.4-2.5c-1.6-0.4-4.1-0.6-7.5-0.6
					s-5.9,0.2-7.5,0.6c-1.6,0.4-2.7,1.2-3.4,2.5c-0.6,1.2-1,3.2-1,5.9v17.7c0,2,0.2,3.5,0.6,4.6c0.5,1.1,1.2,1.9,2.2,2.4
					c1.1,0.5,2.2,0.9,3.4,1c1.1,0.1,3,0.1,5.5,0.1C769.7,590.5,771.6,590.5,772.7,590.4z"/>
				<path class="st0" d="M800,551.3h8.1v5.4c0.9-4.1,5.6-6.2,14.3-6.2c5.6,0,9.5,1,11.8,3c2.2,2,3.4,5.2,3.4,9.5v32h-8.1v-31.5
					c0-1.1-0.1-2.1-0.2-2.7c-0.1-0.7-0.5-1.5-1.1-2.1c-1.2-1.5-3.9-2.2-8.1-2.2c-3.2,0-5.6,0.2-7.3,0.6c-1.7,0.5-2.9,1.2-3.6,2.2
					c-0.7,1-1,2.5-1,4.4v31.6H800V551.3L800,551.3z"/>
				<path class="st0" d="M853.2,613.8v-5.7c7.2,0.9,12.5,1.2,15.8,1.2c4.1,0,7.2-0.6,9.1-2s2.9-3.5,2.9-6.6v-10.5
					c-0.1,1.9-1.4,3.4-4,4.2c-2.5,0.9-5.6,1.4-9.5,1.4c-4.5,0-8-0.4-10.5-1.2s-4.2-2.2-5.4-4.1c-1-1.9-1.6-4.5-1.6-7.8v-17.8
					c0-5.2,1.4-8.8,4.2-11.1c2.7-2.2,7.3-3.4,13.8-3.4c7.6,0,12.1,1.7,13.3,5.1v-4.2h7.6v47.8c0,4-0.7,7.2-2.2,9.5
					c-1.5,2.2-3.7,3.9-6.7,4.9c-3,0.9-7,1.4-11.7,1.4C862.3,614.8,857.3,614.4,853.2,613.8z M878.3,588.9c1.7-1,2.6-3,2.6-5.7v-19.8
					c0-2-0.4-3.5-1-4.5s-1.7-1.7-3.5-2.2c-1.7-0.5-4.1-0.6-7.3-0.6c-3.1,0-5.4,0.2-6.9,0.6c-1.5,0.4-2.6,1.1-3.1,2.2
					c-0.6,1-0.9,2.6-0.9,4.6v19.8c0,2,0.2,3.6,0.9,4.6c0.6,1,1.7,1.7,3.2,2.1c1.6,0.4,3.9,0.6,7,0.6
					C873.5,590.4,876.6,589.9,878.3,588.9z"/>
				<path class="st0" d="M903.1,551.3h7.7v7.1c0-1.4,0.6-2.7,1.7-4c1.2-1.2,2.7-2.2,4.6-3c1.9-0.7,3.7-1.1,5.5-1.1h4v7h-4.5
					c-3.9,0-6.6,0.5-8.3,1.5s-2.6,2.7-2.6,5.4V595h-8.1L903.1,551.3L903.1,551.3z"/>
				<path class="st0" d="M933.2,582.5v-17.3c0-5.4,1.5-9.1,4.6-11.5c3-2.4,8-3.5,14.8-3.5c6.5,0,11.1,1.1,14,3.4
					c2.9,2.2,4.2,6.1,4.2,11.6v9.7h-29.4v6.6c0,3,1,5.2,3.1,6.5c2.1,1.4,5.4,2,9.7,2c4.1,0,9.1-0.7,14.7-2.1v6.2
					c-5.5,1.2-10.8,1.7-15.8,1.7C939.9,595.9,933.2,591.4,933.2,582.5z M962.5,569.6v-6.9c0-2.6-0.7-4.5-2.4-5.5
					c-1.6-1-4.4-1.5-8.2-1.5c-3.7,0-6.5,0.5-8.1,1.5c-1.7,1-2.5,2.9-2.5,5.5v6.9H962.5z"/>
				<path class="st0" d="M981.5,594.7v-6.2c7.1,1.1,12.1,1.7,15.2,1.7c3.9,0,6.6-0.4,8.3-1.1c1.7-0.7,2.5-2.1,2.5-4.2v-4.5
					c0-1.9-0.6-3.2-1.9-4c-1.2-0.7-3.4-1.1-6.1-1.1h-5c-4.5,0-8-0.9-10.3-2.7c-2.4-1.9-3.6-4.5-3.6-7.8v-4.1
					c0-6.9,6.5-10.3,19.6-10.3c1,0,5.4,0.2,13.3,0.7v5.9c-5.4-0.9-9.8-1.2-13.6-1.2c-4.2,0-7.2,0.4-8.7,1.2
					c-1.6,0.9-2.4,2.2-2.4,4.2v3.7c0,3,2.6,4.5,8.1,4.5h5.1c9.2,0,13.8,3.5,13.8,10.3v3.7c0,4.5-1.6,7.7-4.7,9.6
					c-3.1,1.9-8,2.9-14.3,2.9C991.8,595.9,986.8,595.5,981.5,594.7z"/>
				<path class="st0" d="M1025.1,594.7v-6.2c7.1,1.1,12.1,1.7,15.2,1.7c3.9,0,6.6-0.4,8.3-1.1c1.7-0.7,2.5-2.1,2.5-4.2v-4.5
					c0-1.9-0.6-3.2-1.9-4c-1.2-0.7-3.4-1.1-6.1-1.1h-5c-4.5,0-8-0.9-10.3-2.7c-2.4-1.9-3.6-4.5-3.6-7.8v-4.1
					c0-6.9,6.5-10.3,19.6-10.3c1,0,5.4,0.2,13.3,0.7v5.9c-5.4-0.9-9.8-1.2-13.6-1.2c-4.2,0-7.2,0.4-8.7,1.2
					c-1.6,0.9-2.4,2.2-2.4,4.2v3.7c0,3,2.6,4.5,8.1,4.5h5.1c9.2,0,13.8,3.5,13.8,10.3v3.7c0,4.5-1.6,7.7-4.7,9.6
					c-3.1,1.9-8,2.9-14.3,2.9C1035.4,595.9,1030.4,595.5,1025.1,594.7z"/>
			</g>
		</g>
		<g id="Layer_6_9_">
			<g>
				<g>
					<path class="st13" d="M552.4,649.5l14.6-50.1c-20.9-2.4-43-10.5-43-46.7c0-10.3,3.7-18.7,9.7-25.3c-1-2.4-4.2-12,0.9-25
						c0,0,8-2.5,25.9,9.7c7.5-2.1,15.6-3.1,23.7-3.2c8,0,16.1,1.1,23.7,3.2c18.1-12.2,25.9-9.7,25.9-9.7c5.1,13,1.9,22.5,1,25
						c6.1,6.6,9.7,15.1,9.7,25.3c0,36.2-22,44.2-43.1,46.6l14.1,50.9l-31.1,5.2L552.4,649.5z"/>
					<g>
						<g>
							<path class="st13" d="M640.5,473.7c-48-31.3-113.8-16.4-142.9,33.1c-26.9,45.8-12.3,106.4,32,135.4
								c25,16.4,55.6,20.3,84,11.1c3.4-1.1,2-6.5-1.5-5.4c-23.8,7.6-49,6-71.2-5.6c-21-11-37.7-29.8-45.8-52.2
								c-16.9-47.2,6.6-101,52.9-120.3c29.4-12.3,63.1-8.6,89.7,8.7C640.6,480.5,643.5,475.7,640.5,473.7L640.5,473.7z"/>
						</g>
					</g>
				</g>
			</g>
		</g>
	</g>
</g>
</svg>
