<?xml version="1.0" encoding="utf-8"?>
<!-- Generator: Adobe Illustrator 22.1.0, SVG Export Plug-In . SVG Version: 6.00 Build 0)  -->
<svg version="1.1" xmlns="http://www.w3.org/2000/svg" xmlns:xlink="http://www.w3.org/1999/xlink" x="0px" y="0px"
	 viewBox="0 0 890 160" style="enable-background:new 0 0 890 160;" xml:space="preserve">
<style type="text/css">
	.st0{display:none;}
	.st1{display:inline;opacity:0.45;}
	.st2{opacity:7.000000e-02;clip-path:url(#SVGID_2_);}
	.st3{fill:#C1C1C1;}
	.st4{opacity:7.000000e-02;clip-path:url(#SVGID_4_);}
	.st5{display:inline;opacity:0.5;}
	.st6{fill:#FCFCFC;}
	.st7{display:none;fill:#FCFCFC;}
	.st8{display:inline;}
	.st9{fill:none;stroke:#686868;stroke-width:0.25;stroke-miterlimit:10;}
	.st10{opacity:0.15;fill:none;stroke:#686868;stroke-width:0.25;stroke-miterlimit:10;enable-background:new    ;}
	.st11{opacity:0.15;fill:#FCFCFC;enable-background:new    ;}
	.st12{opacity:0.3;fill:none;stroke:#686868;stroke-width:0.25;stroke-miterlimit:10;enable-background:new    ;}
	.st13{opacity:0.3;fill:#FCFCFC;enable-background:new    ;}
	.st14{fill:#FFFFFF;}
	.st15{fill:#34FF10;}
	.st16{fill:#0D0F12;}
	.st17{fill:#32FF10;}
	.st18{opacity:0.24;}
	
		.st19{opacity:0.36;fill:none;stroke:url(#SVGID_5_);stroke-width:0.5;stroke-linecap:round;stroke-linejoin:round;stroke-dasharray:2.9314,2.9314,2.9314,2.9314,2.9314,2.9314;}
	
		.st20{opacity:0.36;fill:none;stroke:url(#SVGID_6_);stroke-width:0.5;stroke-linecap:round;stroke-linejoin:round;stroke-dasharray:2.9921,2.9921,2.9921,2.9921,2.9921,2.9921;}
</style>
<g id="background_2_">
	<g id="cat_x5F_square" class="st0">
		<g class="st8">
			<path class="st14" d="M647.9,175.8v-16.9c0-6.8,5-10.2,15-10.2c3.4,0,6.7,0.4,9.8,1.1v3.9c-3.5-0.9-6.7-1.3-9.7-1.3
				c-1.4,0-2.7,0.1-3.7,0.2c-1.1,0.2-2.1,0.5-3.1,0.8c-2.1,0.9-3.2,2.7-3.2,5.4v16.7c0,4.1,3.4,6.1,10.2,6.1c3,0,6.1-0.5,9.7-1.3
				v4.1c-3.1,0.7-6.4,1.1-10,1.1C652.9,185.5,647.9,182.2,647.9,175.8z"/>
			<path class="st14" d="M685.5,185.2c-1.1-0.2-2.3-0.5-3.5-1.1c-1.2-0.5-2.1-1.4-2.7-2.7s-0.8-2.9-0.8-5v-9.2
				c0-1.7,0.2-3.1,0.6-4.3s0.9-2.2,1.6-2.9c0.5-0.6,1.4-1.1,2.5-1.4c1.1-0.4,2.3-0.6,3.4-0.7c1.3-0.1,2.7-0.1,4.1-0.1
				c1.9,0,3.3,0.1,4.3,0.2s2,0.3,3.1,0.6c1.1,0.3,2,0.8,2.7,1.5s1.1,1.6,1.6,2.9c0.4,1.3,0.6,2.7,0.6,4.5v9.2c0,3.1-0.7,5.4-2.1,6.8
				c-0.6,0.6-1.4,1.1-2.5,1.4s-2.2,0.5-3.4,0.7c-1.4,0.1-2.8,0.1-4.2,0.1C688.5,185.5,686.8,185.4,685.5,185.2z M694.2,182.1
				c0.7-0.1,1.4-0.3,2-0.6c0.7-0.3,1.1-0.8,1.4-1.4c0.3-0.7,0.4-1.6,0.4-2.8v-10.8c0-1.7-0.2-2.9-0.6-3.6c-0.4-0.8-1.1-1.2-2-1.5
				c-1-0.2-2.5-0.4-4.5-0.4s-3.6,0.2-4.5,0.4c-1,0.2-1.7,0.8-2,1.5c-0.4,0.8-0.6,2-0.6,3.6v10.8c0,1.2,0.2,2.1,0.4,2.8
				c0.3,0.7,0.8,1.1,1.4,1.4c0.7,0.3,1.4,0.5,2,0.6c0.7,0.1,1.8,0.1,3.3,0.1C692.4,182.2,693.5,182.2,694.2,182.1z"/>
			<path class="st14" d="M710.8,158.3h4.9v3.3c0.5-2.5,3.4-3.8,8.7-3.8c3.4,0,5.8,0.6,7.2,1.8c1.4,1.2,2,3.2,2,5.8v19.5h-4.9v-19.2
				c0-0.7-0.1-1.3-0.2-1.7c-0.1-0.5-0.3-0.9-0.7-1.3c-0.8-0.9-2.3-1.4-4.9-1.4c-2,0-3.4,0.2-4.5,0.4c-1.1,0.3-1.7,0.8-2.2,1.4
				s-0.6,1.5-0.6,2.7v19.3h-4.9L710.8,158.3L710.8,158.3z"/>
			<path class="st14" d="M743.1,196.4v-3.5c4.4,0.5,7.6,0.8,9.6,0.8c2.5,0,4.4-0.4,5.5-1.2c1.1-0.8,1.7-2.1,1.7-4v-6.4
				c-0.1,1.1-0.8,2-2.4,2.6c-1.5,0.5-3.4,0.8-5.8,0.8c-2.7,0-4.9-0.2-6.4-0.8c-1.5-0.5-2.6-1.4-3.3-2.5c-0.6-1.1-1-2.7-1-4.8v-10.8
				c0-3.2,0.8-5.4,2.6-6.7c1.7-1.4,4.5-2,8.4-2c4.6,0,7.4,1.1,8.1,3.1v-2.6h4.6v29.1c0,2.4-0.5,4.4-1.4,5.8s-2.3,2.3-4.1,3
				c-1.8,0.5-4.2,0.8-7.1,0.8C748.7,197,745.6,196.8,743.1,196.4z M758.5,181.2c1.1-0.6,1.6-1.8,1.6-3.5v-12c0-1.2-0.2-2.1-0.6-2.7
				s-1.1-1.1-2.1-1.4s-2.5-0.4-4.5-0.4c-1.9,0-3.3,0.2-4.2,0.4s-1.6,0.7-1.9,1.4c-0.4,0.6-0.5,1.6-0.5,2.8v12.1
				c0,1.2,0.2,2.2,0.5,2.8c0.4,0.6,1.1,1.1,2,1.3c1,0.2,2.3,0.4,4.2,0.4C755.5,182.1,757.4,181.8,758.5,181.2z"/>
			<path class="st14" d="M773.5,158.3h4.7v4.3c0-0.8,0.4-1.7,1.1-2.4c0.8-0.8,1.7-1.4,2.8-1.8c1.1-0.5,2.3-0.7,3.3-0.7h2.4v4.2h-2.7
				c-2.3,0-4,0.3-5.1,0.9s-1.6,1.7-1.6,3.3v18.7h-4.9V158.3L773.5,158.3z"/>
			<path class="st14" d="M791.8,177.4v-10.5c0-3.3,0.9-5.5,2.8-7c1.8-1.4,4.9-2.1,9-2.1c3.9,0,6.7,0.7,8.5,2c1.7,1.4,2.6,3.7,2.6,7
				v5.9h-17.9v4c0,1.8,0.6,3.2,1.9,3.9c1.3,0.8,3.3,1.2,5.9,1.2c2.5,0,5.5-0.5,8.9-1.3v3.8c-3.3,0.8-6.6,1.1-9.6,1.1
				C795.9,185.5,791.8,182.7,791.8,177.4z M809.7,169.5v-4.2c0-1.6-0.5-2.7-1.4-3.3c-1-0.6-2.7-0.9-5-0.9s-3.9,0.3-4.9,0.9
				c-1.1,0.6-1.5,1.7-1.5,3.3v4.2H809.7z"/>
			<path class="st14" d="M821.2,184.8V181c4.3,0.7,7.4,1.1,9.2,1.1c2.3,0,4-0.2,5.1-0.7s1.5-1.3,1.5-2.6v-2.7c0-1.1-0.4-2-1.1-2.4
				c-0.8-0.5-2-0.7-3.7-0.7h-3c-2.7,0-4.9-0.5-6.3-1.7c-1.4-1.1-2.2-2.7-2.2-4.8V164c0-4.2,3.9-6.3,11.9-6.3c0.6,0,3.3,0.2,8.1,0.5
				v3.6c-3.3-0.5-6-0.8-8.3-0.8c-2.6,0-4.4,0.2-5.3,0.8c-1,0.5-1.4,1.4-1.4,2.6v2.3c0,1.8,1.6,2.7,4.9,2.7h3.1
				c5.6,0,8.4,2.1,8.4,6.3v2.3c0,2.7-1,4.7-2.9,5.8c-1.9,1.1-4.9,1.7-8.7,1.7C827.5,185.5,824.5,185.2,821.2,184.8z"/>
			<path class="st14" d="M847.7,184.8V181c4.3,0.7,7.4,1.1,9.2,1.1c2.3,0,4-0.2,5.1-0.7s1.5-1.3,1.5-2.6v-2.7c0-1.1-0.4-2-1.1-2.4
				c-0.8-0.5-2-0.7-3.7-0.7h-3c-2.7,0-4.9-0.5-6.3-1.7c-1.4-1.1-2.2-2.7-2.2-4.8V164c0-4.2,3.9-6.3,11.9-6.3c0.6,0,3.3,0.2,8.1,0.5
				v3.6c-3.3-0.5-6-0.8-8.3-0.8c-2.6,0-4.4,0.2-5.3,0.8c-1,0.5-1.4,1.4-1.4,2.6v2.3c0,1.8,1.6,2.7,4.9,2.7h3.1
				c5.6,0,8.4,2.1,8.4,6.3v2.3c0,2.7-1,4.7-2.9,5.8c-1.9,1.1-4.9,1.7-8.7,1.7C854,185.5,851,185.2,847.7,184.8z"/>
		</g>
		<g id="Layer_6_10_" class="st8">
			<g>
				<g>
					<path class="st15" d="M751,103.3l8.9-30.5c-12.7-1.4-26.1-6.4-26.1-28.4c0-6.3,2.3-11.4,5.9-15.4c-0.6-1.4-2.6-7.3,0.5-15.2
						c0,0,4.9-1.5,15.8,5.9c4.5-1.3,9.5-1.9,14.4-2c4.9,0,9.8,0.7,14.4,2c11-7.4,15.8-5.9,15.8-5.9c3.1,7.9,1.1,13.7,0.6,15.2
						c3.7,4,5.9,9.2,5.9,15.4c0,22.1-13.4,26.9-26.2,28.3l8.6,31l-18.9,3.2L751,103.3z"/>
					<g>
						<g>
							<path class="st15" d="M804.6-3.7c-29.2-19-69.3-10-86.9,20.2c-16.4,27.9-7.5,64.7,19.5,82.4c15.2,10,33.8,12.4,51.1,6.7
								c2-0.7,1.2-3.9-0.9-3.3c-14.5,4.6-29.8,3.6-43.4-3.4c-12.8-6.7-23-18.1-27.9-31.8c-10.3-28.7,4-61.5,32.2-73.2
								c17.9-7.5,38.4-5.2,54.6,5.3C804.7,0.5,806.4-2.5,804.6-3.7L804.6-3.7z"/>
						</g>
					</g>
				</g>
			</g>
		</g>
	</g>
	<g id="cat_x5F_black" class="st0">
		<g id="Layer_2_3_" class="st8">
			<g>
				<path class="st16" d="M151.2,69.7v-17c0-6.8,5-10.2,15-10.2c3.4,0,6.7,0.4,9.8,1.1v3.9c-3.5-0.9-6.7-1.3-9.7-1.3
					c-1.4,0-2.7,0.1-3.7,0.2s-2.1,0.5-3.1,0.8c-2.1,0.9-3.2,2.7-3.2,5.4v16.7c0,4.1,3.4,6.1,10.2,6.1c3,0,6.1-0.5,9.7-1.3v4.1
					c-3.1,0.7-6.4,1.1-10,1.1C156.2,79.4,151.2,76.1,151.2,69.7z"/>
				<path class="st16" d="M188.9,79.1c-1.1-0.2-2.3-0.5-3.5-1.1c-1.2-0.5-2.1-1.4-2.7-2.7c-0.5-1.2-0.8-2.9-0.8-5v-9.2
					c0-1.7,0.2-3.1,0.6-4.3c0.4-1.2,0.9-2.2,1.6-2.9c0.5-0.6,1.4-1.1,2.5-1.4c1.1-0.4,2.3-0.6,3.4-0.7c1.3-0.1,2.7-0.1,4.1-0.1
					c1.9,0,3.3,0.1,4.3,0.2s2,0.3,3.1,0.6c1.1,0.3,2,0.8,2.7,1.5s1.1,1.6,1.6,2.9c0.4,1.3,0.6,2.7,0.6,4.5v9.2
					c0,3.1-0.7,5.4-2.1,6.8c-0.6,0.6-1.4,1.1-2.5,1.4s-2.2,0.5-3.4,0.7c-1.4,0.1-2.8,0.1-4.2,0.1C191.8,79.4,190.1,79.3,188.9,79.1z
					 M197.5,76c0.7-0.1,1.4-0.3,2-0.6c0.7-0.3,1.1-0.8,1.4-1.4c0.3-0.7,0.4-1.6,0.4-2.8V60.4c0-1.7-0.2-2.9-0.6-3.6
					c-0.4-0.8-1.1-1.2-2-1.5c-1-0.2-2.5-0.4-4.5-0.4s-3.6,0.2-4.5,0.4c-1,0.2-1.7,0.8-2,1.5s-0.6,2-0.6,3.6v10.8
					c0,1.2,0.2,2.1,0.4,2.8c0.3,0.7,0.8,1.1,1.4,1.4c0.7,0.3,1.4,0.5,2,0.6c0.7,0.1,1.8,0.1,3.3,0.1C195.7,76.1,196.9,76.1,197.5,76
					z"/>
				<path class="st16" d="M214.1,52.2h4.9v3.3c0.5-2.5,3.4-3.8,8.7-3.8c3.4,0,5.8,0.6,7.2,1.8c1.4,1.2,2,3.2,2,5.8v19.5H232V59.6
					c0-0.7-0.1-1.3-0.2-1.7c-0.1-0.5-0.3-0.9-0.7-1.3c-0.8-0.9-2.3-1.4-4.9-1.4c-2,0-3.4,0.2-4.5,0.4c-1.1,0.3-1.7,0.8-2.2,1.4
					s-0.6,1.5-0.6,2.7V79H214L214.1,52.2L214.1,52.2z"/>
				<path class="st16" d="M246.5,90.3v-3.5c4.4,0.5,7.6,0.8,9.6,0.8c2.5,0,4.4-0.4,5.5-1.2c1.1-0.8,1.7-2.1,1.7-4V76
					c-0.1,1.1-0.8,2-2.4,2.6c-1.5,0.5-3.4,0.8-5.8,0.8c-2.7,0-4.9-0.2-6.4-0.8c-1.5-0.5-2.6-1.4-3.3-2.5c-0.6-1.1-1-2.7-1-4.8V60.5
					c0-3.2,0.8-5.4,2.6-6.7c1.7-1.4,4.5-2,8.4-2c4.6,0,7.4,1.1,8.1,3.1v-2.6h4.6v29.1c0,2.4-0.5,4.4-1.4,5.8s-2.3,2.3-4.1,3
					c-1.8,0.5-4.2,0.8-7.1,0.8C252,90.9,249,90.6,246.5,90.3z M261.8,75.1c1.1-0.6,1.6-1.8,1.6-3.5V59.5c0-1.2-0.2-2.1-0.6-2.7
					s-1.1-1.1-2.1-1.4c-1.1-0.3-2.5-0.4-4.5-0.4c-1.9,0-3.3,0.2-4.2,0.4c-0.9,0.2-1.6,0.7-1.9,1.4c-0.4,0.6-0.5,1.6-0.5,2.8v12.1
					c0,1.2,0.2,2.2,0.5,2.8s1.1,1.1,2,1.3c1,0.2,2.3,0.4,4.2,0.4C258.8,76,260.7,75.7,261.8,75.1z"/>
				<path class="st16" d="M276.9,52.2h4.7v4.3c0-0.8,0.4-1.7,1.1-2.4c0.8-0.8,1.7-1.4,2.8-1.8c1.1-0.5,2.3-0.7,3.3-0.7h2.4v4.2h-2.7
					c-2.3,0-4,0.3-5.1,0.9s-1.6,1.7-1.6,3.3v18.7h-4.9L276.9,52.2L276.9,52.2z"/>
				<path class="st16" d="M295.2,71.2V60.7c0-3.3,0.9-5.5,2.8-7c1.8-1.4,4.9-2.1,9-2.1c3.9,0,6.7,0.7,8.5,2s2.6,3.7,2.6,7v5.9h-17.9
					v4c0,1.8,0.6,3.2,1.9,3.9c1.3,0.8,3.3,1.2,5.9,1.2c2.5,0,5.5-0.5,8.9-1.3v3.8c-3.3,0.8-6.6,1.1-9.6,1.1
					C299.2,79.4,295.2,76.6,295.2,71.2z M313,63.4v-4.2c0-1.6-0.5-2.7-1.4-3.3c-1-0.6-2.7-0.9-5-0.9s-3.9,0.3-4.9,0.9
					c-1.1,0.6-1.5,1.7-1.5,3.3v4.2H313z"/>
				<path class="st16" d="M324.6,78.7v-3.8c4.3,0.7,7.4,1.1,9.2,1.1c2.3,0,4-0.2,5.1-0.7s1.5-1.3,1.5-2.6V70c0-1.1-0.4-2-1.1-2.4
					s-2-0.7-3.7-0.7h-3c-2.7,0-4.9-0.5-6.3-1.7c-1.4-1.1-2.2-2.7-2.2-4.8v-2.5c0-4.2,3.9-6.3,11.9-6.3c0.6,0,3.3,0.2,8.1,0.5v3.6
					c-3.3-0.5-6-0.8-8.3-0.8c-2.6,0-4.4,0.2-5.3,0.8c-1,0.5-1.4,1.4-1.4,2.6v2.3c0,1.8,1.6,2.7,4.9,2.7h3.1c5.6,0,8.4,2.1,8.4,6.3
					v2.3c0,2.7-1,4.7-2.9,5.8c-1.9,1.1-4.9,1.7-8.7,1.7C330.9,79.4,327.8,79.1,324.6,78.7z"/>
				<path class="st16" d="M351.1,78.7v-3.8c4.3,0.7,7.4,1.1,9.2,1.1c2.3,0,4-0.2,5.1-0.7s1.5-1.3,1.5-2.6V70c0-1.1-0.4-2-1.1-2.4
					s-2-0.7-3.7-0.7h-3c-2.7,0-4.9-0.5-6.3-1.7c-1.4-1.1-2.2-2.7-2.2-4.8v-2.5c0-4.2,3.9-6.3,11.9-6.3c0.6,0,3.3,0.2,8.1,0.5v3.6
					c-3.3-0.5-6-0.8-8.3-0.8c-2.6,0-4.4,0.2-5.3,0.8c-1,0.5-1.4,1.4-1.4,2.6v2.3c0,1.8,1.6,2.7,4.9,2.7h3.1c5.6,0,8.4,2.1,8.4,6.3
					v2.3c0,2.7-1,4.7-2.9,5.8c-1.9,1.1-4.9,1.7-8.7,1.7C357.4,79.4,354.3,79.1,351.1,78.7z"/>
			</g>
		</g>
		<g id="Layer_6_7_" class="st8">
			<g>
				<g>
					<path class="st16" d="M63.5,112l8.9-30.5c-12.7-1.4-26.1-6.4-26.1-28.4c0-6.3,2.3-11.4,5.9-15.4c-0.6-1.4-2.6-7.3,0.5-15.2
						c0,0,4.9-1.5,15.8,5.9c4.5-1.3,9.5-1.9,14.4-2c4.9,0,9.8,0.7,14.4,2c11-7.4,15.8-5.9,15.8-5.9c3.1,7.9,1.1,13.7,0.6,15.2
						c3.7,4,5.9,9.2,5.9,15.4c0,22.1-13.4,26.9-26.2,28.3l8.6,31l-18.9,3.2L63.5,112z"/>
					<g>
						<g>
							<path class="st16" d="M117.1,5C87.9-14,47.8-5,30.2,25.2c-16.4,27.9-7.5,64.7,19.5,82.4c15.2,10,33.8,12.4,51.1,6.7
								c2-0.7,1.2-3.9-0.9-3.3c-14.5,4.6-29.8,3.6-43.4-3.4c-12.8-6.7-23-18.1-27.9-31.8c-10.3-28.7,4-61.5,32.2-73.2
								c17.9-7.5,38.4-5.2,54.6,5.3C117.1,9.2,118.9,6.2,117.1,5L117.1,5z"/>
						</g>
					</g>
				</g>
			</g>
		</g>
	</g>
</g>
<g id="logo_x5F_1">
	<g>
		<path class="st17" d="M464.4,108.6c-5.1,2.8-11,4.2-17.2,3.9c-17-0.9-30.6-15-30.9-32c-0.3-18.2,14.4-33,32.5-33
			c5.2,0,10.2,1.2,14.6,3.4c2.3,1.1,5,0.8,6.8-1v0c2.9-2.8,2.1-7.6-1.5-9.4c-4.9-2.4-11.8-4.8-19.9-4.8c-24.8,0-44.8,20.4-44.3,45.3
			c0.6,23.9,20.3,43.1,44.1,43.2c7.7,0,14.9-1.9,21.2-5.3c3.4-1.8,4.2-6.3,1.6-9.1v0C469.7,107.8,466.8,107.3,464.4,108.6z"/>
		<g class="st18">
			
				<image style="overflow:visible;opacity:0.29;" width="82" height="102" xlink:href="9E321C31EB485520.png"  transform="matrix(1 0 0 1 416.176 30.1874)">
			</image>
			<g>
				<g>
					<path d="M425.7,109.8L425.7,109.8c-2.6,2.8-1.8,7.3,1.6,9.1c6.3,3.4,13.5,5.4,21.2,5.3c23.9-0.1,43.6-19.4,44.1-43.2
						c0.6-24.9-19.5-45.3-44.3-45.3c-8.1,0-15,2.4-19.9,4.8c-3.6,1.8-4.4,6.6-1.5,9.4v0c1.8,1.8,4.5,2.1,6.8,1
						c4.4-2.2,9.3-3.4,14.6-3.4c18.1,0,32.8,14.8,32.5,33c-0.2,17-13.9,31.2-30.9,32c-6.3,0.3-12.2-1.1-17.2-3.9
						C430.5,107.3,427.5,107.8,425.7,109.8z"/>
				</g>
			</g>
		</g>
		<g>
			
				<radialGradient id="SVGID_2_" cx="447.0085" cy="276.7916" r="56.25" gradientTransform="matrix(1 0 0 3 0 -750.3749)" gradientUnits="userSpaceOnUse">
				<stop  offset="0" style="stop-color:#191A47"/>
				<stop  offset="1" style="stop-color:#F1F1F2"/>
			</radialGradient>
			
				<circle style="opacity:0.36;fill:none;stroke:url(#SVGID_2_);stroke-width:0.5;stroke-linecap:round;stroke-linejoin:round;stroke-dasharray:2.9314,2.9314,2.9314,2.9314,2.9314,2.9314;" cx="447" cy="80" r="56"/>
		</g>
		<g>
			
				<radialGradient id="SVGID_4_" cx="447.0085" cy="276.7916" r="80.25" gradientTransform="matrix(1 0 0 3 0 -750.3749)" gradientUnits="userSpaceOnUse">
				<stop  offset="0" style="stop-color:#191A47"/>
				<stop  offset="1" style="stop-color:#F1F1F2"/>
			</radialGradient>
			
				<circle style="opacity:0.36;fill:none;stroke:url(#SVGID_4_);stroke-width:0.5;stroke-linecap:round;stroke-linejoin:round;stroke-dasharray:2.9921,2.9921,2.9921,2.9921,2.9921,2.9921;" cx="447" cy="80" r="80"/>
		</g>
	</g>
</g>
<g id="text">
</g>
<g id="logo_x5F_3">
</g>
</svg>
