<?xml version="1.0" encoding="utf-8"?>
<!-- Generator: Adobe Illustrator 22.1.0, SVG Export Plug-In . SVG Version: 6.00 Build 0)  -->
<svg version="1.1" xmlns="http://www.w3.org/2000/svg" xmlns:xlink="http://www.w3.org/1999/xlink" x="0px" y="0px"
	 viewBox="0 0 890 316.4" style="enable-background:new 0 0 890 316.4;" xml:space="preserve">
<style type="text/css">
	.st0{display:none;}
	.st1{display:inline;opacity:0.45;}
	.st2{opacity:7.000000e-02;clip-path:url(#SVGID_2_);}
	.st3{fill:#C1C1C1;}
	.st4{opacity:7.000000e-02;clip-path:url(#SVGID_4_);}
	.st5{display:inline;opacity:0.5;}
	.st6{fill:#FCFCFC;}
	.st7{display:none;fill:#FCFCFC;}
	.st8{display:inline;}
	.st9{fill:none;stroke:#686868;stroke-width:0.25;stroke-miterlimit:10;}
	.st10{opacity:0.15;fill:none;stroke:#686868;stroke-width:0.25;stroke-miterlimit:10;enable-background:new    ;}
	.st11{opacity:0.15;fill:#FCFCFC;enable-background:new    ;}
	.st12{opacity:0.3;fill:none;stroke:#686868;stroke-width:0.25;stroke-miterlimit:10;enable-background:new    ;}
	.st13{opacity:0.3;fill:#FCFCFC;enable-background:new    ;}
	.st14{fill:#FFFFFF;}
	.st15{fill:#34FF10;}
	.st16{fill:#0D0F12;}
	.st17{fill:#777777;}
	.st18{font-family:'Play-Regular';}
	.st19{font-size:46px;}
	.st20{fill:#32FF10;}
	.st21{opacity:0.42;}
	
		.st22{opacity:0.36;fill:none;stroke:url(#SVGID_5_);stroke-width:0.5;stroke-linecap:round;stroke-linejoin:round;stroke-dasharray:2.9719,2.9719,2.9719,2.9719,2.9719,2.9719;}
	
		.st23{opacity:0.36;fill:none;stroke:url(#SVGID_6_);stroke-width:0.5;stroke-linecap:round;stroke-linejoin:round;stroke-dasharray:3.0209,3.0209,3.0209,3.0209,3.0209,3.0209;}
</style>
<g id="background_2_">
	<g id="cat_x5F_square" class="st0">
		<g class="st8">
			<path class="st14" d="M702.8,84c-0.8-0.1-1.7-0.2-2.8-0.5s-2-0.8-2.7-1.3c-0.6-0.6-1.1-1.4-1.6-2.6c-0.5-1.1-0.7-2.4-0.7-4.1
				v-9.7c0-3,0.5-5.1,1.7-6.3c0.6-0.8,1.2-1.3,1.9-1.7c0.6-0.4,1.4-0.7,2.5-0.8c1-0.2,1.9-0.2,2.7-0.3c0.8-0.1,1.9-0.1,3.4-0.1
				c2.5,0,5,0.3,7.5,0.8V61c-2.9-0.8-5.6-1.1-8.1-1.1c-1.9,0-3.3,0.2-4.2,0.4c-0.9,0.3-1.5,0.8-1.8,1.4c-0.4,0.7-0.5,1.8-0.5,3.3
				v10.8c0,1.4,0.2,2.3,0.6,3c0.4,0.7,1.1,1.1,2,1.4c1,0.3,2.5,0.4,4.5,0.4c2.7,0,5.3-0.4,8-1.1v3.7c-2.5,0.5-5.3,0.8-8.4,0.8
				C704.9,84.1,703.6,84.1,702.8,84z"/>
			<path class="st14" d="M727.7,83.9l-10.2-26.8h5.3l7.4,21.5h0.1l6.7-21.5h4.9l-13.3,37.7h-5L727.7,83.9z"/>
			<path class="st14" d="M753.6,83.8c-1.2-0.2-2.3-0.6-3.5-1.1c-2.3-1.1-3.6-3.7-3.6-7.7V45.4h4.9v7.9v3.1c0,0.9-0.1,2-0.1,3.2
				c0.2-0.8,0.9-1.5,2.3-2.1c1.4-0.5,3.4-0.8,6-0.8c7.3,0,10.9,2.5,10.9,7.5V75c0,1.6-0.2,3-0.7,4.1s-1.1,2-1.7,2.7
				c-0.7,0.6-1.5,1.1-2.7,1.4c-1.1,0.4-2.3,0.6-3.4,0.7c-1,0.1-2.3,0.2-3.7,0.2C756.3,84.1,754.7,84,753.6,83.8z M762.7,80.5
				c1-0.3,1.7-0.8,2.1-1.5c0.5-0.8,0.7-1.8,0.7-3.3V65.4c0-1.5-0.2-2.6-0.7-3.3c-0.5-0.8-1.1-1.2-2.1-1.4c-1-0.2-2.4-0.4-4.4-0.4
				c-1.7,0-3.2,0.2-4.2,0.5s-1.7,0.8-2.1,1.5c-0.5,0.8-0.7,1.8-0.7,3.2v10.4c0,1.5,0.2,2.6,0.6,3.3c0.5,0.8,1.1,1.2,2.1,1.5
				s2.4,0.4,4.2,0.4C760.2,80.9,761.7,80.8,762.7,80.5z"/>
			<path class="st14" d="M777.1,76.1V65.6c0-3.2,0.9-5.5,2.7-6.9s4.8-2.1,8.9-2.1c3.9,0,6.7,0.7,8.4,2s2.6,3.6,2.6,7v5.8H782v3.9
				c0,1.8,0.6,3.1,1.9,3.9c1.3,0.8,3.3,1.2,5.9,1.2c2.5,0,5.5-0.5,8.9-1.3v3.8c-3.3,0.8-6.5,1.1-9.5,1.1
				C781.1,84.1,777.1,81.4,777.1,76.1z M794.9,68.3v-4.2c0-1.6-0.5-2.7-1.4-3.3s-2.6-0.9-4.9-0.9c-2.3,0-3.9,0.3-4.9,0.9
				s-1.5,1.7-1.5,3.3v4.2H794.9z"/>
			<path class="st14" d="M807.2,57.2h4.6v4.3c0-0.8,0.4-1.6,1.1-2.3c0.8-0.8,1.7-1.4,2.8-1.8c1.1-0.5,2.2-0.7,3.3-0.7h2.4v4.2h-2.7
				c-2.3,0-4,0.3-5.1,0.9s-1.5,1.7-1.5,3.3v18.6h-4.9L807.2,57.2L807.2,57.2z"/>
		</g>
		<g class="st8">
			<path class="st14" d="M647.9,323.8v-16.9c0-6.8,5-10.2,15-10.2c3.4,0,6.7,0.4,9.8,1.1v3.9c-3.5-0.9-6.7-1.3-9.7-1.3
				c-1.4,0-2.7,0.1-3.7,0.2c-1.1,0.2-2.1,0.5-3.1,0.8c-2.1,0.9-3.2,2.7-3.2,5.4v16.7c0,4.1,3.4,6.1,10.2,6.1c3,0,6.1-0.5,9.7-1.3
				v4.1c-3.1,0.7-6.4,1.1-10,1.1C652.9,333.5,647.9,330.2,647.9,323.8z"/>
			<path class="st14" d="M685.5,333.2c-1.1-0.2-2.3-0.5-3.5-1.1c-1.2-0.5-2.1-1.4-2.7-2.7s-0.8-2.9-0.8-5v-9.2
				c0-1.7,0.2-3.1,0.6-4.3s0.9-2.2,1.6-2.9c0.5-0.6,1.4-1.1,2.5-1.4c1.1-0.4,2.3-0.6,3.4-0.7c1.3-0.1,2.7-0.1,4.1-0.1
				c1.9,0,3.3,0.1,4.3,0.2s2,0.3,3.1,0.6c1.1,0.3,2,0.8,2.7,1.5s1.1,1.6,1.6,2.9c0.4,1.3,0.6,2.7,0.6,4.5v9.2c0,3.1-0.7,5.4-2.1,6.8
				c-0.6,0.6-1.4,1.1-2.5,1.4s-2.2,0.5-3.4,0.7c-1.4,0.1-2.8,0.1-4.2,0.1C688.5,333.5,686.8,333.4,685.5,333.2z M694.2,330.1
				c0.7-0.1,1.4-0.3,2-0.6c0.7-0.3,1.1-0.8,1.4-1.4c0.3-0.7,0.4-1.6,0.4-2.8v-10.8c0-1.7-0.2-2.9-0.6-3.6c-0.4-0.8-1.1-1.2-2-1.5
				c-1-0.2-2.5-0.4-4.5-0.4s-3.6,0.2-4.5,0.4c-1,0.2-1.7,0.8-2,1.5c-0.4,0.8-0.6,2-0.6,3.6v10.8c0,1.2,0.2,2.1,0.4,2.8
				c0.3,0.7,0.8,1.1,1.4,1.4c0.7,0.3,1.4,0.5,2,0.6c0.7,0.1,1.8,0.1,3.3,0.1C692.4,330.2,693.5,330.2,694.2,330.1z"/>
			<path class="st14" d="M710.8,306.3h4.9v3.3c0.5-2.5,3.4-3.8,8.7-3.8c3.4,0,5.8,0.6,7.2,1.8c1.4,1.2,2,3.2,2,5.8v19.5h-4.9v-19.2
				c0-0.7-0.1-1.3-0.2-1.7c-0.1-0.5-0.3-0.9-0.7-1.3c-0.8-0.9-2.3-1.4-4.9-1.4c-2,0-3.4,0.2-4.5,0.4c-1.1,0.3-1.7,0.8-2.2,1.4
				s-0.6,1.5-0.6,2.7v19.3h-4.9L710.8,306.3L710.8,306.3z"/>
			<path class="st14" d="M743.1,344.4v-3.5c4.4,0.5,7.6,0.8,9.6,0.8c2.5,0,4.4-0.4,5.5-1.2c1.1-0.8,1.7-2.1,1.7-4v-6.4
				c-0.1,1.1-0.8,2-2.4,2.6c-1.5,0.5-3.4,0.8-5.8,0.8c-2.7,0-4.9-0.2-6.4-0.8c-1.5-0.5-2.6-1.4-3.3-2.5c-0.6-1.1-1-2.7-1-4.8v-10.8
				c0-3.2,0.8-5.4,2.6-6.7c1.7-1.4,4.5-2,8.4-2c4.6,0,7.4,1.1,8.1,3.1v-2.6h4.6v29.1c0,2.4-0.5,4.4-1.4,5.8s-2.3,2.3-4.1,3
				c-1.8,0.5-4.2,0.8-7.1,0.8C748.7,345,745.6,344.8,743.1,344.4z M758.5,329.2c1.1-0.6,1.6-1.8,1.6-3.5v-12c0-1.2-0.2-2.1-0.6-2.7
				s-1.1-1.1-2.1-1.4s-2.5-0.4-4.5-0.4c-1.9,0-3.3,0.2-4.2,0.4s-1.6,0.7-1.9,1.4c-0.4,0.6-0.5,1.6-0.5,2.8v12.1
				c0,1.2,0.2,2.2,0.5,2.8c0.4,0.6,1.1,1.1,2,1.3c1,0.2,2.3,0.4,4.2,0.4C755.5,330.1,757.4,329.8,758.5,329.2z"/>
			<path class="st14" d="M773.5,306.3h4.7v4.3c0-0.8,0.4-1.7,1.1-2.4c0.8-0.8,1.7-1.4,2.8-1.8c1.1-0.5,2.3-0.7,3.3-0.7h2.4v4.2h-2.7
				c-2.3,0-4,0.3-5.1,0.9s-1.6,1.7-1.6,3.3v18.7h-4.9V306.3L773.5,306.3z"/>
			<path class="st14" d="M791.8,325.4v-10.5c0-3.3,0.9-5.5,2.8-7c1.8-1.4,4.9-2.1,9-2.1c3.9,0,6.7,0.7,8.5,2c1.7,1.4,2.6,3.7,2.6,7
				v5.9h-17.9v4c0,1.8,0.6,3.2,1.9,3.9c1.3,0.8,3.3,1.2,5.9,1.2c2.5,0,5.5-0.5,8.9-1.3v3.8c-3.3,0.8-6.6,1.1-9.6,1.1
				C795.9,333.5,791.8,330.7,791.8,325.4z M809.7,317.5v-4.2c0-1.6-0.5-2.7-1.4-3.3c-1-0.6-2.7-0.9-5-0.9s-3.9,0.3-4.9,0.9
				c-1.1,0.6-1.5,1.7-1.5,3.3v4.2H809.7z"/>
			<path class="st14" d="M821.2,332.8V329c4.3,0.7,7.4,1.1,9.2,1.1c2.3,0,4-0.2,5.1-0.7s1.5-1.3,1.5-2.6v-2.7c0-1.1-0.4-2-1.1-2.4
				c-0.8-0.5-2-0.7-3.7-0.7h-3c-2.7,0-4.9-0.5-6.3-1.7c-1.4-1.1-2.2-2.7-2.2-4.8V312c0-4.2,3.9-6.3,11.9-6.3c0.6,0,3.3,0.2,8.1,0.5
				v3.6c-3.3-0.5-6-0.8-8.3-0.8c-2.6,0-4.4,0.2-5.3,0.8c-1,0.5-1.4,1.4-1.4,2.6v2.3c0,1.8,1.6,2.7,4.9,2.7h3.1
				c5.6,0,8.4,2.1,8.4,6.3v2.3c0,2.7-1,4.7-2.9,5.8c-1.9,1.1-4.9,1.7-8.7,1.7C827.5,333.5,824.5,333.2,821.2,332.8z"/>
			<path class="st14" d="M847.7,332.8V329c4.3,0.7,7.4,1.1,9.2,1.1c2.3,0,4-0.2,5.1-0.7s1.5-1.3,1.5-2.6v-2.7c0-1.1-0.4-2-1.1-2.4
				c-0.8-0.5-2-0.7-3.7-0.7h-3c-2.7,0-4.9-0.5-6.3-1.7c-1.4-1.1-2.2-2.7-2.2-4.8V312c0-4.2,3.9-6.3,11.9-6.3c0.6,0,3.3,0.2,8.1,0.5
				v3.6c-3.3-0.5-6-0.8-8.3-0.8c-2.6,0-4.4,0.2-5.3,0.8c-1,0.5-1.4,1.4-1.4,2.6v2.3c0,1.8,1.6,2.7,4.9,2.7h3.1
				c5.6,0,8.4,2.1,8.4,6.3v2.3c0,2.7-1,4.7-2.9,5.8c-1.9,1.1-4.9,1.7-8.7,1.7C854,333.5,851,333.2,847.7,332.8z"/>
		</g>
		<g id="Layer_6_10_" class="st8">
			<g>
				<g>
					<path class="st15" d="M751,251.3l8.9-30.5c-12.7-1.4-26.1-6.4-26.1-28.4c0-6.3,2.3-11.4,5.9-15.4c-0.6-1.4-2.6-7.3,0.5-15.2
						c0,0,4.9-1.5,15.8,5.9c4.5-1.3,9.5-1.9,14.4-2c4.9,0,9.8,0.7,14.4,2c11-7.4,15.8-5.9,15.8-5.9c3.1,7.9,1.1,13.7,0.6,15.2
						c3.7,4,5.9,9.2,5.9,15.4c0,22.1-13.4,26.9-26.2,28.3l8.6,31l-18.9,3.2L751,251.3z"/>
					<g>
						<g>
							<path class="st15" d="M804.6,144.3c-29.2-19-69.3-10-86.9,20.2c-16.4,27.9-7.5,64.7,19.5,82.4c15.2,10,33.8,12.4,51.1,6.7
								c2-0.7,1.2-3.9-0.9-3.3c-14.5,4.6-29.8,3.6-43.4-3.4c-12.8-6.7-23-18.1-27.9-31.8c-10.3-28.7,4-61.5,32.2-73.2
								c17.9-7.5,38.4-5.2,54.6,5.3C804.7,148.5,806.4,145.5,804.6,144.3L804.6,144.3z"/>
						</g>
					</g>
				</g>
			</g>
		</g>
	</g>
	<g id="cat_x5F_black" class="st0">
		<g id="Layer_2_3_" class="st8">
			<g>
				<path class="st16" d="M151.2,217.7v-17c0-6.8,5-10.2,15-10.2c3.4,0,6.7,0.4,9.8,1.1v3.9c-3.5-0.9-6.7-1.3-9.7-1.3
					c-1.4,0-2.7,0.1-3.7,0.2s-2.1,0.5-3.1,0.8c-2.1,0.9-3.2,2.7-3.2,5.4v16.7c0,4.1,3.4,6.1,10.2,6.1c3,0,6.1-0.5,9.7-1.3v4.1
					c-3.1,0.7-6.4,1.1-10,1.1C156.2,227.4,151.2,224.1,151.2,217.7z"/>
				<path class="st16" d="M188.9,227.1c-1.1-0.2-2.3-0.5-3.5-1.1c-1.2-0.5-2.1-1.4-2.7-2.7c-0.5-1.2-0.8-2.9-0.8-5v-9.2
					c0-1.7,0.2-3.1,0.6-4.3c0.4-1.2,0.9-2.2,1.6-2.9c0.5-0.6,1.4-1.1,2.5-1.4c1.1-0.4,2.3-0.6,3.4-0.7c1.3-0.1,2.7-0.1,4.1-0.1
					c1.9,0,3.3,0.1,4.3,0.2s2,0.3,3.1,0.6c1.1,0.3,2,0.8,2.7,1.5s1.1,1.6,1.6,2.9c0.4,1.3,0.6,2.7,0.6,4.5v9.2
					c0,3.1-0.7,5.4-2.1,6.8c-0.6,0.6-1.4,1.1-2.5,1.4s-2.2,0.5-3.4,0.7c-1.4,0.1-2.8,0.1-4.2,0.1
					C191.8,227.4,190.1,227.3,188.9,227.1z M197.5,224c0.7-0.1,1.4-0.3,2-0.6c0.7-0.3,1.1-0.8,1.4-1.4c0.3-0.7,0.4-1.6,0.4-2.8
					v-10.8c0-1.7-0.2-2.9-0.6-3.6c-0.4-0.8-1.1-1.2-2-1.5c-1-0.2-2.5-0.4-4.5-0.4s-3.6,0.2-4.5,0.4c-1,0.2-1.7,0.8-2,1.5
					s-0.6,2-0.6,3.6v10.8c0,1.2,0.2,2.1,0.4,2.8c0.3,0.7,0.8,1.1,1.4,1.4c0.7,0.3,1.4,0.5,2,0.6c0.7,0.1,1.8,0.1,3.3,0.1
					C195.7,224.1,196.9,224.1,197.5,224z"/>
				<path class="st16" d="M214.1,200.2h4.9v3.3c0.5-2.5,3.4-3.8,8.7-3.8c3.4,0,5.8,0.6,7.2,1.8c1.4,1.2,2,3.2,2,5.8v19.5H232v-19.2
					c0-0.7-0.1-1.3-0.2-1.7c-0.1-0.5-0.3-0.9-0.7-1.3c-0.8-0.9-2.3-1.4-4.9-1.4c-2,0-3.4,0.2-4.5,0.4c-1.1,0.3-1.7,0.8-2.2,1.4
					s-0.6,1.5-0.6,2.7V227H214L214.1,200.2L214.1,200.2z"/>
				<path class="st16" d="M246.5,238.3v-3.5c4.4,0.5,7.6,0.8,9.6,0.8c2.5,0,4.4-0.4,5.5-1.2c1.1-0.8,1.7-2.1,1.7-4V224
					c-0.1,1.1-0.8,2-2.4,2.6c-1.5,0.5-3.4,0.8-5.8,0.8c-2.7,0-4.9-0.2-6.4-0.8c-1.5-0.5-2.6-1.4-3.3-2.5c-0.6-1.1-1-2.7-1-4.8v-10.8
					c0-3.2,0.8-5.4,2.6-6.7c1.7-1.4,4.5-2,8.4-2c4.6,0,7.4,1.1,8.1,3.1v-2.6h4.6v29.1c0,2.4-0.5,4.4-1.4,5.8s-2.3,2.3-4.1,3
					c-1.8,0.5-4.2,0.8-7.1,0.8C252,238.9,249,238.6,246.5,238.3z M261.8,223.1c1.1-0.6,1.6-1.8,1.6-3.5v-12.1c0-1.2-0.2-2.1-0.6-2.7
					s-1.1-1.1-2.1-1.4c-1.1-0.3-2.5-0.4-4.5-0.4c-1.9,0-3.3,0.2-4.2,0.4c-0.9,0.2-1.6,0.7-1.9,1.4c-0.4,0.6-0.5,1.6-0.5,2.8v12.1
					c0,1.2,0.2,2.2,0.5,2.8s1.1,1.1,2,1.3c1,0.2,2.3,0.4,4.2,0.4C258.8,224,260.7,223.7,261.8,223.1z"/>
				<path class="st16" d="M276.9,200.2h4.7v4.3c0-0.8,0.4-1.7,1.1-2.4c0.8-0.8,1.7-1.4,2.8-1.8c1.1-0.5,2.3-0.7,3.3-0.7h2.4v4.2
					h-2.7c-2.3,0-4,0.3-5.1,0.9s-1.6,1.7-1.6,3.3v18.7h-4.9L276.9,200.2L276.9,200.2z"/>
				<path class="st16" d="M295.2,219.2v-10.5c0-3.3,0.9-5.5,2.8-7c1.8-1.4,4.9-2.1,9-2.1c3.9,0,6.7,0.7,8.5,2s2.6,3.7,2.6,7v5.9
					h-17.9v4c0,1.8,0.6,3.2,1.9,3.9c1.3,0.8,3.3,1.2,5.9,1.2c2.5,0,5.5-0.5,8.9-1.3v3.8c-3.3,0.8-6.6,1.1-9.6,1.1
					C299.2,227.4,295.2,224.6,295.2,219.2z M313,211.4v-4.2c0-1.6-0.5-2.7-1.4-3.3c-1-0.6-2.7-0.9-5-0.9s-3.9,0.3-4.9,0.9
					c-1.1,0.6-1.5,1.7-1.5,3.3v4.2H313z"/>
				<path class="st16" d="M324.6,226.7v-3.8c4.3,0.7,7.4,1.1,9.2,1.1c2.3,0,4-0.2,5.1-0.7s1.5-1.3,1.5-2.6V218c0-1.1-0.4-2-1.1-2.4
					s-2-0.7-3.7-0.7h-3c-2.7,0-4.9-0.5-6.3-1.7c-1.4-1.1-2.2-2.7-2.2-4.8v-2.5c0-4.2,3.9-6.3,11.9-6.3c0.6,0,3.3,0.2,8.1,0.5v3.6
					c-3.3-0.5-6-0.8-8.3-0.8c-2.6,0-4.4,0.2-5.3,0.8c-1,0.5-1.4,1.4-1.4,2.6v2.3c0,1.8,1.6,2.7,4.9,2.7h3.1c5.6,0,8.4,2.1,8.4,6.3
					v2.3c0,2.7-1,4.7-2.9,5.8c-1.9,1.1-4.9,1.7-8.7,1.7C330.9,227.4,327.8,227.1,324.6,226.7z"/>
				<path class="st16" d="M351.1,226.7v-3.8c4.3,0.7,7.4,1.1,9.2,1.1c2.3,0,4-0.2,5.1-0.7s1.5-1.3,1.5-2.6V218c0-1.1-0.4-2-1.1-2.4
					s-2-0.7-3.7-0.7h-3c-2.7,0-4.9-0.5-6.3-1.7c-1.4-1.1-2.2-2.7-2.2-4.8v-2.5c0-4.2,3.9-6.3,11.9-6.3c0.6,0,3.3,0.2,8.1,0.5v3.6
					c-3.3-0.5-6-0.8-8.3-0.8c-2.6,0-4.4,0.2-5.3,0.8c-1,0.5-1.4,1.4-1.4,2.6v2.3c0,1.8,1.6,2.7,4.9,2.7h3.1c5.6,0,8.4,2.1,8.4,6.3
					v2.3c0,2.7-1,4.7-2.9,5.8c-1.9,1.1-4.9,1.7-8.7,1.7C357.4,227.4,354.3,227.1,351.1,226.7z"/>
			</g>
		</g>
		<g id="Layer_6_7_" class="st8">
			<g>
				<g>
					<path class="st16" d="M63.5,260l8.9-30.5c-12.7-1.4-26.1-6.4-26.1-28.4c0-6.3,2.3-11.4,5.9-15.4c-0.6-1.4-2.6-7.3,0.5-15.2
						c0,0,4.9-1.5,15.8,5.9c4.5-1.3,9.5-1.9,14.4-2c4.9,0,9.8,0.7,14.4,2c11-7.4,15.8-5.9,15.8-5.9c3.1,7.9,1.1,13.7,0.6,15.2
						c3.7,4,5.9,9.2,5.9,15.4c0,22.1-13.4,26.9-26.2,28.3l8.6,31l-18.9,3.2L63.5,260z"/>
					<g>
						<g>
							<path class="st16" d="M117.1,153c-29.2-19-69.3-10-86.9,20.2c-16.4,27.9-7.5,64.7,19.5,82.4c15.2,10,33.8,12.4,51.1,6.7
								c2-0.7,1.2-3.9-0.9-3.3c-14.5,4.6-29.8,3.6-43.4-3.4c-12.8-6.7-23-18.1-27.9-31.8c-10.3-28.7,4-61.5,32.2-73.2
								c17.9-7.5,38.4-5.2,54.6,5.3C117.1,157.2,118.9,154.2,117.1,153L117.1,153z"/>
						</g>
					</g>
				</g>
			</g>
		</g>
	</g>
</g>
<g id="logo_x5F_1">
	<g>
		<text transform="matrix(1 0 0 1 177.0486 172.6714)" class="st17 st18 st19">cyber </text>
		<text transform="matrix(1 0 0 1 523.1584 171.1707)" class="st17 st18 st19">Congress</text>
		<path class="st20" d="M440.6,210.7c-9.5,5.2-20.6,7.9-32.3,7.3c-31.9-1.6-57.4-28.1-57.9-60c-0.5-34.1,27-61.9,61-61.9
			c9.8,0,19.1,2.3,27.3,6.5c4.2,2.1,9.4,1.4,12.7-1.9v0c5.4-5.3,3.9-14.2-2.8-17.6c-9.2-4.6-22.1-9-37.3-9c-46.5,0-84.1,38.3-83,85
			c1.1,44.7,38,80.9,82.8,81c14.4,0,28-3.6,39.8-10c6.3-3.4,7.8-11.8,3-17.1l0,0C450.5,209.2,445,208.2,440.6,210.7z"/>
		<g class="st21">
			
				<image style="overflow:visible;opacity:0.66;" width="160" height="197" xlink:href="9E321C31EB485523.png"  transform="matrix(1 0 0 1 342.176 60.1952)">
			</image>
			<g>
				<g>
					<path class="st3" d="M368,212.9L368,212.9c-4.8,5.3-3.4,13.7,3,17.1c11.8,6.4,25.4,10.1,39.8,10c44.7-0.1,81.7-36.3,82.8-81
						c1.1-46.8-36.5-85-83-85c-15.2,0-28.1,4.4-37.3,9c-6.7,3.3-8.2,12.3-2.8,17.6v0c3.4,3.3,8.5,4,12.7,1.9
						c8.2-4.1,17.5-6.5,27.3-6.5c34,0,61.5,27.8,61,61.9c-0.5,31.9-26,58.4-57.9,60c-11.7,0.6-22.8-2.1-32.3-7.3
						C376.9,208.2,371.4,209.2,368,212.9z"/>
				</g>
			</g>
		</g>
		<g>
			
				<radialGradient id="SVGID_2_" cx="407.9584" cy="401.1494" r="105.25" gradientTransform="matrix(1 0 0 3 0 -1046.3904)" gradientUnits="userSpaceOnUse">
				<stop  offset="0" style="stop-color:#191A47"/>
				<stop  offset="1" style="stop-color:#F1F1F2"/>
			</radialGradient>
			
				<circle style="opacity:0.36;fill:none;stroke:url(#SVGID_2_);stroke-width:0.5;stroke-linecap:round;stroke-linejoin:round;stroke-dasharray:2.9719,2.9719,2.9719,2.9719,2.9719,2.9719;" cx="408" cy="157.1" r="105"/>
		</g>
		<g>
			
				<radialGradient id="SVGID_4_" cx="407.9584" cy="401.1494" r="150.25" gradientTransform="matrix(1 0 0 3 0 -1046.3904)" gradientUnits="userSpaceOnUse">
				<stop  offset="0" style="stop-color:#191A47"/>
				<stop  offset="1" style="stop-color:#F1F1F2"/>
			</radialGradient>
			
				<circle style="opacity:0.36;fill:none;stroke:url(#SVGID_4_);stroke-width:0.5;stroke-linecap:round;stroke-linejoin:round;stroke-dasharray:3.0209,3.0209,3.0209,3.0209,3.0209,3.0209;" cx="408" cy="157.1" r="150"/>
		</g>
	</g>
</g>
<g id="text">
</g>
<g id="logo_x5F_3">
</g>
</svg>
