<?xml version="1.0" encoding="utf-8"?>
<!-- Generator: Adobe Illustrator 22.1.0, SVG Export Plug-In . SVG Version: 6.00 Build 0)  -->
<svg version="1.1" xmlns="http://www.w3.org/2000/svg" xmlns:xlink="http://www.w3.org/1999/xlink" x="0px" y="0px"
	 viewBox="0 0 1280 2256.7" style="enable-background:new 0 0 1280 2256.7;" xml:space="preserve">
<style type="text/css">
	.st0{display:none;}
	.st1{display:inline;opacity:0.45;}
	.st2{opacity:7.000000e-02;clip-path:url(#SVGID_2_);}
	.st3{fill:#C1C1C1;}
	.st4{opacity:7.000000e-02;clip-path:url(#SVGID_4_);}
	.st5{display:inline;opacity:0.5;}
	.st6{fill:#FCFCFC;}
	.st7{display:none;fill:#FCFCFC;}
	.st8{display:inline;}
	.st9{fill:none;stroke:#686868;stroke-width:0.25;stroke-miterlimit:10;}
	.st10{opacity:0.15;fill:none;stroke:#686868;stroke-width:0.25;stroke-miterlimit:10;enable-background:new    ;}
	.st11{opacity:0.15;fill:#FCFCFC;enable-background:new    ;}
	.st12{opacity:0.3;fill:none;stroke:#686868;stroke-width:0.25;stroke-miterlimit:10;enable-background:new    ;}
	.st13{opacity:0.3;fill:#FCFCFC;enable-background:new    ;}
	.st14{fill:#FFFFFF;}
	.st15{fill:#34FF10;}
	.st16{fill:#0D0F12;}
	
		.st17{opacity:0.36;fill:none;stroke:url(#SVGID_5_);stroke-width:0.5;stroke-linecap:round;stroke-linejoin:round;stroke-dasharray:2.9719,2.9719,2.9719,2.9719,2.9719,2.9719;enable-background:new    ;}
	
		.st18{opacity:0.36;fill:none;stroke:url(#SVGID_6_);stroke-width:0.5;stroke-linecap:round;stroke-linejoin:round;stroke-dasharray:3.0209,3.0209,3.0209,3.0209,3.0209,3.0209;enable-background:new    ;}
	.st19{fill:#777777;}
	.st20{font-family:'Play-Regular';}
	.st21{font-size:24px;}
	.st22{font-size:27.5199px;}
	.st23{fill:#353535;}
	.st24{fill:#898989;}
	
		.st25{opacity:0.36;fill:none;stroke:url(#SVGID_7_);stroke-width:0.5;stroke-linecap:round;stroke-linejoin:round;stroke-dasharray:2.9719,2.9719,2.9719,2.9719,2.9719,2.9719;enable-background:new    ;}
	
		.st26{opacity:0.36;fill:none;stroke:url(#SVGID_8_);stroke-width:0.5;stroke-linecap:round;stroke-linejoin:round;stroke-dasharray:3.0209,3.0209,3.0209,3.0209,3.0209,3.0209;enable-background:new    ;}
	.st27{fill:#727272;}
	.st28{fill:#E0E0E0;}
	
		.st29{opacity:0.36;fill:none;stroke:url(#SVGID_9_);stroke-width:0.5;stroke-linecap:round;stroke-linejoin:round;stroke-dasharray:2.9719,2.9719,2.9719,2.9719,2.9719,2.9719;enable-background:new    ;}
	
		.st30{opacity:0.36;fill:none;stroke:url(#SVGID_10_);stroke-width:0.5;stroke-linecap:round;stroke-linejoin:round;stroke-dasharray:3.0209,3.0209,3.0209,3.0209,3.0209,3.0209;enable-background:new    ;}
	.st31{fill:#060000;}
	.st32{opacity:0.42;}
	.st33{fill:#32FF10;}
	.st34{fill:#52EF00;}
	.st35{opacity:0.7;}
	.st36{opacity:0.62;fill:#777777;}
	.st37{fill:#AFAFAF;}
	
		.st38{opacity:0.36;fill:none;stroke:url(#SVGID_11_);stroke-width:0.5;stroke-linecap:round;stroke-linejoin:round;stroke-dasharray:2.9719,2.9719,2.9719,2.9719,2.9719,2.9719;enable-background:new    ;}
	
		.st39{opacity:0.36;fill:none;stroke:url(#SVGID_12_);stroke-width:0.5;stroke-linecap:round;stroke-linejoin:round;stroke-dasharray:3.0209,3.0209,3.0209,3.0209,3.0209,3.0209;enable-background:new    ;}
	
		.st40{opacity:0.36;fill:none;stroke:url(#SVGID_13_);stroke-width:0.5;stroke-linecap:round;stroke-linejoin:round;stroke-dasharray:2.9719,2.9719,2.9719,2.9719,2.9719,2.9719;enable-background:new    ;}
	
		.st41{opacity:0.36;fill:none;stroke:url(#SVGID_14_);stroke-width:0.5;stroke-linecap:round;stroke-linejoin:round;stroke-dasharray:3.0209,3.0209,3.0209,3.0209,3.0209,3.0209;enable-background:new    ;}
	
		.st42{opacity:0.36;fill:none;stroke:url(#SVGID_15_);stroke-width:0.5;stroke-linecap:round;stroke-linejoin:round;stroke-dasharray:2.9719,2.9719,2.9719,2.9719,2.9719,2.9719;enable-background:new    ;}
	
		.st43{opacity:0.36;fill:none;stroke:url(#SVGID_16_);stroke-width:0.5;stroke-linecap:round;stroke-linejoin:round;stroke-dasharray:3.0209,3.0209,3.0209,3.0209,3.0209,3.0209;enable-background:new    ;}
	
		.st44{opacity:0.36;fill:none;stroke:url(#SVGID_17_);stroke-width:0.5;stroke-linecap:round;stroke-linejoin:round;stroke-dasharray:2.9719,2.9719,2.9719,2.9719,2.9719,2.9719;enable-background:new    ;}
	
		.st45{opacity:0.36;fill:none;stroke:url(#SVGID_18_);stroke-width:0.5;stroke-linecap:round;stroke-linejoin:round;stroke-dasharray:3.0209,3.0209,3.0209,3.0209,3.0209,3.0209;enable-background:new    ;}
	
		.st46{opacity:0.36;fill:none;stroke:url(#SVGID_19_);stroke-width:0.5;stroke-linecap:round;stroke-linejoin:round;stroke-dasharray:2.9719,2.9719,2.9719,2.9719,2.9719,2.9719;enable-background:new    ;}
	
		.st47{opacity:0.36;fill:none;stroke:url(#SVGID_20_);stroke-width:0.5;stroke-linecap:round;stroke-linejoin:round;stroke-dasharray:3.0209,3.0209,3.0209,3.0209,3.0209,3.0209;enable-background:new    ;}
	.st48{font-size:30.3021px;}
</style>
<g id="Layer_1">
	<g id="logo">
		<g id="background">
			<rect id="background_x5F_2" x="594.5" width="685.6" height="2256.9"/>
		</g>
		<g id="cat_x5F_opacity" class="st0">
			<g id="cat_x5F_little" class="st1">
				<g>
					<g>
						<g>
							<g>
								<defs>
									<rect id="SVGID_1_" x="-0.5" y="473.8" width="271.6" height="538.8"/>
								</defs>
								<clipPath id="SVGID_2_">
									<use xlink:href="#SVGID_1_"  style="overflow:visible;"/>
								</clipPath>
								<g id="Layer_6_1_" class="st2">
									<g>
										<g>
											<g>
												<g>
													<path class="st3" d="M20.2,901.3l26.4-90.7c-37.9-4.3-77.8-19-77.8-84.6c0-18.7,6.8-33.8,17.6-45.8
														c-1.8-4.3-7.7-21.7,1.6-45.4c0,0,14.4-4.5,46.9,17.6c13.5-3.8,28.2-5.6,42.9-5.9c14.4,0,29.1,2,42.9,5.9
														c32.7-22.1,46.9-17.6,46.9-17.6c9.3,23.5,3.4,40.8,1.8,45.4c11.1,12,17.6,27.3,17.6,45.8c0,65.7-39.9,80.1-78.1,84.4
														l25.5,92.3L78,912.2L20.2,901.3z"/>
													<g>
														<g>
															<path class="st3" d="M179.7,582.8C92.9,526.1-26.5,553-79,642.8c-48.7,83-22.3,192.7,58,245.3
																c45.4,29.8,100.6,36.8,152.1,20.1c6.1-2,3.6-11.7-2.7-9.7c-43.2,13.7-88.8,10.7-129.2-10.2
																c-38.1-19.9-68.4-53.9-83-94.5c-30.7-85.5,12-183,95.9-218c53.3-22.4,114.4-15.6,162.5,15.8
																C180,595.2,185.2,586.4,179.7,582.8L179.7,582.8z"/>
														</g>
													</g>
												</g>
											</g>
										</g>
									</g>
								</g>
							</g>
						</g>
					</g>
				</g>
			</g>
			<g id="cat_x5F_big" class="st1">
				<g>
					<g>
						<g>
							<g>
								<defs>
									<rect id="SVGID_3_" x="1109.9" y="1159" width="170.1" height="337.5"/>
								</defs>
								<clipPath id="SVGID_4_">
									<use xlink:href="#SVGID_3_"  style="overflow:visible;"/>
								</clipPath>
								<g id="Layer_6_2_" class="st4">
									<g>
										<g>
											<g>
												<g>
													<path class="st3" d="M1242.9,1426.8l16.5-56.8c-23.7-2.7-48.8-11.9-48.8-53c0-11.7,4.2-21.2,11-28.7
														c-1.1-2.7-4.8-13.6,1-28.4c0,0,9-2.8,29.4,11c8.5-2.4,17.7-3.5,26.8-3.7c9,0,18.2,1.3,26.8,3.7
														c20.5-13.8,29.4-11,29.4-11c5.8,14.7,2.1,25.6,1.1,28.4c6.9,7.5,11,17.1,11,28.7c0,41.1-25,50.2-48.9,52.8l16,57.8
														l-35.3,5.9L1242.9,1426.8z"/>
													<g>
														<g>
															<path class="st3" d="M1342.8,1227.2c-54.4-35.5-129.2-18.7-162.1,37.6c-30.5,52-14,120.7,36.3,153.6
																c28.4,18.7,63,23,95.2,12.6c3.8-1.3,2.3-7.3-1.7-6.1c-27,8.6-55.5,6.8-80.8-6.4c-23.9-12.4-42.8-33.8-52-59.2
																c-19.2-53.6,7.5-114.6,60.1-136.5c33.3-14,71.6-9.8,101.7,9.9C1343,1235,1346.2,1229.5,1342.8,1227.2L1342.8,1227.2z
																"/>
														</g>
													</g>
												</g>
											</g>
										</g>
									</g>
								</g>
							</g>
						</g>
					</g>
				</g>
			</g>
		</g>
		<g id="point" class="st0">
			<g id="point_x5F_cat" class="st5">
				<circle class="st6" cx="559.7" cy="875.4" r="2.5"/>
				<circle class="st7" cx="559.7" cy="955.2" r="2.5"/>
				<circle class="st6" cx="559.7" cy="917.8" r="2.5"/>
				<circle class="st6" cx="634.5" cy="917.8" r="2.5"/>
				<circle class="st7" cx="634.5" cy="997.5" r="2.5"/>
				<circle class="st7" cx="634.5" cy="960.1" r="2.5"/>
				<circle class="st6" cx="634.5" cy="1079.7" r="2.5"/>
				<circle class="st6" cx="634.5" cy="1199.3" r="2.5"/>
				<circle class="st6" cx="634.5" cy="1122.1" r="2.5"/>
				<circle class="st6" cx="415.2" cy="997.5" r="2.5"/>
				<circle class="st6" cx="415.3" cy="960" r="2.5"/>
				<circle class="st6" cx="488.7" cy="917.8" r="2.5"/>
				<circle class="st6" cx="559.7" cy="1000" r="2.5"/>
				<circle class="st6" cx="704.2" cy="1000" r="2.5"/>
				<circle class="st6" cx="704.2" cy="1079.7" r="2.5"/>
				<circle class="st7" cx="704.2" cy="1042.3" r="2.5"/>
				<circle class="st7" cx="778.9" cy="1042.3" r="2.5"/>
				<circle class="st6" cx="853.7" cy="1042.3" r="2.5"/>
				<circle class="st6" cx="778.9" cy="1079.7" r="2.5"/>
				<circle class="st6" cx="704.2" cy="1124.6" r="2.5"/>
				<circle class="st6" cx="340.5" cy="1000" r="2.5"/>
				<circle class="st7" cx="340.5" cy="1074.7" r="2.5"/>
				<circle class="st7" cx="340.5" cy="1037.4" r="2.5"/>
				<circle class="st7" cx="270.8" cy="1037.4" r="2.5"/>
				<circle class="st6" cx="559.7" cy="1120.8" r="2.5"/>
				<circle class="st6" cx="559.7" cy="1203" r="2.5"/>
				<circle class="st6" cx="559.7" cy="1049.8" r="2.5"/>
				<circle class="st7" cx="487.5" cy="1039.9" r="2.5"/>
				<circle class="st7" cx="487.5" cy="998.8" r="2.5"/>
				<circle class="st6" cx="487.6" cy="1079" r="2.5"/>
				<circle class="st6" cx="487.5" cy="1120.8" r="2.5"/>
				<circle class="st6" cx="487.5" cy="1160.7" r="2.5"/>
			</g>
			<g id="point_x5F_background" class="st8">
				<circle class="st9" cx="487.6" cy="1079" r="10.6"/>
				<circle class="st9" cx="415.3" cy="960" r="10.6"/>
				<circle class="st10" cx="309.5" cy="765.7" r="8.5"/>
				<circle class="st11" cx="309.5" cy="765.7" r="2"/>
				<circle class="st12" cx="1039.3" cy="1434.7" r="8.5"/>
				<circle class="st13" cx="1039.3" cy="1434.7" r="2"/>
				<circle class="st13" cx="1045.4" cy="1414.7" r="0.8"/>
				<circle class="st13" cx="1015.4" cy="1437.7" r="1.6"/>
				<circle class="st13" cx="1034" cy="1384.7" r="0.6"/>
				<circle class="st13" cx="1064.4" cy="1404.7" r="0.5"/>
				<circle class="st13" cx="1018.1" cy="1474.7" r="0.6"/>
				<circle class="st13" cx="1041.3" cy="1454.7" r="0.8"/>
				<circle class="st13" cx="1059.4" cy="1474.7" r="1.4"/>
				<circle class="st10" cx="341.5" cy="741.7" r="8.5"/>
				<circle class="st11" cx="341.5" cy="741.7" r="2"/>
				<circle class="st11" cx="347.7" cy="721.7" r="0.8"/>
				<circle class="st11" cx="317.7" cy="744.7" r="1.6"/>
				<circle class="st11" cx="336.2" cy="691.7" r="0.6"/>
				<circle class="st11" cx="366.7" cy="711.7" r="0.5"/>
				<circle class="st11" cx="320.4" cy="781.7" r="0.6"/>
				<circle class="st12" cx="229.5" cy="825.7" r="8.5"/>
				<circle class="st13" cx="229.5" cy="825.7" r="2"/>
				<circle class="st13" cx="237.7" cy="804.7" r="1.6"/>
				<circle class="st13" cx="240.4" cy="841.7" r="0.6"/>
				<circle class="st11" cx="343.6" cy="761.7" r="0.8"/>
				<circle class="st11" cx="361.7" cy="781.7" r="1.4"/>
			</g>
		</g>
		<g id="cat_x5F_square" class="st0">
			<g class="st8">
				<path class="st14" d="M905.6,1817.5c-0.8-0.1-1.7-0.2-2.8-0.5s-2-0.8-2.7-1.3c-0.6-0.6-1.1-1.4-1.6-2.6
					c-0.5-1.1-0.7-2.4-0.7-4.1v-9.7c0-3,0.5-5.1,1.7-6.3c0.6-0.8,1.2-1.3,1.9-1.7c0.6-0.4,1.4-0.7,2.5-0.8c1-0.2,1.9-0.2,2.7-0.3
					c0.8-0.1,1.9-0.1,3.4-0.1c2.5,0,5,0.3,7.5,0.8v3.6c-2.9-0.8-5.6-1.1-8.1-1.1c-1.9,0-3.3,0.2-4.2,0.4c-0.9,0.3-1.5,0.8-1.8,1.4
					c-0.4,0.7-0.5,1.8-0.5,3.3v10.8c0,1.4,0.2,2.3,0.6,3c0.4,0.7,1.1,1.1,2,1.4c1,0.3,2.5,0.4,4.5,0.4c2.7,0,5.3-0.4,8-1.1v3.7
					c-2.5,0.5-5.3,0.8-8.4,0.8C907.7,1817.6,906.4,1817.6,905.6,1817.5z"/>
				<path class="st14" d="M930.5,1817.4l-10.2-26.8h5.3l7.4,21.5h0.1l6.7-21.5h4.9l-13.3,37.7h-5L930.5,1817.4z"/>
				<path class="st14" d="M956.4,1817.3c-1.2-0.2-2.3-0.6-3.5-1.1c-2.3-1.1-3.6-3.7-3.6-7.7v-29.6h4.9v7.9v3.1c0,0.9-0.1,2-0.1,3.2
					c0.2-0.8,0.9-1.5,2.3-2.1c1.4-0.5,3.4-0.8,6-0.8c7.3,0,10.9,2.5,10.9,7.5v10.8c0,1.6-0.2,3-0.7,4.1s-1.1,2-1.7,2.7
					c-0.7,0.6-1.5,1.1-2.7,1.4c-1.1,0.4-2.3,0.6-3.4,0.7c-1,0.1-2.3,0.2-3.7,0.2C959.1,1817.6,957.5,1817.5,956.4,1817.3z
					 M965.5,1814c1-0.3,1.7-0.8,2.1-1.5c0.5-0.8,0.7-1.8,0.7-3.3v-10.3c0-1.5-0.2-2.6-0.7-3.3c-0.5-0.8-1.1-1.2-2.1-1.4
					c-1-0.2-2.4-0.4-4.4-0.4c-1.7,0-3.2,0.2-4.2,0.5s-1.7,0.8-2.1,1.5c-0.5,0.8-0.7,1.8-0.7,3.2v10.4c0,1.5,0.2,2.6,0.6,3.3
					c0.5,0.8,1.1,1.2,2.1,1.5s2.4,0.4,4.2,0.4C963,1814.4,964.5,1814.3,965.5,1814z"/>
				<path class="st14" d="M979.9,1809.6v-10.5c0-3.2,0.9-5.5,2.7-6.9s4.8-2.1,8.9-2.1c3.9,0,6.7,0.7,8.4,2s2.6,3.6,2.6,7v5.8h-17.7
					v3.9c0,1.8,0.6,3.1,1.9,3.9c1.3,0.8,3.3,1.2,5.9,1.2c2.5,0,5.5-0.5,8.9-1.3v3.8c-3.3,0.8-6.5,1.1-9.5,1.1
					C983.9,1817.6,979.9,1814.9,979.9,1809.6z M997.7,1801.8v-4.2c0-1.6-0.5-2.7-1.4-3.3s-2.6-0.9-4.9-0.9c-2.3,0-3.9,0.3-4.9,0.9
					s-1.5,1.7-1.5,3.3v4.2H997.7z"/>
				<path class="st14" d="M1010,1790.7h4.6v4.3c0-0.8,0.4-1.6,1.1-2.3c0.8-0.8,1.7-1.4,2.8-1.8c1.1-0.5,2.2-0.7,3.3-0.7h2.4v4.2
					h-2.7c-2.3,0-4,0.3-5.1,0.9s-1.5,1.7-1.5,3.3v18.6h-4.9L1010,1790.7L1010,1790.7z"/>
			</g>
			<g class="st8">
				<path class="st14" d="M850.7,2057.3v-16.9c0-6.8,5-10.2,15-10.2c3.4,0,6.7,0.4,9.8,1.1v3.9c-3.5-0.9-6.7-1.3-9.7-1.3
					c-1.4,0-2.7,0.1-3.7,0.2c-1.1,0.2-2.1,0.5-3.1,0.8c-2.1,0.9-3.2,2.7-3.2,5.4v16.7c0,4.1,3.4,6.1,10.2,6.1c3,0,6.1-0.5,9.7-1.3
					v4.1c-3.1,0.7-6.4,1.1-10,1.1C855.7,2067,850.7,2063.7,850.7,2057.3z"/>
				<path class="st14" d="M888.3,2066.7c-1.1-0.2-2.3-0.5-3.5-1.1c-1.2-0.5-2.1-1.4-2.7-2.7c-0.6-1.3-0.8-2.9-0.8-5v-9.2
					c0-1.7,0.2-3.1,0.6-4.3s0.9-2.2,1.6-2.9c0.5-0.6,1.4-1.1,2.5-1.4c1.1-0.4,2.3-0.6,3.4-0.7c1.3-0.1,2.7-0.1,4.1-0.1
					c1.9,0,3.3,0.1,4.3,0.2s2,0.3,3.1,0.6c1.1,0.3,2,0.8,2.7,1.5s1.1,1.6,1.6,2.9c0.4,1.3,0.6,2.7,0.6,4.5v9.2
					c0,3.1-0.7,5.4-2.1,6.8c-0.6,0.6-1.4,1.1-2.5,1.4s-2.2,0.5-3.4,0.7c-1.4,0.1-2.8,0.1-4.2,0.1
					C891.3,2067,889.6,2066.9,888.3,2066.7z M897,2063.6c0.7-0.1,1.4-0.3,2-0.6c0.7-0.3,1.1-0.8,1.4-1.4c0.3-0.7,0.4-1.6,0.4-2.8
					V2048c0-1.7-0.2-2.9-0.6-3.6c-0.4-0.8-1.1-1.2-2-1.5c-1-0.2-2.5-0.4-4.5-0.4s-3.6,0.2-4.5,0.4c-1,0.2-1.7,0.8-2,1.5
					c-0.4,0.8-0.6,2-0.6,3.6v10.8c0,1.2,0.2,2.1,0.4,2.8c0.3,0.7,0.8,1.1,1.4,1.4c0.7,0.3,1.4,0.5,2,0.6c0.7,0.1,1.8,0.1,3.3,0.1
					C895.2,2063.7,896.3,2063.7,897,2063.6z"/>
				<path class="st14" d="M913.6,2039.8h4.9v3.3c0.5-2.5,3.4-3.8,8.7-3.8c3.4,0,5.8,0.6,7.2,1.8c1.4,1.2,2,3.2,2,5.8v19.5h-4.9
					v-19.2c0-0.7-0.1-1.3-0.2-1.7c-0.1-0.5-0.3-0.9-0.7-1.3c-0.8-0.9-2.3-1.4-4.9-1.4c-2,0-3.4,0.2-4.5,0.4
					c-1.1,0.3-1.7,0.8-2.2,1.4s-0.6,1.5-0.6,2.7v19.3h-4.9L913.6,2039.8L913.6,2039.8z"/>
				<path class="st14" d="M945.9,2077.9v-3.5c4.4,0.5,7.6,0.8,9.6,0.8c2.5,0,4.4-0.4,5.5-1.2s1.7-2.1,1.7-4v-6.4
					c-0.1,1.1-0.8,2-2.4,2.6c-1.5,0.5-3.4,0.8-5.8,0.8c-2.7,0-4.9-0.2-6.4-0.8c-1.5-0.5-2.6-1.4-3.3-2.5c-0.6-1.1-1-2.7-1-4.8v-10.8
					c0-3.2,0.8-5.4,2.6-6.7c1.7-1.4,4.5-2,8.4-2c4.6,0,7.4,1.1,8.1,3.1v-2.6h4.6v29.1c0,2.4-0.5,4.4-1.4,5.8c-0.9,1.4-2.3,2.3-4.1,3
					c-1.8,0.5-4.2,0.8-7.1,0.8C951.5,2078.5,948.4,2078.3,945.9,2077.9z M961.3,2062.7c1.1-0.6,1.6-1.8,1.6-3.5v-12
					c0-1.2-0.2-2.1-0.6-2.7s-1.1-1.1-2.1-1.4s-2.5-0.4-4.5-0.4c-1.9,0-3.3,0.2-4.2,0.4s-1.6,0.7-1.9,1.4c-0.4,0.6-0.5,1.6-0.5,2.8
					v12.1c0,1.2,0.2,2.2,0.5,2.8c0.4,0.6,1.1,1.1,2,1.3c1,0.2,2.3,0.4,4.2,0.4C958.3,2063.6,960.2,2063.3,961.3,2062.7z"/>
				<path class="st14" d="M976.3,2039.8h4.7v4.3c0-0.8,0.4-1.7,1.1-2.4c0.8-0.8,1.7-1.4,2.8-1.8c1.1-0.5,2.3-0.7,3.3-0.7h2.4v4.2
					h-2.7c-2.3,0-4,0.3-5.1,0.9s-1.6,1.7-1.6,3.3v18.7h-4.9V2039.8L976.3,2039.8z"/>
				<path class="st14" d="M994.6,2058.9v-10.5c0-3.3,0.9-5.5,2.8-7c1.8-1.4,4.9-2.1,9-2.1c3.9,0,6.7,0.7,8.5,2
					c1.7,1.4,2.6,3.7,2.6,7v5.9h-17.9v4c0,1.8,0.6,3.2,1.9,3.9c1.3,0.8,3.3,1.2,5.9,1.2c2.5,0,5.5-0.5,8.9-1.3v3.8
					c-3.3,0.8-6.6,1.1-9.6,1.1C998.7,2067,994.6,2064.2,994.6,2058.9z M1012.5,2051v-4.2c0-1.6-0.5-2.7-1.4-3.3
					c-1-0.6-2.7-0.9-5-0.9s-3.9,0.3-4.9,0.9c-1.1,0.6-1.5,1.7-1.5,3.3v4.2H1012.5z"/>
				<path class="st14" d="M1024,2066.3v-3.8c4.3,0.7,7.4,1.1,9.2,1.1c2.3,0,4-0.2,5.1-0.7s1.5-1.3,1.5-2.6v-2.7c0-1.1-0.4-2-1.1-2.4
					c-0.8-0.5-2-0.7-3.7-0.7h-3c-2.7,0-4.9-0.5-6.3-1.7c-1.4-1.1-2.2-2.7-2.2-4.8v-2.5c0-4.2,3.9-6.3,11.9-6.3
					c0.6,0,3.3,0.2,8.1,0.5v3.6c-3.3-0.5-6-0.8-8.3-0.8c-2.6,0-4.4,0.2-5.3,0.8c-1,0.5-1.4,1.4-1.4,2.6v2.3c0,1.8,1.6,2.7,4.9,2.7
					h3.1c5.6,0,8.4,2.1,8.4,6.3v2.3c0,2.7-1,4.7-2.9,5.8s-4.9,1.7-8.7,1.7C1030.3,2067,1027.3,2066.7,1024,2066.3z"/>
				<path class="st14" d="M1050.5,2066.3v-3.8c4.3,0.7,7.4,1.1,9.2,1.1c2.3,0,4-0.2,5.1-0.7s1.5-1.3,1.5-2.6v-2.7
					c0-1.1-0.4-2-1.1-2.4c-0.8-0.5-2-0.7-3.7-0.7h-3c-2.7,0-4.9-0.5-6.3-1.7c-1.4-1.1-2.2-2.7-2.2-4.8v-2.5c0-4.2,3.9-6.3,11.9-6.3
					c0.6,0,3.3,0.2,8.1,0.5v3.6c-3.3-0.5-6-0.8-8.3-0.8c-2.6,0-4.4,0.2-5.3,0.8c-1,0.5-1.4,1.4-1.4,2.6v2.3c0,1.8,1.6,2.7,4.9,2.7
					h3.1c5.6,0,8.4,2.1,8.4,6.3v2.3c0,2.7-1,4.7-2.9,5.8s-4.9,1.7-8.7,1.7C1056.8,2067,1053.8,2066.7,1050.5,2066.3z"/>
			</g>
			<g id="Layer_6_10_" class="st8">
				<g>
					<g>
						<path class="st15" d="M953.8,1984.8l8.9-30.5c-12.7-1.4-26.1-6.4-26.1-28.4c0-6.3,2.3-11.4,5.9-15.4
							c-0.6-1.4-2.6-7.3,0.5-15.2c0,0,4.9-1.5,15.8,5.9c4.5-1.3,9.5-1.9,14.4-2c4.9,0,9.8,0.7,14.4,2c11-7.4,15.8-5.9,15.8-5.9
							c3.1,7.9,1.1,13.7,0.6,15.2c3.7,4,5.9,9.2,5.9,15.4c0,22.1-13.4,26.9-26.2,28.3l8.6,31l-18.9,3.2L953.8,1984.8z"/>
						<g>
							<g>
								<path class="st15" d="M1007.4,1877.8c-29.2-19-69.3-10-86.9,20.2c-16.4,27.9-7.5,64.7,19.5,82.4c15.2,10,33.8,12.4,51.1,6.7
									c2-0.7,1.2-3.9-0.9-3.3c-14.5,4.6-29.8,3.6-43.4-3.4c-12.8-6.7-23-18.1-27.9-31.8c-10.3-28.7,4-61.5,32.2-73.2
									c17.9-7.5,38.4-5.2,54.6,5.3C1007.5,1882,1009.2,1879,1007.4,1877.8L1007.4,1877.8z"/>
							</g>
						</g>
					</g>
				</g>
			</g>
		</g>
		<g id="cat_x5F_black" class="st0">
			<g id="Layer_2_3_" class="st8">
				<g>
					<path class="st16" d="M71.4,1962.1c-0.8-0.1-1.7-0.2-2.8-0.5c-1.1-0.3-2-0.8-2.7-1.3c-0.6-0.6-1.1-1.4-1.6-2.6
						c-0.5-1.1-0.7-2.4-0.7-4.1v-9.7c0-3,0.5-5.1,1.7-6.3c0.6-0.8,1.2-1.3,1.9-1.7c0.6-0.4,1.4-0.7,2.5-0.8c1-0.2,1.9-0.2,2.7-0.3
						c0.8-0.1,1.9-0.1,3.4-0.1c2.5,0,5,0.3,7.5,0.8v3.6c-2.9-0.8-5.6-1.1-8.1-1.1c-1.9,0-3.3,0.2-4.2,0.4c-0.9,0.3-1.5,0.8-1.8,1.4
						c-0.4,0.7-0.5,1.8-0.5,3.3v10.8c0,1.4,0.2,2.3,0.6,3s1.1,1.1,2,1.4c1,0.3,2.5,0.4,4.5,0.4c2.7,0,5.3-0.4,8-1.1v3.7
						c-2.5,0.5-5.3,0.8-8.4,0.8C73.5,1962.1,72.2,1962.1,71.4,1962.1z"/>
					<path class="st16" d="M96.3,1962l-10.2-26.8h5.3l7.4,21.5h0.1l6.7-21.5h4.9l-13.3,37.7h-5L96.3,1962z"/>
					<path class="st16" d="M122.2,1961.8c-1.2-0.2-2.3-0.6-3.5-1.1c-2.3-1.1-3.6-3.7-3.6-7.7v-29.6h4.9v7.9v3.1c0,0.9-0.1,2-0.1,3.2
						c0.2-0.8,0.9-1.5,2.3-2.1c1.4-0.5,3.4-0.8,6-0.8c7.3,0,10.9,2.5,10.9,7.5v10.8c0,1.6-0.2,3-0.7,4.1s-1.1,2-1.7,2.7
						c-0.7,0.6-1.5,1.1-2.7,1.4c-1.1,0.4-2.3,0.6-3.4,0.7c-1,0.1-2.3,0.2-3.7,0.2C124.9,1962.1,123.3,1962.1,122.2,1961.8z
						 M131.3,1958.5c1-0.3,1.7-0.8,2.1-1.5c0.5-0.8,0.7-1.8,0.7-3.3v-10.3c0-1.5-0.2-2.6-0.7-3.3c-0.5-0.8-1.1-1.2-2.1-1.4
						c-1-0.2-2.4-0.4-4.4-0.4c-1.7,0-3.2,0.2-4.2,0.5s-1.7,0.8-2.1,1.5c-0.5,0.8-0.7,1.8-0.7,3.2v10.4c0,1.5,0.2,2.6,0.6,3.3
						c0.5,0.8,1.1,1.2,2.1,1.5s2.4,0.4,4.2,0.4C128.8,1959,130.3,1958.8,131.3,1958.5z"/>
					<path class="st16" d="M145.7,1954.1v-10.5c0-3.2,0.9-5.5,2.7-6.9s4.8-2.1,8.9-2.1c3.9,0,6.7,0.7,8.4,2c1.7,1.4,2.6,3.6,2.6,7
						v5.8h-17.7v3.9c0,1.8,0.6,3.1,1.9,3.9c1.3,0.8,3.3,1.2,5.9,1.2c2.5,0,5.5-0.5,8.9-1.3v3.8c-3.3,0.8-6.5,1.1-9.5,1.1
						C149.7,1962.1,145.7,1959.5,145.7,1954.1z M163.5,1946.3v-4.2c0-1.6-0.5-2.7-1.4-3.3s-2.6-0.9-4.9-0.9c-2.3,0-3.9,0.3-4.9,0.9
						s-1.5,1.7-1.5,3.3v4.2H163.5z"/>
					<path class="st16" d="M175.8,1935.2h4.6v4.3c0-0.8,0.4-1.6,1.1-2.3c0.8-0.8,1.7-1.4,2.8-1.8s2.2-0.7,3.3-0.7h2.4v4.2h-2.7
						c-2.3,0-4,0.3-5.1,0.9s-1.5,1.7-1.5,3.3v18.6h-4.9L175.8,1935.2L175.8,1935.2z"/>
				</g>
				<g>
					<path class="st16" d="M354,1951.2v-17c0-6.8,5-10.2,15-10.2c3.4,0,6.7,0.4,9.8,1.1v3.9c-3.5-0.9-6.7-1.3-9.7-1.3
						c-1.4,0-2.7,0.1-3.7,0.2s-2.1,0.5-3.1,0.8c-2.1,0.9-3.2,2.7-3.2,5.4v16.7c0,4.1,3.4,6.1,10.2,6.1c3,0,6.1-0.5,9.7-1.3v4.1
						c-3.1,0.7-6.4,1.1-10,1.1C359,1960.9,354,1957.6,354,1951.2z"/>
					<path class="st16" d="M391.7,1960.6c-1.1-0.2-2.3-0.5-3.5-1.1c-1.2-0.5-2.1-1.4-2.7-2.7c-0.5-1.2-0.8-2.9-0.8-5v-9.2
						c0-1.7,0.2-3.1,0.6-4.3c0.4-1.2,0.9-2.2,1.6-2.9c0.5-0.6,1.4-1.1,2.5-1.4c1.1-0.4,2.3-0.6,3.4-0.7c1.3-0.1,2.7-0.1,4.1-0.1
						c1.9,0,3.3,0.1,4.3,0.2s2,0.3,3.1,0.6c1.1,0.3,2,0.8,2.7,1.5s1.1,1.6,1.6,2.9c0.4,1.3,0.6,2.7,0.6,4.5v9.2
						c0,3.1-0.7,5.4-2.1,6.8c-0.6,0.6-1.4,1.1-2.5,1.4s-2.2,0.5-3.4,0.7c-1.4,0.1-2.8,0.1-4.2,0.1
						C394.6,1960.9,392.9,1960.8,391.7,1960.6z M400.3,1957.5c0.7-0.1,1.4-0.3,2-0.6c0.7-0.3,1.1-0.8,1.4-1.4
						c0.3-0.7,0.4-1.6,0.4-2.8v-10.8c0-1.7-0.2-2.9-0.6-3.6c-0.4-0.8-1.1-1.2-2-1.5c-1-0.2-2.5-0.4-4.5-0.4s-3.6,0.2-4.5,0.4
						c-1,0.2-1.7,0.8-2,1.5s-0.6,2-0.6,3.6v10.8c0,1.2,0.2,2.1,0.4,2.8c0.3,0.7,0.8,1.1,1.4,1.4c0.7,0.3,1.4,0.5,2,0.6
						c0.7,0.1,1.8,0.1,3.3,0.1C398.5,1957.6,399.7,1957.6,400.3,1957.5z"/>
					<path class="st16" d="M416.9,1933.7h4.9v3.3c0.5-2.5,3.4-3.8,8.7-3.8c3.4,0,5.8,0.6,7.2,1.8c1.4,1.2,2,3.2,2,5.8v19.5h-4.9
						v-19.2c0-0.7-0.1-1.3-0.2-1.7c-0.1-0.5-0.3-0.9-0.7-1.3c-0.8-0.9-2.3-1.4-4.9-1.4c-2,0-3.4,0.2-4.5,0.4
						c-1.1,0.3-1.7,0.8-2.2,1.4s-0.6,1.5-0.6,2.7v19.3h-4.9L416.9,1933.7L416.9,1933.7z"/>
					<path class="st16" d="M449.3,1971.8v-3.5c4.4,0.5,7.6,0.8,9.6,0.8c2.5,0,4.4-0.4,5.5-1.2c1.1-0.8,1.7-2.1,1.7-4v-6.4
						c-0.1,1.1-0.8,2-2.4,2.6c-1.5,0.5-3.4,0.8-5.8,0.8c-2.7,0-4.9-0.2-6.4-0.8c-1.5-0.5-2.6-1.4-3.3-2.5c-0.6-1.1-1-2.7-1-4.8V1942
						c0-3.2,0.8-5.4,2.6-6.7c1.7-1.4,4.5-2,8.4-2c4.6,0,7.4,1.1,8.1,3.1v-2.6h4.6v29.1c0,2.4-0.5,4.4-1.4,5.8s-2.3,2.3-4.1,3
						c-1.8,0.5-4.2,0.8-7.1,0.8C454.8,1972.4,451.8,1972.1,449.3,1971.8z M464.6,1956.6c1.1-0.6,1.6-1.8,1.6-3.5V1941
						c0-1.2-0.2-2.1-0.6-2.7s-1.1-1.1-2.1-1.4c-1.1-0.3-2.5-0.4-4.5-0.4c-1.9,0-3.3,0.2-4.2,0.4c-0.9,0.2-1.6,0.7-1.9,1.4
						c-0.4,0.6-0.5,1.6-0.5,2.8v12.1c0,1.2,0.2,2.2,0.5,2.8s1.1,1.1,2,1.3c1,0.2,2.3,0.4,4.2,0.4
						C461.6,1957.5,463.5,1957.2,464.6,1956.6z"/>
					<path class="st16" d="M479.7,1933.7h4.7v4.3c0-0.8,0.4-1.7,1.1-2.4c0.8-0.8,1.7-1.4,2.8-1.8c1.1-0.5,2.3-0.7,3.3-0.7h2.4v4.2
						h-2.7c-2.3,0-4,0.3-5.1,0.9s-1.6,1.7-1.6,3.3v18.7h-4.9L479.7,1933.7L479.7,1933.7z"/>
					<path class="st16" d="M498,1952.7v-10.5c0-3.3,0.9-5.5,2.8-7c1.8-1.4,4.9-2.1,9-2.1c3.9,0,6.7,0.7,8.5,2s2.6,3.7,2.6,7v5.9H503
						v4c0,1.8,0.6,3.2,1.9,3.9c1.3,0.8,3.3,1.2,5.9,1.2c2.5,0,5.5-0.5,8.9-1.3v3.8c-3.3,0.8-6.6,1.1-9.6,1.1
						C502,1960.9,498,1958.1,498,1952.7z M515.8,1944.9v-4.2c0-1.6-0.5-2.7-1.4-3.3c-1-0.6-2.7-0.9-5-0.9s-3.9,0.3-4.9,0.9
						c-1.1,0.6-1.5,1.7-1.5,3.3v4.2H515.8z"/>
					<path class="st16" d="M527.4,1960.2v-3.8c4.3,0.7,7.4,1.1,9.2,1.1c2.3,0,4-0.2,5.1-0.7s1.5-1.3,1.5-2.6v-2.7
						c0-1.1-0.4-2-1.1-2.4s-2-0.7-3.7-0.7h-3c-2.7,0-4.9-0.5-6.3-1.7c-1.4-1.1-2.2-2.7-2.2-4.8v-2.5c0-4.2,3.9-6.3,11.9-6.3
						c0.6,0,3.3,0.2,8.1,0.5v3.6c-3.3-0.5-6-0.8-8.3-0.8c-2.6,0-4.4,0.2-5.3,0.8c-1,0.5-1.4,1.4-1.4,2.6v2.3c0,1.8,1.6,2.7,4.9,2.7
						h3.1c5.6,0,8.4,2.1,8.4,6.3v2.3c0,2.7-1,4.7-2.9,5.8c-1.9,1.1-4.9,1.7-8.7,1.7C533.7,1960.9,530.6,1960.6,527.4,1960.2z"/>
					<path class="st16" d="M553.9,1960.2v-3.8c4.3,0.7,7.4,1.1,9.2,1.1c2.3,0,4-0.2,5.1-0.7s1.5-1.3,1.5-2.6v-2.7
						c0-1.1-0.4-2-1.1-2.4s-2-0.7-3.7-0.7h-3c-2.7,0-4.9-0.5-6.3-1.7c-1.4-1.1-2.2-2.7-2.2-4.8v-2.5c0-4.2,3.9-6.3,11.9-6.3
						c0.6,0,3.3,0.2,8.1,0.5v3.6c-3.3-0.5-6-0.8-8.3-0.8c-2.6,0-4.4,0.2-5.3,0.8c-1,0.5-1.4,1.4-1.4,2.6v2.3c0,1.8,1.6,2.7,4.9,2.7
						h3.1c5.6,0,8.4,2.1,8.4,6.3v2.3c0,2.7-1,4.7-2.9,5.8c-1.9,1.1-4.9,1.7-8.7,1.7C560.2,1960.9,557.1,1960.6,553.9,1960.2z"/>
				</g>
			</g>
			<g id="Layer_6_7_" class="st8">
				<g>
					<g>
						<path class="st16" d="M266.3,1993.5l8.9-30.5c-12.7-1.4-26.1-6.4-26.1-28.4c0-6.3,2.3-11.4,5.9-15.4
							c-0.6-1.4-2.6-7.3,0.5-15.2c0,0,4.9-1.5,15.8,5.9c4.5-1.3,9.5-1.9,14.4-2c4.9,0,9.8,0.7,14.4,2c11-7.4,15.8-5.9,15.8-5.9
							c3.1,7.9,1.1,13.7,0.6,15.2c3.7,4,5.9,9.2,5.9,15.4c0,22.1-13.4,26.9-26.2,28.3l8.6,31l-18.9,3.2L266.3,1993.5z"/>
						<g>
							<g>
								<path class="st16" d="M319.9,1886.5c-29.2-19-69.3-10-86.9,20.2c-16.4,27.9-7.5,64.7,19.5,82.4c15.2,10,33.8,12.4,51.1,6.7
									c2-0.7,1.2-3.9-0.9-3.3c-14.5,4.6-29.8,3.6-43.4-3.4c-12.8-6.7-23-18.1-27.9-31.8c-10.3-28.7,4-61.5,32.2-73.2
									c17.9-7.5,38.4-5.2,54.6,5.3C319.9,1890.7,321.7,1887.7,319.9,1886.5L319.9,1886.5z"/>
							</g>
						</g>
					</g>
				</g>
			</g>
		</g>
		<g id="cat" class="st0">
			<g class="st8">
				<g id="Layer_2_2_">
					<g>
						<path class="st14" d="M232.2,1076c-1.4-0.1-2.9-0.4-4.6-0.9c-1.9-0.5-3.2-1.2-4.4-2.1c-1-1-1.9-2.4-2.6-4.2
							c-0.7-1.7-1.1-4-1.1-6.7v-15.9c0-4.9,0.9-8.3,2.7-10.3c1-1.2,2-2.1,3.1-2.7c1-0.6,2.4-1.1,4.1-1.2c1.6-0.2,3.1-0.4,4.5-0.5
							s3.1-0.1,5.6-0.1c4.1,0,8.2,0.5,12.3,1.4v5.9c-4.7-1.2-9.2-1.7-13.3-1.7c-3.1,0-5.4,0.2-6.9,0.6c-1.5,0.5-2.5,1.2-3,2.4
							c-0.6,1.1-0.9,3-0.9,5.4v17.7c0,2.2,0.4,3.9,1,5s1.7,1.9,3.4,2.2c1.6,0.5,4.1,0.6,7.3,0.6c4.4,0,8.7-0.6,13.1-1.7v6.1
							c-4.1,0.9-8.7,1.2-13.8,1.2C235.6,1076.2,233.5,1076.2,232.2,1076z"/>
						<path class="st14" d="M273.1,1075.9l-16.8-44h8.7l12.1,35.4h0.1l11-35.4h8.1l-21.8,62h-8.2L273.1,1075.9z"/>
						<path class="st14" d="M315.6,1075.7c-2-0.4-3.9-1-5.7-1.9c-3.9-1.9-5.9-6.1-5.9-12.7v-48.6h8.1v13v5.1c0,1.5-0.1,3.2-0.1,5.2
							c0.2-1.4,1.5-2.5,3.7-3.5c2.2-0.9,5.6-1.4,9.8-1.4c12,0,17.9,4.1,17.9,12.3v17.8c0,2.6-0.4,4.9-1.1,6.7
							c-0.7,1.9-1.7,3.4-2.9,4.5c-1.1,1-2.5,1.9-4.5,2.4c-1.9,0.6-3.7,1-5.6,1.1c-1.6,0.1-3.7,0.2-6.1,0.2
							C320.1,1076.2,317.5,1076,315.6,1075.7z M330.7,1070.2c1.6-0.5,2.9-1.2,3.5-2.5c0.7-1.2,1.1-3,1.1-5.5v-16.9
							c0-2.5-0.4-4.2-1.1-5.5c-0.7-1.2-1.9-2-3.5-2.4s-4-0.6-7.2-0.6c-2.9,0-5.2,0.2-6.9,0.7c-1.6,0.5-2.7,1.4-3.5,2.5
							c-0.7,1.2-1.1,3-1.1,5.2v17.1c0,2.5,0.4,4.2,1,5.5c0.7,1.2,1.9,2,3.5,2.5s4,0.6,7,0.6C326.6,1070.9,328.9,1070.7,330.7,1070.2
							z"/>
						<path class="st14" d="M354.2,1063v-17.2c0-5.2,1.5-9.1,4.5-11.3c3-2.2,7.8-3.5,14.7-3.5c6.4,0,11,1.1,13.8,3.4s4.2,6,4.2,11.5
							v9.6h-29.1v6.5c0,3,1,5.1,3.1,6.5s5.4,2,9.7,2c4.1,0,9-0.7,14.6-2.1v6.2c-5.5,1.2-10.7,1.7-15.7,1.7
							C360.8,1076.2,354.2,1071.8,354.2,1063z M383.5,1050.1v-6.9c0-2.6-0.7-4.5-2.4-5.5c-1.6-1-4.2-1.5-8.1-1.5
							c-3.7,0-6.4,0.5-8.1,1.5c-1.6,1-2.5,2.7-2.5,5.5v6.9H383.5z"/>
						<path class="st14" d="M403.8,1032h7.6v7.1c0-1.4,0.6-2.6,1.7-3.9c1.2-1.2,2.7-2.2,4.6-3c1.9-0.7,3.6-1.1,5.5-1.1h4v6.9h-4.5
							c-3.9,0-6.6,0.5-8.3,1.5c-1.7,1-2.5,2.7-2.5,5.4v30.5h-8.1L403.8,1032L403.8,1032z"/>
					</g>
					<g>
						<path class="st14" d="M696.6,1058.1v-27.8c0-11.2,8.2-16.8,24.7-16.8c5.6,0,11,0.6,16.1,1.7v6.5c-5.7-1.5-11.1-2.1-15.9-2.1
							c-2.4,0-4.4,0.1-6.1,0.4s-3.5,0.7-5.1,1.4c-3.5,1.5-5.2,4.5-5.2,8.8v27.4c0,6.7,5.6,10.1,16.8,10.1c4.9,0,10.1-0.7,15.9-2.1
							v6.7c-5.1,1.1-10.6,1.7-16.4,1.7C704.8,1074.1,696.6,1068.7,696.6,1058.1z"/>
						<path class="st14" d="M758.5,1073.7c-1.9-0.2-3.9-0.9-5.7-1.7c-2-0.9-3.5-2.4-4.4-4.4s-1.4-4.7-1.4-8.2v-15.2
							c0-2.7,0.4-5.1,1-7.1s1.5-3.6,2.6-4.7c0.9-1,2.2-1.9,4.1-2.4c1.9-0.6,3.7-1,5.6-1.1c2.1-0.1,4.5-0.1,6.7-0.1
							c3.1,0,5.5,0.1,7.1,0.2c1.6,0.1,3.2,0.5,5.1,1s3.4,1.4,4.4,2.5s1.9,2.6,2.6,4.7c0.6,2.1,1,4.5,1,7.3v15.2
							c0,5.1-1.1,8.8-3.5,11.2c-1,1-2.4,1.7-4.1,2.2c-1.7,0.5-3.6,0.9-5.6,1.1c-2.2,0.1-4.6,0.1-6.9,0.1
							C763.4,1074.1,760.5,1073.9,758.5,1073.7z M772.7,1068.6c1.1-0.1,2.2-0.5,3.4-1c1.1-0.5,1.9-1.2,2.2-2.4
							c0.5-1.1,0.6-2.6,0.6-4.6v-17.8c0-2.7-0.4-4.7-1-5.9c-0.6-1.2-1.7-2-3.4-2.5c-1.6-0.4-4.1-0.6-7.5-0.6s-5.9,0.2-7.5,0.6
							c-1.6,0.4-2.7,1.2-3.4,2.5c-0.6,1.2-1,3.2-1,5.9v17.7c0,2,0.2,3.5,0.6,4.6c0.5,1.1,1.2,1.9,2.2,2.4c1.1,0.5,2.2,0.9,3.4,1
							c1.1,0.1,3,0.1,5.5,0.1C769.7,1068.7,771.6,1068.7,772.7,1068.6z"/>
						<path class="st14" d="M800,1029.5h8.1v5.4c0.9-4.1,5.6-6.2,14.3-6.2c5.6,0,9.5,1,11.8,3c2.2,2,3.4,5.2,3.4,9.5v32h-8.1v-31.5
							c0-1.1-0.1-2.1-0.2-2.7c-0.1-0.7-0.5-1.5-1.1-2.1c-1.2-1.5-3.9-2.2-8.1-2.2c-3.2,0-5.6,0.2-7.3,0.6c-1.7,0.5-2.9,1.2-3.6,2.2
							c-0.7,1-1,2.5-1,4.4v31.6H800V1029.5L800,1029.5z"/>
						<path class="st14" d="M853.2,1092v-5.7c7.2,0.9,12.5,1.2,15.8,1.2c4.1,0,7.2-0.6,9.1-2s2.9-3.5,2.9-6.6v-10.5
							c-0.1,1.9-1.4,3.4-4,4.2c-2.5,0.9-5.6,1.4-9.5,1.4c-4.5,0-8-0.4-10.5-1.2c-2.5-0.8-4.2-2.2-5.4-4.1c-1-1.9-1.6-4.5-1.6-7.8
							v-17.8c0-5.2,1.4-8.8,4.2-11.1c2.7-2.2,7.3-3.4,13.8-3.4c7.6,0,12.1,1.7,13.3,5.1v-4.2h7.6v47.8c0,4-0.7,7.2-2.2,9.5
							c-1.5,2.2-3.7,3.9-6.7,4.9c-3,0.9-7,1.4-11.7,1.4C862.3,1093,857.3,1092.6,853.2,1092z M878.3,1067.1c1.7-1,2.6-3,2.6-5.7
							v-19.8c0-2-0.4-3.5-1-4.5s-1.7-1.7-3.5-2.2c-1.7-0.5-4.1-0.6-7.3-0.6c-3.1,0-5.4,0.2-6.9,0.6c-1.5,0.4-2.6,1.1-3.1,2.2
							c-0.6,1-0.9,2.6-0.9,4.6v19.8c0,2,0.2,3.6,0.9,4.6c0.6,1,1.7,1.7,3.2,2.1c1.6,0.4,3.9,0.6,7,0.6
							C873.5,1068.6,876.6,1068.1,878.3,1067.1z"/>
						<path class="st14" d="M903.1,1029.5h7.7v7.1c0-1.4,0.6-2.7,1.7-4c1.2-1.2,2.7-2.2,4.6-3c1.9-0.7,3.7-1.1,5.5-1.1h4v7h-4.5
							c-3.9,0-6.6,0.5-8.3,1.5s-2.6,2.7-2.6,5.4v30.8h-8.1L903.1,1029.5L903.1,1029.5z"/>
						<path class="st14" d="M933.2,1060.7v-17.3c0-5.4,1.5-9.1,4.6-11.5c3-2.4,8-3.5,14.8-3.5c6.5,0,11.1,1.1,14,3.4
							c2.9,2.2,4.2,6.1,4.2,11.6v9.7h-29.4v6.6c0,3,1,5.2,3.1,6.5c2.1,1.4,5.4,2,9.7,2c4.1,0,9.1-0.7,14.7-2.1v6.2
							c-5.5,1.2-10.8,1.7-15.8,1.7C939.9,1074.1,933.2,1069.6,933.2,1060.7z M962.5,1047.8v-6.9c0-2.6-0.7-4.5-2.4-5.5
							c-1.6-1-4.4-1.5-8.2-1.5c-3.7,0-6.5,0.5-8.1,1.5c-1.7,1-2.5,2.9-2.5,5.5v6.9H962.5z"/>
						<path class="st14" d="M981.5,1072.9v-6.2c7.1,1.1,12.1,1.7,15.2,1.7c3.9,0,6.6-0.4,8.3-1.1s2.5-2.1,2.5-4.2v-4.5
							c0-1.9-0.6-3.2-1.9-4c-1.2-0.7-3.4-1.1-6.1-1.1h-5c-4.5,0-8-0.9-10.3-2.7c-2.4-1.9-3.6-4.5-3.6-7.8v-4.1
							c0-6.9,6.5-10.3,19.6-10.3c1,0,5.4,0.2,13.3,0.7v5.9c-5.4-0.9-9.8-1.2-13.6-1.2c-4.2,0-7.2,0.4-8.7,1.2
							c-1.6,0.9-2.4,2.2-2.4,4.2v3.7c0,3,2.6,4.5,8.1,4.5h5.1c9.2,0,13.8,3.5,13.8,10.3v3.7c0,4.5-1.6,7.7-4.7,9.6
							c-3.1,1.9-8,2.9-14.3,2.9C991.8,1074.1,986.8,1073.7,981.5,1072.9z"/>
						<path class="st14" d="M1025.1,1072.9v-6.2c7.1,1.1,12.1,1.7,15.2,1.7c3.9,0,6.6-0.4,8.3-1.1c1.7-0.7,2.5-2.1,2.5-4.2v-4.5
							c0-1.9-0.6-3.2-1.9-4c-1.2-0.7-3.4-1.1-6.1-1.1h-5c-4.5,0-8-0.9-10.3-2.7c-2.4-1.9-3.6-4.5-3.6-7.8v-4.1
							c0-6.9,6.5-10.3,19.6-10.3c1,0,5.4,0.2,13.3,0.7v5.9c-5.4-0.9-9.8-1.2-13.6-1.2c-4.2,0-7.2,0.4-8.7,1.2
							c-1.6,0.9-2.4,2.2-2.4,4.2v3.7c0,3,2.6,4.5,8.1,4.5h5.1c9.2,0,13.8,3.5,13.8,10.3v3.7c0,4.5-1.6,7.7-4.7,9.6s-8,2.9-14.3,2.9
							C1035.4,1074.1,1030.4,1073.7,1025.1,1072.9z"/>
					</g>
				</g>
				<g id="Layer_6_9_">
					<g>
						<g>
							<path class="st15" d="M552.4,1127.7l14.6-50.1c-20.9-2.4-43-10.5-43-46.7c0-10.3,3.7-18.7,9.7-25.3c-1-2.4-4.2-12,0.9-25
								c0,0,8-2.5,25.9,9.7c7.5-2.1,15.6-3.1,23.7-3.2c8,0,16.1,1.1,23.7,3.2c18.1-12.2,25.9-9.7,25.9-9.7c5.1,13,1.9,22.5,1,25
								c6.1,6.6,9.7,15.1,9.7,25.3c0,36.2-22,44.2-43.1,46.6l14.1,50.9l-31.1,5.2L552.4,1127.7z"/>
							<g>
								<g>
									<path class="st15" d="M640.5,951.9c-48-31.3-113.8-16.4-142.9,33.1c-26.9,45.8-12.3,106.4,32,135.4
										c25,16.4,55.6,20.3,84,11.1c3.4-1.1,2-6.5-1.5-5.4c-23.8,7.6-49,6-71.2-5.6c-21-11-37.7-29.8-45.8-52.2
										c-16.9-47.2,6.6-101,52.9-120.3c29.4-12.3,63.1-8.6,89.7,8.7C640.6,958.7,643.5,953.9,640.5,951.9L640.5,951.9z"/>
								</g>
							</g>
						</g>
					</g>
				</g>
			</g>
		</g>
	</g>
	<g id="Layer_2_1_">
		<g>
			
				<radialGradient id="SVGID_5_" cx="949.6" cy="204.5942" r="105.2346" gradientTransform="matrix(1 0 0 -3 0 2505.5676)" gradientUnits="userSpaceOnUse">
				<stop  offset="0" style="stop-color:#191A47"/>
				<stop  offset="1" style="stop-color:#F1F1F2"/>
			</radialGradient>
			<circle class="st17" cx="949.6" cy="1891.8" r="105"/>
		</g>
		<g>
			
				<radialGradient id="SVGID_6_" cx="949.6" cy="204.5942" r="150.2346" gradientTransform="matrix(1 0 0 -3 0 2505.5676)" gradientUnits="userSpaceOnUse">
				<stop  offset="0" style="stop-color:#191A47"/>
				<stop  offset="1" style="stop-color:#F1F1F2"/>
			</radialGradient>
			<circle class="st18" cx="949.6" cy="1891.8" r="150"/>
		</g>
		<text transform="matrix(1 0 0 1 788.8826 1900.8787)" class="st19 st20 st21">cyber </text>
		<text transform="matrix(1 0 0 1 1050.2671 1900.8783)" class="st19 st20 st22">Congress</text>
	</g>
	<g>
		<path class="st23" d="M227.8,749.1v-7.8l76.8,26v30.3l-55.5-18.8C236.4,774.5,227.8,762.5,227.8,749.1z"/>
		<g>
			<g>
				<path class="st24" d="M261.1,782.6l-11.8-3.9c-12.8-4.2-21.5-16.2-21.5-29.7v-74.1l30.3,10v63.8c0,0-0.1,9.6,0,16.3
					C258.3,777.9,261.1,782.6,261.1,782.6z"/>
			</g>
		</g>
		<path class="st23" d="M298.8,648.9l-7.4-2.5l-0.2,81.1l28.7,9.8l0.1-58.6C320,665.2,311.5,653.2,298.8,648.9z"/>
		<g>
			<g>
				<path class="st24" d="M319.9,691.2l0.1-12.4c0.1-13.5-8.4-25.6-21.2-29.9L228.6,625l-0.3,31.9l60.4,20.6c0,0,9.1,3,15.5,5.3
					C316.4,687,319.9,691.2,319.9,691.2z"/>
			</g>
		</g>
		<g>
			
				<radialGradient id="SVGID_7_" cx="273" cy="599.2609" r="105.2536" gradientTransform="matrix(1 0 0 -3 0 2505.5676)" gradientUnits="userSpaceOnUse">
				<stop  offset="0" style="stop-color:#191A47"/>
				<stop  offset="1" style="stop-color:#F1F1F2"/>
			</radialGradient>
			<circle class="st25" cx="273" cy="707.8" r="105"/>
		</g>
		<g>
			
				<radialGradient id="SVGID_8_" cx="273" cy="599.2609" r="150.2536" gradientTransform="matrix(1 0 0 -3 0 2505.5676)" gradientUnits="userSpaceOnUse">
				<stop  offset="0" style="stop-color:#191A47"/>
				<stop  offset="1" style="stop-color:#F1F1F2"/>
			</radialGradient>
			<circle class="st26" cx="273" cy="707.8" r="150"/>
		</g>
		<text transform="matrix(1 0 0 1 131.8089 723.8171)" class="st19 st20 st21">cyber </text>
		<text transform="matrix(1 0 0 1 345.2646 719.8849)" class="st19 st20 st22">Congress</text>
	</g>
	<g id="Layer_3">
		<path class="st27" d="M900.3,751.5v-7.8l76.8,26V800l-55.5-18.8C908.8,776.9,900.3,764.9,900.3,751.5z"/>
		<g>
			<g>
				<path class="st28" d="M933.5,785l-11.8-3.9c-12.8-4.2-21.5-16.2-21.5-29.7v-74.1l30.3,10V751c0,0-0.1,9.6,0,16.3
					C930.7,780.3,933.5,785,933.5,785z"/>
			</g>
		</g>
		<path class="st27" d="M971.2,651.3l-7.4-2.5l-0.2,81.1l28.7,9.8l0.1-58.7C992.5,667.6,983.9,655.6,971.2,651.3z"/>
		<text transform="matrix(1 0 0 1 1021.0277 731.1047)" class="st14 st20 st21">Congress</text>
		<text transform="matrix(1 0 0 1 814.5684 731.1043)" class="st14 st20 st21">cyber </text>
		<g>
			<g>
				<path class="st28" d="M992.1,693.6l0.1-12.4c0.1-13.5-8.4-25.6-21.2-29.9l-70.2-23.9l-0.3,31.9l60.4,20.6c0,0,9.1,3,15.5,5.3
					C988.6,689.5,992.1,693.6,992.1,693.6z"/>
			</g>
		</g>
		<g>
			
				<radialGradient id="SVGID_9_" cx="942.4529" cy="597.8502" r="105.2844" gradientTransform="matrix(1 0 0 -3 0 2505.5676)" gradientUnits="userSpaceOnUse">
				<stop  offset="0" style="stop-color:#191A47"/>
				<stop  offset="1" style="stop-color:#F1F1F2"/>
			</radialGradient>
			<circle class="st29" cx="942.5" cy="712" r="105"/>
		</g>
		<g>
			
				<radialGradient id="SVGID_10_" cx="942.4529" cy="597.8502" r="150.2844" gradientTransform="matrix(1 0 0 -3 0 2505.5676)" gradientUnits="userSpaceOnUse">
				<stop  offset="0" style="stop-color:#191A47"/>
				<stop  offset="1" style="stop-color:#F1F1F2"/>
			</radialGradient>
			<circle class="st30" cx="942.5" cy="712" r="150"/>
		</g>
	</g>
	<circle class="st31" cx="863.4" cy="1120.7" r="63.3"/>
	<g id="Layer_4">
		<path class="st19" d="M977.8,1945.4c-9.5,5.2-20.6,7.9-32.3,7.3c-31.9-1.6-57.4-28.1-57.9-60c-0.5-34.1,27-61.9,61-61.9
			c9.8,0,19.1,2.3,27.3,6.5c4.2,2.1,9.4,1.4,12.7-1.9l0,0c5.4-5.3,3.9-14.2-2.8-17.6c-9.2-4.6-22.1-9-37.3-9
			c-46.5,0-84.1,38.3-83,85c1.1,44.7,38,80.9,82.8,81c14.4,0,28-3.6,39.8-10c6.3-3.4,7.8-11.8,3-17.1l0,0
			C987.7,1943.9,982.2,1943,977.8,1945.4z"/>
		<g class="st32">
			<g>
				<g>
					<path class="st33" d="M905.2,1947.7L905.2,1947.7c-4.8,5.3-3.4,13.7,3,17.1c11.8,6.4,25.4,10.1,39.8,10
						c44.7-0.1,81.7-36.3,82.8-81c1.1-46.8-36.5-85-83-85c-15.2,0-28.1,4.4-37.3,9c-6.7,3.3-8.2,12.3-2.8,17.6l0,0
						c3.4,3.3,8.5,4,12.7,1.9c8.2-4.1,17.5-6.5,27.3-6.5c34,0,61.5,27.8,61,61.9c-0.5,31.9-26,58.4-57.9,60
						c-11.7,0.6-22.8-2.1-32.3-7.3C914.1,1943,908.6,1943.9,905.2,1947.7z"/>
				</g>
			</g>
		</g>
	</g>
	<g id="Layer_4_1_">
		<path class="st34" d="M892,1174.3c-9.5,5.2-20.6,7.9-32.3,7.3c-31.9-1.6-57.4-28.1-57.9-60c-0.5-34.1,27-61.9,61-61.9
			c9.8,0,19.1,2.3,27.3,6.5c4.2,2.1,9.4,1.4,12.7-1.9l0,0c5.4-5.3,3.9-14.2-2.8-17.6c-9.2-4.6-22.1-9-37.3-9
			c-46.5,0-84.1,38.3-83,85c1.1,44.7,38,80.9,82.8,81c14.4,0,28-3.6,39.8-10c6.3-3.4,7.8-11.8,3-17.1l0,0
			C901.9,1172.8,896.4,1171.9,892,1174.3z"/>
		<g>
			<g class="st35">
				<g>
					<path class="st19" d="M819.4,1176.6L819.4,1176.6c-4.8,5.3-3.4,13.7,3,17.1c11.8,6.4,25.4,10.1,39.8,10
						c44.7-0.1,81.7-36.3,82.8-81c1.1-46.8-36.5-85-83-85c-15.2,0-28.1,4.4-37.3,9c-6.7,3.3-8.2,12.3-2.8,17.6l0,0
						c3.4,3.3,8.5,4,12.7,1.9c8.2-4.1,17.5-6.5,27.3-6.5c34,0,61.5,27.8,61,61.9c-0.5,31.9-26,58.4-57.9,60
						c-11.7,0.6-22.8-2.1-32.3-7.3C828.3,1171.9,822.8,1172.8,819.4,1176.6z"/>
				</g>
			</g>
		</g>
	</g>
	<g>
		<g>
			<path class="st19" d="M835.7,1066.2c8.2-4.1,17.5-6.5,27.3-6.5c0.2,0,0.3,0,0.4,0c0.2,0,0.3,0,0.4,0c9.8,0,19.1,2.3,27.3,6.5
				c4.2,2.1,9.4,1.4,12.7-1.9c4.9-4.8,4.1-12.5-1.1-16.5c-11.7-6.4-25.1-10-39.4-10.1c-14.3,0.1-27.8,3.8-39.6,10.2
				c-5,3.9-5.7,11.6-0.9,16.4C826.4,1067.6,831.5,1068.3,835.7,1066.2z"/>
			<path class="st19" d="M893.1,1174.3c-8.6,4.7-18.6,7.4-29.2,7.4c-0.2,0-0.3,0-0.5,0c-0.2,0-0.3,0-0.5,0
				c-10.5,0-20.5-2.6-29.2-7.4c-4.4-2.4-9.9-1.5-13.3,2.3c-3.9,4.3-3.7,10.8,0,14.8c12.5,7.7,27.2,12.2,42.9,12.3
				c15.7-0.1,30.3-4.6,42.9-12.3c3.7-4,4-10.5,0.1-14.8C903,1172.8,897.5,1171.9,893.1,1174.3z"/>
		</g>
	</g>
	<path class="st34" d="M866.8,1128.3c-1.2,0.7-2.6,1.1-4,1.2c-4.8,0.2-9.1-3.7-9.2-8.5c-0.1-5,3.9-9.1,8.8-9.1
		c1.6,0,3.1,0.4,4.4,1.2c1.8,1.1,4.2,0.6,5.6-1l0,0c1.8-2.1,1.3-5.3-1-6.7c-3-1.8-6.6-2.7-10.4-2.3c-8.3,0.7-15.1,7.3-16.1,15.6
		c-1.2,10.7,7.2,19.7,17.6,19.7c3.4,0,6.5-0.9,9.2-2.6c2.3-1.4,2.6-4.7,0.8-6.6l-0.2-0.2C870.7,1127.5,868.5,1127.3,866.8,1128.3z"
		/>
	<path class="st36" d="M852.6,1129l-0.2,0.2c-1.9,2-1.6,5.2,0.8,6.6c2.7,1.6,5.8,2.6,9.2,2.6c10.4,0,18.8-9,17.6-19.7
		c-0.9-8.3-7.7-14.9-16.1-15.6c-3.8-0.3-7.4,0.6-10.4,2.3c-2.4,1.4-2.8,4.6-1,6.7h0c1.4,1.6,3.7,2,5.6,1c1.3-0.7,2.8-1.2,4.4-1.2
		c4.9,0,8.9,4.1,8.8,9.1c-0.1,4.8-4.4,8.8-9.2,8.5c-1.5-0.1-2.8-0.5-4-1.2C856.2,1127.3,854,1127.5,852.6,1129z"/>
	<g>
		<path class="st19" d="M869.7,1104.6c-0.4-0.2-0.8-0.3-1.2-0.5c-0.1,0-0.3-0.1-0.4-0.1c-0.3-0.1-0.6-0.2-0.9-0.3
			c-0.2-0.1-0.4-0.1-0.6-0.1c-0.3-0.1-0.5-0.1-0.8-0.2c-0.2,0-0.4-0.1-0.6-0.1c-0.3,0-0.6-0.1-0.9-0.1c-0.2,0-0.4-0.1-0.6-0.1
			c-0.2,0-0.5,0-0.7,0c-0.2,0-0.5,0-0.7,0c-0.2,0-0.5,0-0.7,0c-0.2,0-0.5,0-0.7,0c-0.2,0-0.4,0-0.6,0.1c-0.3,0-0.6,0.1-0.9,0.1
			c-0.2,0-0.4,0.1-0.6,0.1c-0.3,0.1-0.5,0.1-0.8,0.2c-0.2,0-0.4,0.1-0.6,0.1c-0.3,0.1-0.6,0.2-0.9,0.3c-0.1,0-0.3,0.1-0.4,0.1
			c-0.4,0.1-0.8,0.3-1.2,0.5c0,0-0.1,0-0.1,0c-0.6,0.3-1.1,0.6-1.6,0.9c-2.2,1.4-2.6,4.6-0.9,6.6c1.4,1.6,3.7,2,5.6,1c0,0,0,0,0.1,0
			c0.3-0.2,0.6-0.3,0.9-0.4c0.1,0,0.1,0,0.2-0.1c0.3-0.1,0.5-0.2,0.8-0.3c0.1,0,0.2-0.1,0.3-0.1c0.2-0.1,0.5-0.1,0.7-0.1
			c0.1,0,0.2,0,0.3,0c0.4,0,0.7-0.1,1.1-0.1h0l0,0c0.4,0,0.7,0,1.1,0.1c0.1,0,0.2,0,0.3,0c0.2,0,0.5,0.1,0.7,0.1
			c0.1,0,0.2,0.1,0.3,0.1c0.3,0.1,0.5,0.2,0.8,0.3c0.1,0,0.1,0,0.2,0.1c0.3,0.1,0.6,0.3,0.9,0.4c0,0,0,0,0.1,0
			c1.8,1.1,4.2,0.6,5.6-1c1.8-2,1.3-5.2-0.9-6.6c-0.5-0.3-1.1-0.6-1.6-0.9C869.8,1104.6,869.7,1104.6,869.7,1104.6z"/>
		<path class="st19" d="M872.1,1129c-1.4-1.4-3.6-1.6-5.3-0.6c-1,0.6-2.2,1-3.5,1.1c-0.2,0-0.3,0-0.5,0.1c0,0,0,0,0,0
			c-0.1,0-0.3,0-0.4,0c-0.1,0-0.3,0-0.4,0c0,0,0,0,0,0c-0.2,0-0.3,0-0.5-0.1c-1.2-0.1-2.4-0.5-3.5-1.1c-1.7-1-3.9-0.8-5.3,0.6
			l-0.2,0.2c-1.8,1.9-1.6,5.1,0.6,6.5c0.1,0.1,0.2,0.1,0.3,0.2c0.1,0.1,0.2,0.1,0.3,0.2c0.4,0.2,0.8,0.5,1.3,0.7
			c0.1,0,0.2,0.1,0.3,0.1c0.5,0.2,1,0.4,1.5,0.6c0.1,0,0.2,0.1,0.4,0.1c0.5,0.2,1,0.3,1.5,0.4c0.1,0,0.1,0,0.2,0
			c0.5,0.1,1.1,0.2,1.6,0.3c0.1,0,0.3,0,0.4,0c0.6,0.1,1.1,0.1,1.7,0.1c0,0,0,0,0,0s0,0,0,0c0.6,0,1.2,0,1.7-0.1c0.1,0,0.3,0,0.4,0
			c0.6-0.1,1.1-0.2,1.6-0.3c0.1,0,0.1,0,0.2,0c0.5-0.1,1-0.2,1.5-0.4c0.1,0,0.2-0.1,0.4-0.1c0.5-0.2,1-0.4,1.5-0.6
			c0.1,0,0.2-0.1,0.3-0.1c0.4-0.2,0.9-0.4,1.3-0.7c0.1-0.1,0.2-0.1,0.3-0.2c0.1-0.1,0.2-0.1,0.3-0.2c2.2-1.5,2.5-4.6,0.6-6.5
			L872.1,1129z"/>
	</g>
	<path class="st34" d="M980.6,1566.4c-9.5,5.2-20.6,7.9-32.3,7.3c-31.9-1.6-57.4-28.1-57.9-60c-0.5-34.1,27-61.9,61-61.9
		c9.8,0,19.1,2.3,27.3,6.5c4.2,2.1,9.4,1.4,12.7-1.9l0,0c5.4-5.3,3.9-14.2-2.8-17.6c-9.2-4.6-22.1-9-37.3-9c-46.5,0-84.1,38.3-83,85
		c1.1,44.7,38,80.9,82.8,81c14.4,0,28-3.6,39.8-10c6.3-3.4,7.8-11.8,3-17.1l0,0C990.5,1564.9,985,1564,980.6,1566.4z"/>
	<path class="st37" d="M965.5,1538.4c-4.5,2.5-9.9,3.8-15.5,3.5c-15.3-0.8-27.5-13.4-27.7-28.7c-0.2-16.3,12.9-29.6,29.2-29.6
		c4.7,0,9.1,1.1,13.1,3.1c2,1,4.5,0.7,6.1-0.9l0,0c2.6-2.5,1.9-6.8-1.3-8.4c-4.4-2.2-10.6-4.3-17.8-4.3c-22.2,0-40.2,18.3-39.7,40.7
		c0.5,21.4,18.2,38.7,39.6,38.7c6.9,0,13.4-1.7,19-4.8c3-1.6,3.7-5.6,1.4-8.2l0,0C970.2,1537.7,967.6,1537.2,965.5,1538.4z"/>
	<g>
		
			<radialGradient id="SVGID_11_" cx="944.5399" cy="330.9384" r="105.2346" gradientTransform="matrix(1 0 0 -3 0 2505.5676)" gradientUnits="userSpaceOnUse">
			<stop  offset="0" style="stop-color:#191A47"/>
			<stop  offset="1" style="stop-color:#F1F1F2"/>
		</radialGradient>
		<circle class="st38" cx="944.5" cy="1512.8" r="105"/>
	</g>
	<g>
		
			<radialGradient id="SVGID_12_" cx="944.5399" cy="330.9384" r="150.2346" gradientTransform="matrix(1 0 0 -3 0 2505.5676)" gradientUnits="userSpaceOnUse">
			<stop  offset="0" style="stop-color:#191A47"/>
			<stop  offset="1" style="stop-color:#F1F1F2"/>
		</radialGradient>
		<circle class="st39" cx="944.5" cy="1512.8" r="150"/>
	</g>
	<circle class="st31" cx="289.6" cy="1118.4" r="63.3"/>
	<g id="Layer_4_2_">
		<path class="st34" d="M322.2,1172c-9.5,5.2-20.6,7.9-32.3,7.3c-31.9-1.6-57.4-28.1-57.9-60c-0.5-34.1,27-61.9,61-61.9
			c9.8,0,19.1,2.3,27.3,6.5c4.2,2.1,9.4,1.4,12.7-1.9l0,0c5.4-5.3,3.9-14.2-2.8-17.6c-9.2-4.6-22.1-9-37.3-9
			c-46.5,0-84.1,38.3-83,85c1.1,44.7,38,80.9,82.8,81c14.4,0,28-3.6,39.8-10c6.3-3.4,7.8-11.8,3-17.1l0,0
			C332.1,1170.5,326.6,1169.6,322.2,1172z"/>
		<g>
			<g class="st35">
				<g>
					<path class="st19" d="M249.6,1174.3L249.6,1174.3c-4.8,5.3-3.4,13.7,3,17.1c11.8,6.4,25.4,10.1,39.8,10
						c44.7-0.1,81.7-36.3,82.8-81c1.1-46.8-36.5-85-83-85c-15.2,0-28.1,4.4-37.3,9c-6.7,3.3-8.2,12.3-2.8,17.6l0,0
						c3.4,3.3,8.5,4,12.7,1.9c8.2-4.1,17.5-6.5,27.3-6.5c34,0,61.5,27.8,61,61.9c-0.5,31.9-26,58.4-57.9,60
						c-11.7,0.6-22.8-2.1-32.3-7.3C258.5,1169.6,253,1170.5,249.6,1174.3z"/>
				</g>
			</g>
		</g>
	</g>
	<g>
		<g>
			<path class="st19" d="M265.9,1063.9c8.2-4.1,17.5-6.5,27.3-6.5c0.2,0,0.3,0,0.4,0c0.2,0,0.3,0,0.4,0c9.8,0,19.1,2.3,27.3,6.5
				c4.2,2.1,9.4,1.4,12.7-1.9c4.9-4.8,4.1-12.5-1.1-16.5c-11.7-6.4-25.1-10-39.4-10.1c-14.3,0.1-27.8,3.8-39.6,10.2
				c-5,3.9-5.7,11.6-0.9,16.4C256.6,1065.3,261.7,1066,265.9,1063.9z"/>
			<path class="st19" d="M323.3,1172c-8.6,4.7-18.6,7.4-29.2,7.4c-0.2,0-0.3,0-0.5,0c-0.2,0-0.3,0-0.5,0c-10.5,0-20.5-2.6-29.2-7.4
				c-4.4-2.4-9.9-1.5-13.3,2.3c-3.9,4.3-3.7,10.8,0,14.8c12.5,7.7,27.2,12.2,42.9,12.3c15.7-0.1,30.3-4.6,42.9-12.3
				c3.7-4,4-10.5,0.1-14.8C333.2,1170.5,327.7,1169.6,323.3,1172z"/>
		</g>
	</g>
	<path class="st34" d="M297,1126c-1.2,0.7-2.6,1.1-4,1.2c-4.8,0.2-9.1-3.7-9.2-8.5c-0.1-5,3.9-9.1,8.8-9.1c1.6,0,3.1,0.4,4.4,1.2
		c1.8,1.1,4.2,0.6,5.6-1l0,0c1.8-2.1,1.3-5.3-1-6.7c-3-1.8-6.6-2.7-10.4-2.3c-8.3,0.7-15.1,7.3-16.1,15.6
		c-1.2,10.7,7.2,19.7,17.6,19.7c3.4,0,6.5-0.9,9.2-2.6c2.3-1.4,2.6-4.7,0.8-6.6l-0.2-0.2C300.9,1125.2,298.7,1125,297,1126z"/>
	<path class="st36" d="M282.8,1126.7l-0.2,0.2c-1.9,2-1.6,5.2,0.8,6.6c2.7,1.6,5.8,2.6,9.2,2.6c10.4,0,18.8-9,17.6-19.7
		c-0.9-8.3-7.7-14.9-16.1-15.6c-3.8-0.3-7.4,0.6-10.4,2.3c-2.4,1.4-2.8,4.6-1,6.7l0,0c1.4,1.6,3.7,2,5.6,1c1.3-0.7,2.8-1.2,4.4-1.2
		c4.9,0,8.9,4.1,8.8,9.1c-0.1,4.8-4.4,8.8-9.2,8.5c-1.5-0.1-2.8-0.5-4-1.2C286.4,1125,284.2,1125.2,282.8,1126.7z"/>
	<g>
		<path class="st19" d="M299.9,1102.3c-0.4-0.2-0.8-0.3-1.2-0.5c-0.1,0-0.3-0.1-0.4-0.1c-0.3-0.1-0.6-0.2-0.9-0.3
			c-0.2-0.1-0.4-0.1-0.6-0.1c-0.3-0.1-0.5-0.1-0.8-0.2c-0.2,0-0.4-0.1-0.6-0.1c-0.3,0-0.6-0.1-0.9-0.1c-0.2,0-0.4-0.1-0.6-0.1
			c-0.2,0-0.5,0-0.7,0c-0.2,0-0.5,0-0.7,0c-0.2,0-0.5,0-0.7,0c-0.2,0-0.5,0-0.7,0c-0.2,0-0.4,0-0.6,0.1c-0.3,0-0.6,0.1-0.9,0.1
			c-0.2,0-0.4,0.1-0.6,0.1c-0.3,0.1-0.5,0.1-0.8,0.2c-0.2,0-0.4,0.1-0.6,0.1c-0.3,0.1-0.6,0.2-0.9,0.3c-0.1,0-0.3,0.1-0.4,0.1
			c-0.4,0.1-0.8,0.3-1.2,0.5c0,0-0.1,0-0.1,0c-0.6,0.3-1.1,0.6-1.6,0.9c-2.2,1.4-2.6,4.6-0.9,6.6c1.4,1.6,3.7,2,5.6,1c0,0,0,0,0.1,0
			c0.3-0.2,0.6-0.3,0.9-0.4c0.1,0,0.1,0,0.2-0.1c0.3-0.1,0.5-0.2,0.8-0.3c0.1,0,0.2-0.1,0.3-0.1c0.2-0.1,0.5-0.1,0.7-0.1
			c0.1,0,0.2,0,0.3,0c0.4,0,0.7-0.1,1.1-0.1h0l0,0c0.4,0,0.7,0,1.1,0.1c0.1,0,0.2,0,0.3,0c0.2,0,0.5,0.1,0.7,0.1
			c0.1,0,0.2,0.1,0.3,0.1c0.3,0.1,0.5,0.2,0.8,0.3c0.1,0,0.1,0,0.2,0.1c0.3,0.1,0.6,0.3,0.9,0.4c0,0,0,0,0.1,0
			c1.8,1.1,4.2,0.6,5.6-1c1.8-2,1.3-5.2-0.9-6.6c-0.5-0.3-1.1-0.6-1.6-0.9C299.9,1102.4,299.9,1102.3,299.9,1102.3z"/>
		<path class="st19" d="M302.3,1126.7c-1.4-1.4-3.6-1.6-5.3-0.6c-1,0.6-2.2,1-3.5,1.1c-0.2,0-0.3,0-0.5,0.1c0,0,0,0,0,0
			c-0.1,0-0.3,0-0.4,0c-0.1,0-0.3,0-0.4,0c0,0,0,0,0,0c-0.2,0-0.3,0-0.5-0.1c-1.2-0.1-2.4-0.5-3.5-1.1c-1.7-1-3.9-0.8-5.3,0.6
			l-0.2,0.2c-1.8,1.9-1.6,5.1,0.6,6.5c0.1,0.1,0.2,0.1,0.3,0.2c0.1,0.1,0.2,0.1,0.3,0.2c0.4,0.2,0.8,0.5,1.3,0.7
			c0.1,0,0.2,0.1,0.3,0.1c0.5,0.2,1,0.4,1.5,0.6c0.1,0,0.2,0.1,0.4,0.1c0.5,0.2,1,0.3,1.5,0.4c0.1,0,0.1,0,0.2,0
			c0.5,0.1,1.1,0.2,1.6,0.3c0.1,0,0.3,0,0.4,0c0.6,0.1,1.1,0.1,1.7,0.1c0,0,0,0,0,0s0,0,0,0c0.6,0,1.2,0,1.7-0.1c0.1,0,0.3,0,0.4,0
			c0.6-0.1,1.1-0.2,1.6-0.3c0.1,0,0.1,0,0.2,0c0.5-0.1,1-0.2,1.5-0.4c0.1,0,0.2-0.1,0.4-0.1c0.5-0.2,1-0.4,1.5-0.6
			c0.1,0,0.2-0.1,0.3-0.1c0.4-0.2,0.9-0.4,1.3-0.7c0.1-0.1,0.2-0.1,0.3-0.2c0.1-0.1,0.2-0.1,0.3-0.2c2.2-1.5,2.5-4.6,0.6-6.5
			L302.3,1126.7z"/>
	</g>
	<path class="st24" d="M327.6,1565.4c-9.5,5.2-20.6,7.9-32.3,7.3c-31.9-1.6-57.4-28.1-57.9-60c-0.5-34.1,27-61.9,61-61.9
		c9.8,0,19.1,2.3,27.3,6.5c4.2,2.1,9.4,1.4,12.7-1.9l0,0c5.4-5.3,3.9-14.2-2.8-17.6c-9.2-4.6-22.1-9-37.3-9c-46.5,0-84.1,38.3-83,85
		c1.1,44.7,38,80.9,82.8,81c14.4,0,28-3.6,39.8-10c6.3-3.4,7.8-11.8,3-17.1l0,0C337.5,1563.9,332,1563,327.6,1565.4z"/>
	<path class="st23" d="M312.5,1537.4c-4.5,2.5-9.9,3.8-15.5,3.5c-15.3-0.8-27.5-13.4-27.7-28.7c-0.2-16.3,12.9-29.6,29.2-29.6
		c4.7,0,9.1,1.1,13.1,3.1c2,1,4.5,0.7,6.1-0.9l0,0c2.6-2.5,1.9-6.8-1.3-8.4c-4.4-2.2-10.6-4.3-17.8-4.3c-22.2,0-40.2,18.3-39.7,40.7
		c0.5,21.4,18.2,38.7,39.6,38.7c6.9,0,13.4-1.7,19-4.8c3-1.6,3.7-5.6,1.4-8.2l0,0C317.2,1536.7,314.6,1536.2,312.5,1537.4z"/>
	<g>
		
			<radialGradient id="SVGID_13_" cx="291.5399" cy="331.2718" r="105.2346" gradientTransform="matrix(1 0 0 -3 0 2505.5676)" gradientUnits="userSpaceOnUse">
			<stop  offset="0" style="stop-color:#191A47"/>
			<stop  offset="1" style="stop-color:#F1F1F2"/>
		</radialGradient>
		<circle class="st40" cx="291.5" cy="1511.8" r="105"/>
	</g>
	<g>
		
			<radialGradient id="SVGID_14_" cx="291.5399" cy="331.2718" r="150.2346" gradientTransform="matrix(1 0 0 -3 0 2505.5676)" gradientUnits="userSpaceOnUse">
			<stop  offset="0" style="stop-color:#191A47"/>
			<stop  offset="1" style="stop-color:#F1F1F2"/>
		</radialGradient>
		<circle class="st41" cx="291.5" cy="1511.8" r="150"/>
	</g>
	<g id="Layer_2_4_">
		<g>
			
				<radialGradient id="SVGID_15_" cx="265.9872" cy="205.9609" r="105.2346" gradientTransform="matrix(1 0 0 -3 0 2505.5676)" gradientUnits="userSpaceOnUse">
				<stop  offset="0" style="stop-color:#191A47"/>
				<stop  offset="1" style="stop-color:#F1F1F2"/>
			</radialGradient>
			<circle class="st42" cx="266" cy="1887.7" r="105"/>
		</g>
		<g>
			
				<radialGradient id="SVGID_16_" cx="265.9872" cy="205.9609" r="150.2346" gradientTransform="matrix(1 0 0 -3 0 2505.5676)" gradientUnits="userSpaceOnUse">
				<stop  offset="0" style="stop-color:#191A47"/>
				<stop  offset="1" style="stop-color:#F1F1F2"/>
			</radialGradient>
			<circle class="st43" cx="266" cy="1887.7" r="150"/>
		</g>
		<text transform="matrix(1 0 0 1 105.2698 1896.7787)" class="st19 st20 st21">cyber </text>
		<text transform="matrix(1 0 0 1 366.6543 1896.7783)" class="st19 st20 st22">Congress</text>
	</g>
	<g id="Layer_4_3_">
		<path class="st19" d="M294.2,1941.3c-9.5,5.2-20.6,7.9-32.3,7.3c-31.9-1.6-57.4-28.1-57.9-60c-0.5-34.1,27-61.9,61-61.9
			c9.8,0,19.1,2.3,27.3,6.5c4.2,2.1,9.4,1.4,12.7-1.9l0,0c5.4-5.3,3.9-14.2-2.8-17.6c-9.2-4.6-22.1-9-37.3-9
			c-46.5,0-84.1,38.3-83,85c1.1,44.7,38,80.9,82.8,81c14.4,0,28-3.6,39.8-10c6.3-3.4,7.8-11.8,3-17.1l0,0
			C304.1,1939.8,298.6,1938.9,294.2,1941.3z"/>
		<g class="st32">
			<g>
				<g>
					<path d="M221.6,1943.6L221.6,1943.6c-4.8,5.3-3.4,13.7,3,17.1c11.8,6.4,25.4,10.1,39.8,10c44.7-0.1,81.7-36.3,82.8-81
						c1.1-46.8-36.5-85-83-85c-15.2,0-28.1,4.4-37.3,9c-6.7,3.3-8.2,12.3-2.8,17.6l0,0c3.4,3.3,8.5,4,12.7,1.9
						c8.2-4.1,17.5-6.5,27.3-6.5c34,0,61.5,27.8,61,61.9c-0.5,31.9-26,58.4-57.9,60c-11.7,0.6-22.8-2.1-32.3-7.3
						C230.5,1938.9,225,1939.8,221.6,1943.6z"/>
				</g>
			</g>
		</g>
	</g>
	<path class="st34" d="M977.6,358.9c-9.5,5.2-20.6,7.9-32.3,7.3c-31.9-1.6-57.4-28.1-57.9-60c-0.5-34.1,27-61.9,61-61.9
		c9.8,0,19.1,2.3,27.3,6.5c4.2,2.1,9.4,1.4,12.7-1.9l0,0c5.4-5.3,3.9-14.2-2.8-17.6c-9.2-4.6-22.1-9-37.3-9c-46.5,0-84.1,38.3-83,85
		c1.1,44.7,38,80.9,82.8,81c14.4,0,28-3.6,39.8-10c6.3-3.4,7.8-11.8,3-17.1l0,0C987.5,357.4,982,356.5,977.6,358.9z"/>
	<g>
		
			<radialGradient id="SVGID_17_" cx="944.5399" cy="733.2867" r="105.2346" gradientTransform="matrix(1 0 0 -3 0 2505.5676)" gradientUnits="userSpaceOnUse">
			<stop  offset="0" style="stop-color:#191A47"/>
			<stop  offset="1" style="stop-color:#F1F1F2"/>
		</radialGradient>
		<circle class="st44" cx="944.5" cy="305.7" r="105"/>
	</g>
	<g>
		
			<radialGradient id="SVGID_18_" cx="944.5399" cy="733.2867" r="150.2346" gradientTransform="matrix(1 0 0 -3 0 2505.5676)" gradientUnits="userSpaceOnUse">
			<stop  offset="0" style="stop-color:#191A47"/>
			<stop  offset="1" style="stop-color:#F1F1F2"/>
		</radialGradient>
		<circle class="st45" cx="944.5" cy="305.7" r="150"/>
	</g>
	<path class="st24" d="M327.6,358.3c-9.5,5.2-20.6,7.9-32.3,7.3c-31.9-1.6-57.4-28.1-57.9-60c-0.5-34.1,27-61.9,61-61.9
		c9.8,0,19.1,2.3,27.3,6.5c4.2,2.1,9.4,1.4,12.7-1.9l0,0c5.4-5.3,3.9-14.2-2.8-17.6c-9.2-4.6-22.1-9-37.3-9c-46.5,0-84.1,38.3-83,85
		c1.1,44.7,38,80.9,82.8,81c14.4,0,28-3.6,39.8-10c6.3-3.4,7.8-11.8,3-17.1l0,0C337.5,356.8,332,355.9,327.6,358.3z"/>
	<path class="st23" d="M312.5,330.3c-4.5,2.5-9.9,3.8-15.5,3.5c-15.3-0.8-27.5-13.4-27.7-28.7c-0.2-16.3,12.9-29.6,29.2-29.6
		c4.7,0,9.1,1.1,13.1,3.1c2,1,4.5,0.7,6.1-0.9l0,0c2.6-2.5,1.9-6.8-1.3-8.4c-4.4-2.2-10.6-4.3-17.8-4.3c-22.2,0-40.2,18.3-39.7,40.7
		c0.5,21.4,18.2,38.7,39.6,38.7c6.9,0,13.4-1.7,19-4.8c3-1.6,3.7-5.6,1.4-8.2l0,0C317.2,329.6,314.6,329.2,312.5,330.3z"/>
	<g>
		
			<radialGradient id="SVGID_19_" cx="291.5399" cy="733.62" r="105.2346" gradientTransform="matrix(1 0 0 -3 0 2505.5676)" gradientUnits="userSpaceOnUse">
			<stop  offset="0" style="stop-color:#191A47"/>
			<stop  offset="1" style="stop-color:#F1F1F2"/>
		</radialGradient>
		<circle class="st46" cx="291.5" cy="304.7" r="105"/>
	</g>
	<g>
		
			<radialGradient id="SVGID_20_" cx="291.5399" cy="733.62" r="150.2346" gradientTransform="matrix(1 0 0 -3 0 2505.5676)" gradientUnits="userSpaceOnUse">
			<stop  offset="0" style="stop-color:#191A47"/>
			<stop  offset="1" style="stop-color:#F1F1F2"/>
		</radialGradient>
		<circle class="st47" cx="291.5" cy="304.7" r="150"/>
	</g>
	<circle class="st23" cx="299.6" cy="305.5" r="40.5"/>
	<circle class="st37" cx="952" cy="305.3" r="37.2"/>
	<g>
		<text transform="matrix(1 0 0 1 334.7234 1502.4336)" class="st19 st20 st21">cyber </text>
		<text transform="matrix(1 0 0 1 334.7233 1530.7587)" class="st19 st20 st21">Congress</text>
	</g>
	<g>
		<text transform="matrix(1 0 0 1 183.5002 1242.1223)" class="st19 st20 st48">cyber </text>
		<text transform="matrix(1 0 0 1 261.4998 1242.885)" class="st19 st20 st48"> Congress</text>
	</g>
	<g>
		<text transform="matrix(1 0 0 1 963.9326 1105.3872)" class="st19 st20 st48">cyber </text>
		<text transform="matrix(1 0 0 1 965.267 1151.4976)" class="st19 st20 st48">Congress</text>
	</g>
	<g>
		<text transform="matrix(1 0 0 1 987.7234 1501.4336)" class="st37 st20 st21">cyber </text>
		<text transform="matrix(1 0 0 1 987.7233 1529.7587)" class="st37 st20 st21">Congress</text>
	</g>
	<g>
		<text transform="matrix(1 0 0 1 1010.3605 289.6525)" class="st34 st20 st48">cyber </text>
		<text transform="matrix(1 0 0 1 1011.6949 335.7629)" class="st19 st20 st48">Congress</text>
	</g>
	<g>
		<text transform="matrix(1 0 0 1 352.1716 288.6527)" class="st24 st20 st48">cyber </text>
		<text transform="matrix(1 0 0 1 353.506 330.7631)" class="st23 st20 st48">Congress</text>
	</g>
</g>
<g id="Layer_2">
</g>
</svg>
