<?xml version="1.0" encoding="utf-8"?>
<!-- Generator: Adobe Illustrator 22.0.1, SVG Export Plug-In . SVG Version: 6.00 Build 0)  -->
<svg version="1.1" xmlns="http://www.w3.org/2000/svg" xmlns:xlink="http://www.w3.org/1999/xlink" x="0px" y="0px"
	 viewBox="0 0 679.3 171.9" style="enable-background:new 0 0 679.3 171.9;" xml:space="preserve">
<style type="text/css">
	.st0{fill:#231F20;}
	.st1{fill-rule:evenodd;clip-rule:evenodd;fill:#231F20;}
</style>
<g id="Layer_2">
	<g>
		<path class="st0" d="M13.6,119.1c-1.1-0.1-2.3-0.3-3.7-0.7c-1.5-0.4-2.6-1-3.5-1.7c-0.8-0.8-1.5-1.9-2.1-3.4
			c-0.6-1.4-0.9-3.2-0.9-5.4V95.1c0-3.9,0.7-6.7,2.2-8.3c0.8-1,1.6-1.7,2.5-2.2c0.8-0.5,1.9-0.9,3.3-1c1.3-0.2,2.5-0.3,3.6-0.4
			c1.1-0.1,2.5-0.1,4.5-0.1c3.3,0,6.6,0.4,9.9,1.1v4.7c-3.8-1-7.4-1.4-10.7-1.4c-2.5,0-4.3,0.2-5.5,0.5c-1.2,0.4-2,1-2.4,1.9
			c-0.5,0.9-0.7,2.4-0.7,4.3v14.2c0,1.8,0.3,3.1,0.8,4c0.5,0.9,1.4,1.5,2.7,1.8c1.3,0.4,3.3,0.5,5.9,0.5c3.5,0,7-0.5,10.5-1.4v4.9
			c-3.3,0.7-7,1-11.1,1C16.4,119.2,14.7,119.2,13.6,119.1z"/>
		<path class="st0" d="M46.5,119L33,83.7h7l9.7,28.4h0.1l8.8-28.4h6.5l-17.5,49.8H41L46.5,119z"/>
		<path class="st0" d="M80.6,118.8c-1.6-0.3-3.1-0.8-4.6-1.5c-3.1-1.5-4.7-4.9-4.7-10.2v-39h6.5v10.4v4.1c0,1.2-0.1,2.6-0.1,4.2
			c0.2-1.1,1.2-2,3-2.8c1.8-0.7,4.5-1.1,7.9-1.1c9.6,0,14.4,3.3,14.4,9.9v14.3c0,2.1-0.3,3.9-0.9,5.4c-0.6,1.5-1.4,2.7-2.3,3.6
			c-0.9,0.8-2,1.5-3.6,1.9c-1.5,0.5-3,0.8-4.5,0.9c-1.3,0.1-3,0.2-4.9,0.2C84.2,119.2,82.1,119.1,80.6,118.8z M92.7,114.4
			c1.3-0.4,2.3-1,2.8-2c0.6-1,0.9-2.4,0.9-4.4V94.4c0-2-0.3-3.4-0.9-4.4c-0.6-1-1.5-1.6-2.8-1.9c-1.3-0.3-3.2-0.5-5.8-0.5
			c-2.3,0-4.2,0.2-5.5,0.6c-1.3,0.4-2.2,1.1-2.8,2c-0.6,1-0.9,2.4-0.9,4.2v13.7c0,2,0.3,3.4,0.8,4.4c0.6,1,1.5,1.6,2.8,2
			c1.3,0.4,3.2,0.5,5.6,0.5C89.4,115,91.3,114.8,92.7,114.4z"/>
		<path class="st0" d="M111.6,108.6V94.8c0-4.2,1.2-7.3,3.6-9.1c2.4-1.8,6.3-2.8,11.8-2.8c5.1,0,8.8,0.9,11.1,2.7
			c2.3,1.8,3.4,4.8,3.4,9.2v7.7h-23.4v5.2c0,2.4,0.8,4.1,2.5,5.2c1.7,1.1,4.3,1.6,7.8,1.6c3.3,0,7.2-0.6,11.7-1.7v5
			c-4.4,1-8.6,1.4-12.6,1.4C116.9,119.2,111.6,115.7,111.6,108.6z M135.1,98.3v-5.5c0-2.1-0.6-3.6-1.9-4.4c-1.3-0.8-3.4-1.2-6.5-1.2
			c-3,0-5.1,0.4-6.5,1.2c-1.3,0.8-2,2.2-2,4.4v5.5H135.1z"/>
		<path class="st0" d="M151.4,83.7h6.1v5.7c0-1.1,0.5-2.1,1.4-3.1c1-1,2.2-1.8,3.7-2.4c1.5-0.6,2.9-0.9,4.4-0.9h3.2v5.5h-3.6
			c-3.1,0-5.3,0.4-6.7,1.2c-1.4,0.8-2,2.2-2,4.3v24.5h-6.5V83.7z"/>
	</g>
	<g>
		<path class="st0" d="M386.5,104.7V82.4c0-9,6.6-13.5,19.8-13.5c4.5,0,8.8,0.5,12.9,1.4v5.2c-4.6-1.2-8.9-1.7-12.8-1.7
			c-1.9,0-3.5,0.1-4.9,0.3c-1.4,0.2-2.8,0.6-4.1,1.1c-2.8,1.2-4.2,3.6-4.2,7.1v22c0,5.4,4.5,8.1,13.5,8.1c3.9,0,8.1-0.6,12.8-1.7
			v5.4c-4.1,0.9-8.5,1.4-13.2,1.4C393.1,117.5,386.5,113.2,386.5,104.7z"/>
		<path class="st0" d="M436.2,117.2c-1.5-0.2-3.1-0.7-4.6-1.4c-1.6-0.7-2.8-1.9-3.5-3.5c-0.7-1.6-1.1-3.8-1.1-6.6V93.5
			c0-2.2,0.3-4.1,0.8-5.7c0.5-1.6,1.2-2.9,2.1-3.8c0.7-0.8,1.8-1.5,3.3-1.9c1.5-0.5,3-0.8,4.5-0.9c1.7-0.1,3.6-0.1,5.4-0.1
			c2.5,0,4.4,0.1,5.7,0.2c1.3,0.1,2.6,0.4,4.1,0.8c1.5,0.4,2.7,1.1,3.5,2c0.8,0.9,1.5,2.1,2.1,3.8c0.5,1.7,0.8,3.6,0.8,5.9v12.2
			c0,4.1-0.9,7.1-2.8,9c-0.8,0.8-1.9,1.4-3.3,1.8c-1.4,0.4-2.9,0.7-4.5,0.9c-1.8,0.1-3.7,0.1-5.5,0.1
			C440.1,117.5,437.8,117.4,436.2,117.2z M447.6,113.1c0.9-0.1,1.8-0.4,2.7-0.8c0.9-0.4,1.5-1,1.8-1.9c0.4-0.9,0.5-2.1,0.5-3.7V92.4
			c0-2.2-0.3-3.8-0.8-4.7c-0.5-1-1.4-1.6-2.7-2c-1.3-0.3-3.3-0.5-6-0.5c-2.7,0-4.7,0.2-6,0.5c-1.3,0.3-2.2,1-2.7,2
			c-0.5,1-0.8,2.6-0.8,4.7v14.2c0,1.6,0.2,2.8,0.5,3.7c0.4,0.9,1,1.5,1.8,1.9c0.9,0.4,1.8,0.7,2.7,0.8c0.9,0.1,2.4,0.1,4.4,0.1
			C445.2,113.2,446.7,113.2,447.6,113.1z"/>
		<path class="st0" d="M469.5,81.7h6.5V86c0.7-3.3,4.5-5,11.5-5c4.5,0,7.6,0.8,9.5,2.4c1.8,1.6,2.7,4.2,2.7,7.6v25.7h-6.5V91.4
			c0-0.9-0.1-1.7-0.2-2.2c-0.1-0.6-0.4-1.2-0.9-1.7c-1-1.2-3.1-1.8-6.5-1.8c-2.6,0-4.5,0.2-5.9,0.5c-1.4,0.4-2.3,1-2.9,1.8
			c-0.6,0.8-0.8,2-0.8,3.5v25.4h-6.5V81.7z"/>
		<path class="st0" d="M512.2,131.9v-4.6c5.8,0.7,10,1,12.7,1c3.3,0,5.8-0.5,7.3-1.6c1.5-1.1,2.3-2.8,2.3-5.3V113
			c-0.1,1.5-1.1,2.7-3.2,3.4c-2,0.7-4.5,1.1-7.6,1.1c-3.6,0-6.4-0.3-8.4-1c-2-0.7-3.4-1.8-4.3-3.3c-0.8-1.5-1.3-3.6-1.3-6.3V92.6
			c0-4.2,1.1-7.1,3.4-8.9c2.2-1.8,5.9-2.7,11.1-2.7c6.1,0,9.7,1.4,10.7,4.1v-3.4h6.1v38.4c0,3.2-0.6,5.8-1.8,7.6
			c-1.2,1.8-3,3.1-5.4,3.9c-2.4,0.7-5.6,1.1-9.4,1.1C519.5,132.7,515.5,132.4,512.2,131.9z M532.4,111.9c1.4-0.8,2.1-2.4,2.1-4.6
			V91.4c0-1.6-0.3-2.8-0.8-3.6c-0.5-0.8-1.4-1.4-2.8-1.8c-1.4-0.4-3.3-0.5-5.9-0.5c-2.5,0-4.3,0.2-5.5,0.5c-1.2,0.3-2.1,0.9-2.5,1.8
			c-0.5,0.8-0.7,2.1-0.7,3.7v15.9c0,1.6,0.2,2.9,0.7,3.7c0.5,0.8,1.4,1.4,2.6,1.7c1.3,0.3,3.1,0.5,5.6,0.5
			C528.5,113.1,531,112.7,532.4,111.9z"/>
		<path class="st0" d="M552.3,81.7h6.2v5.7c0-1.1,0.5-2.2,1.4-3.2c1-1,2.2-1.8,3.7-2.4c1.5-0.6,3-0.9,4.4-0.9h3.2v5.6h-3.6
			c-3.1,0-5.3,0.4-6.7,1.2c-1.4,0.8-2.1,2.2-2.1,4.3v24.7h-6.5V81.7z"/>
		<path class="st0" d="M576.4,106.8V92.9c0-4.3,1.2-7.3,3.7-9.2c2.4-1.9,6.4-2.8,11.9-2.8c5.2,0,8.9,0.9,11.2,2.7
			c2.3,1.8,3.4,4.9,3.4,9.3v7.8H583v5.3c0,2.4,0.8,4.2,2.5,5.2c1.7,1.1,4.3,1.6,7.8,1.6c3.3,0,7.3-0.6,11.8-1.7v5
			c-4.4,1-8.7,1.4-12.7,1.4C581.8,117.5,576.4,113.9,576.4,106.8z M600,96.4v-5.5c0-2.1-0.6-3.6-1.9-4.4c-1.3-0.8-3.5-1.2-6.6-1.2
			c-3,0-5.2,0.4-6.5,1.2c-1.4,0.8-2,2.3-2,4.4v5.5H600z"/>
		<path class="st0" d="M615.2,116.6v-5c5.7,0.9,9.7,1.4,12.2,1.4c3.1,0,5.3-0.3,6.7-0.9c1.4-0.6,2-1.7,2-3.4v-3.6
			c0-1.5-0.5-2.6-1.5-3.2c-1-0.6-2.7-0.9-4.9-0.9h-4c-3.6,0-6.4-0.7-8.3-2.2c-1.9-1.5-2.9-3.6-2.9-6.3v-3.3c0-5.5,5.2-8.3,15.7-8.3
			c0.8,0,4.3,0.2,10.7,0.6v4.7c-4.3-0.7-7.9-1-10.9-1c-3.4,0-5.8,0.3-7,1c-1.3,0.7-1.9,1.8-1.9,3.4v3c0,2.4,2.1,3.6,6.5,3.6h4.1
			c7.4,0,11.1,2.8,11.1,8.3v3c0,3.6-1.3,6.2-3.8,7.7c-2.5,1.5-6.4,2.3-11.5,2.3C623.5,117.5,619.5,117.2,615.2,116.6z"/>
		<path class="st0" d="M650.2,116.6v-5c5.7,0.9,9.7,1.4,12.2,1.4c3.1,0,5.3-0.3,6.7-0.9c1.4-0.6,2-1.7,2-3.4v-3.6
			c0-1.5-0.5-2.6-1.5-3.2c-1-0.6-2.7-0.9-4.9-0.9h-4c-3.6,0-6.4-0.7-8.3-2.2c-1.9-1.5-2.9-3.6-2.9-6.3v-3.3c0-5.5,5.2-8.3,15.7-8.3
			c0.8,0,4.3,0.2,10.7,0.6v4.7c-4.3-0.7-7.9-1-10.9-1c-3.4,0-5.8,0.3-7,1c-1.3,0.7-1.9,1.8-1.9,3.4v3c0,2.4,2.1,3.6,6.5,3.6h4.1
			c7.4,0,11.1,2.8,11.1,8.3v3c0,3.6-1.3,6.2-3.8,7.7c-2.5,1.5-6.4,2.3-11.5,2.3C658.5,117.5,654.5,117.2,650.2,116.6z"/>
	</g>
</g>
<g id="Layer_6">
	<g>
		<g>
			<path class="st1" d="M268.7,160.6l11.7-40.2c-16.8-1.9-34.5-8.4-34.5-37.5c0-8.3,3-15,7.8-20.3c-0.8-1.9-3.4-9.6,0.7-20.1
				c0,0,6.4-2,20.8,7.8c6-1.7,12.5-2.5,19-2.6c6.4,0,12.9,0.9,19,2.6c14.5-9.8,20.8-7.8,20.8-7.8c4.1,10.4,1.5,18.1,0.8,20.1
				c4.9,5.3,7.8,12.1,7.8,20.3c0,29.1-17.7,35.5-34.6,37.4l11.3,40.9l-25,4.2L268.7,160.6z"/>
			<g>
				<g>
					<path class="st0" d="M339.4,19.4C300.9-5.7,248,6.2,224.7,46c-21.6,36.8-9.9,85.4,25.7,108.7c20.1,13.2,44.6,16.3,67.4,8.9
						c2.7-0.9,1.6-5.2-1.2-4.3c-19.1,6.1-39.3,4.8-57.2-4.5c-16.9-8.8-30.3-23.9-36.8-41.9C209,75,227.9,31.8,265.1,16.3
						c23.6-9.9,50.7-6.9,72,7C339.5,24.9,341.8,21,339.4,19.4L339.4,19.4z"/>
				</g>
			</g>
		</g>
	</g>
</g>
</svg>
