<svg xmlns="http://www.w3.org/2000/svg" width="140.9" height="101.4" viewBox="0 0 140.9 101.4"><style>.st0{fill:#f05135}.st1{fill:#083b54}.st2{fill:#6acad1}.st3{fill:#f59223}.st4{stroke:#f05135;stroke-width:2.5;stroke-miterlimit:10}.st4,.st5,.st6,.st7{fill:none}.st5,.st6,.st7,.st8{stroke-width:2.5;stroke-miterlimit:10}.st5{stroke:#083b54}.st6{stroke:#6acad1}.st7{stroke:#f59223}.st8{fill:#fdd9c8;stroke:#f05135}.st10,.st11,.st12,.st13,.st14,.st15,.st9{stroke-width:2.5;stroke-miterlimit:10}.st9{fill:#d3d5db;stroke:#083b54}.st10{fill:#e0f2f3;stroke:#6acad1}.st11{fill:#fee5cb;stroke:#f59223}.st12{stroke:#f05135}.st12,.st13,.st14,.st15{fill:#fff}.st13{stroke:#083b54}.st14{stroke:#6acad1}.st15{stroke:#f59223}.st16{fill:#e0f2f3}.st17,.st18{stroke-linejoin:round}.st17{stroke:#d3d5db;stroke-miterlimit:10;fill:#d3d5db}.st18{fill:#fff;stroke-width:2.5}.st18,.st19,.st20{stroke:#6acad1;stroke-miterlimit:10}.st19{stroke-linejoin:round;fill:#e0f2f3;stroke-width:2.5}.st20{fill:none;stroke-width:1.5}.st21{fill:#d3d5db}.st22{fill:#fff}.st23,.st24{fill:none;stroke:#f05135;stroke-miterlimit:10}.st24{stroke:#d3d5db;stroke-width:.5}.st25,.st26{stroke:#063b54}.st25,.st26,.st27,.st28{stroke-miterlimit:10}.st25{stroke-linejoin:round;fill:#083b54;stroke-width:.5}.st26{stroke-width:.7}.st26,.st27,.st28{fill:none}.st27{stroke:#d3d5db;stroke-width:.3}.st28{stroke:#6acad1;stroke-width:2.5;stroke-linejoin:round}.st29{fill:#063b54}.st30{fill:none;stroke:#f05135;stroke-width:2.5;stroke-linecap:round}.st30,.st31,.st32{stroke-miterlimit:10}.st31{stroke-linejoin:round;fill:#083b54;stroke:#063b54}.st32,.st33{fill:none;stroke:#e0f2f3}.st33{stroke:#6acad1;stroke-linecap:round}.st33,.st34,.st35{stroke-linejoin:round;stroke-miterlimit:10}.st34{stroke-width:2.5;stroke-linecap:round;fill:none;stroke:#6acad1}.st35{fill:#f05135;stroke:#f05235}.st36{stroke:#f05135;stroke-width:2;stroke-linecap:round}.st36,.st37,.st38,.st39,.st40{fill:none;stroke-miterlimit:10}.st37{stroke-linecap:round;stroke:#e0f2f3;stroke-width:1.5}.st38{stroke:#063b54;stroke-width:2.5}.st39,.st40{stroke:#fcc941;stroke-width:2}.st40{stroke:#f05135}</style><circle class="st16" cx="70.4" cy="50.7" r="50.7" id="Layer_3"/><g id="stuffs"><path class="st21" d="M139.3 83.4c-4.4-7.3-24.6-44.2-24.9-44.5-.1-.1-22.6-7.9-22.6-7.9s-21.3 7.3-21.5 7.3c-3.8-.7-23.3-6.9-23.3-6.9s-23 6.1-23.1 6.2c-.4.1-21.8 44.5-22.3 46.1-.1.3 34.3-4.3 34.3-4.3s28.1 3.7 33.8 4.1c.2 0 34-6.3 34-6.3s35.7 6.4 35.6 6.2z"/><path class="st16" d="M139.3 79.6c-4.4-7.3-24.6-44.2-24.9-44.5-.1-.1-22.6-7.9-22.6-7.9s-21.3 7.3-21.5 7.3c-3.8-.7-23.3-6.9-23.3-6.9s-23 6.1-23.1 6.2c-.4.1-21.8 44.5-22.3 46.1-.1.3 34.3-7.3 34.3-7.3s28.1 6.7 33.8 7.1c.2 0 34-9.3 34-9.3s35.7 9.4 35.6 9.2z"/><path class="st22" d="M91.8 27.2l-21.5 7.3-.5 45.3 34-9.3-12-43.3zm-44.8.4s-23 6.1-23.1 6.2c-.4.1-21.8 44.5-22.3 46.1-.1.3 34.3-7.3 34.3-7.3l11.1-45z"/><path class="st6" d="M139.3 79.6c-4.4-7.3-24.6-44.2-24.9-44.5-.1-.1-22.6-7.9-22.6-7.9s-21.3 7.3-21.5 7.3c-3.8-.7-23.3-6.9-23.3-6.9s-23 6.1-23.1 6.2c-.4.1-21.8 44.5-22.3 46.1-.1.3 34.3-7.3 34.3-7.3s28.1 6.7 33.8 7.1c.2 0 34-9.3 34-9.3s35.7 9.4 35.6 9.2z"/><path class="st21" d="M108.9 54.2c-2.3 0-3.3 1.1-2.4 2.6.9 1.4 6.3 4.2 6.8 4.2s2.3-2.7 1.4-4.2c-1-1.5-3.6-2.6-5.8-2.6zm1.6 2.5c-.7 0-1.5-.4-1.8-.8-.3-.4.1-.8.8-.8.7 0 1.5.4 1.8.8.3.5-.1.8-.8.8zM31.2 42c-2.3 0-3.3 1.1-2.4 2.6.9 1.4 6.3 4.2 6.8 4.2s2.3-2.7 1.4-4.2c-1-1.5-3.6-2.6-5.8-2.6zm1.6 2.6c-.7 0-1.5-.4-1.8-.8-.3-.4.1-.8.8-.8.7 0 1.5.4 1.8.8.3.4-.1.8-.8.8zm23 17.7c-2.3 0-3.3 1.1-2.4 2.6.9 1.4 6.3 4.2 6.8 4.2s2.3-2.7 1.4-4.2c-1-1.4-3.6-2.6-5.8-2.6zm1.6 2.6c-.7 0-1.5-.4-1.8-.8-.3-.4.1-.8.8-.8.7 0 1.5.4 1.8.8.3.4 0 .8-.8.8z"/><path class="st1" d="M35.6 35.3c-2.8 0-5.1 2.3-5.1 5.1s4.5 8.3 5.1 8.3c.6 0 5.1-5.5 5.1-8.3 0-2.8-2.3-5.1-5.1-5.1zm0 5.1c-.9 0-1.6-.7-1.6-1.6 0-.9.7-1.6 1.6-1.6.9 0 1.6.7 1.6 1.6 0 .9-.7 1.6-1.6 1.6zm24.6 15.2c-2.8 0-5.1 2.3-5.1 5.1s4.5 8.3 5.1 8.3c.6 0 5.1-5.5 5.1-8.3 0-2.8-2.3-5.1-5.1-5.1zm0 5.1c-.9 0-1.6-.7-1.6-1.6 0-.9.7-1.6 1.6-1.6.9 0 1.6.7 1.6 1.6 0 .9-.7 1.6-1.6 1.6zm53.4-13.4c-2.8 0-5.1 2.3-5.1 5.1s4.5 8.3 5.1 8.3c.6 0 5.1-5.5 5.1-8.3 0-2.8-2.3-5.1-5.1-5.1zm0 5.1c-.9 0-1.6-.7-1.6-1.6 0-.9.7-1.6 1.6-1.6.9 0 1.6.7 1.6 1.6 0 .9-.7 1.6-1.6 1.6z"/><path class="st21" d="M83 34.6c-1.2-1.8-4.2-3.2-7.1-3.6-.1.5-.3.9-.5 1.3h.3c1 0 2.2.5 2.6 1.1.4.6-.1 1.1-1.1 1.1-.6 0-1.3-.2-1.9-.5l-3.5 1.1c2.2 2.1 8.5 5.3 9.2 5.3.7.2 3.3-3.8 2-5.8z"/><path class="st0" d="M81.5 19.9c-4.3 0-7.8 3.5-7.8 7.8s6.8 12.7 7.8 12.7c.9 0 7.8-8.4 7.8-12.7-.1-4.3-3.6-7.8-7.8-7.8zm0 7.8c-1.3 0-2.4-1.1-2.4-2.4 0-1.3 1.1-2.4 2.4-2.4 1.3 0 2.4 1.1 2.4 2.4 0 1.3-1.1 2.4-2.4 2.4z"/></g></svg>