<?xml version="1.0" encoding="utf-8"?>
<!-- Generator: Adobe Illustrator 22.1.0, SVG Export Plug-In . SVG Version: 6.00 Build 0)  -->
<svg version="1.1" id="Layer_3" xmlns="http://www.w3.org/2000/svg" xmlns:xlink="http://www.w3.org/1999/xlink" x="0px" y="0px"
	 viewBox="0 0 16 16" style="enable-background:new 0 0 16 16;" xml:space="preserve">
<style type="text/css">
	.st0{fill:#CCCECC;}
	.st1{fill:#5E5E5E;}
	.st2{fill:#888988;}
</style>
<g>
	<g id="Layer_4_2_">
		<path class="st0" d="M10.8,13.1c-0.9,0.5-2,0.8-3.1,0.7c-3.1-0.2-5.5-2.7-5.6-5.8c0-3.3,2.6-5.9,5.9-5.9c0.9,0,1.8,0.2,2.6,0.6
			c0.4,0.2,0.9,0.1,1.2-0.2l0,0c0.5-0.5,0.4-1.4-0.3-1.7C10.7,0.4,9.4,0,8,0C3.5,0-0.1,3.7,0,8.2c0.1,4.3,3.6,7.8,8,7.8
			c1.4,0,2.7-0.3,3.8-1c0.6-0.3,0.7-1.1,0.3-1.6l0,0C11.7,13,11.2,12.9,10.8,13.1z"/>
		<g>
			<g>
				<g>
					<path class="st1" d="M3.9,13.3L3.9,13.3c-0.5,0.5-0.3,1.3,0.3,1.6c1.1,0.6,2.4,1,3.8,1c4.3,0,7.8-3.5,8-7.8
						C16.1,3.7,12.5,0,8,0C6.6,0,5.3,0.4,4.4,0.9C3.8,1.2,3.6,2.1,4.2,2.6l0,0C4.5,2.9,5,2.9,5.4,2.7C6.2,2.4,7.1,2.1,8,2.1
						c3.3,0,5.9,2.7,5.9,5.9c0,3.1-2.5,5.6-5.6,5.8c-1.1,0.1-2.2-0.2-3.1-0.7C4.8,12.9,4.3,13,3.9,13.3z"/>
				</g>
			</g>
		</g>
	</g>
	<g>
		<g>
			<path class="st2" d="M5.4,2.7C6.2,2.4,7.1,2.1,8,2.1c0,0,0,0,0,0c0,0,0,0,0,0c0.9,0,1.8,0.2,2.6,0.6c0.4,0.2,0.9,0.1,1.2-0.2
				c0.5-0.5,0.4-1.2-0.1-1.6C10.7,0.4,9.4,0,8,0C6.7,0,5.4,0.4,4.2,1C3.8,1.4,3.7,2.1,4.2,2.6C4.5,2.9,5,2.9,5.4,2.7z"/>
			<path class="st2" d="M10.9,13.1c-0.8,0.5-1.8,0.7-2.8,0.7c0,0,0,0,0,0s0,0,0,0c-1,0-2-0.2-2.8-0.7c-0.4-0.2-1-0.1-1.3,0.2
				c-0.4,0.4-0.4,1,0,1.4c1.2,0.7,2.6,1.2,4.1,1.2c1.5,0,2.9-0.4,4.1-1.2c0.4-0.4,0.4-1,0-1.4C11.9,13,11.3,12.9,10.9,13.1z"/>
		</g>
	</g>
</g>
</svg>
