<?xml version="1.0" encoding="utf-8"?>
<!-- Generator: Adobe Illustrator 22.0.1, SVG Export Plug-In . SVG Version: 6.00 Build 0)  -->
<svg version="1.1" id="Layer_1" xmlns="http://www.w3.org/2000/svg" xmlns:xlink="http://www.w3.org/1999/xlink" x="0px" y="0px"
	 viewBox="0 0 243.6 238.7" style="enable-background:new 0 0 243.6 238.7;" xml:space="preserve">
<style type="text/css">
	.st0{fill:#FFFFFF;}
</style>
<g>
	<path class="st0" d="M121.9,0.2C54.7,0.2,0.2,54.7,0.2,122c0,53.8,34.9,99.4,83.3,115.5c6.1,1.1,8.3-2.6,8.3-5.9
		c0-2.9-0.1-10.5-0.2-20.7c-33.9,7.4-41-16.3-41-16.3c-5.5-14.1-13.5-17.8-13.5-17.8c-11.1-7.6,0.8-7.4,0.8-7.4
		c12.2,0.9,18.6,12.5,18.6,12.5C67.4,200.5,85,195.1,91.9,192c1.1-7.9,4.3-13.2,7.7-16.3c-27-3.1-55.5-13.5-55.5-60.2
		c0-13.3,4.7-24.2,12.5-32.7c-1.3-3.1-5.4-15.5,1.2-32.2c0,0,10.2-3.3,33.5,12.5c9.7-2.7,20.1-4.1,30.5-4.1
		c10.3,0,20.8,1.4,30.5,4.1c23.2-15.8,33.4-12.5,33.4-12.5c6.6,16.8,2.5,29.1,1.2,32.2c7.8,8.5,12.5,19.4,12.5,32.7
		c0,46.8-28.5,57.1-55.6,60.1c4.4,3.8,8.3,11.2,8.3,22.5c0,16.3-0.1,29.4-0.1,33.4c0,3.3,2.2,7,8.4,5.9
		c48.3-16.1,83.2-61.7,83.2-115.5C243.7,54.8,189.2,0.2,121.9,0.2z"/>
</g>
</svg>
