<?xml version="1.0" encoding="utf-8"?>
<!-- Generator: Adobe Illustrator 22.1.0, SVG Export Plug-In . SVG Version: 6.00 Build 0)  -->
<svg version="1.1" id="Layer_1" xmlns="http://www.w3.org/2000/svg" xmlns:xlink="http://www.w3.org/1999/xlink" x="0px" y="0px"
	 viewBox="0 0 36 36" style="enable-background:new 0 0 36 36;" xml:space="preserve">
<style type="text/css">
	.st0{fill:#CCCECC;}
	.st1{fill:#5E5E5E;}
	.st2{fill:#888988;}
</style>
<g>
	<g id="Layer_4_2_">
		<path class="st0" d="M24.3,29.6c-2.1,1.1-4.5,1.7-7,1.6c-6.9-0.3-12.4-6.1-12.5-13C4.7,10.8,10.6,4.8,18,4.8
			c2.1,0,4.1,0.5,5.9,1.4c0.9,0.5,2,0.3,2.7-0.4l0,0c1.2-1.1,0.8-3.1-0.6-3.8C24,1,21.3,0,18,0C7.9,0-0.2,8.3,0,18.4
			c0.2,9.7,8.2,17.5,17.9,17.5c3.1,0,6.1-0.8,8.6-2.2c1.4-0.7,1.7-2.6,0.6-3.7l0,0C26.4,29.2,25.3,29,24.3,29.6z"/>
		<g>
			<g>
				<g>
					<path class="st1" d="M8.8,30.1L8.8,30.1c-1,1.1-0.7,3,0.6,3.7c2.6,1.4,5.5,2.2,8.6,2.2c9.7,0,17.7-7.9,17.9-17.5
						C36.2,8.3,28.1,0,18,0C14.7,0,12,1,10,1.9C8.5,2.7,8.2,4.6,9.4,5.8l0,0c0.7,0.7,1.8,0.9,2.7,0.4c1.8-0.9,3.8-1.4,5.9-1.4
						c7.4,0,13.3,6,13.2,13.4c-0.1,6.9-5.6,12.6-12.5,13c-2.5,0.1-4.9-0.5-7-1.6C10.7,29,9.6,29.2,8.8,30.1z"/>
				</g>
			</g>
		</g>
	</g>
	<g>
		<g>
			<path class="st2" d="M12.1,6.2c1.8-0.9,3.8-1.4,5.9-1.4c0,0,0.1,0,0.1,0c0,0,0.1,0,0.1,0c2.1,0,4.1,0.5,5.9,1.4
				c0.9,0.5,2,0.3,2.7-0.4c1.1-1,0.9-2.7-0.2-3.6C24.1,0.8,21.2,0,18.1,0c-3.1,0-6,0.8-8.6,2.2C8.4,3.1,8.3,4.7,9.3,5.8
				C10.1,6.5,11.2,6.6,12.1,6.2z"/>
			<path class="st2" d="M24.5,29.6c-1.9,1-4,1.6-6.3,1.6c0,0-0.1,0-0.1,0c0,0-0.1,0-0.1,0c-2.3,0-4.4-0.6-6.3-1.6
				c-1-0.5-2.1-0.3-2.9,0.5C8,31,8,32.4,8.8,33.3c2.7,1.7,5.9,2.6,9.3,2.7c3.4,0,6.6-1,9.3-2.7c0.8-0.9,0.9-2.3,0-3.2
				C26.7,29.2,25.5,29,24.5,29.6z"/>
		</g>
	</g>
</g>
</svg>
