<svg width="58" height="61" xmlns="http://www.w3.org/2000/svg"><style>.st0{fill:#36d6ae}</style><path id="svg_2" d="M46.2 46.7c-3.3 3.2-8.1 5.2-11.9 5.5-2.7.3-5.5.3-8.2 0-4-.5-6.9-1.6-9.8-2.7 1.4-1.4 2.9-3.3 3.5-5 .4-1 .3-2.1-.1-3-3.1-6.3-1.7-13.8 3.3-18.7 3.6-3.6 8.6-5.2 13.7-4.6 3.7.5 7.1 2.1 9.8 4.7 6.4 6.5 6.2 17.4-.3 23.8zm3.9-27.9c-2.3-2.3-5-4-7.9-5.1C43.9 8.8 49.9 7 49.9 7s-13.8-7.2-29-4.3c-5.1.8-10 3.9-13.5 8-7.7 8.9-6.7 22.4 2.3 30 1.4 1.2 4.5 3 4.5 3.1-2 5.2-8.5 6.6-8.5 6.6s8.6 5.4 20.1 6.8c3.1.4 6.3.5 9.6.1 5.3-.4 10.6-3.3 14.7-7.2 8.6-8.6 8.7-22.6 0-31.3z" class="st0"/></svg>